<?xml version="1.0" encoding="UTF-8" standalone="no"?>
<!-- Generator: Adobe Illustrator 15.0.0, SVG Export Plug-In  -->

<svg
   xmlns:dc="http://purl.org/dc/elements/1.1/"
   xmlns:cc="http://creativecommons.org/ns#"
   xmlns:rdf="http://www.w3.org/1999/02/22-rdf-syntax-ns#"
   xmlns:svg="http://www.w3.org/2000/svg"
   xmlns="http://www.w3.org/2000/svg"
   xmlns:sodipodi="http://sodipodi.sourceforge.net/DTD/sodipodi-0.dtd"
   xmlns:inkscape="http://www.inkscape.org/namespaces/inkscape"
   version="1.1"
   x="0px"
   y="0px"
   width="94.445999"
   height="39.757999"
   viewBox="-55.352 -75.89 94.445999 39.757999"
   overflow="visible"
   enable-background="new -55.352 -75.89 200 200"
   xml:space="preserve"
   id="svg2"
   inkscape:version="0.48.4 r9939"
   sodipodi:docname="logo.svg"
   style="overflow:visible"><metadata
   id="metadata48"><rdf:RDF><cc:Work
       rdf:about=""><dc:format>image/svg+xml</dc:format><dc:type
         rdf:resource="http://purl.org/dc/dcmitype/StillImage" /></cc:Work></rdf:RDF></metadata><sodipodi:namedview
   pagecolor="#ffffff"
   bordercolor="#666666"
   borderopacity="1"
   objecttolerance="10"
   gridtolerance="10"
   guidetolerance="10"
   inkscape:pageopacity="0"
   inkscape:pageshadow="2"
   inkscape:window-width="640"
   inkscape:window-height="480"
   id="namedview46"
   showgrid="false"
   fit-margin-top="0"
   fit-margin-left="0"
   fit-margin-right="0"
   fit-margin-bottom="0"
   inkscape:zoom="1.18"
   inkscape:cx="44.648"
   inkscape:cy="15.648"
   inkscape:window-x="0"
   inkscape:window-y="0"
   inkscape:window-maximized="0"
   inkscape:current-layer="svg2" />
<defs
   id="defs4">
</defs>
<path
   d="m -45.224,-75.89 c 1.671,4.868 3.605,7.334 6.87,10.698 2.143,2.213 3.259,4.979 3.259,7.575 0,5.774 -4.53,10.453 -10.129,10.453 -5.594,0.001 -10.128,-4.678 -10.128,-10.453 0,-2.597 1.121,-5.362 3.263,-7.575 3.261,-3.364 5.198,-5.83 6.865,-10.698"
   id="path6"
   inkscape:connector-curvature="0"
   style="fill:#5e5b5d" />
<path
   d="m -51.44,-57.394 c 0.044,3.507 2.809,6.331 6.216,6.331 3.41,0 6.174,-2.824 6.221,-6.331 h -6.221 l 10e-4,-6.331 c -3.408,0 -6.172,2.824 -6.217,6.331"
   id="path8"
   inkscape:connector-curvature="0"
   style="fill:#ffffff" />
<path
   d="m -16.373,-62.256 0.229,0.723 -3.289,0.25 -0.105,-0.276 c -0.443,-1.138 -1.688,-2.001 -3.33,-2.045 -2.528,-0.065 -4.408,1.773 -4.428,4.996 -0.018,3.394 1.919,5.375 4.361,5.335 1.941,-0.046 3.353,-1.222 3.713,-2.761 l 0.107,-0.422 h -3.566 v -2.615 h 6.873 v 0.378 c 0,5.313 -2.994,8.304 -7.338,8.241 -3.771,-0.063 -6.383,-2.274 -7.162,-6.026 -0.173,-0.845 -0.234,-1.709 -0.173,-2.572 0.259,-4.468 3.271,-7.291 7.335,-7.355 3.461,-0.065 5.927,1.643 6.773,4.149"
   id="path10"
   inkscape:connector-curvature="0"
   style="fill:#5e5b5d" />
<polygon
   points="66.828,12.56 62.91,12.56 62.91,25.12 59.783,25.12 59.783,12.56 55.931,12.56 55.931,9.759 66.828,9.759 "
   id="polygon12"
   style="fill:#5e5b5d"
   transform="translate(-55.352,-75.89)" />
<polygon
   points="78.253,12.542 71.784,12.542 71.784,15.975 77.873,15.975 77.873,18.735 71.761,18.735 71.761,22.321 78.192,22.321 78.192,25.143 68.577,25.143 68.577,9.735 78.253,9.735 "
   id="polygon14"
   style="fill:#5e5b5d"
   transform="translate(-55.352,-75.89)" />
<path
   d="m 27.333,-58.567 c -0.062,3.183 1.621,5.037 3.878,5.228 2.59,0.192 4.68,-1.749 4.68,-5.228 0,-3.011 -1.919,-5.016 -4.301,-4.994 -0.548,0 -1.095,0.103 -1.622,0.336 -1.6,0.697 -2.589,2.256 -2.635,4.658 m -3.184,-0.273 c 0.232,-4.533 3.332,-7.462 7.292,-7.545 4.325,-0.085 7.634,3.183 7.653,7.86 0,4.807 -3.328,8.052 -7.588,8.052 -4.299,0 -7.608,-3.392 -7.357,-8.367"
   id="path16"
   inkscape:connector-curvature="0"
   style="fill:#5e5b5d" />
<path
   d="m -11.487,-58.567 c -0.061,3.183 1.623,5.037 3.88,5.228 2.591,0.192 4.677,-1.749 4.677,-5.228 0,-3.011 -1.917,-5.016 -4.301,-4.994 -0.547,0 -1.095,0.103 -1.622,0.336 -1.603,0.697 -2.592,2.256 -2.634,4.658 m -3.183,-0.273 c 0.232,-4.533 3.33,-7.462 7.294,-7.545 4.317,-0.085 7.631,3.183 7.648,7.86 0,4.807 -3.331,8.052 -7.587,8.052 -4.297,0 -7.608,-3.392 -7.355,-8.367"
   id="path18"
   inkscape:connector-curvature="0"
   style="fill:#5e5b5d" />
<path
   d="m -26.038,-39.006 1.009,-2.873 h 0.689 l -1.418,3.866 h -0.574 l -0.928,-2.881 -0.944,2.881 h -0.599 l -1.347,-3.866 h 0.707 l 0.967,2.873 0.954,-2.873 h 0.574 l 0.91,2.873 z"
   id="path20"
   inkscape:connector-curvature="0"
   style="fill:#5e5b5d" />
<path
   d="m -20.055,-39.006 1.011,-2.873 h 0.689 l -1.42,3.866 h -0.576 l -0.926,-2.881 -0.945,2.881 h -0.599 l -1.346,-3.866 h 0.706 l 0.968,2.873 0.953,-2.873 h 0.575 l 0.91,2.873 z"
   id="path22"
   inkscape:connector-curvature="0"
   style="fill:#5e5b5d" />
<path
   d="m -14.071,-39.006 1.009,-2.873 h 0.689 l -1.419,3.866 h -0.574 l -0.928,-2.881 -0.944,2.881 h -0.599 l -1.347,-3.866 h 0.707 l 0.968,2.873 0.952,-2.873 h 0.575 l 0.911,2.873 z"
   id="path24"
   inkscape:connector-curvature="0"
   style="fill:#5e5b5d" />
<path
   d="m -11.297,-38.013 h -0.813 v -0.928 h 0.813 v 0.928 z"
   id="path26"
   inkscape:connector-curvature="0"
   style="fill:#5e5b5d" />
<path
   d="m -6.677,-38.218 c 0,0.524 -0.008,0.724 -0.09,1.002 -0.214,0.722 -0.771,0.92 -1.034,0.993 -0.131,0.032 -0.353,0.091 -0.673,0.091 -0.115,0 -0.354,-0.008 -0.648,-0.091 -0.936,-0.255 -1.067,-0.993 -1.117,-1.347 H -9.5 c 0,0.091 0,0.32 0.165,0.535 0.278,0.376 0.771,0.368 0.903,0.368 0.089,0 0.664,0.008 0.91,-0.394 0.156,-0.239 0.165,-0.518 0.165,-1.068 l -0.009,-0.443 c -0.442,0.608 -0.951,0.682 -1.264,0.682 -0.394,0 -0.689,-0.123 -0.812,-0.196 -0.419,-0.213 -0.977,-0.738 -0.977,-1.84 0,-0.18 0.008,-0.878 0.402,-1.402 0.329,-0.428 0.863,-0.674 1.396,-0.674 0.098,0 0.295,0.008 0.525,0.099 0.173,0.058 0.45,0.215 0.739,0.55 v -0.525 h 0.68 v 3.66 z m -2.396,-3.077 c -0.312,0.154 -0.673,0.558 -0.673,1.354 0,0.444 0.107,0.936 0.485,1.23 0.213,0.165 0.468,0.23 0.737,0.23 0.395,0 0.616,-0.146 0.739,-0.254 0.238,-0.213 0.452,-0.576 0.452,-1.266 0,-0.072 0,-0.352 -0.082,-0.59 -0.164,-0.525 -0.624,-0.821 -1.158,-0.821 -0.172,0.008 -0.352,0.043 -0.5,0.117 z"
   id="path28"
   inkscape:connector-curvature="0"
   style="fill:#5e5b5d" />
<path
   d="m -2.474,-38.537 c -0.212,0.253 -0.631,0.647 -1.436,0.647 -0.23,0 -0.87,-0.024 -1.339,-0.51 -0.246,-0.245 -0.565,-0.714 -0.565,-1.526 0,-0.499 0.131,-1 0.443,-1.402 0.377,-0.484 0.878,-0.674 1.485,-0.674 0.263,0 0.542,0.05 0.772,0.147 0.451,0.189 1.108,0.739 1.091,1.913 0.001,0.213 -0.025,0.869 -0.451,1.405 z m -0.451,-2.398 c -0.058,-0.106 -0.148,-0.222 -0.239,-0.295 -0.277,-0.239 -0.583,-0.247 -0.705,-0.247 -1.24,0 -1.23,1.355 -1.23,1.576 0,0.19 0.024,0.338 0.032,0.395 0.04,0.28 0.238,1.091 1.157,1.091 0.181,-0.008 0.624,-0.041 0.92,-0.484 0.246,-0.37 0.254,-0.968 0.263,-1.05 0,-0.107 0.007,-0.607 -0.198,-0.986 z"
   id="path30"
   inkscape:connector-curvature="0"
   style="fill:#5e5b5d" />
<path
   d="m 0.432,-41.879 v 0.542 h -0.698 v 2.216 c -0.008,0.271 -0.016,0.428 0.05,0.543 0.049,0.09 0.131,0.114 0.238,0.114 0.073,0 0.229,-0.024 0.41,-0.091 v 0.542 c -0.05,0.009 -0.37,0.065 -0.623,0.065 -0.37,0 -0.559,-0.091 -0.658,-0.238 -0.098,-0.147 -0.098,-0.303 -0.091,-0.639 v -2.513 h -0.623 v -0.542 h 0.623 v -1.224 h 0.674 v 1.224 h 0.698 z"
   id="path32"
   inkscape:connector-curvature="0"
   style="fill:#5e5b5d" />
<path
   d="m 1.728,-39.827 c -0.008,0.688 0.321,1.083 0.559,1.248 0.197,0.13 0.451,0.195 0.697,0.195 0.354,0 0.533,-0.131 0.649,-0.237 0.04,-0.033 0.139,-0.132 0.213,-0.253 0.099,-0.174 0.14,-0.363 0.156,-0.412 l 0.665,0.09 c -0.033,0.082 -0.106,0.314 -0.255,0.542 -0.196,0.296 -0.624,0.764 -1.493,0.764 -0.402,0 -0.665,-0.09 -0.813,-0.156 -0.476,-0.206 -1.084,-0.73 -1.084,-1.937 0,-0.715 0.238,-1.116 0.436,-1.354 0.353,-0.427 0.886,-0.665 1.437,-0.665 0.196,0 0.427,0.041 0.607,0.106 0.238,0.083 0.715,0.312 0.977,0.921 0.107,0.254 0.189,0.557 0.189,1.141 l -2.94,0.007 z m 2.224,-0.475 c -0.016,-0.197 -0.033,-0.288 -0.058,-0.379 -0.131,-0.476 -0.541,-0.812 -1.05,-0.812 -0.697,0 -1.042,0.575 -1.1,1.191 h 2.208 z"
   id="path34"
   inkscape:connector-curvature="0"
   style="fill:#5e5b5d" />
<path
   d="m 8.648,-38.537 c -0.213,0.253 -0.633,0.647 -1.436,0.647 -0.23,0 -0.87,-0.024 -1.339,-0.51 -0.246,-0.245 -0.566,-0.714 -0.566,-1.526 0,-0.499 0.132,-1 0.443,-1.402 0.378,-0.484 0.878,-0.674 1.486,-0.674 0.263,0 0.542,0.05 0.771,0.147 0.452,0.189 1.109,0.739 1.092,1.913 0,0.213 -0.024,0.869 -0.451,1.405 z m -0.453,-2.398 c -0.057,-0.106 -0.147,-0.222 -0.238,-0.295 -0.277,-0.239 -0.581,-0.247 -0.704,-0.247 -1.241,0 -1.231,1.355 -1.231,1.576 0,0.19 0.024,0.338 0.032,0.395 0.041,0.28 0.238,1.091 1.158,1.091 0.18,-0.008 0.623,-0.041 0.918,-0.484 0.246,-0.37 0.255,-0.968 0.263,-1.05 0,-0.107 0.008,-0.607 -0.198,-0.986 z"
   id="path36"
   inkscape:connector-curvature="0"
   style="fill:#5e5b5d" />
<path
   d="m 10.937,-38.013 h -0.812 v -0.928 h 0.812 v 0.928 z"
   id="path38"
   inkscape:connector-curvature="0"
   style="fill:#5e5b5d" />
<path
   d="m 15.148,-38.537 c -0.213,0.253 -0.632,0.647 -1.437,0.647 -0.229,0 -0.87,-0.024 -1.339,-0.51 -0.244,-0.245 -0.565,-0.714 -0.565,-1.526 0,-0.499 0.132,-1 0.444,-1.402 0.376,-0.484 0.877,-0.674 1.484,-0.674 0.263,0 0.543,0.05 0.772,0.147 0.451,0.189 1.107,0.739 1.091,1.913 10e-4,0.213 -0.024,0.869 -0.45,1.405 z m -0.452,-2.398 c -0.058,-0.106 -0.147,-0.222 -0.238,-0.295 -0.279,-0.239 -0.582,-0.247 -0.706,-0.247 -1.239,0 -1.231,1.355 -1.231,1.576 0,0.19 0.024,0.338 0.032,0.395 0.042,0.28 0.238,1.091 1.158,1.091 0.181,-0.008 0.623,-0.041 0.92,-0.484 0.246,-0.37 0.254,-0.968 0.263,-1.05 0,-0.107 0.007,-0.607 -0.198,-0.986 z"
   id="path40"
   inkscape:connector-curvature="0"
   style="fill:#5e5b5d" />
<path
   d="m 17.117,-41.172 c 0.089,-0.173 0.204,-0.33 0.36,-0.444 0.156,-0.132 0.46,-0.312 0.961,-0.312 v 0.707 c -0.238,-0.032 -0.369,-0.025 -0.484,0 -0.386,0.065 -0.681,0.328 -0.779,0.706 -0.058,0.195 -0.065,0.336 -0.058,0.715 v 1.788 H 16.46 v -3.866 h 0.657 v 0.706 z"
   id="path42"
   inkscape:connector-curvature="0"
   style="fill:#5e5b5d" />
<path
   d="m 22.575,-38.218 c 0,0.524 -0.007,0.724 -0.089,1.002 -0.215,0.722 -0.772,0.92 -1.035,0.993 -0.132,0.032 -0.354,0.091 -0.673,0.091 -0.115,0 -0.354,-0.008 -0.649,-0.091 -0.935,-0.255 -1.066,-0.993 -1.115,-1.347 h 0.738 c 0,0.091 0,0.32 0.165,0.535 0.278,0.376 0.771,0.368 0.902,0.368 0.09,0 0.665,0.008 0.911,-0.394 0.156,-0.239 0.164,-0.518 0.164,-1.068 l -0.008,-0.443 c -0.443,0.608 -0.951,0.682 -1.264,0.682 -0.394,0 -0.69,-0.123 -0.812,-0.196 -0.419,-0.213 -0.978,-0.738 -0.978,-1.84 0,-0.18 0.009,-0.878 0.402,-1.402 0.329,-0.428 0.862,-0.674 1.396,-0.674 0.098,0 0.295,0.008 0.524,0.099 0.173,0.058 0.452,0.215 0.739,0.55 v -0.525 h 0.681 v 3.66 z m -2.396,-3.077 c -0.312,0.154 -0.673,0.558 -0.673,1.354 0,0.444 0.106,0.936 0.483,1.23 0.215,0.165 0.469,0.23 0.739,0.23 0.395,0 0.616,-0.146 0.739,-0.254 0.237,-0.213 0.452,-0.576 0.452,-1.266 0,-0.072 0,-0.352 -0.082,-0.59 -0.165,-0.525 -0.625,-0.821 -1.158,-0.821 -0.172,0.008 -0.353,0.043 -0.5,0.117 z"
   id="path44"
   inkscape:connector-curvature="0"
   style="fill:#5e5b5d" />
</svg>