<?xml version="1.0" encoding="UTF-8" standalone="no"?>
<!-- Generator: Adobe Illustrator 15.0.0, SVG Export Plug-In  -->

<svg
   xmlns:dc="http://purl.org/dc/elements/1.1/"
   xmlns:cc="http://creativecommons.org/ns#"
   xmlns:rdf="http://www.w3.org/1999/02/22-rdf-syntax-ns#"
   xmlns:svg="http://www.w3.org/2000/svg"
   xmlns="http://www.w3.org/2000/svg"
   xmlns:sodipodi="http://sodipodi.sourceforge.net/DTD/sodipodi-0.dtd"
   xmlns:inkscape="http://www.inkscape.org/namespaces/inkscape"
   version="1.1"
   x="0px"
   y="0px"
   width="91.884003"
   height="91.943001"
   viewBox="-5.655 -2.721 91.884003 91.943001"
   overflow="visible"
   enable-background="new -5.655 -2.721 100 100"
   xml:space="preserve"
   id="svg2"
   inkscape:version="0.48.4 r9939"
   sodipodi:docname="twitter.svg"
   style="overflow:visible"><metadata
   id="metadata36"><rdf:RDF><cc:Work
       rdf:about=""><dc:format>image/svg+xml</dc:format><dc:type
         rdf:resource="http://purl.org/dc/dcmitype/StillImage" /></cc:Work></rdf:RDF></metadata><sodipodi:namedview
   pagecolor="#ffffff"
   bordercolor="#666666"
   borderopacity="1"
   objecttolerance="10"
   gridtolerance="10"
   guidetolerance="10"
   inkscape:pageopacity="0"
   inkscape:pageshadow="2"
   inkscape:window-width="640"
   inkscape:window-height="480"
   id="namedview34"
   showgrid="false"
   fit-margin-top="0"
   fit-margin-left="0"
   fit-margin-right="0"
   fit-margin-bottom="0"
   inkscape:zoom="2.36"
   inkscape:cx="44.345"
   inkscape:cy="44.664"
   inkscape:window-x="0"
   inkscape:window-y="0"
   inkscape:window-maximized="0"
   inkscape:current-layer="svg2" />
<defs
   id="defs4">
</defs>
<g
   id="g6"
   transform="translate(-5.655,-2.721)">
	<path
   clip-rule="evenodd"
   d="M 19.322,86.083 C 11.9,86.083 5.861,80.044 5.861,72.621 V 19.322 C 5.861,11.9 11.9,5.861 19.322,5.861 h 53.235 c 7.426,0 13.467,6.039 13.467,13.461 v 53.299 c 0,7.423 -6.041,13.462 -13.467,13.462 H 19.322 z"
   id="path8"
   inkscape:connector-curvature="0"
   style="fill:#e7e2e4;fill-rule:evenodd" />
	<path
   d="m 72.557,11.721 c 4.202,0 7.606,3.403 7.606,7.601 v 53.299 c 0,4.198 -3.404,7.602 -7.606,7.602 H 19.322 c -4.198,0 -7.601,-3.403 -7.601,-7.602 V 19.322 c 0,-4.197 3.403,-7.601 7.601,-7.601 H 72.557 M 72.557,0 H 19.322 C 8.668,0 0,8.668 0,19.322 v 53.299 c 0,10.654 8.668,19.322 19.322,19.322 h 53.235 c 10.657,0 19.327,-8.668 19.327,-19.322 V 19.322 C 91.884,8.668 83.214,0 72.557,0 l 0,0 z"
   id="path10"
   inkscape:connector-curvature="0"
   style="fill:#e7e2e4" />
</g>
<path
   clip-rule="evenodd"
   d="M 66.902,77.502 H 13.667 C 9.469,77.502 6.066,74.099 6.066,69.9 V 16.601 C 6.066,12.404 9.469,9 13.667,9 h 53.235 c 4.202,0 7.606,3.403 7.606,7.601 V 69.9 c 0.001,4.198 -3.404,7.602 -7.606,7.602 z M 49.563,43.355 c 2.77,0 5.015,-2.216 5.015,-5.009 0,-2.789 -2.245,-5.055 -5.015,-5.055 -4.744,0 -13.633,-0.017 -13.633,-0.017 0,0 0.025,-1.656 0.025,-3.838 -0.025,-2.771 -2.245,-5.008 -5,-5.008 -2.76,0 -5.005,2.266 -5.005,5.054 0,14.413 -0.007,18.786 -0.007,18.786 0.015,7.58 6.095,13.713 13.6,13.713 6.848,0 4.759,-0.024 10.021,-0.024 2.77,0 5.015,-2.217 5.015,-5.009 0,-2.793 -2.245,-4.922 -5.015,-4.922 -1.129,0 -5.451,0.029 -8.6,-0.012 -2.784,0 -5,-2.275 -5.012,-5.084 0.054,-2.216 -0.021,-3.571 -0.021,-3.571 0,0 7.867,-0.004 13.632,-0.004 z"
   id="path12"
   inkscape:connector-curvature="0"
   style="fill:#9fcdec;fill-rule:evenodd" />
<path
   d="m 52.318,52.818 c -0.602,-0.382 -1.295,-0.637 -2.039,-0.737 -0.234,-0.032 -0.472,-0.055 -0.716,-0.055 -1.129,0 -5.451,0.029 -8.6,-0.012 -0.196,0 -0.389,-0.015 -0.578,-0.037 -2.506,-0.29 -4.423,-2.436 -4.434,-5.047 0.054,-2.216 -0.021,-3.571 -0.021,-3.571 0,0 7.427,-0.004 13.137,-0.004 0.167,0 0.333,0 0.496,0 2.77,0 5.015,-2.216 5.015,-5.009 0,-0.149 -0.01,-0.296 -0.022,-0.442 -0.223,-2.582 -2.372,-4.613 -4.992,-4.613 -4.744,0 -13.633,-0.017 -13.633,-0.017 0,0 0.025,-1.656 0.025,-3.838 -0.025,-2.771 -2.245,-5.008 -5,-5.008 -2.76,0 -5.005,2.266 -5.005,5.054 0,14.413 -0.007,18.786 -0.007,18.786 0.009,4.926 2.582,9.238 6.441,11.656 2.08,1.302 4.531,2.057 7.159,2.057 0.271,0 0.523,0 0.768,0 1.204,0 2.093,-0.001 2.784,-0.003 1.135,-0.003 1.749,-0.008 2.37,-0.012 0.868,-0.005 1.753,-0.01 4.099,-0.01 2.77,0 5.015,-2.217 5.015,-5.009 0,-1.151 -0.387,-2.187 -1.029,-3.01 -0.346,-0.438 -0.759,-0.817 -1.233,-1.119 z"
   id="path14"
   inkscape:connector-curvature="0"
   style="fill:none" />
<path
   d="m 53.549,53.938 c 0.643,0.823 1.029,1.858 1.029,3.01 0,2.792 -2.245,5.009 -5.015,5.009 -2.346,0 -3.23,0.005 -4.099,0.01 L 29.823,77.502 h 37.079 c 4.202,0 7.606,-3.403 7.606,-7.602 V 33.121 L 53.549,53.938 z"
   id="path16"
   inkscape:connector-curvature="0"
   style="fill:none" />
<path
   d="m 35.951,46.93 c 0.011,2.611 1.928,4.757 4.434,5.047 l 8.682,-8.622 c -5.71,0 -13.137,0.004 -13.137,0.004 0,0 0.076,1.355 0.021,3.571 z"
   id="path18"
   inkscape:connector-curvature="0"
   style="fill:none" />
<path
   d="M 40.31,61.981 24.683,77.502 h 2.782 l 15.63,-15.524 c -0.692,0.002 -1.581,0.003 -2.785,0.003 z"
   id="path20"
   inkscape:connector-curvature="0"
   style="fill:none" />
<path
   d="m 52.318,52.818 22.19,-22.04 V 28.015 L 50.279,52.081 c 0.744,0.1 1.438,0.355 2.039,0.737 z"
   id="path22"
   inkscape:connector-curvature="0"
   style="fill:none" />
<path
   d="m 25.943,48.268 c 0,0 0.007,-4.373 0.007,-18.786 0,-2.789 2.245,-5.054 5.005,-5.054 2.754,0 4.975,2.236 5,5.008 0,2.183 -0.025,3.838 -0.025,3.838 0,0 8.889,0.017 13.633,0.017 2.62,0 4.77,2.031 4.992,4.613 L 74.508,18.087 V 16.601 C 74.508,12.404 71.104,9 66.902,9 H 13.667 C 9.469,9 6.066,12.403 6.066,16.601 V 69.9 c 0,4.198 3.403,7.602 7.601,7.602 h 1.02 L 32.385,59.925 c -3.86,-2.418 -6.433,-6.731 -6.442,-11.657 z"
   id="path24"
   inkscape:connector-curvature="0"
   style="fill:none" />
<path
   d="m 39.543,61.981 c -2.627,0 -5.079,-0.755 -7.159,-2.057 L 14.686,77.502 h 9.997 L 40.31,61.981 c -0.244,0 -0.497,0 -0.767,0 z"
   id="path26"
   inkscape:connector-curvature="0"
   style="fill:#c5e1f4" />
<path
   d="m 54.578,38.346 c 0,2.793 -2.245,5.009 -5.015,5.009 -0.163,0 -0.329,0 -0.496,0 l -8.682,8.622 c 0.189,0.022 0.382,0.037 0.578,0.037 3.148,0.041 7.471,0.012 8.6,0.012 0.244,0 0.481,0.022 0.716,0.055 L 74.508,28.016 V 18.087 L 54.555,37.904 c 0.013,0.146 0.023,0.293 0.023,0.442 z"
   id="path28"
   inkscape:connector-curvature="0"
   style="fill:#c5e1f4" />
<path
   d="m 53.549,53.938 20.96,-20.817 v -2.342 l -22.19,22.04 c 0.473,0.301 0.886,0.68 1.23,1.119 z"
   id="path30"
   inkscape:connector-curvature="0"
   style="fill:#d9ebf7" />
<path
   d="m 43.095,61.978 -15.63,15.524 h 2.358 L 45.465,61.967 c -0.621,0.003 -1.236,0.008 -2.37,0.011 z"
   id="path32"
   inkscape:connector-curvature="0"
   style="fill:#d9ebf7" />
</svg>