<?xml version="1.0" encoding="utf-8"?>
<!-- Generator: Adobe Illustrator 16.0.0, SVG Export Plug-In . SVG Version: 6.00 Build 0)  -->
<!DOCTYPE svg PUBLIC "-//W3C//DTD SVG 1.1//EN" "http://www.w3.org/Graphics/SVG/1.1/DTD/svg11.dtd">
<svg version="1.1" id="Capa_1" xmlns="http://www.w3.org/2000/svg" xmlns:xlink="http://www.w3.org/1999/xlink" x="0px" y="0px"
	 width="124px" height="136.666px" viewBox="0 0 124 136.666" enable-background="new 0 0 124 136.666" xml:space="preserve">
<path fill="#383333" d="M76.892,19.973c0,6.656-5.174,12.052-11.555,12.052c-6.376,0-11.551-5.396-11.551-12.052
	c0-6.65,5.175-12.045,11.551-12.045C71.717,7.927,76.892,13.323,76.892,19.973"/>
<path fill="#383333" d="M49.948,45.977c0-1.545,6.556-2.802,14.641-2.802c8.093,0,14.645,1.257,14.645,2.802
	c0,1.547-6.552,2.804-14.645,2.804C56.504,48.776,49.948,47.524,49.948,45.977 M31.416,64.405c0-2.005,1.562-3.634,3.486-3.634
	c1.925,0,3.483,1.629,3.483,3.634c0,2.013-1.562,3.638-3.483,3.638C32.977,68.042,31.416,66.414,31.416,64.405 M31.285,52.316
	c-4.439,4.701-7.725,10.348-9.503,16.562l-6.671,1.293c-1.708,0.327-3.102,2.081-3.102,3.891v10.926c0,1.811,1.394,3.56,3.102,3.887
	l6.773,1.308c1.88,6.384,5.367,12.131,10.047,16.865v16.578c0,2.256,1.766,4.1,3.932,4.1h7.422c2.167,0,4.476-1.749,5.142-3.896
	l1.762-5.661c4.521,1.443,9.352,2.265,14.4,2.265c5.755,0,11.236-1.046,16.276-2.897l-2.354-12.353l5.804,18.646
	c0.662,2.146,2.979,3.896,5.142,3.896h7.431c2.154,0,3.923-1.844,3.923-4.1v-20.731c5.064-6.67,8.102-14.763,8.102-23.543
	c0-22.691-19.844-41.09-44.323-41.09c-6.973,0-13.55,1.522-19.423,4.189c-0.899-3.942-4.296-6.906-8.338-6.906H24.786
	c-4.279,0-5.256,2.532-2.178,5.628l15.859,15.947L31.285,52.316z"/>
<path fill="#FFFFFF" d="M63.587,94.673c-5.098,0-9.232-4.225-9.298-9.471c0.065-5.245,4.2-9.471,9.299-9.471l-0.001,9.471h9.304
	C72.821,90.449,68.687,94.673,63.587,94.673 M73.863,73.539c-4.883-5.031-7.776-8.721-10.275-16.002
	c-2.494,7.282-5.392,10.971-10.269,16.002c-3.206,3.31-4.882,7.446-4.882,11.329c0,8.639,6.783,15.639,15.15,15.639
	c8.373,0,15.149-7,15.149-15.639C78.737,80.984,77.068,76.849,73.863,73.539"/>
</svg>
