<?xml version="1.0" encoding="UTF-8"?>
<svg width="39px" height="35px" viewBox="0 0 39 35" version="1.1" xmlns="http://www.w3.org/2000/svg" xmlns:xlink="http://www.w3.org/1999/xlink">
    <!-- Generator: Sketch 54.1 (76490) - https://sketchapp.com -->
    <title>Fill 2</title>
    <desc>Created with Sketch.</desc>
    <g id="CrowdCoop_Design" stroke="none" stroke-width="1" fill="none" fill-rule="evenodd">
        <g id="03_Bases" transform="translate(-151.000000, -3444.000000)" fill="#15AE98">
            <g id="07" transform="translate(150.000000, 3440.000000)">
                <path d="M1.40349344,19.3495582 L39,4 L15.0444327,26 L1.40740444,20.5456947 C1.1623147,20.4475237 1.00065976,20.211784 1.00000792,19.9489182 C0.998704253,19.6866982 1.15840369,19.4496668 1.40349344,19.3495582 Z M15,27.258697 L40,5 L33.1847511,34.5230867 C33.1399789,34.716635 33.0036871,34.8785579 32.8166974,34.9614168 C32.7291283,35 32.6356334,35.0189753 32.5421385,35.0189753 C32.434817,35.0189753 32.3281538,34.9936749 32.2313669,34.944339 L21.8876745,29.6331436 L16.2226758,38.6932321 C16.1015275,38.887413 15.8855676,39 15.6584145,39 C15.5998156,39 15.5405583,38.9930424 15.4826179,38.9772296 C15.1975244,38.9013283 15,38.6521189 15,38.3674889 L15,27.258697 Z" id="Fill-2"></path>
            </g>
        </g>
    </g>
</svg>