<?xml version="1.0" encoding="UTF-8"?>
<svg width="38px" height="37px" viewBox="0 0 38 37" version="1.1" xmlns="http://www.w3.org/2000/svg" xmlns:xlink="http://www.w3.org/1999/xlink">
    <!-- Generator: Sketch 54.1 (76490) - https://sketchapp.com -->
    <title>Group</title>
    <desc>Created with Sketch.</desc>
    <g id="CrowdCoop_Design" stroke="none" stroke-width="1" fill="none" fill-rule="evenodd">
        <g id="03_Bases" transform="translate(-152.000000, -602.000000)" fill="#15AE98">
            <g id="01" transform="translate(150.000000, 602.000000)">
                <g id="Group" transform="translate(2.000000, 0.000000)">
                    <path d="M6.59215561,10.2567895 C6.01867249,10.2567895 5.44323542,10.0575088 4.9781963,9.65148246 C3.95953917,8.76250877 3.85728267,7.2192193 4.74925897,6.20431579 C8.21360505,2.2612193 13.2147296,7.99360578e-15 18.4698671,7.99360578e-15 C23.719794,7.99360578e-15 28.7173363,2.25764912 32.1816824,6.19392982 C33.07431,7.20818421 32.9730305,8.75179825 31.9553503,9.64142105 C30.9373445,10.5313684 29.3885167,10.4301053 28.4962148,9.41585088 C25.9625983,6.53699123 22.3080681,4.88594737 18.4698671,4.88594737 C14.6280838,4.88594737 10.9709484,6.53991228 8.43700619,9.42331579 C7.95275327,9.97474561 7.27408273,10.2567895 6.59215561,10.2567895" id="Fill-1"></path>
                    <path d="M15.5512255,10.4688254 C15.5512255,8.77299211 16.9303857,7.39847456 18.6319469,7.39847456 C20.3335081,7.39847456 21.7126682,8.77299211 21.7126682,10.4688254 C21.7126682,12.1646588 20.3335081,13.5391763 18.6319469,13.5391763 C16.9303857,13.5391763 15.5512255,12.1646588 15.5512255,10.4688254" id="Fill-4"></path>
                    <path d="M17.7665768,32.6410754 C18.0694384,33.1262947 18.203935,33.7186193 18.1036325,34.3265228 C17.8844649,35.6581982 16.6238441,36.5601544 15.2883221,36.3417246 C10.0986418,35.4939702 5.52966496,32.4576982 2.75245652,28.0108825 C-0.0211696772,23.5692596 -0.739244795,18.1474614 0.783530375,13.1359088 C1.17594784,11.8448035 2.54436129,11.1151895 3.83982742,11.5059614 C5.1356192,11.8970579 5.8676976,13.2608649 5.47560579,14.5522947 C4.36185663,18.2172421 4.8864911,22.1814351 6.9150126,25.4293211 C8.94516239,28.6801281 12.2864099,30.9001281 16.0812985,31.5206895 C16.807515,31.6391544 17.4063994,32.0643298 17.7665768,32.6410754" id="Fill-6"></path>
                    <path d="M13.2127756,24.9485807 C11.7678326,25.8446947 9.86859722,25.4039404 8.96978211,23.9645105 C8.07064134,22.5247561 8.51255877,20.6312649 9.9571761,19.7354754 C11.4014678,18.8393614 13.3010288,19.2797912 14.2001696,20.7195456 C15.0993104,22.1589754 14.657393,24.0524667 13.2127756,24.9485807" id="Fill-8"></path>
                    <path d="M19.8340795,32.8847886 C19.5442442,33.3777974 19.4257048,33.9733675 19.5422903,34.5786746 C19.7969545,35.9038588 21.0813483,36.7723851 22.4110085,36.5179289 C27.5756132,35.5319114 32.0615473,32.3749026 34.7179367,27.8560342 C37.3720466,23.3417096 37.9439014,17.9027096 36.2869553,12.9336746 C35.8603438,11.6532798 34.4730422,10.9603412 33.1883228,11.3858412 C31.9036033,11.8110167 31.2083242,13.1942974 31.6349358,14.4743675 C32.8463822,18.1084816 32.4285635,22.085657 30.4882952,25.3861219 C28.546073,28.6898325 25.2657235,30.9984377 21.4884204,31.7196132 C20.7657861,31.8575518 20.178951,32.2983061 19.8340795,32.8847886" id="Fill-10"></path>
                    <path d="M24.1795575,25.0734719 C25.6476222,25.9306386 27.5348083,25.4395772 28.3948701,23.9764544 C29.254932,22.5133316 28.7622119,20.6324982 27.2938216,19.7753316 C25.8264082,18.9181649 23.9388965,19.4092263 23.0788346,20.8723491 C22.2187728,22.3351474 22.7114928,24.2163053 24.1795575,25.0734719" id="Fill-12"></path>
                </g>
            </g>
        </g>
    </g>
</svg>