<?xml version="1.0" encoding="UTF-8"?>
<svg width="39px" height="30px" viewBox="0 0 39 30" version="1.1" xmlns="http://www.w3.org/2000/svg" xmlns:xlink="http://www.w3.org/1999/xlink">
    <!-- Generator: Sketch 54.1 (76490) - https://sketchapp.com -->
    <title>Fill 1</title>
    <desc>Created with Sketch.</desc>
    <g id="CrowdCoop_Design" stroke="none" stroke-width="1" fill="none" fill-rule="evenodd">
        <g id="03_Bases" transform="translate(-151.000000, -3521.000000)" fill="#15AE98">
            <g id="08" transform="translate(151.000000, 3512.000000)">
                <path d="M28,25 L31.9996934,14 L36,25 L28,25 Z M10,25 L2,25 L5.99969337,14 L10,25 Z M38.35,24.6521739 L38.14005,24.6521739 L33.4607,12.9130435 L35.1,12.9130435 C35.45945,12.9130435 35.75,12.6208696 35.75,12.2608696 C35.75,11.9008696 35.45945,11.6086957 35.1,11.6086957 L22.03435,11.6086957 C21.73275,10.1223913 20.41975,9 18.85,9 C17.28025,9 15.9679,10.1223913 15.6663,11.6086957 L3.9,11.6086957 C3.5412,11.6086957 3.25,11.9008696 3.25,12.2608696 C3.25,12.6208696 3.5412,12.9130435 3.9,12.9130435 L5.53995,12.9130435 L0.8606,24.6521739 L0.65,24.6521739 C0.2912,24.6521739 0,24.9443478 0,25.3043478 C0,28.9004348 2.91655,31.826087 6.5,31.826087 C10.0841,31.826087 13,28.9004348 13,25.3043478 C13,24.9443478 12.70945,24.6521739 12.35,24.6521739 L12.14005,24.6521739 L7.4607,12.9130435 L15.6663,12.9130435 C15.925,14.1886957 16.9286,15.1956522 18.2,15.4558696 L18.2,37.6956522 L13.65,37.6956522 C13.2912,37.6956522 13,37.9878261 13,38.3478261 C13,38.7078261 13.2912,39 13.65,39 L25.35,39 C25.70945,39 26,38.7078261 26,38.3478261 C26,37.9878261 25.70945,37.6956522 25.35,37.6956522 L19.5,37.6956522 L19.5,15.4558696 C20.77205,15.1956522 21.775,14.1886957 22.03435,12.9130435 L31.53995,12.9130435 L26.8606,24.6521739 L26.65,24.6521739 C26.2912,24.6521739 26,24.9443478 26,25.3043478 C26,28.9004348 28.91655,31.826087 32.5,31.826087 C36.0841,31.826087 39,28.9004348 39,25.3043478 C39,24.9443478 38.70945,24.6521739 38.35,24.6521739 L38.35,24.6521739 Z" id="Fill-1"></path>
            </g>
        </g>
    </g>
</svg>