<?xml version="1.0" encoding="UTF-8"?>
<svg width="39px" height="39px" viewBox="0 0 39 39" version="1.1" xmlns="http://www.w3.org/2000/svg" xmlns:xlink="http://www.w3.org/1999/xlink">
    <!-- Generator: Sketch 54.1 (76490) - https://sketchapp.com -->
    <title>Fill 17</title>
    <desc>Created with Sketch.</desc>
    <g id="CrowdCoop_Design" stroke="none" stroke-width="1" fill="none" fill-rule="evenodd">
        <g id="03_Bases" transform="translate(-151.000000, -3364.000000)" fill="#15AE98">
            <g id="06" transform="translate(150.000000, 3364.000000)">
                <path d="M1,28.0208333 L1,8 L40,8 L40,28.0208333 C40,28.3773333 39.70945,28.6666667 39.35,28.6666667 L22.0691,28.6666667 L31.35955,37.8975625 C31.6137,38.1500833 31.6137,38.55825 31.35955,38.8107708 C31.2328,38.9367083 31.0664,39 30.9,39 C30.7336,39 30.5672,38.9367083 30.44045,38.8107708 L21.15,29.579875 L21.15,38.3541667 C21.15,38.7106667 20.85945,39 20.5,39 C20.14055,39 19.85,38.7106667 19.85,38.3541667 L19.85,29.579875 L10.55955,38.8107708 C10.3054,39.0632917 9.8946,39.0632917 9.64045,38.8107708 C9.3863,38.55825 9.3863,38.1500833 9.64045,37.8975625 L18.9309,28.6666667 L1.65,28.6666667 C1.29055,28.6666667 1,28.3773333 1,28.0208333 Z M39.35,0 C39.70945,0 40,0.3136 40,0.7 L40,7 L1,7 L1,0.7 C1,0.3136 1.29055,0 1.65,0 L39.35,0 Z" id="Fill-17"></path>
            </g>
        </g>
    </g>
</svg>