<?xml version="1.0" encoding="UTF-8"?>
<svg width="39px" height="36px" viewBox="0 0 39 36" version="1.1" xmlns="http://www.w3.org/2000/svg" xmlns:xlink="http://www.w3.org/1999/xlink">
    <!-- Generator: Sketch 54.1 (76490) - https://sketchapp.com -->
    <title>Group 9</title>
    <desc>Created with Sketch.</desc>
    <g id="CrowdCoop_Design" stroke="none" stroke-width="1" fill="none" fill-rule="evenodd">
        <g id="03_Bases" transform="translate(-150.000000, -1662.000000)" fill="#15AE98">
            <g id="03" transform="translate(150.000000, 1660.000000)">
                <g id="Group-9" transform="translate(0.000000, 2.000000)">
                    <path d="M30.372713,22 C30.7189754,22 31,22.2810246 31,22.627287 C31,22.9735494 30.7189754,23.254574 30.372713,23.254574 C28.1019341,23.254574 26.254574,25.1019341 26.254574,27.372713 C26.254574,27.7196027 25.9735494,28 25.627287,28 C25.2810246,28 25,27.7196027 25,27.372713 C25,24.4100366 27.4100366,22 30.372713,22 Z M30,34.7007831 C34.2537857,34.7007831 37.7142857,31.203941 37.7142857,26.905482 C37.7142857,25.3152405 37.2379286,23.8354325 36.426,22.6011765 C34.563,20.3762676 32.4062143,19.1933307 30.1722857,19.1933307 C25.9249286,19.1933307 22.2857143,23.4339745 22.2857143,26.905482 C22.2857143,31.203941 25.7462143,34.7007831 30,34.7007831 Z M37.7085,22.235447 C38.5223571,23.6022231 39,25.1970118 39,26.905482 C39,31.9204591 34.9628571,36 30,36 C25.1078571,36 21.1227857,32.0328413 21.0109286,27.1159551 C21.009,27.0977661 21,27.0821755 21,27.0633368 L21,12.679707 C23.7379286,12.9622866 25.5,14.1205385 25.5,15.2125302 C25.5,15.5711141 25.788,15.8621387 26.1428571,15.8621387 C26.4977143,15.8621387 26.7857143,15.5711141 26.7857143,15.2125302 C26.7857143,13.2344726 24.3737143,11.6923021 21,11.3772421 L21,1.57075318 C21,1.39860695 21.0675,1.2329568 21.1883571,1.11148002 C21.8871429,0.405355661 23.0307857,0 24.3261429,0 C25.6208571,0 26.7645,0.404706052 27.4639286,1.11148002 C27.5301429,1.17838969 27.5809286,1.25894114 27.6130714,1.34793749 L29.9119286,7.70890324 L32.3830714,10.2059981 C32.439,10.262514 32.484,10.3281244 32.5161429,10.4015302 L37.6114286,21.9859973 C37.6615714,22.0587535 37.6905,22.1445018 37.7085,22.235447 Z M16.7142857,26.905482 C16.7142857,23.4339745 13.0750714,19.1933307 8.82771429,19.1933307 C6.59378571,19.1933307 4.437,20.3762676 2.574,22.6011765 C1.76207143,23.8354325 1.28571429,25.3152405 1.28571429,26.905482 C1.28571429,31.203941 4.74621429,34.7007831 9,34.7007831 C13.2537857,34.7007831 16.7142857,31.203941 16.7142857,26.905482 Z M14.6738571,0 C15.9692143,0 17.1128571,0.405355661 17.8116429,1.11148002 C17.9325,1.2329568 18,1.39860695 18,1.57075318 L18,11.3772421 C14.6262857,11.6923021 12.2142857,13.2344726 12.2142857,15.2125302 C12.2142857,15.5711141 12.5022857,15.8621387 12.8571429,15.8621387 C13.212,15.8621387 13.5,15.5711141 13.5,15.2125302 C13.5,14.1205385 15.2620714,12.9622866 18,12.679707 L18,27.0633368 C18,27.0821755 17.991,27.0977661 17.9890714,27.1159551 C17.8772143,32.0328413 13.8921429,36 9,36 C4.03714286,36 0,31.9204591 0,26.905482 C0,25.1781732 0.487285714,23.5684435 1.31785714,22.1912736 C1.32685714,22.1587932 1.3275,22.1263128 1.341,22.0944819 L6.48385714,10.4015302 C6.516,10.3281244 6.561,10.262514 6.61692857,10.2059981 L9.08807143,7.70890324 L11.3869286,1.34793749 C11.4190714,1.25894114 11.4698571,1.17838969 11.5360714,1.11148002 C12.2355,0.404706052 13.3791429,0 14.6738571,0 Z M4,27.372713 C4,24.4100366 6.41003659,22 9.37271302,22 C9.71897543,22 10,22.2803973 10,22.627287 C10,22.9735494 9.71897543,23.254574 9.37271302,23.254574 C7.10193413,23.254574 5.25457397,25.1019341 5.25457397,27.372713 C5.25457397,27.7189754 4.9735494,28 4.62728698,28 C4.28102457,28 4,27.7189754 4,27.372713 Z" id="Fill-9"></path>
                </g>
            </g>
        </g>
    </g>
</svg>