<?xml version="1.0" encoding="UTF-8"?>
<svg width="36px" height="36px" viewBox="0 0 36 36" version="1.1" xmlns="http://www.w3.org/2000/svg" xmlns:xlink="http://www.w3.org/1999/xlink">
    <!-- Generator: Sketch 54.1 (76490) - https://sketchapp.com -->
    <title>calendar</title>
    <desc>Created with Sketch.</desc>
    <g id="CrowdCoop_Design" stroke="none" stroke-width="1" fill="none" fill-rule="evenodd">
        <g id="01_Home_01" transform="translate(-151.000000, -1689.000000)" fill="#06566D">
            <g id="timeline" transform="translate(0.000000, 1497.000000)">
                <g id="title" transform="translate(150.000000, 190.000000)">
                    <path d="M4.62606978,26 C4.29487254,26 4.02607478,25.7318 4.02607478,25.4 C4.02607478,25.0682 4.29487254,24.8 4.62606978,24.8 L9.40023,24.8 L9.40023,20 L4.62606978,20 C4.29487254,20 4.02607478,19.7318 4.02607478,19.4 C4.02607478,19.0682 4.29487254,18.8 4.62606978,18.8 L9.40023,18.8 L9.40023,16.217 C9.40023,15.8858 9.66842776,15.617 10.000225,15.617 C10.3314222,15.617 10.60022,15.8858 10.60022,16.217 L10.60022,18.8 L17.80016,18.8 L17.80016,16.217 C17.80016,15.8858 18.0683578,15.617 18.400155,15.617 C18.7313522,15.617 19.00015,15.8858 19.00015,16.217 L19.00015,18.8 L26.20009,18.8 L26.20009,16.217 C26.20009,15.8858 26.4682878,15.617 26.800085,15.617 C27.1312822,15.617 27.40008,15.8858 27.40008,16.217 L27.40008,18.8 L33.3736302,18.8 C33.7048275,18.8 33.9736252,19.0682 33.9736252,19.4 C33.9736252,19.7318 33.7048275,20 33.3736302,20 L27.40008,20 L27.40008,24.8 L33.3736302,24.8 C33.7048275,24.8 33.9736252,25.0682 33.9736252,25.4 C33.9736252,25.7318 33.7048275,26 33.3736302,26 L27.40008,26 L27.40008,30.8 L33.3736302,30.8 C33.7048275,30.8 33.9736252,31.0682 33.9736252,31.4 C33.9736252,31.7318 33.7048275,32 33.3736302,32 L27.40008,32 L27.40008,34.3742 C27.40008,34.706 27.1312822,34.9742 26.800085,34.9742 C26.4682878,34.9742 26.20009,34.706 26.20009,34.3742 L26.20009,32 L19.00015,32 L19.00015,34.3742 C19.00015,34.706 18.7313522,34.9742 18.400155,34.9742 C18.0683578,34.9742 17.80016,34.706 17.80016,34.3742 L17.80016,32 L10.60022,32 L10.60022,34.3742 C10.60022,34.706 10.3314222,34.9742 10.000225,34.9742 C9.66842776,34.9742 9.40023,34.706 9.40023,34.3742 L9.40023,32 L4.62606978,32 C4.29487254,32 4.02607478,31.7318 4.02607478,31.4 C4.02607478,31.0682 4.29487254,30.8 4.62606978,30.8 L9.40023,30.8 L9.40023,26 L4.62606978,26 Z M1.0003,37.4 L1.0003,14 L37,14 L37,37.4 C37,37.7318 36.7312022,38 36.400005,38 L1.600295,38 C1.26849776,38 1.0003,37.7318 1.0003,37.4 Z M26.19979,8 L29.79976,8 L29.79976,3.2 L26.19979,3.2 L26.19979,8 Z M8.19994,8 L11.79991,8 L11.79991,3.2 L8.19994,3.2 L8.19994,8 Z M36.399705,4.4 C36.7309022,4.4 36.9997,4.6682 36.9997,5 L36.9997,12.8 L1,12.8 L1,5 C1,4.6682 1.26879776,4.4 1.599995,4.4 L6.99995,4.4 L6.99995,2.6 C6.99995,2.2682 7.26874776,2 7.599945,2 L12.399905,2 C12.7311022,2 12.9999,2.2682 12.9999,2.6 L12.9999,4.4 L24.9998,4.4 L24.9998,2.6 C24.9998,2.2682 25.2685978,2 25.599795,2 L30.399755,2 C30.7309522,2 30.99975,2.2682 30.99975,2.6 L30.99975,4.4 L36.399705,4.4 Z M18.99985,30.8 L26.19979,30.8 L26.19979,26 L18.99985,26 L18.99985,30.8 Z M10.59992,30.8 L17.79986,30.8 L17.79986,26 L10.59992,26 L10.59992,30.8 Z M10.59992,24.8 L17.79986,24.8 L17.79986,20 L10.59992,20 L10.59992,24.8 Z M18.99985,24.8 L26.19979,24.8 L26.19979,20 L18.99985,20 L18.99985,24.8 Z" id="calendar"></path>
                </g>
            </g>
        </g>
    </g>
</svg>