<?xml version="1.0" encoding="UTF-8"?>
<svg width="42px" height="34px" viewBox="0 0 42 34" version="1.1" xmlns="http://www.w3.org/2000/svg" xmlns:xlink="http://www.w3.org/1999/xlink">
    <!-- Generator: Sketch 54.1 (76490) - https://sketchapp.com -->
    <title>chat</title>
    <desc>Created with Sketch.</desc>
    <g id="CrowdCoop_Design" stroke="none" stroke-width="1" fill="none" fill-rule="evenodd">
        <g id="01_Home_01" transform="translate(-751.000000, -4336.000000)" fill="#FFFFFF">
            <g id="testimonials" transform="translate(735.000000, 4279.000000)">
                <g id="Group-7" transform="translate(16.000000, 57.000000)">
                    <path d="M29.9173,15.4464082 C28.6587,15.4464082 27.6346,14.4312653 27.6346,13.1836735 C27.6346,11.9360816 28.6587,10.9216327 29.9173,10.9216327 C31.1759,10.9216327 32.2,11.9360816 32.2,13.1836735 C32.2,14.4312653 31.1759,15.4464082 29.9173,15.4464082 M21.882,15.4464082 C20.6241,15.4464082 19.6,14.4312653 19.6,13.1836735 C19.6,11.9360816 20.6241,10.9216327 21.882,10.9216327 C23.1406,10.9216327 24.1647,11.9360816 24.1647,13.1836735 C24.1647,14.4312653 23.1406,15.4464082 21.882,15.4464082 M13.8173,15.4464082 C12.5587,15.4464082 11.5346,14.4312653 11.5346,13.1836735 C11.5346,11.9360816 12.5587,10.9216327 13.8173,10.9216327 C15.0759,10.9216327 16.1,11.9360816 16.1,13.1836735 C16.1,14.4312653 15.0759,15.4464082 13.8173,15.4464082 M39.5346,0 L2.4647,0 C0.9443,0 0,1.06371429 0,2.7755102 L0,25.3119592 C0,26.6594694 1.1053,27.755102 2.4647,27.755102 L4.2,27.755102 L4.2,33.3061224 C4.2,33.5711837 4.3519,33.8126531 4.5913,33.9292245 C4.6886,33.977102 4.7943,34 4.9,34 C5.0519,34 5.2024,33.9507347 5.3277,33.8556735 L13.2951,27.755102 L39.5346,27.755102 C40.894,27.755102 42,26.6594694 42,25.3119592 L42,2.7755102 C42,1.06371429 41.0557,0 39.5346,0" id="chat"></path>
                </g>
            </g>
        </g>
    </g>
</svg>