<?xml version="1.0" encoding="UTF-8"?>
<svg width="26px" height="22px" viewBox="0 0 26 22" version="1.1" xmlns="http://www.w3.org/2000/svg" xmlns:xlink="http://www.w3.org/1999/xlink">
    <!-- Generator: Sketch 54.1 (76490) - https://sketchapp.com -->
    <title>icon_comunicacion</title>
    <desc>Created with Sketch.</desc>
    <g id="CrowdCoop_Design" stroke="none" stroke-width="1" fill="none" fill-rule="evenodd">
        <g id="02_Recursos" transform="translate(-530.000000, -657.000000)" fill="#15AE98">
            <g id="tabs" transform="translate(175.000000, 654.000000)">
                <path d="M380,12.761 C380,13.537 379.237,14 378.5,14 L378,14 L378,10 L378.5,10 C379.271,10 380,10.729 380,11.5 L380,12.761 Z M378.894737,9.69051072 C380.016421,9.69051072 381,10.738585 381,11.9338205 L381,13.0653459 C381,14.1914874 380.075368,15.0744541 378.894737,15.0744541 L378.473684,15.0744541 L378.473684,21.551338 C378.473684,21.7065751 378.397895,21.8510442 378.274947,21.9318034 C378.206737,21.9766696 378.129263,22 378.052632,22 C377.988632,22 377.924632,21.9838482 377.864842,21.9524418 L377.112842,21.551338 C373.834526,19.7997618 370.701053,18.12715 365.006737,17.5403002 C365.005053,17.4658223 365,17.3922418 365,17.3177639 L365,7.24350844 C371.035368,6.66922114 374.251368,4.96430573 377.618105,3.17773384 L377.864842,3.04672455 C377.995368,2.97763061 378.150316,2.98570653 378.274105,3.067363 C378.397895,3.14901948 378.473684,3.2925913 378.473684,3.44872566 L378.473684,9.69051072 L378.894737,9.69051072 Z M361.993994,6.86440952 L361.993994,16.8575048 C361.993994,16.871981 361.994869,16.8864571 361.994869,16.9009333 C361.29984,16.8728857 360.573339,16.8575048 359.808371,16.8575048 L358.496997,16.8575048 C356.43814,16.8575048 355,15.3691714 355,13.2384571 L355,10.9765524 C355,8.69293333 356.536056,6.90512381 358.496997,6.90512381 L359.808371,6.90512381 C360.572465,6.90512381 361.297218,6.88974286 361.993994,6.86440952 Z M367.758182,24.1431905 C367.974122,24.255381 368.061547,24.5268095 367.954014,24.7502857 C367.87708,24.908619 367.722338,25 367.56235,25 C367.496782,25 367.430339,24.984619 367.367393,24.9529524 C364.634489,23.5379048 362.868506,20.360381 362.868506,16.8571429 L362.868506,6.45238095 C362.868506,6.20266667 363.063463,6 363.30563,6 C363.546923,6 363.742755,6.20266667 363.742755,6.45238095 L363.742755,16.8571429 C363.742755,19.9722381 365.356619,22.9000476 367.758182,24.1431905 Z" id="icon_comunicacion"></path>
            </g>
        </g>
    </g>
</svg>