<?xml version="1.0" encoding="UTF-8"?>
<svg width="35px" height="36px" viewBox="0 0 35 36" version="1.1" xmlns="http://www.w3.org/2000/svg" xmlns:xlink="http://www.w3.org/1999/xlink">
    <!-- Generator: Sketch 54.1 (76490) - https://sketchapp.com -->
    <title>Fill 1</title>
    <desc>Created with Sketch.</desc>
    <g id="CrowdCoop_Design" stroke="none" stroke-width="1" fill="none" fill-rule="evenodd">
        <g id="01_Home_01" transform="translate(-156.000000, -2420.000000)" fill="#06566D">
            <g id="proyectos" transform="translate(152.000000, 2419.000000)">
                <g id="title">
                    <path d="M15.0177711,19.2902857 L16.8165936,12.4331429 C16.8837497,12.1794286 17.1235927,12 17.3982129,12 L29.3903629,12 C29.6326043,12 29.8508614,12.1394286 29.943201,12.352 L32.8992659,19.112 C32.9628243,19.2034286 33,19.312 33,19.4285714 C33,19.744 32.7313758,20 32.4003925,20 L32.3884004,20 L15.5993904,20 C15.4147113,20 15.2408251,19.9188571 15.1268997,19.7805714 C15.0129743,19.6422857 14.9734002,19.4605714 15.0177711,19.2902857 L15.0177711,19.2902857 Z M5.37477605,23 L4.33837001,23 L4,23 L11.5198594,9.85622222 C11.6263395,9.67044444 11.8203698,9.55555556 12.0285975,9.55555556 L13.2117094,9.55555556 L13.2117094,2.83333333 C13.2117094,1.82255556 14.0079438,1 14.9863773,1 L15.5779333,1 C16.3789,1 17.4496163,1.45833333 18.0163269,2.04377778 L18.5250651,2.56933333 C18.8752662,2.35422222 19.2810736,2.22222222 19.718825,2.22222222 C21.0237975,2.22222222 22.0850488,3.31977778 22.0850488,4.66666667 C22.0850488,6.01477778 21.0237975,7.11111111 19.718825,7.11111111 C18.4138526,7.11111111 17.3526012,6.01477778 17.3526012,4.66666667 C17.3526012,4.21444444 17.4803772,3.79644444 17.6886049,3.43344444 L17.1798668,2.90788889 C16.8320319,2.54855556 16.0689247,2.22222222 15.5779333,2.22222222 L14.9863773,2.22222222 C14.6598384,2.22222222 14.3948214,2.496 14.3948214,2.83333333 L14.3948214,9.55555556 L31.5499442,9.55555556 C31.7664537,9.55555556 31.9663996,9.67777778 32.0693304,9.87455556 L39,23 L38.6486158,23 L37.6524355,23 L5.37477605,23 Z M38.4283333,24 L39,24 L39,26.9545455 C39,27.2807273 38.7398333,27.5454545 38.4166667,27.5454545 L22.0833333,27.5454545 L22.0833333,35.8181818 L24.4166667,35.8181818 C24.7398333,35.8181818 25,36.0829091 25,36.4090909 C25,36.7352727 24.7398333,37 24.4166667,37 L18.5833333,37 C18.2613333,37 18,36.7352727 18,36.4090909 C18,36.0829091 18.2613333,35.8181818 18.5833333,35.8181818 L20.9166667,35.8181818 L20.9166667,27.5454545 L4.58333333,27.5454545 C4.26133333,27.5454545 4,27.2807273 4,26.9545455 L4,24 L4.58333333,24 L5.16666667,24 L37.8333333,24 L38.4166667,24 L38.4283333,24 Z" id="Fill-1"></path>
                </g>
            </g>
        </g>
    </g>
</svg>