<?xml version="1.0" encoding="UTF-8"?>
<svg width="39px" height="39px" viewBox="0 0 39 39" version="1.1" xmlns="http://www.w3.org/2000/svg" xmlns:xlink="http://www.w3.org/1999/xlink">
    <!-- Generator: Sketch 54.1 (76490) - https://sketchapp.com -->
    <title>Fill 11</title>
    <desc>Created with Sketch.</desc>
    <g id="CrowdCoop_Design" stroke="none" stroke-width="1" fill="none" fill-rule="evenodd">
        <g id="03_Bases" transform="translate(-151.000000, -3182.000000)" fill="#15AE98">
            <g id="04" transform="translate(150.000000, 3182.000000)">
                <path d="M1,38.35 L1,13 L40,13 L40,38.35 C40,38.70945 39.7088,39 39.35,39 L1.65,39 C1.2912,39 1,38.70945 1,38.35 Z M28.3,6.66666667 L32.2,6.66666667 L32.2,1.33333333 L28.3,1.33333333 L28.3,6.66666667 Z M8.8,6.66666667 L12.7,6.66666667 L12.7,1.33333333 L8.8,1.33333333 L8.8,6.66666667 Z M39.35,2.66666667 C39.7088,2.66666667 40,2.96466667 40,3.33333333 L40,12 L1,12 L1,3.33333333 C1,2.96466667 1.2912,2.66666667 1.65,2.66666667 L7.5,2.66666667 L7.5,0.666666667 C7.5,0.298 7.7912,0 8.15,0 L13.35,0 C13.7088,0 14,0.298 14,0.666666667 L14,2.66666667 L27,2.66666667 L27,0.666666667 C27,0.298 27.2912,0 27.65,0 L32.85,0 C33.2088,0 33.5,0.298 33.5,0.666666667 L33.5,2.66666667 L39.35,2.66666667 Z" id="Fill-11"></path>
            </g>
        </g>
    </g>
</svg>