<?xml version="1.0" encoding="UTF-8"?>
<svg width="36px" height="36px" viewBox="0 0 36 36" version="1.1" xmlns="http://www.w3.org/2000/svg" xmlns:xlink="http://www.w3.org/1999/xlink">
    <!-- Generator: Sketch 54.1 (76490) - https://sketchapp.com -->
    <title>event</title>
    <desc>Created with Sketch.</desc>
    <g id="CrowdCoop_Design" stroke="none" stroke-width="1" fill="none" fill-rule="evenodd">
        <g id="01_Home_01" transform="translate(-151.000000, -3641.000000)" fill="#FFFFFF">
            <g id="eventos" transform="translate(0.000000, 3569.000000)">
                <g id="title" transform="translate(150.000000, 69.000000)">
                    <path d="M22.5998649,34.1790691 C22.9310636,34.1790691 23.1998624,34.4484386 23.1998624,34.7816855 C23.1998624,37.6200085 21.8258682,39 18.99988,39 C16.1738918,39 14.7998976,37.6200085 14.7998976,34.7816855 C14.7998976,34.4484386 15.0686964,34.1790691 15.3998951,34.1790691 L22.5998649,34.1790691 Z M36.5454266,31.6297006 C36.8394254,31.7032198 37.0326246,31.9858469 36.9954247,32.2877577 C36.9582249,32.5896685 36.7026259,32.8168548 36.3996272,32.8168548 L1.5997728,32.8168548 C1.29677407,32.8168548 1.04177513,32.5896685 1.00457529,32.2877577 C0.967375444,31.9858469 1.16057464,31.7032198 1.45457341,31.6297006 C4.419161,30.8854694 5.79975523,29.7308565 5.79975523,27.995924 L5.79975523,19.5592949 C5.79975523,13.9194084 9.00314182,9.03701069 13.989721,7.02306682 C14.5123188,4.70600691 16.60631,3 18.9997,3 C21.4308898,3 23.4828812,4.6722604 24.0054791,7.02366943 C28.9950582,9.03881854 32.1996448,13.9206137 32.1996448,19.5592949 L32.1996448,27.995924 C32.1996448,29.7308565 33.580839,30.8854694 36.5454266,31.6297006 Z" id="event"></path>
                </g>
            </g>
        </g>
    </g>
</svg>