<?xml version="1.0" encoding="UTF-8"?>
<svg width="16px" height="16px" viewBox="0 0 16 16" version="1.1" xmlns="http://www.w3.org/2000/svg" xmlns:xlink="http://www.w3.org/1999/xlink">
    <!-- Generator: Sketch 54.1 (76490) - https://sketchapp.com -->
    <title>Github</title>
    <desc>Created with Sketch.</desc>
    <g id="CrowdCoop_Design" stroke="none" stroke-width="1" fill="none" fill-rule="evenodd">
        <g id="01_Home_01" transform="translate(-1027.000000, -7466.000000)" fill="#282828" fill-rule="nonzero">
            <g id="footer" transform="translate(0.000000, 7288.000000)">
                <g id="RRSS" transform="translate(736.000000, 138.000000)">
                    <path d="M299,40 C294.582667,40 291,43.6725541 291,48.2022425 C291,51.8262667 293.292,54.9007406 296.471333,55.9854872 C296.870667,56.0613579 297,55.8070884 297,55.591096 L297,54.0641118 C294.774667,54.5603475 294.311333,53.0962472 294.311333,53.0962472 C293.947333,52.1482047 293.422667,51.8959857 293.422667,51.8959857 C292.696667,51.3867632 293.478,51.3976995 293.478,51.3976995 C294.281333,51.4551152 294.704,52.243214 294.704,52.243214 C295.417333,53.4967901 296.575333,53.1345244 297.032,52.9246837 C297.103333,52.3949555 297.310667,52.0326898 297.54,51.8283172 C295.763333,51.6198436 293.895333,50.9165013 293.895333,47.7743589 C293.895333,46.8782639 294.208,46.1468973 294.719333,45.5727403 C294.636667,45.3656337 294.362667,44.5310555 294.797333,43.4018801 C294.797333,43.4018801 295.469333,43.1817866 296.998,44.2426099 C297.636,44.0607936 298.32,43.9698854 299,43.9664678 C299.68,43.9698854 300.364667,44.0607936 301.004,44.2426099 C302.531333,43.1817866 303.202,43.4018801 303.202,43.4018801 C303.637333,44.531739 303.363333,45.3663172 303.280667,45.5727403 C303.794,46.1468973 304.104,46.8789474 304.104,47.7743589 C304.104,50.9247035 302.232667,51.6184765 300.451333,51.821482 C300.738,52.0757516 301,52.5747213 301,53.3402639 L301,55.591096 C301,55.8091389 301.128,56.065459 301.534,55.9848036 C304.710667,54.89869 307,51.8248996 307,48.2022425 C307,43.6725541 303.418,40 299,40 Z" id="Github"></path>
                </g>
            </g>
        </g>
    </g>
</svg>