<?xml version="1.0" encoding="UTF-8"?>
<svg width="18px" height="25px" viewBox="0 0 18 25" version="1.1" xmlns="http://www.w3.org/2000/svg" xmlns:xlink="http://www.w3.org/1999/xlink">
    <!-- Generator: Sketch 54.1 (76490) - https://sketchapp.com -->
    <title>icon_ideacion</title>
    <desc>Created with Sketch.</desc>
    <g id="CrowdCoop_Design" stroke="none" stroke-width="1" fill="none" fill-rule="evenodd">
        <g id="02_Recursos" transform="translate(-908.000000, -654.000000)" fill="#15AE98">
            <g id="tabs" transform="translate(175.000000, 654.000000)">
                <text id="Ideación" font-family="Roboto-Bold, Roboto" font-size="16" font-weight="bold">
                    <tspan x="756.75" y="19">Ideación</tspan>
                </text>
                <path d="M739.428571,22 C739.192,22 739,21.776 739,21.5 C739,21.224 739.192,21 739.428571,21 L744.571429,21 C744.808,21 745,21.224 745,21.5 C745,21.776 744.808,22 744.571429,22 C744.808,22 745,22.224 745,22.5 C745,22.776 744.808,23 744.571429,23 L742.428571,23 L742.428571,24.5 C742.428571,24.776 742.236571,25 742,25 C741.763429,25 741.571429,24.776 741.571429,24.5 L741.571429,23 L739.428571,23 C739.192,23 739,22.776 739,22.5 C739,22.224 739.192,22 739.428571,22 Z M742,0 C746.962,0 751,3.81740167 751,8.51013111 C751,13.065888 747.191714,16.786031 742.428571,17 L742.428571,12.7303456 L743.410857,13.6599762 C743.494857,13.7385936 743.604571,13.7783075 743.714286,13.7783075 C743.824,13.7783075 743.933714,13.7385936 744.017714,13.6599762 L745.732,12.0389988 C745.899143,11.880143 745.899143,11.6240286 745.732,11.4651728 C745.564,11.3071275 745.293143,11.3071275 745.125143,11.4651728 L743.714286,12.8000477 L742.303429,11.4659833 C742.264,11.4287008 742.216,11.3987128 742.162857,11.3784505 C742.058286,11.3371156 741.940857,11.3371156 741.836286,11.3784505 C741.783143,11.3987128 741.736,11.4287008 741.696571,11.4659833 L740.285714,12.8000477 L738.874857,11.4651728 C738.706857,11.3071275 738.436,11.3071275 738.268,11.4651728 C738.100857,11.6240286 738.100857,11.880143 738.268,12.0389988 L739.982286,13.6599762 C740.150286,13.8180215 740.421143,13.8180215 740.589143,13.6599762 L741.571429,12.7303456 L741.571429,17 C736.808286,16.786031 733,13.065888 733,8.51013111 C733,3.81740167 737.037143,0 742,0 Z M744.571429,19 C744.808,19 745,19.224 745,19.5 C745,19.776 744.808,20 744.571429,20 L739.428571,20 C739.192,20 739,19.776 739,19.5 C739,19.224 739.192,19 739.428571,19 L744.571429,19 Z" id="icon_ideacion"></path>
            </g>
        </g>
    </g>
</svg>