<?xml version="1.0" encoding="UTF-8"?>
<svg width="32px" height="25px" viewBox="0 0 32 25" version="1.1" xmlns="http://www.w3.org/2000/svg" xmlns:xlink="http://www.w3.org/1999/xlink">
    <!-- Generator: Sketch 54.1 (76490) - https://sketchapp.com -->
    <title>icon_crowdfunding</title>
    <desc>Created with Sketch.</desc>
    <g id="CrowdCoop_Design" stroke="none" stroke-width="1" fill="none" fill-rule="evenodd">
        <g id="02_Recursos" transform="translate(-724.000000, -655.000000)" fill="#15AE98">
            <g id="tabs" transform="translate(175.000000, 654.000000)">
                <text id="Crowdfunding" font-family="Roboto-Bold, Roboto" font-size="16" font-weight="bold">
                    <tspan x="586.9375" y="19">Crowdfunding</tspan>
                </text>
                <path d="M560.932444,14.8990047 C559.001778,15.488422 557.680533,16.6705212 557.000711,18.4220881 C556.841778,18.8323226 556.722667,19.256703 556.633067,19.6901515 C556.574044,19.6908769 556.512889,19.6930532 556.455289,19.6930532 C554.246578,19.6930532 551.130844,19.1663862 549.285511,17.7804393 C549.123733,17.658566 549,17.5261738 549,17.1797777 C549.001778,13.843857 549.105244,10.459332 553.419556,9.56994661 C554.277867,10.1883814 555.323911,10.5529134 556.452444,10.5529134 C557.580978,10.5529134 558.627378,10.1880187 559.485689,9.56958389 C559.674133,9.60839475 559.851556,9.65373455 560.024356,9.70161337 C559.832356,10.2587488 559.726756,10.8575968 559.726756,11.4803842 C559.726756,12.7778278 560.180089,13.9693576 560.932444,14.8990047 Z M573.547911,9.34760026 C571.288306,9.34760026 569.456533,7.47892629 569.456533,5.17380013 C569.456533,2.86867397 571.288306,1 573.547911,1 C575.807517,1 577.639289,2.86867397 577.639289,5.17380013 C577.639289,7.47892629 575.807517,9.34760026 573.547911,9.34760026 Z M565,15.654547 C562.740394,15.654547 560.908622,13.7858731 560.908622,11.4807469 C560.908622,9.17562075 562.740394,7.30694678 565,7.30694678 C567.259606,7.30694678 569.091378,9.17562075 569.091378,11.4807469 C569.091378,13.7858731 567.259606,15.654547 565,15.654547 Z M568.032533,15.8776188 C572.3472,16.7666415 572.450311,20.1508038 572.452089,23.4867245 C572.452089,23.8360223 572.328356,23.9658755 572.166578,24.0877488 C570.321244,25.4733329 567.205511,26 564.9968,26 C562.790933,26 559.6752,25.4733329 557.829867,24.0877488 C557.668444,23.9658755 557.544711,23.8360223 557.544711,23.4863618 C557.546489,20.1497156 557.649956,16.7648279 561.9664,15.8768934 C562.825067,16.4953282 563.871467,16.8602229 565,16.8602229 C566.128889,16.8602229 567.174578,16.4956909 568.032533,15.8776188 Z M576.580444,9.56994661 C580.894756,10.459332 580.998222,13.843857 581,17.1797777 C581,17.5261738 580.876267,17.658566 580.714844,17.7804393 C578.869511,19.1663862 575.753778,19.6930532 573.544711,19.6930532 C573.487111,19.6930532 573.425956,19.6908769 573.366933,19.6901515 C573.277689,19.256703 573.158222,18.8323226 572.999289,18.4220881 C572.319111,16.6705212 570.997867,15.488422 569.0672,14.8990047 C569.820978,13.9693576 570.273244,12.7781905 570.273244,11.4803842 C570.273244,10.8575968 570.167644,10.2587488 569.975644,9.70161337 C570.1488,9.65373455 570.326578,9.60839475 570.514311,9.56958389 C571.372978,10.1880187 572.419022,10.5529134 573.547911,10.5529134 C574.676444,10.5529134 575.722133,10.1883814 576.580444,9.56994661 Z M556.452444,9.34760026 C554.192839,9.34760026 552.361067,7.47892629 552.361067,5.17380013 C552.361067,2.86867397 554.192839,1 556.452444,1 C558.71205,1 560.543822,2.86867397 560.543822,5.17380013 C560.543822,7.47892629 558.71205,9.34760026 556.452444,9.34760026 Z" id="icon_crowdfunding" fill-rule="nonzero"></path>
            </g>
        </g>
    </g>
</svg>