<?xml version="1.0" encoding="UTF-8"?>
<svg width="14px" height="14px" viewBox="0 0 14 14" version="1.1" xmlns="http://www.w3.org/2000/svg" xmlns:xlink="http://www.w3.org/1999/xlink">
    <!-- Generator: Sketch 54.1 (76490) - https://sketchapp.com -->
    <title>instagram</title>
    <desc>Created with Sketch.</desc>
    <g id="CrowdCoop_Design" stroke="none" stroke-width="1" fill="none" fill-rule="evenodd">
        <g id="01_Home_01" transform="translate(-739.000000, -7501.000000)" fill="#FC514F" fill-rule="nonzero">
            <g id="footer" transform="translate(0.000000, 7288.000000)">
                <g id="RRSS" transform="translate(736.000000, 138.000000)">
                    <path d="M10,76.26175 C11.869,76.26175 12.0906667,76.26875 12.8291667,76.3025833 C14.7261667,76.3889167 15.61225,77.289 15.6985833,79.172 C15.7324167,79.9099167 15.7388333,80.1315833 15.7388333,82.0005833 C15.7388333,83.8701667 15.7318333,84.09125 15.6985833,84.8291667 C15.6116667,86.7104167 14.7279167,87.61225 12.8291667,87.6985833 C12.0906667,87.7324167 11.8701667,87.7394167 10,87.7394167 C8.131,87.7394167 7.90933333,87.7324167 7.17141667,87.6985833 C5.26975,87.6116667 4.38833333,86.7075 4.302,84.8285833 C4.26816667,84.0906667 4.26116667,83.8695833 4.26116667,82 C4.26116667,80.131 4.26875,79.9099167 4.302,79.1714167 C4.38891667,77.289 5.27266667,76.3883333 7.17141667,76.302 C7.90991667,76.26875 8.131,76.26175 10,76.26175 L10,76.26175 Z M10,75 C8.09891667,75 7.86091667,75.0081667 7.11425,75.042 C4.57208333,75.1586667 3.15925,76.5691667 3.04258333,79.1136667 C3.00816667,79.8609167 3,80.0989167 3,82 C3,83.9010833 3.00816667,84.1396667 3.042,84.8863333 C3.15866667,87.4285 4.56916667,88.8413333 7.11366667,88.958 C7.86091667,88.9918333 8.09891667,89 10,89 C11.9010833,89 12.1396667,88.9918333 12.8863333,88.958 C15.4261667,88.8413333 16.8425,87.4308333 16.9574167,84.8863333 C16.9918333,84.1396667 17,83.9010833 17,82 C17,80.0989167 16.9918333,79.8609167 16.958,79.11425 C16.8436667,76.5744167 15.4314167,75.15925 12.8869167,75.0425833 C12.1396667,75.0081667 11.9010833,75 10,75 Z M10,78.4055 C8.01491667,78.4055 6.4055,80.0149167 6.4055,82 C6.4055,83.9850833 8.01491667,85.5950833 10,85.5950833 C11.9850833,85.5950833 13.5945,83.9856667 13.5945,82 C13.5945,80.0149167 11.9850833,78.4055 10,78.4055 Z M10,84.3333333 C8.71141667,84.3333333 7.66666667,83.2891667 7.66666667,82 C7.66666667,80.7114167 8.71141667,79.6666667 10,79.6666667 C11.2885833,79.6666667 12.3333333,80.7114167 12.3333333,82 C12.3333333,83.2891667 11.2885833,84.3333333 10,84.3333333 Z M13.7368333,77.42375 C13.2725,77.42375 12.89625,77.8 12.89625,78.26375 C12.89625,78.7275 13.2725,79.10375 13.7368333,79.10375 C14.2005833,79.10375 14.57625,78.7275 14.57625,78.26375 C14.57625,77.8 14.2005833,77.42375 13.7368333,77.42375 Z" id="instagram"></path>
                </g>
            </g>
        </g>
    </g>
</svg>