<?xml version="1.0" encoding="UTF-8"?>
<svg width="22px" height="13px" viewBox="0 0 22 13" version="1.1" xmlns="http://www.w3.org/2000/svg" xmlns:xlink="http://www.w3.org/1999/xlink">
    <!-- Generator: Sketch 54.1 (76490) - https://sketchapp.com -->
    <title>mail</title>
    <desc>Created with Sketch.</desc>
    <g id="CrowdCoop_Design" stroke="none" stroke-width="1" fill="none" fill-rule="evenodd">
        <g id="01_Home_01" transform="translate(-1028.000000, -7502.000000)" fill="#26BDB9">
            <g id="footer" transform="translate(0.000000, 7288.000000)">
                <g id="RRSS" transform="translate(736.000000, 138.000000)">
                    <path d="M303.130952,84.6666667 C303.044792,84.6666667 302.959538,84.6426661 302.88426,84.5955539 L295.175135,79.7065485 C294.965628,79.573212 294.904862,79.2976498 295.040905,79.0914227 C295.176949,78.8869734 295.458105,78.8265275 295.668519,78.9607529 L303.130952,83.6933101 L310.593386,78.9607529 C310.8038,78.8265275 311.084956,78.8860845 311.220999,79.0914227 C311.357043,79.2976498 311.296277,79.573212 311.08677,79.7065485 L303.377644,84.5955539 C303.302367,84.6426661 303.217113,84.6666667 303.130952,84.6666667 Z M307.439833,84.1213527 C307.202376,83.9894084 307.120255,83.6956638 307.255803,83.4645205 C307.391352,83.2333773 307.693121,83.1544033 307.930579,83.2853845 L311.3935,85.2115785 C311.630958,85.3435228 311.713078,85.6372674 311.57753,85.8684107 C311.486504,86.0244324 311.319295,86.1111111 311.148128,86.1111111 C311.065017,86.1111111 310.979928,86.0908861 310.902755,86.0475467 L307.439833,84.1213527 Z M299.171278,84.1213527 L295.708356,86.0475467 C295.631183,86.0908861 295.546094,86.1111111 295.462984,86.1111111 C295.291816,86.1111111 295.124607,86.0244324 295.033581,85.8684107 C294.898033,85.6372674 294.980153,85.3435228 295.217611,85.2115785 L298.680533,83.2853845 C298.91799,83.1544033 299.219759,83.2333773 299.355308,83.4645205 C299.490856,83.6956638 299.408736,83.9894084 299.171278,84.1213527 M312.166667,76 L293.833333,76 C292.82225,76 292,76.7288125 292,77.625 L292,87.375 C292,88.2711875 292.82225,89 293.833333,89 L312.166667,89 C313.17775,89 314,88.2711875 314,87.375 L314,77.625 C314,76.7288125 313.17775,76 312.166667,76" id="mail"></path>
                </g>
            </g>
        </g>
    </g>
</svg>