<?xml version="1.0" encoding="UTF-8"?>
<svg width="37px" height="30px" viewBox="0 0 37 30" version="1.1" xmlns="http://www.w3.org/2000/svg" xmlns:xlink="http://www.w3.org/1999/xlink">
    <!-- Generator: Sketch 54.1 (76490) - https://sketchapp.com -->
    <title>matchers</title>
    <desc>Created with Sketch.</desc>
    <g id="CrowdCoop_Design" stroke="none" stroke-width="1" fill="none" fill-rule="evenodd">
        <g id="01_Home_01" transform="translate(-151.000000, -5595.000000)" fill="#06566D">
            <g id="matchers" transform="translate(0.000000, 5524.000000)">
                <g id="logos" transform="translate(149.000000, 67.000000)">
                    <g id="title" transform="translate(1.000000, 0.000000)">
                        <path d="M33.098726,6.61333464 L35.4023329,8.93083555 C37.0241439,11.0524798 38,13.6985938 38,16.5749828 C38,22.7440587 33.6167932,27.9592553 27.578378,28.9770544 C27.4871461,28.9926246 27.3967287,29 27.3071259,29 C26.5259522,29 25.8360106,28.4320976 25.7024209,27.6314616 C25.554169,26.7390435 26.1528787,25.893336 27.0399466,25.7441899 C31.5029813,24.9919035 34.7417158,21.136231 34.7417158,16.5749828 C34.7417158,11.4482906 30.5955492,7.27793621 25.4995927,7.27793621 C20.4044508,7.27793621 16.2582842,11.4482906 16.2582842,16.5749828 C16.2582842,19.1342315 17.2691669,21.5181106 19.1068391,23.2898351 C19.7560523,23.9159209 19.7780457,24.9525683 19.1557134,25.6065165 C18.5341957,26.2604648 17.5029487,26.2825909 16.8521065,25.6556856 C14.3676648,23.2611532 13,20.0364834 13,16.5749828 C13,9.64132822 18.6075071,4 25.4995927,4 C28.3595517,4 30.9898016,4.98092241 33.098726,6.61333464 Z M14.4135414,34 L11.1552572,33.8170433 C5.38076309,32.7078172 1,27.5907733 1,21.4563919 C1,15.222738 5.43045192,9.99247424 11.5348473,9.02108095 C12.4170278,8.87668465 13.2576651,9.48954849 13.3985859,10.3854619 C13.5386921,11.2805549 12.9326513,12.1214992 12.0431397,12.2626138 C7.53204522,12.9804931 4.25828419,16.8471963 4.25828419,21.4563919 C4.25828419,26.589024 8.40445082,30.7650306 13.4995927,30.7650306 C18.5955492,30.7650306 22.7417158,26.589024 22.7417158,21.4563919 C22.7417158,18.8580789 21.7055814,16.4476452 19.8255515,14.6697658 C19.1690072,14.049518 19.1372389,13.0108492 19.7530546,12.3504002 C20.3680558,11.6907716 21.3993027,11.6571339 22.055847,12.2773816 C24.5622821,14.6476141 26,17.993342 26,21.4563919 C26,28.087956 20.8796064,33.5257894 14.4135414,34 Z" id="matchers"></path>
                    </g>
                </g>
            </g>
        </g>
    </g>
</svg>