<?xml version="1.0" encoding="UTF-8"?>
<svg width="36px" height="36px" viewBox="0 0 36 36" version="1.1" xmlns="http://www.w3.org/2000/svg" xmlns:xlink="http://www.w3.org/1999/xlink">
    <!-- Generator: Sketch 54.1 (76490) - https://sketchapp.com -->
    <title>news</title>
    <desc>Created with Sketch.</desc>
    <g id="CrowdCoop_Design" stroke="none" stroke-width="1" fill="none" fill-rule="evenodd">
        <g id="01_Home_01" transform="translate(-151.000000, -4772.000000)" fill="#06566D">
            <g id="posts" transform="translate(150.000000, 4772.000000)">
                <g id="title">
                    <path d="M32.8,30.5700181 C32.8,30.9174169 32.5312,31.200016 32.2,31.200016 C31.8688,31.200016 31.6,30.9174169 31.6,30.5700181 L31.6,9.00009 L31.6,7.800094 L32.8,7.800094 L32.8,30.5700181 Z M36.4,4.800104 C36.7318,4.800104 37,5.0689031 37,5.400112 L37,30.600018 C37,33.2004093 35.5918,36 32.5,36 C32.2666,36 32.0452,35.9820001 31.8286,35.9562001 C31.816,35.9610001 31.8016,35.9598001 31.789,35.9640001 C30.817,35.8254006 28.4416,35.1234029 28.0564,31.6098146 C28.051,31.5588148 28.0456,31.507215 28.0408,31.4550151 C28.0162,31.1844161 28,30.903017 28,30.600018 L28,3.00011 C28,2.6689111 28.2682,2.400112 28.6,2.400112 L31,2.400112 C31.3318,2.400112 31.6,2.6689111 31.6,3.00011 L31.6,4.800104 L36.4,4.800104 Z M22,5.99998 C22.3318,5.99998 22.6,5.7311809 22.6,5.399982 C22.6,5.0687831 22.3318,4.799984 22,4.799984 L6.4,4.799984 C6.0682,4.799984 5.8,5.0687831 5.8,5.399982 C5.8,5.7311809 6.0682,5.99998 6.4,5.99998 L22,5.99998 Z M22,11.99996 C22.3318,11.99996 22.6,11.7311609 22.6,11.399962 C22.6,11.0687631 22.3318,10.799964 22,10.799964 L18.4,10.799964 C18.0682,10.799964 17.8,11.0687631 17.8,11.399962 C17.8,11.7311609 18.0682,11.99996 18.4,11.99996 L22,11.99996 Z M22,14.399952 C22.3318,14.399952 22.6,14.1311529 22.6,13.799954 C22.6,13.4687551 22.3318,13.199956 22,13.199956 L17.2,13.199956 C16.8682,13.199956 16.6,13.4687551 16.6,13.799954 C16.6,14.1311529 16.8682,14.399952 17.2,14.399952 L22,14.399952 Z M22,16.799944 C22.3318,16.799944 22.6,16.5311449 22.6,16.199946 C22.6,15.8687471 22.3318,15.599948 22,15.599948 L17.2,15.599948 C16.8682,15.599948 16.6,15.8687471 16.6,16.199946 C16.6,16.5311449 16.8682,16.799944 17.2,16.799944 L22,16.799944 Z M22,19.199936 C22.3318,19.199936 22.6,18.9311369 22.6,18.599938 C22.6,18.2687391 22.3318,17.99994 22,17.99994 L17.2,17.99994 C16.8682,17.99994 16.6,18.2687391 16.6,18.599938 C16.6,18.9311369 16.8682,19.199936 17.2,19.199936 L22,19.199936 Z M22,21.599928 C22.3318,21.599928 22.6,21.3311289 22.6,20.99993 C22.6,20.6687311 22.3318,20.399932 22,20.399932 L6.4,20.399932 C6.0682,20.399932 5.8,20.6687311 5.8,20.99993 C5.8,21.3311289 6.0682,21.599928 6.4,21.599928 L22,21.599928 Z M22,23.99992 C22.3318,23.99992 22.6,23.7311209 22.6,23.399922 C22.6,23.0687231 22.3318,22.799924 22,22.799924 L6.4,22.799924 C6.0682,22.799924 5.8,23.0687231 5.8,23.399922 C5.8,23.7311209 6.0682,23.99992 6.4,23.99992 L22,23.99992 Z M22,26.399912 C22.3318,26.399912 22.6,26.1311129 22.6,25.799914 C22.6,25.4687151 22.3318,25.199916 22,25.199916 L6.4,25.199916 C6.0682,25.199916 5.8,25.4687151 5.8,25.799914 C5.8,26.1311129 6.0682,26.399912 6.4,26.399912 L22,26.399912 Z M22,28.799904 C22.3318,28.799904 22.6,28.5311049 22.6,28.199906 C22.6,27.8687071 22.3318,27.599908 22,27.599908 L6.4,27.599908 C6.0682,27.599908 5.8,27.8687071 5.8,28.199906 C5.8,28.5311049 6.0682,28.799904 6.4,28.799904 L22,28.799904 Z M5.8,8.99997 L5.8,18.599938 C5.8,18.9311369 6.0682,19.199936 6.4,19.199936 L14.8,19.199936 C15.1318,19.199936 15.4,18.9311369 15.4,18.599938 L15.4,8.99997 C15.4,8.6687711 15.1318,8.399972 14.8,8.399972 L6.4,8.399972 C6.0682,8.399972 5.8,8.6687711 5.8,8.99997 Z M26.8,30.599898 C26.8,33.4606885 27.8284,35.0818831 28.987,35.99988 L6.4,35.99988 C3.0688,35.99988 1,33.9304869 1,30.599898 L1,0.599998 C1,0.268799104 1.2682,0 1.6,0 L26.8,0 L26.8,0.599998 L26.8,30.599898 Z" id="news"></path>
                </g>
            </g>
        </g>
    </g>
</svg>