<?xml version="1.0" encoding="UTF-8"?>
<svg width="25px" height="36px" viewBox="0 0 25 36" version="1.1" xmlns="http://www.w3.org/2000/svg" xmlns:xlink="http://www.w3.org/1999/xlink">
    <!-- Generator: Sketch 54.1 (76490) - https://sketchapp.com -->
    <title>icon</title>
    <desc>Created with Sketch.</desc>
    <g id="CrowdCoop_Design" stroke="none" stroke-width="1" fill="none" fill-rule="evenodd">
        <g id="02_Recursos" transform="translate(-784.000000, -844.000000)">
            <g id="01" transform="translate(150.000000, 723.000000)">
                <g id="botón-copy" transform="translate(613.000000, 109.000000)">
                    <rect id="Rectangle" stroke="#06566D" x="0.5" y="0.5" width="203" height="59" rx="10"></rect>
                    <g id="icon" transform="translate(21.000000, 12.000000)">
                        <path d="M24.8335227,8.5758 L16.8789773,0.1758 C16.7727273,0.063 16.6278409,0 16.4772727,0 L0.568181818,0 C0.254545455,0 0,0.2682 0,0.6 L0,35.4 C0,35.7318 0.254545455,36 0.568181818,36 L24.4318182,36 C24.7454545,36 25,35.7318 25,35.4 L25,9 C25,8.8404 24.9403409,8.688 24.8335227,8.5758 L24.8335227,8.5758 Z" id="icono" fill="#06566D"></path>
                        <polygon id="Path" fill="#FFFFFF" points="16.2162162 9 16.2162162 0.692307692 24.3243243 9"></polygon>
                        <rect id="Rectangle" fill="#FFFFFF" x="0" y="14.1265823" width="25" height="12.3037975"></rect>
                        <text id=".PDF" font-family="Roboto-Black, Roboto" font-size="5.4" font-weight="700" line-spacing="12.6" letter-spacing="-0.128571394" fill="#FC4746">
                            <tspan x="5.03981578" y="18.7506329">.</tspan>
                            <tspan x="6.54337329" y="18.7506329" font-size="7">PDF</tspan>
                        </text>
                    </g>
                </g>
            </g>
        </g>
    </g>
</svg>