<?xml version="1.0" encoding="UTF-8"?>
<svg width="25px" height="36px" viewBox="0 0 25 36" version="1.1" xmlns="http://www.w3.org/2000/svg" xmlns:xlink="http://www.w3.org/1999/xlink">
    <!-- Generator: Sketch 54.1 (76490) - https://sketchapp.com -->
    <title>icon</title>
    <desc>Created with Sketch.</desc>
    <g id="CrowdCoop_Design" stroke="none" stroke-width="1" fill="none" fill-rule="evenodd">
        <g id="02_Recursos" transform="translate(-784.000000, -844.000000)">
            <g id="01" transform="translate(150.000000, 723.000000)">
                <g id="botón-copy" transform="translate(613.000000, 109.000000)">
                    <g id="icon" transform="translate(21.000000, 12.000000)">
                        <path d="M24.8335227,8.5758 L16.8789773,0.1758 C16.7727273,0.063 16.6278409,0 16.4772727,0 L0.568181818,0 C0.254545455,0 0,0.2682 0,0.6 L0,35.4 C0,35.7318 0.254545455,36 0.568181818,36 L24.4318182,36 C24.7454545,36 25,35.7318 25,35.4 L25,9 C25,8.8404 24.9403409,8.688 24.8335227,8.5758 L24.8335227,8.5758 Z" id="icono" fill="#06566D"></path>
                        <polygon id="Path" fill="#FFFFFF" points="16.2162162 9 16.2162162 0.692307692 24.3243243 9"></polygon>
                        <rect id="Rectangle" fill="#FFFFFF" x="0" y="14.1265823" width="25" height="12.3037975"></rect>
                        <path d="M5.83874156,21.4884259 C5.97936726,21.4884259 6.09626063,21.5301735 6.18942515,21.61367 C6.28258968,21.6971665 6.32917125,21.8039526 6.32917125,21.9340313 C6.32917125,22.0641101 6.28258968,22.1708962 6.18942515,22.2543927 C6.09626063,22.3378892 5.97936726,22.3796368 5.83874156,22.3796368 C5.69635804,22.3796368 5.57902523,22.3374497 5.48673961,22.2530743 C5.39445399,22.1686989 5.34831187,22.0623523 5.34831187,21.9340313 C5.34831187,21.8057104 5.39445399,21.6993638 5.48673961,21.6149884 C5.57902523,21.530613 5.69635804,21.4884259 5.83874156,21.4884259 Z M8.11905689,20.6621563 L8.11905689,22.3506329 L6.91934985,22.3506329 L6.91934985,17.3740704 L8.9051897,17.3740704 C9.28572545,17.3740704 9.62239201,17.4441381 9.91519946,17.5842755 C10.2080069,17.7244129 10.4347299,17.9237924 10.5953752,18.18242 C10.7560206,18.4410476 10.836342,18.7344203 10.836342,19.062547 C10.836342,19.547901 10.662597,19.9358365 10.3151018,20.2263653 C9.96760658,20.5168941 9.49080471,20.6621563 8.88468189,20.6621563 L8.11905689,20.6621563 Z M8.11905689,19.7358868 L8.9051897,19.7358868 C9.13761273,19.7358868 9.31477568,19.6777819 9.43668384,19.5615704 C9.558592,19.4453589 9.61954517,19.281298 9.61954517,19.0693829 C9.61954517,18.8369599 9.55688303,18.6512521 9.43155689,18.512254 C9.30623074,18.3732559 9.13533401,18.3026186 8.91886157,18.3003399 L8.11905689,18.3003399 L8.11905689,19.7358868 Z M11.3469308,22.3506329 L11.3469308,17.3740704 L12.9499581,17.3740704 C13.389739,17.3740704 13.7850801,17.4737602 14.1359933,17.6731427 C14.4869065,17.8725252 14.7609109,18.1539351 14.9580148,18.517381 C15.1551186,18.8808268 15.2548084,19.2881307 15.2570871,19.7393048 L15.2570871,19.9683087 C15.2570871,20.4240401 15.1608152,20.8324833 14.9682687,21.1936505 C14.7757222,21.5548177 14.504566,21.8373669 14.1547921,22.0413067 C13.8050182,22.2452466 13.4148041,22.3483543 12.9841378,22.3506329 L11.3469308,22.3506329 Z M12.5466378,18.3003399 L12.5466378,21.4277813 L12.96363,21.4277813 C13.3077073,21.4277813 13.5720275,21.3053054 13.7565988,21.0603497 C13.94117,20.8153941 14.0334542,20.451384 14.0334542,19.9683087 L14.0334542,19.7529767 C14.0334542,19.27218 13.94117,18.9098789 13.7565988,18.6660626 C13.5720275,18.4222463 13.30315,18.3003399 12.9499581,18.3003399 L12.5466378,18.3003399 Z M18.8780274,20.368211 L16.9434571,20.368211 L16.9434571,22.3506329 L15.74375,22.3506329 L15.74375,17.3740704 L19.0728516,17.3740704 L19.0728516,18.3003399 L16.9434571,18.3003399 L16.9434571,19.4453595 L18.8780274,19.4453595 L18.8780274,20.368211 Z" id=".PDF" fill="#FC4746" fill-rule="nonzero"></path>
                    </g>
                </g>
            </g>
        </g>
    </g>
</svg>