<?xml version="1.0" encoding="UTF-8"?>
<svg width="42px" height="36px" viewBox="0 0 42 36" version="1.1" xmlns="http://www.w3.org/2000/svg" xmlns:xlink="http://www.w3.org/1999/xlink">
    <!-- Generator: Sketch 54.1 (76490) - https://sketchapp.com -->
    <title>Group 14</title>
    <desc>Created with Sketch.</desc>
    <g id="CrowdCoop_Design" stroke="none" stroke-width="1" fill="none" fill-rule="evenodd">
        <g id="03_Bases" transform="translate(-150.000000, -1028.000000)" fill="#15AE98">
            <g id="02" transform="translate(150.000000, 1026.000000)">
                <g id="Group-14" transform="translate(0.000000, 2.000000)">
                    <path d="M21.00014,11.0769231 C17.91244,11.0769231 15.40014,8.59223077 15.40014,5.53846154 C15.40014,2.48469231 17.91244,0 21.00014,0 C24.08784,0 26.60014,2.48469231 26.60014,5.53846154 C26.60014,8.59223077 24.08784,11.0769231 21.00014,11.0769231 Z M0.00014,18.1551462 L0.00014,12.4616077 L9.80014,12.4616077 L9.80014,18.1613769 C9.80014,18.9243 9.80014,19.7889923 9.60204,20.5235308 C9.35494,21.4366846 8.86424,21.8493 8.40014,22.0279154 L8.40014,29.0769923 L1.40014,29.0769923 L1.40014,22.0293 C1.17544,21.9427615 0.97314,21.8126077 0.79954,21.6409154 C-0.00336,20.8454538 -0.00126,19.3535308 0.00014,18.1551462 Z M32.20014,12.4615385 L42.00014,12.4615385 L42.00014,18 C41.99874,19.3728462 41.48704,20.7837692 40.60014,21.2773846 L40.60014,29.0769231 L33.60014,29.0769231 L33.60014,21.2870769 C32.75874,20.8426154 32.20014,19.5957692 32.20014,18 L32.20014,12.4615385 Z M14.00014,22.1538462 L14.00014,12.4615385 L28.00014,12.4615385 L28.00014,22.1538462 C28.00014,24.4266923 26.94524,25.9352308 25.20014,26.2474615 L25.20014,36 L16.80014,36 L16.80014,26.2474615 C15.05504,25.9352308 14.00014,24.4266923 14.00014,22.1538462 Z M37.10014,11.0769231 C35.17024,11.0769231 33.60014,9.52407692 33.60014,7.61538462 C33.60014,5.70669231 35.17024,4.15384615 37.10014,4.15384615 C39.03004,4.15384615 40.60014,5.70669231 40.60014,7.61538462 C40.60014,9.52407692 39.03004,11.0769231 37.10014,11.0769231 Z M4.90014,11.0769231 C2.97024,11.0769231 1.40014,9.52407692 1.40014,7.61538462 C1.40014,5.70669231 2.97024,4.15384615 4.90014,4.15384615 C6.83004,4.15384615 8.40014,5.70669231 8.40014,7.61538462 C8.40014,9.52407692 6.83004,11.0769231 4.90014,11.0769231 Z" id="Fill-13"></path>
                </g>
            </g>
        </g>
    </g>
</svg>