<?xml version="1.0" encoding="UTF-8"?>
<svg width="35px" height="35px" viewBox="0 0 35 35" version="1.1" xmlns="http://www.w3.org/2000/svg" xmlns:xlink="http://www.w3.org/1999/xlink">
    <!-- Generator: Sketch 54.1 (76490) - https://sketchapp.com -->
    <title>resources</title>
    <desc>Created with Sketch.</desc>
    <g id="CrowdCoop_Design" stroke="none" stroke-width="1" fill="none" fill-rule="evenodd">
        <g id="01_Home_01" transform="translate(-187.000000, -4336.000000)" fill="#06566D">
            <g id="recursos" transform="translate(150.000000, 4279.000000)">
                <g id="Group-6" transform="translate(37.000000, 57.000000)">
                    <path d="M17.1420161,23.9986547 C16.4884388,24.0105185 15.8518632,23.9436855 15.2413833,23.8072511 C11.7220296,23.0190955 9.06857691,19.9068103 9.00136086,16.1428038 C8.92070159,11.7254942 12.435706,8.07775356 16.8533825,8.00142941 C17.5065644,7.98917009 18.1435354,8.05600315 18.7540153,8.19283297 C22.2721828,8.98019764 24.9284032,12.0932738 24.9987824,15.8580712 C25.0750924,20.2745899 21.5549479,23.9183759 17.1420161,23.9986547 M34.3937139,31.375607 C35.2150967,32.214827 35.1986768,33.5678872 34.3640018,34.3890087 C33.9605429,34.7867824 33.4413633,34.9905874 32.9174923,34.9996366 C32.7478206,35.0027842 32.5773671,34.9854726 32.410823,34.9480952 C32.0261297,34.8611437 31.6605928,34.6656011 31.3654267,34.3602871 L26.6462872,29.5114606 C26.0887946,28.9433248 25.9472713,28.1426625 26.1525192,27.4265911 L22.5252989,23.5720022 C20.9474307,24.768471 19.0005072,25.4994933 16.8827391,25.538051 C16.093805,25.5518216 15.3255911,25.4707718 14.5878713,25.3043442 C10.3175407,24.3419757 7.08361461,20.536174 7.00151542,15.9419069 C6.90768778,10.5564203 11.1827098,6.10025266 16.5344039,6.00149775 C17.3221652,5.98772715 18.0895971,6.06917044 18.8265351,6.23520458 C23.0960838,7.19717967 26.3319646,11.0021944 26.4105452,15.5956746 C26.4566772,18.1105804 25.5387301,20.4165665 24.0140309,22.1776301 L27.6080205,25.9972023 C27.7886388,25.9464478 27.9739483,25.9196935 28.1604308,25.9161525 C28.3320572,25.9133984 28.5029017,25.93071 28.6694457,25.9680873 C29.0381102,26.0511044 29.3860544,26.2348436 29.6730106,26.526387 L34.3937139,31.375607 Z M22.2017291,25.791815 L23.7346239,27.3618513 C23.2823982,27.6383743 22.8206685,27.8979987 22.3387432,28.1226737 L22.6903863,30.3759523 C22.7434496,30.7131568 22.5343645,31.0376873 22.1981651,31.1398472 L19.4614469,31.9682641 C19.1252476,32.070424 18.7629126,31.9191044 18.6084747,31.6126247 L17.4893942,29.3992883 C16.7639322,29.4534407 16.0269864,29.4419189 15.2860806,29.3800853 L14.4481562,31.4528559 C14.319854,31.7704733 13.9717748,31.9498292 13.6284475,31.8757057 L10.8331221,31.2696594 C10.4897949,31.1947677 10.2537821,30.8886721 10.2771458,30.5487792 L10.4466315,28.0758184 C9.7845286,27.7601213 9.15014536,27.4044819 8.55892552,26.9962264 L6.75675441,28.3892111 C6.48153822,28.6015962 6.08831565,28.5881541 5.82933522,28.3577182 L3.72026835,26.4765935 C3.46128793,26.2457736 3.41456058,25.8655545 3.61057787,25.5821183 L5.07021371,23.4697897 C4.67778313,22.8929319 4.33485187,22.2865015 4.03745997,21.6558754 L1.67693658,22.0015292 C1.32885738,22.0529932 0.995033995,21.8498256 0.88969945,21.524911 L0.0327672857,18.8729784 C-0.0725672594,18.5476798 0.0830585911,18.1962651 0.399062227,18.0457137 L2.79839309,16.9031359 C2.75483369,16.2325675 2.7686935,15.5531658 2.83086464,14.8695394 L0.568547886,14.0096296 C0.241060409,13.8855783 0.0557349685,13.5479898 0.132557907,13.2146259 L0.756249293,10.5043162 C0.833072232,10.1717204 1.14907587,9.94205269 1.50032302,9.96548034 L4.17645405,10.1398435 C4.4845378,9.52342755 4.83261699,8.9331277 5.22623555,8.37892947 L3.72581228,6.5546456 C3.5068273,6.28772407 3.52029112,5.90635272 3.75828383,5.65479358 L5.69905302,3.60621881 C5.93744173,3.35504373 6.32947632,3.30934062 6.62172028,3.50021832 L8.80404614,4.92008726 C9.39486998,4.52604194 10.0134134,4.17731568 10.6592805,3.87621283 L10.3072414,1.62562263 C10.2541781,1.28765004 10.4632632,0.963503597 10.7994626,0.8613437 L13.5365768,0.0313905564 C13.8723801,-0.0700012205 14.2347151,0.0809342656 14.389549,0.387413955 L15.5086295,2.598446 C16.2340915,2.54352545 16.9710373,2.55619943 17.7123391,2.61764899 L18.5463036,0.547950935 C18.6746058,0.229949453 19.022685,0.0505935445 19.3664083,0.124717078 L22.1641096,0.732299621 C22.5070409,0.806807214 22.7434496,1.1132869 22.7200859,1.45356385 L22.5498083,3.91922752 C23.2146831,4.23646088 23.8522343,4.59286834 24.4454341,5.00381228 L26.2400813,3.61236377 C26.5152975,3.3992106 26.9093121,3.41226863 27.1682925,3.64385667 L29.2785473,5.5257495 C29.5375278,5.75695348 29.5842551,6.13678858 29.3878418,6.42060874 L27.931374,8.52717653 C28.3238045,9.10441835 28.6667358,9.71123278 28.9645237,10.3418589 L31.3198992,9.99505294 C31.6683743,9.94320487 32.0025937,10.1456044 32.1079283,10.471287 L32.9672364,13.1270603 C33.0725709,13.453127 32.9169451,13.8049258 32.6005455,13.9554772 L30.2027986,15.0949825 C30.245962,15.7655509 30.2324982,16.4445685 30.170327,17.1281949 L32.4310598,17.9884887 C32.7581513,18.1125401 32.9430807,18.4497445 32.8666538,18.7827243 L32.2429624,21.4953384 C32.1669315,21.8287023 31.8509278,22.0576019 31.4992847,22.0349424 L28.8227576,21.8617314 C28.5582333,22.3898136 28.2584654,22.8929319 27.9321659,23.3768472 L26.4954978,21.9051302 C27.7373366,20.0247736 28.3851837,17.8340967 28.3424163,15.5892674 C28.2485656,10.3199675 24.4771137,5.83414949 19.170787,4.68158614 L19.169995,4.68081803 C18.2655435,4.48456349 17.3329763,4.3927732 16.3992212,4.40851965 C9.92827461,4.52373758 4.75698204,9.72006615 4.87023647,15.9929142 C4.96804712,21.2660548 8.74029102,25.7526409 14.0438458,26.904052 C14.9502772,27.1006906 15.8836364,27.1924809 16.8185794,27.1763504 C18.7189572,27.1433213 20.5516199,26.6686234 22.2017291,25.791815 Z" id="resources"></path>
                </g>
            </g>
        </g>
    </g>
</svg>