<?xml version="1.0" encoding="UTF-8"?>
<svg width="36px" height="36px" viewBox="0 0 36 36" version="1.1" xmlns="http://www.w3.org/2000/svg" xmlns:xlink="http://www.w3.org/1999/xlink">
    <!-- Generator: Sketch 54.1 (76490) - https://sketchapp.com -->
    <title>rocket</title>
    <desc>Created with Sketch.</desc>
    <g id="CrowdCoop_Design" stroke="none" stroke-width="1" fill="none" fill-rule="evenodd">
        <g id="01_Home_01" transform="translate(-151.000000, -3145.000000)" fill="#06566D">
            <g id="logos" transform="translate(149.000000, 3144.000000)">
                <g id="title" transform="translate(1.000000, 0.000000)">
                    <path d="M11.1472475,24.7114347 L13.2868436,26.85106 C14.5006415,28.0648744 14.2852418,29.9110962 12.7516446,31.4453143 C11.2180473,32.9771324 3.82846056,35.4875621 2.99086206,35.7689654 C2.92846217,35.7899657 2.86366229,35.7995658 2.8000624,35.7995658 C2.64346268,35.7995658 2.48986296,35.7383651 2.37586316,35.6237637 C2.21446345,35.4629618 2.15926355,35.224759 2.23126342,35.0087565 C2.51206292,34.1717466 5.02125843,26.7802592 6.55365568,25.2472411 C8.054853,23.7454233 9.9532496,23.5186206 11.1472475,24.7114347 Z M10.4242488,20.0238793 C10.3324489,20.1156804 10.2130491,20.1750811 10.0852494,20.1936813 L1.6852644,21.3936955 C1.65646445,21.3978956 1.6282645,21.3996956 1.60006455,21.3996956 C1.37926494,21.3996956 1.17286531,21.2778942 1.0684655,21.0780918 C0.95086571,20.8530891 0.986865645,20.5776859 1.16026533,20.3916837 C1.19086528,20.3586833 4.26585978,17.0460441 6.35925603,14.9532194 C7.07925474,14.2332109 8.57865206,13.0181965 9.75824995,12.6239919 C11.5552467,12.0239848 16.3564381,11.7995821 17.2000366,11.7995821 C17.4424362,11.7995821 17.6620358,11.9453838 17.7544356,12.1697865 C17.8474355,12.3941892 17.7958356,12.6521922 17.6242359,12.8237942 L10.4242488,20.0238793 Z M18.3999745,25.8482082 C17.1867767,27.0608225 16.424178,27.8240315 16.424178,27.8240315 C16.3119782,27.9362329 16.1595785,27.9998336 15.9999788,27.9998336 C15.8403791,27.9998336 15.6879793,27.9362329 15.5757795,27.8240315 L10.1757892,22.4239677 C9.94118962,22.1893649 9.94118962,21.8101605 10.1757892,21.5755577 L12.1515857,19.5997343 L18.3999745,25.8482082 Z M25.8296412,20.245402 C26.0540408,20.337803 26.1998405,20.5574056 26.1998405,20.7998085 C26.1998405,21.7472197 25.920241,26.426075 25.3316421,28.1954959 C24.9308428,29.3937101 23.7536449,30.9315283 23.0456462,31.6401366 C20.9546499,33.7317614 17.6414558,36.8085977 17.6084559,36.8397981 C17.4944561,36.9447993 17.3480564,37 17.1998566,37 C17.1050568,37 17.009657,36.9777997 16.9214571,36.9315992 C16.6964575,36.8133978 16.5698578,36.5667949 16.6058577,36.3147919 L17.8058555,27.9146926 C17.8244555,27.7862911 17.8838554,27.6674897 17.9756552,27.5756886 L25.1756424,20.3756035 C25.3478421,20.2040015 25.6058416,20.1512008 25.8296412,20.245402 Z M36.8242015,1.17525654 C36.9556013,1.3066581 37.0186012,1.49146028 36.9952012,1.67566246 C36.9112014,2.3308702 36.1252028,8.12273866 34.4242058,9.82375877 C32.8540086,11.3927773 23.9074246,20.3400831 19.248433,24.9991381 L13.0000441,18.7512643 L28.175817,3.57528491 C29.875614,1.87426481 35.6686036,1.08825552 36.3238024,1.00425452 C36.5068021,0.982654268 36.6928018,1.04385499 36.8242015,1.17525654 Z" id="rocket"></path>
                </g>
            </g>
        </g>
    </g>
</svg>