<?xml version="1.0" encoding="UTF-8"?>
<svg width="29px" height="25px" viewBox="0 0 29 25" version="1.1" xmlns="http://www.w3.org/2000/svg" xmlns:xlink="http://www.w3.org/1999/xlink">
    <!-- Generator: Sketch 54.1 (76490) - https://sketchapp.com -->
    <title>icon_fiscalidad</title>
    <desc>Created with Sketch.</desc>
    <g id="CrowdCoop_Design" stroke="none" stroke-width="1" fill="none" fill-rule="evenodd">
        <g id="02_Recursos" transform="translate(-348.000000, -655.000000)" fill="#15AE98">
            <g id="tabs" transform="translate(175.000000, 654.000000)">
                <text id="Fiscalidad" font-family="Roboto-Bold, Roboto" font-size="16" font-weight="bold">
                    <tspan x="204.875" y="19">Fiscalidad</tspan>
                </text>
                <path d="M193.6857,8.5 C193.590967,8.62596154 193.445967,8.69230769 193.299033,8.69230769 C193.197533,8.69230769 193.096033,8.66057692 193.009033,8.59615385 C191.299,7.31826923 189.076633,6.63461538 187.0476,6.76826923 C186.7866,6.78461538 186.550733,6.58461538 186.5343,6.32019231 C186.515933,6.05480769 186.717967,5.82596154 186.9838,5.80865385 C189.2284,5.66057692 191.700167,6.41538462 193.589033,7.82692308 C193.802667,7.98653846 193.846167,8.2875 193.6857,8.5 M180.733333,12.5384615 C179.932933,12.5384615 179.283333,11.8913462 179.283333,11.0961538 C179.283333,10.3009615 179.932933,9.65384615 180.733333,9.65384615 C181.532767,9.65384615 182.183333,10.3009615 182.183333,11.0961538 C182.183333,11.8913462 181.532767,12.5384615 180.733333,12.5384615 M201.516667,10.1346154 C201.2489,10.1346154 201.033333,10.35 201.033333,10.6153846 C201.033333,11.5394231 200.406933,12.2875 199.545633,12.4846154 C199.2334,7.16826923 193.9496,2.92307692 187.5,2.92307692 C186.601967,2.92307692 185.6556,2.9375 184.7421,3.10192308 C183.865333,1.79711538 182.3844,1 180.796167,1 C179.966767,1 179.1451,1.22019231 178.4201,1.6375 C178.271233,1.72307692 178.1794,1.88173077 178.1794,2.05288462 C178.1794,2.225 178.271233,2.38365385 178.421067,2.47019231 C179.3452,3.00192308 179.988033,3.86923077 180.217133,4.88173077 C177.730867,6.47980769 175.9957,8.93942308 175.490133,11.5769231 L173.483333,11.5769231 C173.215567,11.5769231 173,11.7923077 173,12.0576923 L173,16.8653846 C173,17.1307692 173.215567,17.3461538 173.483333,17.3461538 L176.557333,17.3461538 C177.736667,19.7663462 179.8672,21.4980769 182.666667,22.4 L182.666667,25.5192308 C182.666667,25.7846154 182.882233,26 183.15,26 C183.4168,26 183.633333,25.7846154 183.633333,25.5192308 L183.633333,22.6740385 C184.824267,22.9625 186.1167,23.1153846 187.5,23.1153846 C188.8514,23.1153846 190.151567,22.925 191.366667,22.5778846 L191.366667,25.5192308 C191.366667,25.7846154 191.582233,26 191.85,26 C192.1168,26 192.333333,25.7846154 192.333333,25.5192308 L192.333333,22.2634615 C196.418467,20.7557692 199.327167,17.4009615 199.5466,13.4634615 C200.9531,13.2548077 202,12.0807692 202,10.6153846 C202,10.35 201.783467,10.1346154 201.516667,10.1346154" id="icon_fiscalidad"></path>
            </g>
        </g>
    </g>
</svg>