<?xml version="1.0" encoding="UTF-8"?>
<svg width="44px" height="26px" viewBox="0 0 44 26" version="1.1" xmlns="http://www.w3.org/2000/svg" xmlns:xlink="http://www.w3.org/1999/xlink">
    <!-- Generator: Sketch 54.1 (76490) - https://sketchapp.com -->
    <title>team</title>
    <desc>Created with Sketch.</desc>
    <g id="CrowdCoop_Design" stroke="none" stroke-width="1" fill="none" fill-rule="evenodd">
        <g id="01_Home_01" transform="translate(-150.000000, -6029.000000)" fill="#06566D">
            <g id="Team" transform="translate(150.000000, 6021.000000)">
                <path d="M18.6603929,16.4204088 C18.7094997,16.4204088 18.7094997,16.4204088 18.6603929,16.4204088 C19.4952087,16.469241 21.1157336,16.3227444 22.9326857,14.7112818 C23.0800062,14.5647853 23.3255402,14.6136175 23.4728607,14.760114 L23.5219675,14.8089462 C23.9639288,15.492597 24.6028085,16.0785834 25.3394107,16.4204088 C25.48624,16.5180732 25.5849447,16.6645698 25.5849447,16.8110664 L25.5353469,18.8131865 C25.48624,20.0339914 24.9460651,21.157132 24.0130356,21.9384471 C23.9639288,21.9872793 23.914822,22.0849437 23.914822,22.1337759 L23.914822,23.7452385 C23.914822,24.0382316 24.1117403,24.3312248 24.3572744,24.4777214 L22.2451903,27.2123245 C22.0978699,27.3588211 21.9014426,27.4076533 21.7050154,27.2611567 C21.6559086,27.2611567 21.6559086,27.2123245 21.6559086,27.2123245 L19.5443156,24.4777214 C19.8389564,24.3312248 19.9862769,24.0382316 19.9862769,23.6964063 L19.9862769,22.0849437 C19.9862769,21.9872793 19.9371701,21.9384471 19.8880632,21.8896149 C19.151461,21.3036286 18.6603929,20.4734812 18.4639656,19.5945016 L18.3166452,17.9830391 L18.3166452,16.7622342 C18.3166452,16.6157376 18.4639656,16.4204088 18.6603929,16.4204088 M26.7139104,23.7940706 C28.923717,24.4288892 32.1647668,26.0403518 32.2143646,30.3864174 C32.2143646,32.3885375 27.6469399,34 21.9996563,34 C16.3523726,34 11.7854389,32.3885375 11.7854389,30.3864174 C11.7854389,25.8938552 15.0264887,24.4288892 17.1871885,23.7940706 C15.8613045,22.7197623 15.2720227,20.9618032 15.6648772,19.3015084 L16.6961203,14.8577784 C17.1380817,12.7579939 18.7586065,11.1465314 20.8701995,10.7070416 C23.7675016,10.0722231 26.6648036,11.9278466 27.2540854,14.8577784 L28.2858195,19.3015084 C28.678183,20.9618032 28.0402854,22.7197623 26.7139104,23.7940706 Z M37.3209822,18.2759346 C37.3209822,18.2759346 37.5665163,18.2271024 37.8616482,17.1527941 C38.1557981,16.2738145 38.0084776,15.9808213 37.9593708,15.9319891 C37.910264,15.8831569 37.8616482,15.8831569 37.7629436,15.8831569 C37.7138367,15.8831569 37.6161142,15.8343247 37.5665163,15.7854925 C37.5174095,15.6878281 37.4683027,15.6389959 37.5174095,15.5413315 C37.5665163,15.3460028 37.8120504,14.3693588 37.0263413,13.7345402 C36.2406323,13.8810368 34.9638552,13.929869 33.1965009,13.1973861 C32.4103008,12.8555607 31.7232965,12.8067285 31.1826305,13.1485539 C30.1022806,13.7833724 29.9549601,15.6389959 29.9549601,15.6389959 C29.9549601,15.6878281 29.9058533,15.7366603 29.8567465,15.7854925 C29.8076397,15.8343247 29.7590239,15.8343247 29.7094261,15.8343247 L29.6603192,15.8343247 C29.6112124,15.8343247 29.5621056,15.8343247 29.5134899,15.8831569 C29.5134899,15.9808213 29.3656784,16.2249823 29.6112124,17.1039619 C29.9058533,18.2271024 30.1513874,18.2759346 30.1513874,18.2759346 C30.2500921,18.2759346 30.3478146,18.373599 30.3478146,18.4712634 C30.4460283,19.2037464 30.8388828,20.0338938 31.5263782,20.7175445 L31.5263782,23.1591544 C31.5263782,24.3799594 32.5085145,25.3566033 33.7361848,25.3566033 C34.9638552,25.3566033 35.9459914,24.3799594 35.9459914,23.1591544 L35.9459914,20.7175445 C36.58438,20.0827259 37.0263413,19.2037464 37.125046,18.4712634 C37.125046,18.373599 37.2227686,18.2759346 37.3209822,18.2759346 Z M37.4683027,21.8406851 C39.4325752,22.2801749 43.9012953,24.526456 44,28.1400386 C44,29.6538367 41.347741,30.9234739 37.5665163,31.460628 C36.4861664,31.6071246 35.4063075,31.6559568 34.3254666,31.6559568 L33.3924371,31.6559568 L32.8522622,31.6559568 C33.0486894,31.2657876 33.1965009,30.8258095 33.1965009,30.3863197 C33.1965009,27.1633946 31.575485,24.7706169 28.4817557,23.4033154 C28.7272898,23.0126578 28.9728238,22.573168 29.1201443,22.1336783 C29.4147852,21.9871817 29.7590239,21.8895173 30.004558,21.8406851 L30.004558,21.1570343 C29.7590239,20.8640411 29.5621056,20.5710479 29.4147852,20.2292225 C29.4147852,19.838565 29.3656784,19.4479074 29.2679558,19.0572498 L28.2362216,14.7600164 L28.2362216,14.7111842 C28.0402854,13.929869 28.0402854,13.1485539 28.2362216,12.4160709 C28.4817557,11.4882591 28.9728238,10.6581118 29.6603192,9.97446099 C30.0531738,9.58380341 30.4460283,9.19314583 30.9370964,8.90015264 C31.3299509,8.65599165 31.7719122,8.41183066 32.2143646,8.26533407 C32.6067281,8.16766967 32.9995826,8.07000528 33.3924371,8.07000528 C34.4241713,7.97234088 35.4063075,8.21650187 36.2897391,8.70482385 C36.8299141,8.99781704 37.3209822,9.43730682 37.6647299,9.97446099 C38.0575844,10.0721254 38.4504389,10.3162864 38.695973,10.6581118 C39.3348527,11.4882591 39.5307889,12.9043929 39.1870412,14.8576808 C39.1870412,14.906513 39.1379343,15.0041774 39.1379343,15.0530096 C39.6781093,15.8343247 39.481682,16.8598009 39.2852548,17.5434517 C39.1870412,17.9341092 38.9415071,18.7154244 38.4504389,19.2525786 C38.2049049,19.9362294 37.910264,20.5710479 37.4683027,21.1570343 L37.4683027,21.8406851 Z M9.52672192,25.1613234 C9.87046962,25.5519809 10.5088582,25.5519809 10.8526059,25.2101556 L12.3749171,23.598693 L12.3749171,20.8152577 C13.0133057,20.1804392 13.455267,19.3014596 13.5534807,18.5689766 C13.5534807,18.4713123 13.6516943,18.3736479 13.7499079,18.3736479 C13.7499079,18.3736479 13.995442,18.3248157 14.3391897,17.2016751 C14.6338306,16.3226955 14.4865101,16.0297024 14.4374033,15.9808702 C14.3882965,15.932038 14.3391897,15.932038 14.2409761,15.932038 C14.1918693,15.932038 14.0936556,15.8832058 14.0445488,15.8343736 C13.995442,15.7367092 13.9463352,15.687877 13.995442,15.5902126 C14.0445488,15.3948838 14.2900829,14.4182398 13.5043739,13.7834213 C12.7186648,13.9299179 11.4418877,13.97875 9.67404236,13.2462671 C8.88833334,12.9044417 8.20083794,12.8556095 7.66066299,13.1974349 C6.58031308,13.8322535 6.43299264,15.687877 6.43299264,15.687877 C6.43299264,15.7367092 6.38388582,15.7855414 6.33477901,15.8343736 C6.28567219,15.8832058 6.23656538,15.8832058 6.18745857,15.8832058 L6.13835175,15.8832058 C6.08924494,15.8832058 6.04013812,15.8832058 5.99103131,15.932038 C5.99103131,16.0297024 5.84371087,16.2738633 6.08924494,17.1528429 C6.38388582,18.2759835 6.62941989,18.3248157 6.62941989,18.3248157 C6.72763352,18.3248157 6.82584715,18.4224801 6.82584715,18.5201444 C6.92406078,19.2526274 7.31691529,20.0827748 8.00441068,20.7664255 L8.00441068,23.5498608 L9.52672192,25.1613234 Z M10.8034991,30.3863685 C10.8034991,30.8258583 10.9508195,31.2653481 11.09814,31.5583413 L10.6561786,31.5583413 L9.72314918,31.5583413 C8.64279927,31.5583413 7.56244936,31.5095091 6.48209945,31.3630125 C2.70087477,30.8258583 0,29.507389 0,27.9935908 C0,24.4288404 4.46872008,22.1825593 6.43299264,21.7430695 L6.43299264,21.0594187 C5.99103131,20.5222646 5.64728361,19.8386138 5.45085636,19.154963 C4.95978822,18.666641 4.71425415,17.8364937 4.61604052,17.4458361 C4.41961326,16.7621853 4.22318601,15.7367092 4.76336096,15.0042262 C4.76336096,14.9065618 4.71425415,14.8088974 4.71425415,14.7600652 L4.71425415,14.6624008 C4.51782689,13.8810857 4.51782689,13.0997705 4.71425415,12.3672875 C4.95978822,11.4394758 5.45085636,10.6093284 6.13835175,9.92567763 C6.53120626,9.53502004 6.92406078,9.14436246 7.41512892,8.85136927 C7.80798343,8.60720828 8.24994475,8.3630473 8.69190608,8.2165507 C9.08476059,8.11888631 9.47761511,8.02122191 9.87046962,8.02122191 C10.9017127,7.92355751 11.883849,8.1677185 12.7677716,8.65604048 C13.3079466,8.94903367 13.7990147,9.38852345 14.1427624,9.92567763 C14.5356169,10.023342 14.9284715,10.267503 15.1740055,10.6093284 C15.8123941,11.4394758 16.0088214,12.8556095 15.6650737,14.8088974 C15.6650737,14.8577296 15.6159669,14.955394 15.6159669,15.0042262 L15.6159669,15.0530584 L14.6829374,19.0572986 C14.5847238,19.4479562 14.5356169,19.7897816 14.5356169,20.1804392 C14.3882965,20.5222646 14.1918693,20.8640899 13.9463352,21.1570831 L13.9463352,21.8407339 C14.2409761,21.8895661 14.5356169,21.9872305 14.8793646,22.1337271 C15.0757919,22.5732169 15.2722192,22.9638745 15.5177532,23.354532 C12.3749171,24.6730014 10.8034991,27.0169469 10.8034991,30.3863685 Z" id="team"></path>
            </g>
        </g>
    </g>
</svg>