<?xml version="1.0" encoding="UTF-8"?>
<svg width="15px" height="13px" viewBox="0 0 15 13" version="1.1" xmlns="http://www.w3.org/2000/svg" xmlns:xlink="http://www.w3.org/1999/xlink">
    <!-- Generator: Sketch 54.1 (76490) - https://sketchapp.com -->
    <title>telegram-1</title>
    <desc>Created with Sketch.</desc>
    <g id="CrowdCoop_Design" stroke="none" stroke-width="1" fill="none" fill-rule="evenodd">
        <g id="01_Home_01" transform="translate(-1027.000000, -7436.000000)" fill="#1DA1F2">
            <g id="footer" transform="translate(0.000000, 7288.000000)">
                <g id="RRSS" transform="translate(736.000000, 138.000000)">
                    <path d="M302.489987,22.8564611 C302.691233,23.0046613 302.950602,23.0417113 303.181846,22.9507112 C303.413091,22.8590611 303.583087,22.6536609 303.634336,22.4047106 C304.177449,19.7501075 305.494919,13.0310498 305.989282,10.616297 C306.026782,10.4342968 305.964283,10.2451466 305.826786,10.1235965 C305.689289,10.0020463 305.498669,9.9669463 305.328673,10.0325964 C302.708107,11.0413975 294.637666,14.1906512 291.338991,15.4601026 C291.129621,15.5407027 290.993374,15.7500029 291.000249,15.9794532 C291.007748,16.2095535 291.156495,16.4091037 291.370865,16.4760538 C292.850207,16.9362543 294.792037,17.576505 294.792037,17.576505 C294.792037,17.576505 295.699517,20.4267583 296.172631,21.87626 C296.232005,22.0582602 296.368876,22.2012604 296.549497,22.2506604 C296.729493,22.2994105 296.921989,22.2480604 297.056361,22.1161103 C297.816344,21.3699094 298.991317,20.2161581 298.991317,20.2161581 C298.991317,20.2161581 301.223766,21.91851 302.489987,22.8564611 Z M295.608894,17.2164046 L296.658245,20.8161088 L296.891365,18.5365561 C296.891365,18.5365561 300.945647,14.7334018 303.256845,12.5656493 C303.324343,12.5019492 303.333718,12.3953491 303.277469,12.320599 C303.221845,12.2458489 303.119348,12.2282989 303.042475,12.278999 C300.363786,14.058051 295.608894,17.2164046 295.608894,17.2164046 Z" id="telegram-1"></path>
                </g>
            </g>
        </g>
    </g>
</svg>