<?xml version="1.0" encoding="UTF-8"?>
<svg width="18px" height="24px" viewBox="0 0 18 24" version="1.1" xmlns="http://www.w3.org/2000/svg" xmlns:xlink="http://www.w3.org/1999/xlink">
    <!-- Generator: Sketch 54.1 (76490) - https://sketchapp.com -->
    <title>iconos bases</title>
    <desc>Created with Sketch.</desc>
    <g id="CrowdCoop_Design" stroke="none" stroke-width="1" fill="none" fill-rule="evenodd">
        <g id="01_Home_01" transform="translate(-764.000000, -936.000000)">
            <g id="Group-2">
                <g id="texto-intro-bases" transform="translate(147.000000, 629.000000)">
                    <g id="botón" transform="translate(588.000000, 289.000000)">
                        <rect id="Rectangle" stroke="#3B4974" x="0.5" y="0.5" width="192" height="59" rx="10"></rect>
                        <path d="M32.6818182,24.8 C32.456,24.8 32.2727273,24.6212 32.2727273,24.4 L32.2727273,20.4 C32.2727273,20.1788 32.456,20 32.6818182,20 L35.363,20 L35.6865909,20 C35.7074545,19.8792 35.7422273,19.7632 35.7810909,19.6492 C35.8011364,19.5916 35.8252727,19.536 35.8494091,19.48 C35.8784545,19.4124 35.9091364,19.3456 35.9443182,19.2808 C35.9754091,19.2244 36.0097727,19.1696 36.0457727,19.1156 C36.0821818,19.0596 36.1202273,19.006 36.1611364,18.954 C36.2057273,18.8972 36.2523636,18.8424 36.3018636,18.7908 C36.3411364,18.7484 36.3824545,18.7084 36.4245909,18.6692 C36.4830909,18.616 36.5424091,18.564 36.605,18.5164 C36.6459091,18.4852 36.6888636,18.4572 36.7314091,18.4284 C36.8005455,18.3824 36.8705,18.3376 36.9441364,18.298 C36.9899545,18.274 37.0382273,18.254 37.0856818,18.2324 C37.1597273,18.1984 37.2341818,18.1644 37.3115,18.138 C37.3749091,18.1164 37.4407727,18.102 37.5058182,18.0856 C37.5720909,18.0688 37.6371364,18.0484 37.7046364,18.0372 C37.8412727,18.014 37.9811818,18 38.1247727,18 C38.2679545,18 38.4078636,18.014 38.5449091,18.0372 C38.6115909,18.0484 38.6758182,18.0684 38.7412727,18.0848 C38.8075455,18.1016 38.8742273,18.1164 38.9380455,18.138 C39.0145455,18.1644 39.0877727,18.1976 39.161,18.2308 C39.2096818,18.2532 39.2591818,18.274 39.3058182,18.2988 C39.3782273,18.3376 39.4469545,18.3816 39.5152727,18.4268 C39.5594545,18.4564 39.6032273,18.4856 39.6453636,18.5176 C39.7071364,18.564 39.7652273,18.6152 39.8225,18.6676 C39.8658636,18.708 39.9084091,18.7488 39.9489091,18.792 C39.9971818,18.8432 40.043,18.8968 40.0863636,18.952 C40.1280909,19.0056 40.1673636,19.0604 40.2045909,19.1172 C40.2397727,19.1704 40.2737273,19.2244 40.3044091,19.28 C40.34,19.3452 40.3706818,19.4124 40.4001364,19.4808 C40.4238636,19.5364 40.448,19.5916 40.4676364,19.6492 C40.5065,19.7628 40.5412727,19.8792 40.5625455,20 L40.8861364,20 L43.3181818,20 C43.544,20 43.7272727,20.1788 43.7272727,20.4 L43.7272727,24.4 C43.7272727,24.6212 43.544,24.8 43.3181818,24.8 L32.6818182,24.8 Z M46.5909091,21.2 C46.8167273,21.2 47,21.3788 47,21.6 L47,41.6 C47,41.8212 46.8167273,42 46.5909091,42 L29.4090909,42 C29.1832727,42 29,41.8212 29,41.6 L29,21.6 C29,21.3788 29.1832727,21.2 29.4090909,21.2 L31.4545455,21.2 L31.4545455,23.6348 L31.4545455,25.2 L31.4545455,39.6 L44.5454545,39.6 L44.5454545,25.2 L44.5454545,23.6348 L44.5454545,21.2 L46.5909091,21.2 Z M42.2509045,26 C42.4767227,26 42.6599955,26.1788 42.6599955,26.4 C42.6599955,26.6212 42.4767227,26.8 42.2509045,26.8 L36.0613591,26.8 C35.8351318,26.8 35.6522682,26.6212 35.6522682,26.4 C35.6522682,26.1788 35.8351318,26 36.0613591,26 L42.2509045,26 Z M42.2509045,29.2 C42.4767227,29.2 42.6599955,29.3788 42.6599955,29.6 C42.6599955,29.8212 42.4767227,30 42.2509045,30 L36.0613591,30 C35.8351318,30 35.6522682,29.8212 35.6522682,29.6 C35.6522682,29.3788 35.8351318,29.2 36.0613591,29.2 L42.2509045,29.2 Z M42.2509045,32.4 C42.4767227,32.4 42.6599955,32.5788 42.6599955,32.8 C42.6599955,33.0212 42.4767227,33.2 42.2509045,33.2 L36.0613591,33.2 C35.8351318,33.2 35.6522682,33.0212 35.6522682,32.8 C35.6522682,32.5788 35.8351318,32.4 36.0613591,32.4 L42.2509045,32.4 Z M42.2509045,35.6 C42.4767227,35.6 42.6599955,35.7788 42.6599955,36 C42.6599955,36.2212 42.4767227,36.4 42.2509045,36.4 L36.0613591,36.4 C35.8351318,36.4 35.6522682,36.2212 35.6522682,36 C35.6522682,35.7788 35.8351318,35.6 36.0613591,35.6 L42.2509045,35.6 Z M33.9977818,26 C34.2236,26 34.4068727,26.1788 34.4068727,26.4 C34.4068727,26.6212 34.2236,26.8 33.9977818,26.8 L33.4819182,26.8 C33.2561,26.8 33.0728273,26.6212 33.0728273,26.4 C33.0728273,26.1788 33.2561,26 33.4819182,26 L33.9977818,26 Z M33.9977818,29.2 C34.2236,29.2 34.4068727,29.3788 34.4068727,29.6 C34.4068727,29.8212 34.2236,30 33.9977818,30 L33.4819182,30 C33.2561,30 33.0728273,29.8212 33.0728273,29.6 C33.0728273,29.3788 33.2561,29.2 33.4819182,29.2 L33.9977818,29.2 Z M33.9977818,32.4 C34.2236,32.4 34.4068727,32.5788 34.4068727,32.8 C34.4068727,33.0212 34.2236,33.2 33.9977818,33.2 L33.4819182,33.2 C33.2561,33.2 33.0728273,33.0212 33.0728273,32.8 C33.0728273,32.5788 33.2561,32.4 33.4819182,32.4 L33.9977818,32.4 Z M33.9977818,35.6 C34.2236,35.6 34.4068727,35.7788 34.4068727,36 C34.4068727,36.2212 34.2236,36.4 33.9977818,36.4 L33.4819182,36.4 C33.2561,36.4 33.0728273,36.2212 33.0728273,36 C33.0728273,35.7788 33.2561,35.6 33.4819182,35.6 L33.9977818,35.6 Z" id="iconos-bases" fill="#06566D"></path>
                    </g>
                </g>
            </g>
        </g>
    </g>
</svg>