<?xml version="1.0" encoding="UTF-8"?>
<svg width="15px" height="11px" viewBox="0 0 15 11" version="1.1" xmlns="http://www.w3.org/2000/svg" xmlns:xlink="http://www.w3.org/1999/xlink">
    <!-- Generator: Sketch 54.1 (76490) - https://sketchapp.com -->
    <title>tw</title>
    <desc>Created with Sketch.</desc>
    <g id="CrowdCoop_Design" stroke="none" stroke-width="1" fill="none" fill-rule="evenodd">
        <g id="01_Home_01" transform="translate(-739.000000, -7436.000000)" fill="#1DA1F2" fill-rule="nonzero">
            <g id="footer" transform="translate(0.000000, 7288.000000)">
                <g id="RRSS" transform="translate(736.000000, 138.000000)">
                    <path d="M16.4634221,12.7399874 C16.4695439,12.8587571 16.4726048,12.9802888 16.4726048,13.0990584 C16.4726048,16.7698682 13.3780227,21 7.71839608,21 C5.97826752,21 4.36210591,20.540113 3,19.751538 C3.24181206,19.7777778 3.48515458,19.7902072 3.73308846,19.7902072 C5.17630854,19.7902072 6.5016835,19.3455116 7.55463728,18.602511 C6.20936639,18.5804143 5.07223753,17.7780289 4.68044077,16.6745763 C4.86868687,16.7063402 5.06152433,16.7229127 5.25895317,16.7229127 C5.54055709,16.7229127 5.81297827,16.6897677 6.07009489,16.6262398 C4.6620753,16.370747 3.60146924,15.2479598 3.60146924,13.9028249 C3.60146924,13.8903955 3.60146924,13.8793471 3.60146924,13.8682988 C4.01622283,14.0768362 4.49219467,14.2011299 4.99571472,14.2163214 C4.1707989,13.7177652 3.62748699,12.8684244 3.62748699,11.904457 C3.62748699,11.3962335 3.77900214,10.918393 4.0453015,10.5082235 C5.56198347,12.1889517 7.83011938,13.2937853 10.3875115,13.4097928 C10.335476,13.2053986 10.3079278,12.9954802 10.3079278,12.7758945 C10.3079278,11.2429379 11.6853382,10 13.3841445,10 C14.2687481,10 15.0691766,10.3355932 15.630854,10.8755807 C16.3318029,10.7499058 16.989899,10.5192718 17.5852464,10.2016321 C17.355678,10.8493409 16.8674625,11.3934714 16.2323232,11.7373509 C16.8552189,11.6696798 17.4475054,11.5219083 18,11.3009416 C17.5852464,11.8602637 17.0648913,12.3491525 16.4634221,12.7399874 L16.4634221,12.7399874 Z" id="tw"></path>
                </g>
            </g>
        </g>
    </g>
</svg>