<?xml version="1.0" encoding="UTF-8"?>
<svg xmlns="http://www.w3.org/2000/svg" xmlns:xlink="http://www.w3.org/1999/xlink" width="100pt" height="100pt" viewBox="0 0 100 100" version="1.1">
<g id="surface1">
<path style=" stroke:none;fill-rule:nonzero;fill:rgb(34.509804%,34.901961%,35.686275%);fill-opacity:1;" d="M 50.007812 2.019531 C 23.496094 2.019531 2.015625 23.519531 2.015625 49.964844 C 2.015625 76.453125 23.496094 97.976562 50.007812 97.976562 C 76.546875 97.976562 97.984375 76.453125 97.984375 49.964844 C 97.992188 23.519531 76.546875 2.019531 50.007812 2.019531 Z M 45.980469 43.445312 L 32.996094 50 L 45.980469 56.4375 L 45.980469 64.855469 L 19.429688 50.367188 L 19.429688 49.425781 L 45.980469 35.144531 Z M 80.578125 50.558594 L 54.03125 64.859375 L 54.03125 56.546875 L 66.945312 50 L 54.027344 43.539062 L 54.027344 35.148438 L 80.574219 49.625 L 80.574219 50.558594 Z M 80.578125 50.558594 "/>
</g>
</svg>
