<?xml version="1.0" encoding="UTF-8"?>
<svg xmlns="http://www.w3.org/2000/svg" xmlns:xlink="http://www.w3.org/1999/xlink" width="100pt" height="100pt" viewBox="0 0 100 100" version="1.1">
<g id="surface1">
<path style=" stroke:none;fill-rule:nonzero;fill:rgb(34.509804%,34.901961%,35.686275%);fill-opacity:1;" d="M 23.109375 20.71875 L 35.589844 20.71875 L 35.589844 24.320312 L 69.1875 24.320312 L 69.1875 21.566406 L 78.5625 21.566406 L 78.5625 24.320312 L 90.484375 24.320312 C 81.957031 10.929688 67.03125 2.015625 49.96875 2.015625 C 23.507812 2.015625 2.015625 23.523438 2.015625 50.023438 C 2.015625 68.304688 12.304688 84.21875 27.410156 92.3125 L 27.410156 75.109375 L 24.664062 75.109375 L 24.664062 65.71875 L 27.410156 65.71875 L 27.410156 33.203125 L 23.109375 33.203125 Z M 23.109375 20.71875 "/>
<path style=" stroke:none;fill-rule:nonzero;fill:rgb(34.509804%,34.901961%,35.686275%);fill-opacity:1;" d="M 91.867188 68.28125 C 91.867188 69.5 90.886719 70.484375 89.648438 70.484375 L 73.859375 70.484375 C 72.628906 70.484375 71.648438 69.5 71.648438 68.28125 L 71.648438 66.722656 L 62.992188 66.722656 L 62.992188 48.617188 L 58 48.617188 C 57.351562 52.238281 54.589844 55.136719 51.011719 55.972656 L 51.011719 61.496094 C 55.105469 62.457031 58.171875 66.105469 58.171875 70.480469 C 58.171875 70.894531 58.09375 71.292969 58.050781 71.6875 L 74.636719 79.816406 C 76.324219 77.730469 78.863281 76.390625 81.726562 76.390625 C 84.234375 76.390625 86.480469 77.398438 88.148438 78.996094 C 90.9375 75.34375 93.203125 71.277344 94.851562 66.925781 L 91.867188 66.933594 Z M 91.867188 68.28125 "/>
<path style=" stroke:none;fill-rule:nonzero;fill:rgb(34.509804%,34.901961%,35.686275%);fill-opacity:1;" d="M 72.785156 83.539062 L 56.605469 75.625 C 54.957031 78.070312 52.128906 79.703125 48.953125 79.703125 C 43.855469 79.703125 39.71875 75.589844 39.71875 70.484375 C 39.71875 66.109375 42.78125 62.46875 46.859375 61.515625 L 46.859375 55.960938 C 42.777344 55.015625 39.71875 51.359375 39.71875 46.980469 C 39.71875 41.894531 43.851562 37.753906 48.953125 37.753906 C 53.148438 37.753906 56.691406 40.613281 57.78125 44.472656 L 71.65625 44.472656 L 71.65625 42.886719 C 71.65625 41.691406 72.632812 40.691406 73.867188 40.691406 L 89.65625 40.691406 C 90.890625 40.691406 91.875 41.691406 91.875 42.886719 L 91.875 44.472656 L 97.664062 44.472656 C 96.976562 38.667969 95.257812 33.191406 92.703125 28.191406 L 78.566406 28.191406 L 78.566406 30.957031 L 69.1875 30.957031 L 69.1875 28.191406 L 35.59375 28.191406 L 35.59375 33.207031 L 31.296875 33.207031 L 31.296875 65.722656 L 34.046875 65.722656 L 34.046875 75.109375 L 31.296875 75.109375 L 31.296875 94.191406 C 37.046875 96.625 43.351562 97.984375 49.976562 97.984375 C 58.953125 97.984375 67.3125 95.476562 74.492188 91.199219 C 73.292969 89.640625 72.523438 87.738281 72.523438 85.625 C 72.515625 84.90625 72.613281 84.210938 72.785156 83.539062 Z M 72.785156 83.539062 "/>
<path style=" stroke:none;fill-rule:nonzero;fill:rgb(34.509804%,34.901961%,35.686275%);fill-opacity:1;" d="M 84.890625 64.78125 C 84.890625 63.050781 83.484375 61.664062 81.734375 61.664062 C 80.015625 61.664062 78.625 63.058594 78.625 64.78125 C 78.625 66.519531 80.027344 67.921875 81.734375 67.921875 C 83.484375 67.921875 84.890625 66.515625 84.890625 64.78125 Z M 84.890625 64.78125 "/>
<path style=" stroke:none;fill-rule:nonzero;fill:rgb(34.509804%,34.901961%,35.686275%);fill-opacity:1;" d="M 78.621094 46.382812 C 78.621094 48.128906 80.023438 49.523438 81.730469 49.523438 C 83.484375 49.523438 84.886719 48.125 84.886719 46.382812 C 84.886719 44.664062 83.480469 43.261719 81.730469 43.261719 C 80.015625 43.257812 78.621094 44.664062 78.621094 46.382812 Z M 78.621094 46.382812 "/>
<path style=" stroke:none;fill-rule:nonzero;fill:rgb(34.509804%,34.901961%,35.686275%);fill-opacity:1;" d="M 97.902344 48.621094 L 91.867188 48.621094 L 91.867188 49.890625 C 91.867188 51.097656 90.886719 52.089844 89.648438 52.089844 L 73.859375 52.089844 C 72.628906 52.089844 71.648438 51.097656 71.648438 49.890625 L 71.648438 48.621094 L 67.15625 48.621094 L 67.15625 62.5625 L 71.648438 62.5625 L 71.648438 61.316406 C 71.648438 60.078125 72.628906 59.089844 73.859375 59.089844 L 89.648438 59.089844 C 90.886719 59.089844 91.867188 60.078125 91.867188 61.316406 L 91.867188 62.753906 L 96.230469 62.71875 C 97.34375 58.664062 97.984375 54.433594 97.984375 50.023438 C 97.992188 49.554688 97.914062 49.085938 97.902344 48.621094 Z M 97.902344 48.621094 "/>
<path style=" stroke:none;fill-rule:nonzero;fill:rgb(34.509804%,34.901961%,35.686275%);fill-opacity:1;" d="M 77.558594 85.625 C 77.558594 86.707031 78.007812 87.65625 78.664062 88.402344 C 80.890625 86.730469 82.964844 84.894531 84.867188 82.878906 C 84.09375 81.996094 83.015625 81.402344 81.730469 81.402344 C 79.421875 81.40625 77.558594 83.289062 77.558594 85.625 Z M 77.558594 85.625 "/>
<path style=" stroke:none;fill-rule:nonzero;fill:rgb(34.509804%,34.901961%,35.686275%);fill-opacity:1;" d="M 44.722656 70.484375 C 44.722656 72.820312 46.613281 74.703125 48.957031 74.703125 C 51.273438 74.703125 53.152344 72.820312 53.152344 70.484375 C 53.152344 68.148438 51.273438 66.273438 48.957031 66.273438 C 46.613281 66.273438 44.722656 68.148438 44.722656 70.484375 Z M 44.722656 70.484375 "/>
<path style=" stroke:none;fill-rule:nonzero;fill:rgb(34.509804%,34.901961%,35.686275%);fill-opacity:1;" d="M 53.152344 46.984375 C 53.152344 44.664062 51.273438 42.789062 48.957031 42.789062 C 46.613281 42.789062 44.722656 44.664062 44.722656 46.984375 C 44.722656 49.320312 46.613281 51.203125 48.957031 51.203125 C 51.273438 51.203125 53.152344 49.320312 53.152344 46.984375 Z M 53.152344 46.984375 "/>
</g>
</svg>
