<?xml version="1.0" encoding="UTF-8"?>
<svg xmlns="http://www.w3.org/2000/svg" xmlns:xlink="http://www.w3.org/1999/xlink" width="100pt" height="100pt" viewBox="0 0 100 100" version="1.1">
<g id="surface1">
<path style=" stroke:none;fill-rule:nonzero;fill:rgb(34.509804%,34.901961%,35.686275%);fill-opacity:1;" d="M 88.210938 63.753906 C 82.972656 63.679688 77.742188 65.472656 73.847656 68.660156 C 70.144531 71.761719 60.316406 80.011719 50.402344 78.410156 C 45.101562 77.609375 40.832031 75.339844 37.398438 71.527344 L 37.191406 71.332031 C 35.535156 69.746094 21.320312 56.035156 19.726562 54.496094 C 18.210938 53.097656 18.179688 50.527344 19.570312 49.0625 C 21.148438 47.472656 23.507812 47.414062 25.074219 48.949219 C 27.019531 50.785156 34.144531 57.617188 39.234375 62.5 C 42.300781 65.421875 44.648438 67.648438 44.6875 67.695312 C 45.976562 68.914062 47.691406 69.539062 49.515625 69.449219 C 51.328125 69.382812 53.027344 68.605469 54.316406 67.234375 L 57.640625 63.636719 C 61.007812 60.011719 65.714844 54.925781 66.394531 54.097656 L 66.59375 53.359375 C 66.59375 52.976562 66.492188 52.664062 66.207031 52.328125 C 65.625 51.742188 64.757812 51.714844 64.117188 52.34375 L 52.203125 65.3125 C 51.523438 66.0625 50.566406 66.539062 49.484375 66.59375 C 48.40625 66.625 47.367188 66.273438 46.652344 65.59375 C 45.164062 64.117188 45.011719 61.4375 46.402344 60.007812 C 49.367188 56.6875 61.933594 42.855469 61.933594 42.855469 C 64.335938 40.621094 67.304688 37.832031 71.953125 37.042969 C 75.730469 36.421875 80.535156 36.09375 90.320312 40.027344 L 97.46875 40.167969 C 92.910156 18.390625 73.625 2.015625 50.511719 2.015625 C 24.03125 2.015625 2.535156 23.53125 2.535156 50.019531 C 2.535156 76.445312 24.03125 98 50.511719 98 C 72.148438 98 90.4375 83.609375 96.410156 63.945312 C 93.519531 63.890625 90.113281 63.820312 88.210938 63.753906 Z M 44.695312 38.859375 C 45.265625 38.28125 46.128906 38.253906 46.757812 38.769531 C 48.09375 40.046875 53.859375 45.554688 54.871094 46.488281 C 54.527344 46.832031 53.992188 47.40625 53.515625 47.90625 L 53.148438 48.300781 C 53.027344 48.449219 52.898438 48.5625 52.8125 48.644531 C 51.5 47.386719 45.363281 41.433594 44.738281 40.753906 C 44.167969 40.308594 44.183594 39.375 44.695312 38.859375 Z M 38.128906 41.667969 C 39.113281 40.722656 40.632812 40.691406 41.523438 41.613281 C 43.472656 43.472656 49.847656 49.554688 51.039062 50.710938 C 50.828125 50.933594 50.5625 51.253906 50.226562 51.605469 L 48.914062 52.996094 C 48.5 53.472656 48.132812 53.878906 47.867188 54.144531 C 46.167969 52.714844 39.183594 46.035156 38.246094 45.089844 C 37.269531 44.222656 37.226562 42.609375 38.128906 41.667969 Z M 29.847656 45.367188 C 31.128906 44.078125 33.085938 44.03125 34.300781 45.253906 C 36.542969 47.332031 44.222656 54.722656 45.820312 56.257812 C 45.304688 56.835938 44.480469 57.773438 44.277344 58.027344 C 43.359375 59.011719 42.746094 60.355469 42.539062 61.722656 C 39.351562 58.660156 30.902344 50.589844 29.941406 49.769531 C 28.765625 48.644531 28.738281 46.53125 29.847656 45.367188 Z M 29.847656 45.367188 "/>
</g>
</svg>
