<?xml version="1.0" encoding="UTF-8"?>
<svg xmlns="http://www.w3.org/2000/svg" xmlns:xlink="http://www.w3.org/1999/xlink" width="100pt" height="100pt" viewBox="0 0 100 100" version="1.1">
<g id="surface1">
<path style=" stroke:none;fill-rule:nonzero;fill:rgb(34.509804%,34.901961%,35.686275%);fill-opacity:1;" d="M 49.984375 2.015625 C 23.527344 2.015625 2.015625 23.53125 2.015625 50.015625 C 2.015625 76.4375 23.527344 97.984375 49.984375 97.984375 C 76.507812 97.984375 97.984375 76.4375 97.984375 50.015625 C 97.984375 23.53125 76.5 2.015625 49.984375 2.015625 Z M 60.46875 80.722656 L 25.8125 80.722656 L 25.8125 32.320312 L 29.207031 28.960938 L 29.207031 77.320312 L 63.9375 77.246094 Z M 67.097656 74.042969 L 32.410156 74.042969 L 32.410156 25.722656 L 35.121094 22.988281 L 35.121094 71.347656 L 69.789062 71.347656 Z M 73.84375 67.714844 L 38.761719 67.714844 L 38.761719 18.9375 L 73.84375 18.9375 Z M 73.84375 67.714844 "/>
</g>
</svg>
