<?xml version="1.0" encoding="UTF-8"?>
<svg xmlns="http://www.w3.org/2000/svg" xmlns:xlink="http://www.w3.org/1999/xlink" width="100pt" height="100pt" viewBox="0 0 100 100" version="1.1">
<g id="surface1">
<path style=" stroke:none;fill-rule:nonzero;fill:rgb(34.509804%,34.901961%,35.686275%);fill-opacity:1;" d="M 24.632812 63.824219 L 23.3125 63.371094 L 22.867188 62.054688 L 21.515625 62.332031 L 20.460938 61.414062 L 19.425781 62.332031 L 18.050781 62.054688 L 17.605469 63.371094 L 16.289062 63.824219 L 16.550781 65.191406 L 15.652344 66.226562 L 16.550781 67.269531 L 16.289062 68.636719 L 17.605469 69.097656 L 18.050781 70.390625 L 19.425781 70.128906 L 20.460938 71.042969 L 21.515625 70.128906 L 22.867188 70.390625 L 23.3125 69.097656 L 24.632812 68.636719 L 24.363281 67.269531 L 25.273438 66.226562 L 24.363281 65.191406 Z M 24.632812 63.824219 "/>
<path style=" stroke:none;fill-rule:nonzero;fill:rgb(34.509804%,34.901961%,35.686275%);fill-opacity:1;" d="M 49.976562 2.382812 C 23.726562 2.382812 2.386719 23.742188 2.386719 50.023438 C 2.386719 76.234375 23.726562 97.617188 49.976562 97.617188 C 76.285156 97.617188 97.613281 76.226562 97.613281 50.023438 C 97.613281 23.742188 76.285156 2.382812 49.976562 2.382812 Z M 27.121094 66.152344 C 27.125 66.222656 27.125 66.535156 27.035156 67.207031 C 26.648438 70.410156 23.777344 72.941406 20.46875 72.941406 C 16.816406 72.941406 13.832031 69.957031 13.832031 66.277344 C 13.832031 62.707031 16.628906 59.808594 20.214844 59.660156 C 20.96875 59.628906 22.273438 59.449219 22.753906 59.113281 L 22.753906 58.996094 L 23.023438 58.949219 L 44.109375 37.792969 C 44.601562 37.136719 44.59375 35.769531 44.585938 35.496094 C 44.285156 33.167969 45.015625 30.910156 46.625 29.324219 C 47.375 28.550781 48.296875 27.988281 49.355469 27.636719 L 51.640625 26.902344 L 51.644531 26.925781 C 52.226562 26.777344 52.867188 26.683594 53.640625 26.683594 L 54.1875 26.699219 C 54.4375 26.714844 54.695312 26.855469 55.039062 27.160156 L 55.289062 27.371094 L 51.070312 31.589844 L 52.625 35.121094 L 56 36.511719 L 60.21875 32.292969 L 60.445312 32.542969 C 60.742188 32.886719 60.867188 33.128906 60.867188 33.363281 C 60.925781 34.292969 60.859375 35.117188 60.6875 35.839844 L 60 38.105469 C 59.644531 39.1875 59.054688 40.167969 58.261719 40.957031 C 56.535156 42.691406 53.96875 43.394531 51.457031 42.871094 L 51.136719 42.863281 C 50.027344 42.863281 49.132812 43.097656 48.757812 43.472656 L 27.679688 64.554688 C 27.390625 64.847656 27.199219 65.398438 27.121094 66.152344 Z M 72.429688 49.890625 L 71.878906 49.898438 C 71.8125 49.898438 69.953125 50.007812 67.988281 51.96875 C 66.003906 53.960938 65.738281 55.882812 65.722656 55.96875 L 65.664062 56.445312 L 63.804688 58.304688 L 61.3125 57.84375 L 60.269531 56.789062 C 57.375 59.601562 48.730469 68.015625 45.777344 70.90625 C 45.492188 71.226562 44.359375 72.460938 43.828125 73.492188 C 43.011719 75.085938 40.066406 77.46875 39.472656 77.921875 L 38.539062 78.671875 L 34.832031 74.953125 L 35.574219 74 C 36.042969 73.421875 38.421875 70.5 40.007812 69.65625 C 40.835938 69.21875 41.902344 68.335938 42.628906 67.671875 C 45.511719 64.757812 53.890625 56.109375 56.699219 53.210938 L 55.675781 52.179688 L 55.199219 49.703125 L 57.066406 47.820312 L 57.542969 47.765625 C 57.625 47.757812 59.535156 47.5 61.542969 45.515625 C 63.492188 43.546875 63.609375 41.679688 63.609375 41.609375 L 63.628906 41.074219 L 64 40.679688 L 76.59375 28.085938 C 77.246094 27.453125 78.183594 27.351562 78.9375 27.296875 L 79.269531 27.289062 C 79.878906 27.289062 82.042969 27.445312 84.027344 29.421875 L 84.445312 29.867188 C 85.996094 31.648438 86.277344 33.609375 86.191406 34.53125 C 86.125 35.273438 86.050781 36.265625 85.378906 36.910156 Z M 72.429688 49.890625 "/>
</g>
</svg>
