<?xml version="1.0" encoding="UTF-8"?>
<svg xmlns="http://www.w3.org/2000/svg" xmlns:xlink="http://www.w3.org/1999/xlink" width="100pt" height="100pt" viewBox="0 0 100 100" version="1.1">
<g id="surface1">
<path style=" stroke:none;fill-rule:nonzero;fill:rgb(34.509804%,34.901961%,35.686275%);fill-opacity:1;" d="M 50.007812 2.015625 C 23.503906 2.015625 2.007812 23.539062 2.007812 49.96875 C 2.007812 76.484375 23.503906 97.984375 50.007812 97.984375 C 76.539062 97.984375 97.992188 76.484375 97.992188 49.96875 C 97.992188 23.539062 76.539062 2.015625 50.007812 2.015625 Z M 69.429688 66.632812 C 67.375 68.9375 61.675781 74.078125 52.820312 74.078125 C 51.214844 74.078125 47.480469 73.890625 43.550781 72.164062 C 35.554688 68.546875 32.671875 61.492188 31.632812 56.109375 L 27.601562 56.109375 L 27.601562 51.566406 L 31.015625 51.566406 C 31.015625 51.273438 30.996094 50.183594 30.996094 49.945312 C 30.996094 49.707031 31.003906 48.574219 31.015625 48.273438 L 27.601562 48.273438 L 27.601562 43.871094 L 31.65625 43.871094 C 32.347656 40.808594 33.707031 37.167969 36.527344 33.746094 C 38.597656 31.167969 43.753906 25.894531 53.015625 25.894531 C 59.128906 25.894531 65.058594 28.402344 69.039062 32.96875 C 70.71875 34.902344 71.753906 36.894531 72.203125 37.671875 L 63.261719 42.101562 C 62.605469 40.828125 62.160156 40.117188 61.773438 39.59375 C 60.9375 38.386719 58.175781 35.207031 53.523438 35.207031 C 52.261719 35.207031 49.203125 35.472656 46.636719 37.910156 C 45.453125 39.011719 44.121094 41.042969 43.230469 43.871094 L 60.464844 43.871094 L 59.777344 48.273438 L 42.386719 48.273438 C 42.367188 48.492188 42.320312 49.476562 42.320312 49.699219 C 42.320312 49.972656 42.339844 51.066406 42.355469 51.558594 L 59.773438 51.558594 L 60.460938 56.101562 L 43.226562 56.101562 C 44.398438 60.058594 46.476562 62.140625 48.488281 63.273438 C 49.324219 63.796875 51.0625 64.566406 53.507812 64.566406 C 59.894531 64.566406 62.328125 59.617188 63.367188 57.871094 L 72.382812 62.445312 C 71.039062 64.5 70.074219 65.859375 69.429688 66.632812 Z M 69.429688 66.632812 "/>
</g>
</svg>
