<?xml version="1.0" encoding="utf-8"?>
<!-- Generator: Adobe Illustrator 15.0.0, SVG Export Plug-In . SVG Version: 6.00 Build 0)  -->
<!DOCTYPE svg PUBLIC "-//W3C//DTD SVG 1.1//EN" "http://www.w3.org/Graphics/SVG/1.1/DTD/svg11.dtd">
<svg version="1.1" id="Layer_1" xmlns="http://www.w3.org/2000/svg" xmlns:xlink="http://www.w3.org/1999/xlink" x="0px" y="0px"
	 width="100px" height="100px" viewBox="0 0 100 100" enable-background="new 0 0 100 100" xml:space="preserve">
<path fill="#58595B" d="M74.044,10.746c-7.924,0-14.37,6.447-14.37,14.371s6.446,14.371,14.37,14.371s14.37-6.447,14.37-14.371
	S81.968,10.746,74.044,10.746z"/>
<g>
	<polygon fill="#58595B" points="27.241,47.545 19.417,55.377 27.241,55.377 	"/>
	<polygon fill="#58595B" points="42.187,72.072 42.187,72.225 16.042,72.225 16.042,88.002 47.011,88.002 47.011,62.775 
		42.315,72.146 	"/>
	<polygon fill="#58595B" points="45.491,58.65 15.808,58.65 10.632,68.951 40.269,68.951 	"/>
	<path fill="#58595B" d="M58.93,33.647H33.304l-3.211,8.742h31.711l1.343-3.765C61.446,37.249,60.015,35.56,58.93,33.647z"/>
	<polygon fill="#58595B" points="50.28,86.279 61.628,74.213 61.628,46.346 50.28,57.697 	"/>
	<polygon fill="#58595B" points="30.515,45.663 30.515,55.377 47.96,55.377 57.675,45.663 	"/>
</g>
<path fill="#FFFFFF" d="M76.165,25.116l5.606-5.606c0.586-0.585,0.586-1.535,0-2.121s-1.535-0.586-2.121,0l-5.606,5.606
	l-5.606-5.606c-0.586-0.586-1.535-0.586-2.121,0s-0.586,1.536,0,2.121l5.606,5.606l-5.606,5.606c-0.586,0.585-0.586,1.535,0,2.121
	c0.293,0.293,0.677,0.439,1.061,0.439s0.768-0.146,1.061-0.439l5.606-5.606l5.606,5.606c0.293,0.293,0.677,0.439,1.061,0.439
	s0.768-0.146,1.061-0.439c0.586-0.586,0.586-1.536,0-2.121L76.165,25.116z"/>
</svg>
