<?xml version="1.0" encoding="UTF-8"?>
<svg xmlns="http://www.w3.org/2000/svg" xmlns:xlink="http://www.w3.org/1999/xlink" width="100pt" height="100pt" viewBox="0 0 100 100" version="1.1">
<g id="surface1">
<path style=" stroke:none;fill-rule:nonzero;fill:rgb(34.509804%,34.901961%,35.686275%);fill-opacity:1;" d="M 49.964844 2.015625 C 23.527344 2.015625 2.023438 23.53125 2.023438 50.023438 C 2.023438 76.453125 23.527344 97.984375 49.964844 97.984375 C 76.5 97.984375 97.976562 76.453125 97.976562 50.023438 C 97.976562 23.527344 76.492188 2.015625 49.964844 2.015625 Z M 34.761719 55.742188 C 31.625 55.742188 29.1875 53.167969 29.1875 50.042969 C 29.1875 49.300781 29.425781 48.355469 29.703125 47.628906 C 30.589844 45.636719 32.789062 44.261719 34.90625 44.261719 C 38.046875 44.261719 40.523438 46.878906 40.523438 49.964844 C 40.527344 53.171875 37.90625 55.796875 34.761719 55.742188 Z M 49.898438 55.742188 C 46.742188 55.742188 44.328125 53.167969 44.328125 50.042969 C 44.328125 49.300781 44.554688 48.355469 44.84375 47.628906 C 45.710938 45.636719 47.921875 44.261719 50.039062 44.261719 C 53.179688 44.261719 55.664062 46.878906 55.664062 49.964844 C 55.664062 53.171875 53.039062 55.796875 49.898438 55.742188 Z M 65.007812 55.742188 C 61.878906 55.742188 59.460938 53.167969 59.460938 50.042969 C 59.460938 49.300781 59.679688 48.355469 59.96875 47.628906 C 60.835938 45.636719 63.046875 44.261719 65.15625 44.261719 C 68.3125 44.261719 70.789062 46.878906 70.789062 49.964844 C 70.789062 53.171875 68.164062 55.796875 65.007812 55.742188 Z M 65.007812 55.742188 "/>
</g>
</svg>
