<?xml version="1.0" encoding="UTF-8"?>
<svg xmlns="http://www.w3.org/2000/svg" xmlns:xlink="http://www.w3.org/1999/xlink" width="100pt" height="100pt" viewBox="0 0 100 100" version="1.1">
<g id="surface1">
<path style=" stroke:none;fill-rule:nonzero;fill:rgb(34.509804%,34.901961%,35.686275%);fill-opacity:1;" d="M 49.964844 2.007812 C 23.523438 2.007812 2.015625 23.527344 2.015625 50.023438 C 2.015625 76.457031 23.523438 97.992188 49.964844 97.992188 C 76.507812 97.992188 97.984375 76.457031 97.984375 50.023438 C 97.984375 23.527344 76.507812 2.007812 49.964844 2.007812 Z M 38.65625 37.152344 L 38.65625 44.984375 L 30.832031 44.984375 Z M 27.222656 48.257812 L 56.90625 48.257812 L 51.683594 58.558594 L 22.046875 58.558594 Z M 58.425781 77.609375 L 27.457031 77.609375 L 27.457031 61.832031 L 53.601562 61.832031 L 53.601562 61.679688 L 53.730469 61.753906 L 58.425781 52.382812 Z M 41.929688 44.984375 L 41.929688 35.269531 L 69.089844 35.269531 L 59.375 44.984375 Z M 73.042969 63.820312 L 61.695312 75.886719 L 61.695312 47.304688 L 73.042969 35.953125 Z M 73.21875 31.996094 L 41.507812 31.996094 L 44.71875 23.253906 L 76.335938 23.253906 Z M 73.21875 31.996094 "/>
</g>
</svg>
