<?xml version="1.0" encoding="UTF-8"?>
<svg xmlns="http://www.w3.org/2000/svg" xmlns:xlink="http://www.w3.org/1999/xlink" width="100pt" height="100pt" viewBox="0 0 100 100" version="1.1">
<g id="surface1">
<path style=" stroke:none;fill-rule:nonzero;fill:rgb(34.509804%,34.901961%,35.686275%);fill-opacity:1;" d="M 49.976562 2.015625 C 23.503906 2.015625 2.007812 23.523438 2.007812 50 C 2.007812 76.453125 23.503906 97.984375 49.976562 97.984375 C 76.507812 97.984375 97.992188 76.453125 97.992188 50 C 97.992188 23.523438 76.507812 2.015625 49.976562 2.015625 Z M 52.179688 69.695312 C 46.527344 69.695312 41.304688 68.320312 36.992188 65.992188 C 36.453125 65.707031 21.214844 72.476562 21.214844 72.476562 C 21.214844 72.476562 29.390625 59.707031 29.15625 59.390625 C 26.871094 56.355469 25.566406 52.808594 25.566406 49.046875 C 25.566406 37.632812 37.496094 28.382812 52.179688 28.382812 C 66.867188 28.382812 78.773438 37.632812 78.773438 49.046875 C 78.777344 60.457031 66.867188 69.695312 52.179688 69.695312 Z M 52.179688 69.695312 "/>
</g>
</svg>
