<?xml version="1.0" encoding="UTF-8"?>
<svg xmlns="http://www.w3.org/2000/svg" xmlns:xlink="http://www.w3.org/1999/xlink" width="100pt" height="100pt" viewBox="0 0 100 100" version="1.1">
<g id="surface1">
<path style=" stroke:none;fill-rule:nonzero;fill:rgb(34.509804%,34.901961%,35.686275%);fill-opacity:1;" d="M 49.976562 2.386719 C 23.726562 2.386719 2.386719 23.722656 2.386719 50.019531 C 2.386719 76.242188 23.726562 97.609375 49.976562 97.609375 C 76.285156 97.609375 97.613281 76.230469 97.613281 50.019531 C 97.613281 23.722656 76.285156 2.386719 49.976562 2.386719 Z M 24.070312 74.476562 L 25.203125 41.617188 L 34.667969 35.296875 L 34.753906 41.476562 L 36.984375 41.453125 L 46.457031 35.15625 L 46.539062 41.34375 L 48.765625 41.320312 L 58.238281 35.015625 L 58.316406 41.210938 L 64.421875 41.132812 L 65.683594 22.78125 C 65.679688 21.789062 66.480469 20.976562 67.488281 20.976562 L 71.609375 20.96875 C 72.609375 20.96875 73.40625 21.789062 73.40625 22.78125 L 74.515625 41.015625 L 75.933594 73.882812 Z M 38.46875 47.921875 L 30.457031 47.921875 C 29.757812 47.921875 29.226562 48.46875 29.226562 49.15625 L 29.226562 57.171875 C 29.226562 57.84375 29.757812 58.398438 30.457031 58.398438 L 38.46875 58.398438 C 39.144531 58.398438 39.695312 57.84375 39.695312 57.171875 L 39.695312 49.15625 C 39.695312 48.476562 39.144531 47.921875 38.46875 47.921875 Z M 54.015625 47.921875 L 45.988281 47.921875 C 45.316406 47.921875 44.761719 48.46875 44.761719 49.15625 L 44.761719 57.171875 C 44.761719 57.84375 45.316406 58.398438 45.988281 58.398438 L 54.015625 58.398438 C 54.679688 58.398438 55.242188 57.84375 55.242188 57.171875 L 55.242188 49.15625 C 55.234375 48.476562 54.679688 47.921875 54.015625 47.921875 Z M 69.546875 47.921875 L 61.53125 47.921875 C 60.839844 47.921875 60.292969 48.46875 60.292969 49.15625 L 60.292969 57.171875 C 60.292969 57.84375 60.839844 58.398438 61.53125 58.398438 L 69.546875 58.398438 C 70.21875 58.398438 70.777344 57.84375 70.777344 57.171875 L 70.777344 49.15625 C 70.769531 48.476562 70.210938 47.921875 69.546875 47.921875 Z M 69.546875 47.921875 "/>
</g>
</svg>
