<?xml version="1.0" encoding="UTF-8"?>
<svg xmlns="http://www.w3.org/2000/svg" xmlns:xlink="http://www.w3.org/1999/xlink" width="100pt" height="100pt" viewBox="0 0 100 100" version="1.1">
<g id="surface1">
<path style=" stroke:none;fill-rule:nonzero;fill:rgb(34.509804%,34.901961%,35.686275%);fill-opacity:1;" d="M 49.976562 2.382812 C 23.726562 2.382812 2.382812 23.761719 2.382812 50.023438 C 2.382812 76.273438 23.730469 97.617188 49.976562 97.617188 C 76.238281 97.617188 97.617188 76.273438 97.617188 50.023438 C 97.617188 23.761719 76.242188 2.382812 49.976562 2.382812 Z M 50.09375 34.128906 C 56.175781 34.128906 60.992188 39.042969 60.992188 45.113281 C 60.992188 51.179688 56.179688 56.105469 50.09375 56.105469 C 44.023438 56.105469 39.007812 51.1875 39.007812 45.113281 C 39.007812 39.035156 44.03125 34.128906 50.09375 34.128906 Z M 76.273438 80.011719 C 73.410156 82.511719 70.207031 84.601562 66.730469 86.207031 C 66.730469 80.761719 66.730469 76.339844 66.730469 76.339844 L 64.238281 76.339844 C 64.238281 76.339844 64.238281 80.644531 64.238281 87.265625 C 59.8125 88.980469 54.996094 89.929688 49.976562 89.929688 C 44.957031 89.929688 40.164062 88.980469 35.734375 87.273438 C 35.726562 80.644531 35.71875 76.339844 35.71875 76.339844 L 33.261719 76.339844 C 33.261719 76.339844 33.261719 80.757812 33.261719 86.242188 C 29.789062 84.628906 26.570312 82.527344 23.707031 80.027344 C 23.707031 76.660156 23.707031 74.035156 23.707031 72.988281 C 23.707031 65.21875 30.09375 58.902344 37.859375 58.902344 C 41.617188 58.902344 58.273438 58.902344 62.128906 58.902344 C 69.898438 58.902344 76.265625 65.214844 76.265625 72.988281 C 76.273438 74.03125 76.273438 76.652344 76.273438 80.011719 Z M 76.273438 80.011719 "/>
</g>
</svg>
