<?xml version="1.0" encoding="UTF-8"?>
<svg xmlns="http://www.w3.org/2000/svg" xmlns:xlink="http://www.w3.org/1999/xlink" width="100pt" height="100pt" viewBox="0 0 100 100" version="1.1">
<g id="surface1">
<path style=" stroke:none;fill-rule:nonzero;fill:rgb(34.509804%,34.901961%,35.686275%);fill-opacity:1;" d="M 49.984375 2.011719 C 23.542969 2.011719 2.015625 23.550781 2.015625 50.027344 C 2.015625 76.472656 23.542969 97.988281 49.984375 97.988281 C 76.445312 97.988281 97.984375 76.472656 97.984375 50.027344 C 97.984375 23.550781 76.445312 2.011719 49.984375 2.011719 Z M 50 75.285156 C 36.035156 75.285156 24.71875 63.964844 24.71875 50.003906 C 24.71875 36.035156 36.035156 24.714844 50 24.714844 C 63.96875 24.714844 75.285156 36.035156 75.285156 50.003906 C 75.285156 63.964844 63.96875 75.285156 50 75.285156 Z M 50 75.285156 "/>
<path style="fill-rule:nonzero;fill:rgb(34.509804%,34.901961%,35.686275%);fill-opacity:1;stroke-width:0.5;stroke-linecap:butt;stroke-linejoin:miter;stroke:rgb(34.509804%,34.901961%,35.686275%);stroke-opacity:1;stroke-miterlimit:4;" d="M 101.824219 86.181641 C 101.824219 85.619141 101.453125 85.163086 100.995117 85.163086 C 100.537109 85.163086 100.166016 85.619141 100.166016 86.181641 C 100.166016 86.745117 100.537109 87.201172 100.995117 87.201172 C 101.453125 87.201172 101.824219 86.745117 101.824219 86.181641 Z M 101.824219 86.181641 " transform="matrix(4,0,0,4,-366,-302)"/>
<path style="fill-rule:nonzero;fill:rgb(34.509804%,34.901961%,35.686275%);fill-opacity:1;stroke-width:0.5;stroke-linecap:butt;stroke-linejoin:miter;stroke:rgb(34.509804%,34.901961%,35.686275%);stroke-opacity:1;stroke-miterlimit:4;" d="M 107.833984 86.181641 C 107.833984 85.619141 107.461914 85.163086 107.003906 85.163086 C 106.545898 85.163086 106.173828 85.619141 106.173828 86.181641 C 106.173828 86.745117 106.545898 87.201172 107.003906 87.201172 C 107.461914 87.201172 107.833984 86.745117 107.833984 86.181641 Z M 107.833984 86.181641 " transform="matrix(4,0,0,4,-366,-302)"/>
<path style="fill-rule:nonzero;fill:rgb(34.509804%,34.901961%,35.686275%);fill-opacity:1;stroke-width:0.5;stroke-linecap:butt;stroke-linejoin:miter;stroke:rgb(34.509804%,34.901961%,35.686275%);stroke-opacity:1;stroke-miterlimit:4;" d="M 107.673828 89.063477 C 107.44043 88.976562 107.182617 89.099609 107.098633 89.333984 C 106.628906 90.637695 105.382812 91.510742 103.999023 91.510742 C 102.613281 91.510742 101.369141 90.632812 100.898438 89.332031 C 100.814453 89.098633 100.556641 88.975586 100.324219 89.060547 C 100.09082 89.146484 99.969727 89.40332 100.052734 89.636719 C 100.650391 91.293945 102.235352 92.40918 103.998047 92.40918 C 105.760742 92.40918 107.34668 91.293945 107.943359 89.636719 C 108.029297 89.405273 107.908203 89.147461 107.673828 89.063477 Z M 107.673828 89.063477 " transform="matrix(4,0,0,4,-366,-302)"/>
</g>
</svg>
