<?xml version="1.0" encoding="UTF-8"?>
<svg width="105px" height="30px" viewBox="0 0 105 30" version="1.1" xmlns="http://www.w3.org/2000/svg" xmlns:xlink="http://www.w3.org/1999/xlink">
    <!-- Generator: Sketch 54.1 (76490) - https://sketchapp.com -->
    <title>Powered by:</title>
    <desc>Created with Sketch.</desc>
    <g id="CrowdCoop_Design" stroke="none" stroke-width="1" fill="none" fill-rule="evenodd">
        <g id="02_Recursos" transform="translate(-1185.000000, -2244.000000)">
            <g id="footer" transform="translate(0.000000, 2198.000000)">
                <g id="Powered-by" transform="translate(1102.000000, 35.000000)">
                    <g id="logo_goteo" transform="translate(83.000000, 10.000000)">
                        <path d="M56.9716519,21.5161754 C56.8090626,22.1387274 56.5489197,22.7006599 56.1922393,23.1990864 C55.8365751,23.698475 55.3721793,24.0977935 54.7980357,24.398004 C54.2249083,24.6991768 53.5278066,24.8492821 52.7067304,24.8492821 C51.8856543,24.8492821 51.1885525,24.6991768 50.6154251,24.398004 C50.0433138,24.0977935 49.5779019,23.698475 49.2212215,23.1990864 C48.8645411,22.7006599 48.6064306,22.1387274 48.4428251,21.5161754 C48.2802357,20.8926613 48.198941,20.250865 48.198941,19.5907868 C48.198941,18.9008799 48.2802357,18.2340661 48.4428251,17.5884211 C48.6064306,16.942776 48.8645411,16.3673725 49.2212215,15.8612483 C49.5779019,15.3551242 50.0433138,14.9519568 50.6154251,14.6507841 C51.1885525,14.3505735 51.8856543,14.1995061 52.7067304,14.1995061 C53.5278066,14.1995061 54.2249083,14.3505735 54.7980357,14.6507841 C55.3721793,14.9519568 55.8365751,15.3551242 56.1922393,15.8612483 C56.5489197,16.3673725 56.8090626,16.942776 56.9716519,17.5884211 C57.1342413,18.2340661 57.2145198,18.9008799 57.2145198,19.5907868 C57.2145198,20.250865 57.1342413,20.8926613 56.9716519,21.5161754 M58.7022122,13.6943441 C58.0061266,12.9457422 57.1525326,12.3587922 56.1465111,11.9334939 C55.1384572,11.5091579 53.9922023,11.2955466 52.7067304,11.2955466 C51.4365012,11.2955466 50.2943111,11.5091579 49.2801601,11.9334939 C48.264993,12.3587922 47.4093666,12.9457422 46.7122648,13.6943441 C46.015163,14.4419838 45.4796344,15.3195223 45.1087275,16.3240729 C44.7368044,17.3276613 44.5508428,18.4168866 44.5508428,19.5907868 C44.5508428,20.7348583 44.7368044,21.8019528 45.1087275,22.7920702 C45.4796344,23.7821876 46.015163,24.6443306 46.7122648,25.3775371 C47.4093666,26.1107436 48.264993,26.6861471 49.2801601,27.1047099 C50.2943111,27.5223104 51.4365012,27.7320729 52.7067304,27.7320729 C53.9922023,27.7320729 55.1384572,27.5223104 56.1465111,27.1047099 C57.1525326,26.6861471 58.0061266,26.1107436 58.7022122,25.3775371 C59.399314,24.6443306 59.9338264,23.7821876 60.3057495,22.7920702 C60.6766564,21.8019528 60.8636342,20.7348583 60.8636342,19.5907868 C60.8636342,18.4168866 60.6766564,17.3276613 60.3057495,16.3240729 C59.9338264,15.3195223 59.399314,14.4419838 58.7022122,13.6943441 M60.1145038,14.8279987 L65.0877051,14.8279987 L65.0877051,27.6340945 L68.7347872,27.6340945 L68.7347872,14.8279987 L73.7079885,14.8279987 L73.7079885,11.9230769 L60.1145038,11.9230769 L60.1145038,14.8279987 Z M78.6244868,20.8783954 L86.6645295,20.8783954 L86.6645295,18.1947827 L78.6244868,18.1947827 L78.6244868,14.8279987 L87.3850035,14.8279987 L87.3850035,11.9230769 L74.9763886,11.9230769 L74.9763886,27.6340945 L87.5719813,27.6340945 L87.5719813,24.7291727 L78.6244868,24.7291727 L78.6244868,20.8783954 Z M100.562874,21.437274 C100.400285,22.0598259 100.140142,22.6217584 99.7834615,23.1201849 C99.4277973,23.6195735 98.9634015,24.018892 98.3892579,24.3191026 C97.8161305,24.6202753 97.1190287,24.7703806 96.2979526,24.7703806 C95.4768764,24.7703806 94.7797746,24.6202753 94.2066472,24.3191026 C93.634536,24.018892 93.169124,23.6195735 92.8124437,23.1201849 C92.4557633,22.6217584 92.1976527,22.0598259 92.0340472,21.437274 C91.8714579,20.8137598 91.7901632,20.1719636 91.7901632,19.5118853 C91.7901632,18.8219784 91.8714579,18.1551646 92.0340472,17.5095196 C92.1976527,16.8638745 92.4557633,16.288471 92.8124437,15.7823468 C93.169124,15.2762227 93.634536,14.8730553 94.2066472,14.5718826 C94.7797746,14.2716721 95.4768764,14.1206046 96.2979526,14.1206046 C97.1190287,14.1206046 97.8161305,14.2716721 98.3892579,14.5718826 C98.9634015,14.8730553 99.4277973,15.2762227 99.7834615,15.7823468 C100.140142,16.288471 100.400285,16.8638745 100.562874,17.5095196 C100.725463,18.1551646 100.805742,18.8219784 100.805742,19.5118853 C100.805742,20.1719636 100.725463,20.8137598 100.562874,21.437274 M103.896972,16.2451714 C104.267879,17.2487598 104.454856,18.3379852 104.454856,19.5118853 C104.454856,20.6559568 104.267879,21.7230513 103.896972,22.7131687 C103.525049,23.7032861 102.990536,24.5654291 102.293434,25.2986356 C101.597349,26.0318421 100.743755,26.6072456 99.7377332,27.0258084 C98.7296793,27.4434089 97.5834245,27.6531714 96.2979526,27.6531714 C95.0277234,27.6531714 93.8855333,27.4434089 92.8713823,27.0258084 C91.8562151,26.6072456 91.0005887,26.0318421 90.303487,25.2986356 C89.6063852,24.5654291 89.0708566,23.7032861 88.6999496,22.7131687 C88.3280265,21.7230513 88.142065,20.6559568 88.142065,19.5118853 C88.142065,18.3379852 88.3280265,17.2487598 88.6999496,16.2451714 C89.0708566,15.2406208 89.6063852,14.3630823 90.303487,13.6154426 C91.0005887,12.8668408 91.8562151,12.2798907 92.8713823,11.8545924 C93.8855333,11.4302564 95.0277234,11.2166451 96.2979526,11.2166451 C97.5834245,11.2166451 98.7296793,11.4302564 99.7377332,11.8545924 C100.743755,12.2798907 101.597349,12.8668408 102.293434,13.6154426 C102.990536,14.3630823 103.525049,15.2406208 103.896972,16.2451714 Z M34.8845003,21.460752 L34.8845003,18.8868316 L41.8555181,18.8868316 L41.8555181,27.3793255 L39.5315068,27.3793255 L39.1605998,25.5973066 C38.5092263,26.3892081 37.7887523,26.9434429 36.9991778,27.2580866 C36.2096034,27.5746548 35.4118994,27.7324578 34.606066,27.7324578 C33.3358368,27.7324578 32.1926306,27.5226953 31.1784796,27.1041325 C30.1633124,26.686532 29.3087022,26.1111285 28.6105843,25.3769598 C27.9134825,24.6447155 27.37897,23.7825725 27.0080631,22.7924551 C26.6351238,21.8013754 26.4501784,20.7352432 26.4501784,19.5911717 C26.4501784,18.4172715 26.6351238,17.3280462 27.0080631,16.3234955 C27.37897,15.3189449 27.9134825,14.4423687 28.6105843,13.694729 C29.3087022,12.9451649 30.1633124,12.3591771 31.1784796,11.9338788 C32.1926306,11.5085806 33.3358368,11.2959314 34.606066,11.2959314 C35.4566115,11.2959314 36.2827686,11.4171703 37.0804725,11.6586858 C37.8781764,11.9002013 38.5986504,12.2571825 39.2418945,12.7257803 C39.8841224,13.1953404 40.4145701,13.7755549 40.8332376,14.4644996 C41.2519052,15.1534443 41.5069672,15.946308 41.5994399,16.840204 L38.1149472,16.840204 C37.8974839,15.9597789 37.4798326,15.3006629 36.8599607,14.8609314 C36.2400889,14.4202378 35.4891294,14.199891 34.606066,14.199891 C33.7839737,14.199891 33.0868719,14.3499962 32.5137445,14.651169 C31.9416333,14.9513795 31.4762213,15.3545468 31.1205571,15.8616332 C30.7628606,16.3677574 30.50475,16.9431609 30.3421607,17.5888059 C30.1795714,18.2334888 30.0982767,18.9012648 30.0982767,19.5911717 C30.0982767,20.2502877 30.1795714,20.8920839 30.3421607,21.5165603 C30.50475,22.1391123 30.7628606,22.7010448 31.1205571,23.1994713 C31.4762213,23.6978977 31.9416333,24.0972162 32.5137445,24.3983889 C33.0868719,24.6985995 33.7839737,24.8487047 34.606066,24.8487047 C35.814308,24.8487047 36.7471644,24.5600408 37.4056512,23.9798262 C38.064138,23.401536 38.4482553,22.5615239 38.5559707,21.460752 L34.8845003,21.460752 Z" id="logo-GOTEO" fill="#06566D"></path>
                        <path d="M10.7052688,0.585198113 C8.93946214,5.72885849 6.89524407,8.33812264 3.44902579,11.8931792 C1.18605591,14.232217 -0.000116979572,17.1514811 -0.000116979572,19.8952736 C-0.000116979572,25.9993491 4.79253621,30.9435566 10.7052688,30.9435566 C16.6168316,30.9435566 21.4071452,25.9993491 21.4071452,19.8952736 C21.4071452,17.1514811 20.2274062,14.232217 17.9638515,11.8931792 C14.5141238,8.33812264 12.4716604,5.72885849 10.7052688,0.585198113 Z" id="Path" fill="#ACDBDD"></path>
                        <path d="M10.7035141,26.8211415 C7.10346771,26.8211415 4.18131793,23.8369528 4.13569589,20.1309906 C4.18131793,16.4285377 7.10346771,13.4385 10.7052688,13.4385 L10.7035141,20.1309906 L17.2771813,20.1309906 C17.2303895,23.8369528 14.3053152,26.8211415 10.7035141,26.8211415" id="Path" fill="#26BDB9"></path>
                    </g>
                </g>
            </g>
        </g>
    </g>
</svg>