<?xml version="1.0" encoding="UTF-8" standalone="no"?>
<svg
   xmlns:dc="http://purl.org/dc/elements/1.1/"
   xmlns:cc="http://creativecommons.org/ns#"
   xmlns:rdf="http://www.w3.org/1999/02/22-rdf-syntax-ns#"
   xmlns:svg="http://www.w3.org/2000/svg"
   xmlns="http://www.w3.org/2000/svg"
   xml:space="preserve"
   enable-background="new 0 0 153 66"
   viewBox="0 0 151.74803 46.046803"
   height="46.046803"
   width="151.74803"
   y="0px"
   x="0px"
   id="Layer_1"
   version="1.1"><metadata
     id="metadata21"><rdf:RDF><cc:Work
         rdf:about=""><dc:format>image/svg+xml</dc:format><dc:type
           rdf:resource="http://purl.org/dc/dcmitype/StillImage" /><dc:title></dc:title></cc:Work></rdf:RDF></metadata><defs
     id="defs19" /><g
     transform="translate(-0.46191092,-10.43459)"
     id="g14"><path
       style="fill:#b5dadc"
       id="path2"
       d="m 16.713,10.439 c 0.115,-0.024 0.127,0.054 0.135,0.136 1.934,6.017 4.734,9.956 8.37,14.041 3.479,3.908 7.502,7.609 7.831,14.446 0.258,5.373 -2.095,9.717 -4.59,12.42 C 25.675,54.5 21.155,56.577 16.443,56.478 11.599,56.375 7.634,54.239 4.832,51.078 2.041,47.93 0.123,43.945 0.512,38.521 1.083,30.549 7.073,26.656 10.908,21.646 c 2.493,-3.26 4.233,-6.632 5.805,-11.207 z M 6.722,40.143 c 0.048,3.639 2.016,6.961 4.726,8.641 3.823,2.369 9.141,1.762 12.286,-1.352 1.66,-1.642 2.787,-3.934 3.105,-7.289 -4.198,0 -5.156,-0.062 -10.034,-0.062 0,-3.331 0.044,-6.87 0.044,-10.199 C 11.016,29.867 6.651,34.675 6.722,40.143 Z" /><path
       style="fill:#ffffff"
       id="path4"
       d="m 63.427,33.391 c -1.634,0.167 -3.346,0.255 -4.996,0.406 -0.327,-0.537 -0.683,-0.985 -0.945,-1.351 -0.517,-0.72 -1.553,-1.669 -2.565,-2.025 -4.33,-1.521 -8.778,1.396 -9.315,6.21 -0.489,4.371 1.302,8.896 4.995,9.855 4.36,1.134 7.395,-1.644 8.113,-4.977 -1.628,0 -3.833,0.067 -5.683,-0.02 0,-1.395 0,-2.788 0,-4.186 3.645,0 7.291,0 10.935,0 -0.015,5.383 -1.092,8.659 -3.645,11.071 -4.351,4.112 -12.305,3.659 -16.336,-0.271 -2.574,-2.51 -3.89,-6.473 -3.511,-11.478 0.44,-5.79 4.254,-10.495 10.801,-11.071 6.76,-0.59 10.737,2.727 12.152,7.837 z" /><path
       style="fill:#ffffff"
       id="path6"
       d="m 77.195,25.696 c 7.408,-0.375 12.681,5.06 12.693,12.556 0.016,8.068 -5.715,12.96 -12.287,12.96 -6.517,10e-4 -11.146,-4.67 -11.746,-10.8 -0.819,-8.422 3.773,-14.335 11.34,-14.716 z m -5.668,16.605 c 0.917,2.396 3.177,4.271 6.075,4.321 9.586,0.169 9.461,-17.632 -0.675,-16.336 -4.707,0.601 -7.542,6.427 -5.4,12.015 z" /><path
       style="fill:#ffffff"
       id="path8"
       d="m 139.438,25.696 c 6.875,-0.375 12.058,4.291 12.69,10.801 0.794,8.146 -4.251,14.715 -12.149,14.715 -7.317,10e-4 -11.865,-5.575 -11.881,-12.556 -0.016,-7.174 4.177,-12.572 11.34,-12.96 z m -2.834,5.4 c -4.986,3.156 -4.656,15.578 3.51,15.526 6.104,-0.04 8.91,-8.356 5.671,-13.366 -1.218,-1.881 -3.607,-3.409 -6.616,-2.97 -1.357,0.197 -1.839,0.348 -2.565,0.81 z" /><path
       style="fill:#ffffff"
       id="path10"
       d="m 107.846,25.965 c 0,1.531 0,3.061 0,4.591 -2.115,0 -4.23,0 -6.346,0 0,6.706 0,13.411 0,20.117 -1.667,0 -3.33,0 -4.996,0 0,-6.662 0,-13.426 0,-20.086 -2.021,0 -4.132,-0.031 -6.21,-0.031 0,-1.656 -0.03,-3.016 -0.03,-4.591 5.804,0 11.775,0 17.582,0 z" /><path
       style="fill:#ffffff"
       id="path12"
       d="m 126.206,25.965 c 0,1.486 0.062,3.09 0.062,4.575 -3.504,0 -6.846,0.016 -10.457,0.016 0,1.755 0,3.667 0,5.42 3.096,0 6.282,-0.019 9.721,-0.019 0,1.483 0,2.969 0,4.454 -3.239,0 -6.479,0 -9.721,0 0,2.082 -0.045,4.166 -0.045,5.833 3.371,0 6.094,-0.028 10.305,-0.028 0,1.485 0,2.971 0,4.456 -5.129,0 -10.26,0 -15.389,0 0.088,-8.19 -0.182,-16.741 0.133,-24.708 5.13,0.001 10.259,0.001 15.391,0.001 z" /></g></svg>