<?xml version="1.0" encoding="utf-8"?>
<!DOCTYPE svg PUBLIC "-//W3C//DTD SVG 1.1//EN" "http://www.w3.org/Graphics/SVG/1.1/DTD/svg11.dtd">
<svg version="1.1" id="Layer_1" xmlns="http://www.w3.org/2000/svg" xmlns:xlink="http://www.w3.org/1999/xlink" x="0px" y="0px"
	 width="153px" height="66px" viewBox="0 0 153 66" enable-background="new 0 0 153 66" xml:space="preserve">
<g>
	<path fill="#B5DADC" d="M16.713,10.439c0.115-0.024,0.127,0.054,0.135,0.136c1.934,6.017,4.734,9.956,8.37,14.041
		c3.479,3.908,7.502,7.609,7.831,14.446c0.258,5.373-2.095,9.717-4.59,12.42c-2.784,3.018-7.304,5.095-12.016,4.996
		c-4.844-0.103-8.809-2.239-11.611-5.4c-2.791-3.148-4.709-7.133-4.32-12.557c0.571-7.972,6.561-11.865,10.396-16.875
		C13.401,18.386,15.141,15.014,16.713,10.439z M6.722,40.143c0.048,3.639,2.016,6.961,4.726,8.641
		c3.823,2.369,9.141,1.762,12.286-1.352c1.66-1.642,2.787-3.934,3.105-7.289c-4.198,0-5.156-0.062-10.034-0.062
		c0-3.331,0.044-6.87,0.044-10.199C11.016,29.867,6.651,34.675,6.722,40.143z"/>
	<path fill="#FFFFFF" d="M63.427,33.391c-1.634,0.167-3.346,0.255-4.996,0.406c-0.327-0.537-0.683-0.985-0.945-1.351
		c-0.517-0.72-1.553-1.669-2.565-2.025c-4.33-1.521-8.778,1.396-9.315,6.21c-0.489,4.371,1.302,8.896,4.995,9.855
		c4.36,1.134,7.395-1.644,8.113-4.977c-1.628,0-3.833,0.067-5.683-0.02c0-1.395,0-2.788,0-4.186c3.645,0,7.291,0,10.935,0
		c-0.015,5.383-1.092,8.659-3.645,11.071c-4.351,4.112-12.305,3.659-16.336-0.271c-2.574-2.51-3.89-6.473-3.511-11.478
		c0.44-5.79,4.254-10.495,10.801-11.071C58.035,24.964,62.012,28.281,63.427,33.391z"/>
	<path fill="#FFFFFF" d="M77.195,25.696c7.408-0.375,12.681,5.06,12.693,12.556c0.016,8.068-5.715,12.96-12.287,12.96
		c-6.517,0.001-11.146-4.67-11.746-10.8C65.036,31.99,69.628,26.077,77.195,25.696z M71.527,42.301
		c0.917,2.396,3.177,4.271,6.075,4.321c9.586,0.169,9.461-17.632-0.675-16.336C72.22,30.887,69.385,36.713,71.527,42.301z"/>
	<path fill="#FFFFFF" d="M139.438,25.696c6.875-0.375,12.058,4.291,12.69,10.801c0.794,8.146-4.251,14.715-12.149,14.715
		c-7.317,0.001-11.865-5.575-11.881-12.556C128.082,31.482,132.275,26.084,139.438,25.696z M136.604,31.096
		c-4.986,3.156-4.656,15.578,3.51,15.526c6.104-0.04,8.91-8.356,5.671-13.366c-1.218-1.881-3.607-3.409-6.616-2.97
		C137.812,30.483,137.33,30.634,136.604,31.096z"/>
	<path fill="#FFFFFF" d="M107.846,25.965c0,1.531,0,3.061,0,4.591c-2.115,0-4.23,0-6.346,0c0,6.706,0,13.411,0,20.117
		c-1.667,0-3.33,0-4.996,0c0-6.662,0-13.426,0-20.086c-2.021,0-4.132-0.031-6.21-0.031c0-1.656-0.03-3.016-0.03-4.591
		C96.068,25.965,102.039,25.965,107.846,25.965z"/>
	<path fill="#FFFFFF" d="M126.206,25.965c0,1.486,0.062,3.09,0.062,4.575c-3.504,0-6.846,0.016-10.457,0.016c0,1.755,0,3.667,0,5.42
		c3.096,0,6.282-0.019,9.721-0.019c0,1.483,0,2.969,0,4.454c-3.239,0-6.479,0-9.721,0c0,2.082-0.045,4.166-0.045,5.833
		c3.371,0,6.094-0.028,10.305-0.028c0,1.485,0,2.971,0,4.456c-5.129,0-10.26,0-15.389,0c0.088-8.19-0.182-16.741,0.133-24.708
		C115.945,25.965,121.074,25.965,126.206,25.965z"/>
</g>
</svg>
