<svg xmlns="http://www.w3.org/2000/svg" xmlns:xlink="http://www.w3.org/1999/xlink" width="48" height="48" viewBox="0 0 48 48">
  <defs>
    <rect id="donantes@1x-a" width="48" height="48" x="0" y="0"/>
  </defs>
  <g fill="none" fill-rule="evenodd">
    <mask id="donantes@1x-b" fill="#fff">
      <use xlink:href="#donantes@1x-a"/>
    </mask>
    <path fill="#1C60A3" d="M19.2747253 19.1111109C19.8241758 19.6666665 20.8887363 20.222222 22.4684066 20.7777776L22.7912088 20.8888887 27.1868132 20.8888887 27.1868132 22.6666665C29.8241758 22.6666665 32.4615385 20.8888887 33.3406593 20.8888887 34.2197802 20.8888887 34.2197802 23.5555554 33.3406593 23.5555554 32.4615385 23.5555554 25.4285714 27.9999998 22.7912088 27.9999998 21.0935961 27.9999998 18.3032671 27.1713566 14.4202219 25.5140703L14 25.3333331 14 19.1111109 19.2747253 19.1111109zM28.0659341 22.6666665L20.1538462 22.6666665 20.1538462 23.5555554 28.0659341 23.5555554 28.0659341 22.6666665zM24.989011-4C29.1061666 2.2471617 31.6146905 6.3132306 32.5145828 8.1982067 33.0439468 9.307049 33.3406593 10.6368603 33.3406593 11.9506172 33.3406593 16.614355 29.601499 20.3950615 24.989011 20.3950615 20.376523 20.3950615 16.6373626 16.614355 16.6373626 11.9506172 16.6373626 10.6027383 16.9496882 9.32861747 17.5051561 8.1982067 18.4161446 6.34429005 20.9107629 2.27822115 24.989011-4zM23.450236 4.7443654L23.2649689 5.05126828C22.5389914 6.25782641 21.9940695 7.21182082 21.6289935 7.91602755L21.6289935 7.91602755 21.461437 8.24732812C20.8932098 9.40370469 20.5934066 10.6806693 20.5934066 11.9999999 20.5934066 13.3432243 20.9041832 14.6423895 21.4922849 15.8148036L21.4922849 15.8148036 22.2763268 15.4127274 22.1390596 15.124022C21.7021552 14.1526912 21.4725275 13.0933627 21.4725275 11.9999999 21.4725275 10.8186786 21.7405705 9.67699177 22.2487374 8.64284129 22.5425702 8.0448739 23.0181051 7.19147142 23.6741325 6.08540986L23.6741325 6.08540986 24.1999764 5.20853349 23.450236 4.7443654zM19.2747253 67.1111109C19.8241758 67.6666665 20.8887363 68.222222 22.4684066 68.7777776L22.7912088 68.8888887 27.1868132 68.8888887 27.1868132 70.6666665C29.8241758 70.6666665 32.4615385 68.8888887 33.3406593 68.8888887 34.2197802 68.8888887 34.2197802 71.5555554 33.3406593 71.5555554 32.4615385 71.5555554 25.4285714 75.9999998 22.7912088 75.9999998 21.0935961 75.9999998 18.3032671 75.1713566 14.4202219 73.5140703L14 73.3333331 14 67.1111109 19.2747253 67.1111109zM28.0659341 70.6666665L20.1538462 70.6666665 20.1538462 71.5555554 28.0659341 71.5555554 28.0659341 70.6666665zM24.989011 44C29.1061666 50.2471617 31.6146905 54.3132306 32.5145828 56.1982067 33.0439468 57.307049 33.3406593 58.6368603 33.3406593 59.9506172 33.3406593 64.614355 29.601499 68.3950615 24.989011 68.3950615 20.376523 68.3950615 16.6373626 64.614355 16.6373626 59.9506172 16.6373626 58.6027383 16.9496882 57.3286175 17.5051561 56.1982067 18.4161446 54.34429 20.9107629 50.2782211 24.989011 44zM23.450236 52.7443654L23.2649689 53.0512683C22.5389914 54.2578264 21.9940695 55.2118208 21.6289935 55.9160275L21.6289935 55.9160275 21.461437 56.2473281C20.8932098 57.4037047 20.5934066 58.6806693 20.5934066 59.9999999 20.5934066 61.3432243 20.9041832 62.6423895 21.4922849 63.8148036L21.4922849 63.8148036 22.2763268 63.4127274 22.1390596 63.124022C21.7021552 62.1526912 21.4725275 61.0933627 21.4725275 59.9999999 21.4725275 58.8186786 21.7405705 57.6769918 22.2487374 56.6428413 22.5425702 56.0448739 23.0181051 55.1914714 23.6741325 54.0854099L23.6741325 54.0854099 24.1999764 53.2085335 23.450236 52.7443654zM43.2747253 43.1111109C43.8241758 43.6666665 44.8887363 44.222222 46.4684066 44.7777776L46.7912088 44.8888887 51.1868132 44.8888887 51.1868132 46.6666665C53.8241758 46.6666665 56.4615385 44.8888887 57.3406593 44.8888887 58.2197802 44.8888887 58.2197802 47.5555554 57.3406593 47.5555554 56.4615385 47.5555554 49.4285714 51.9999998 46.7912088 51.9999998 45.0935961 51.9999998 42.3032671 51.1713566 38.4202219 49.5140703L38 49.3333331 38 43.1111109 43.2747253 43.1111109zM52.0659341 46.6666665L44.1538462 46.6666665 44.1538462 47.5555554 52.0659341 47.5555554 52.0659341 46.6666665zM48.989011 20C53.1061666 26.2471617 55.6146905 30.3132306 56.5145828 32.1982067 57.0439468 33.307049 57.3406593 34.6368603 57.3406593 35.9506172 57.3406593 40.614355 53.601499 44.3950615 48.989011 44.3950615 44.376523 44.3950615 40.6373626 40.614355 40.6373626 35.9506172 40.6373626 34.6027383 40.9496882 33.3286175 41.5051561 32.1982067 42.4161446 30.34429 44.9107629 26.2782211 48.989011 20zM47.450236 28.7443654L47.2649689 29.0512683C46.5389914 30.2578264 45.9940695 31.2118208 45.6289935 31.9160275L45.6289935 31.9160275 45.461437 32.2473281C44.8932098 33.4037047 44.5934066 34.6806693 44.5934066 35.9999999 44.5934066 37.3432243 44.9041832 38.6423895 45.4922849 39.8148036L45.4922849 39.8148036 46.2763268 39.4127274 46.1390596 39.124022C45.7021552 38.1526912 45.4725275 37.0933627 45.4725275 35.9999999 45.4725275 34.8186786 45.7405705 33.6769918 46.2487374 32.6428413 46.5425702 32.0448739 47.0181051 31.1914714 47.6741325 30.0854099L47.6741325 30.0854099 48.1999764 29.2085335 47.450236 28.7443654zM43.2747253-4.88888906C43.8241758-4.33333351 44.8887363-3.77777796 46.4684066-3.2222224L46.7912088-3.11111129 51.1868132-3.11111129 51.1868132-1.33333353C53.8241758-1.33333353 56.4615385-3.11111129 57.3406593-3.11111129 58.2197802-3.11111129 58.2197802-.444444647 57.3406593-.444444647 56.4615385-.444444647 49.4285714 3.99999976 46.7912088 3.99999976 45.0935961 3.99999976 42.3032671 3.17135662 38.4202219 1.51407033L38 1.33333312 38-4.88888906 43.2747253-4.88888906zM52.0659341-1.33333353L44.1538462-1.33333353 44.1538462-.444444647 52.0659341-.444444647 52.0659341-1.33333353zM48.989011-28C53.1061666-21.7528383 55.6146905-17.6867694 56.5145828-15.8017933 57.0439468-14.692951 57.3406593-13.3631397 57.3406593-12.0493828 57.3406593-7.38564498 53.601499-3.60493845 48.989011-3.60493845 44.376523-3.60493845 40.6373626-7.38564498 40.6373626-12.0493828 40.6373626-13.3972617 40.9496882-14.6713825 41.5051561-15.8017933 42.4161446-17.65571 44.9107629-21.7217789 48.989011-28zM47.450236-19.2556346L47.2649689-18.9487317C46.5389914-17.7421736 45.9940695-16.7881792 45.6289935-16.0839725L45.6289935-16.0839725 45.461437-15.7526719C44.8932098-14.5962953 44.5934066-13.3193307 44.5934066-12.0000001 44.5934066-10.6567757 44.9041832-9.35761049 45.4922849-8.18519638L45.4922849-8.18519638 46.2763268-8.58727265 46.1390596-8.87597799C45.7021552-9.8473088 45.4725275-10.9066373 45.4725275-12.0000001 45.4725275-13.1813214 45.7405705-14.3230082 46.2487374-15.3571587 46.5425702-15.9551261 47.0181051-16.8085286 47.6741325-17.9145901L47.6741325-17.9145901 48.1999764-18.7914665 47.450236-19.2556346zM-4.72527473-4.88888906C-4.17582418-4.33333351-3.11126374-3.77777796-1.53159341-3.2222224L-1.20879121-3.11111129 3.18681319-3.11111129 3.18681319-1.33333353C5.82417582-1.33333353 8.46153846-3.11111129 9.34065934-3.11111129 10.2197802-3.11111129 10.2197802-.444444647 9.34065934-.444444647 8.46153846-.444444647 1.42857143 3.99999976-1.20879121 3.99999976-2.90640394 3.99999976-5.69673291 3.17135662-9.57977813 1.51407033L-10 1.33333312-10-4.88888906-4.72527473-4.88888906zM4.06593407-1.33333353L-3.84615385-1.33333353-3.84615385-.444444647 4.06593407-.444444647 4.06593407-1.33333353zM.989010989-28C5.10616661-21.7528383 7.61469054-17.6867694 8.51458278-15.8017933 9.04394683-14.692951 9.34065934-13.3631397 9.34065934-12.0493828 9.34065934-7.38564498 5.60149901-3.60493845.989010989-3.60493845-3.62347703-3.60493845-7.36263736-7.38564498-7.36263736-12.0493828-7.36263736-13.3972617-7.05031177-14.6713825-6.49484386-15.8017933-5.58385535-17.65571-3.08923707-21.7217789.989010989-28zM-.549764039-19.2556346L-.735031107-18.9487317C-1.46100861-17.7421736-2.00593046-16.7881792-2.37100654-16.0839725L-2.37100654-16.0839725-2.53856303-15.7526719C-3.10679017-14.5962953-3.40659341-13.3193307-3.40659341-12.0000001-3.40659341-10.6567757-3.09581678-9.35761049-2.50771508-8.18519638L-2.50771508-8.18519638-1.72367315-8.58727265-1.86094041-8.87597799C-2.29784479-9.8473088-2.52747253-10.9066373-2.52747253-12.0000001-2.52747253-13.1813214-2.25942955-14.3230082-1.75126258-15.3571587-1.45742984-15.9551261-.981894862-16.8085286-.325867534-17.9145901L-.325867534-17.9145901.199976373-18.7914665-.549764039-19.2556346zM-4.72527473 43.1111109C-4.17582418 43.6666665-3.11126374 44.222222-1.53159341 44.7777776L-1.20879121 44.8888887 3.18681319 44.8888887 3.18681319 46.6666665C5.82417582 46.6666665 8.46153846 44.8888887 9.34065934 44.8888887 10.2197802 44.8888887 10.2197802 47.5555554 9.34065934 47.5555554 8.46153846 47.5555554 1.42857143 51.9999998-1.20879121 51.9999998-2.90640394 51.9999998-5.69673291 51.1713566-9.57977813 49.5140703L-10 49.3333331-10 43.1111109-4.72527473 43.1111109zM4.06593407 46.6666665L-3.84615385 46.6666665-3.84615385 47.5555554 4.06593407 47.5555554 4.06593407 46.6666665zM.989010989 20C5.10616661 26.2471617 7.61469054 30.3132306 8.51458278 32.1982067 9.04394683 33.307049 9.34065934 34.6368603 9.34065934 35.9506172 9.34065934 40.614355 5.60149901 44.3950615.989010989 44.3950615-3.62347703 44.3950615-7.36263736 40.614355-7.36263736 35.9506172-7.36263736 34.6027383-7.05031177 33.3286175-6.49484386 32.1982067-5.58385535 30.34429-3.08923707 26.2782211.989010989 20zM-.549764039 28.7443654L-.735031107 29.0512683C-1.46100861 30.2578264-2.00593046 31.2118208-2.37100654 31.9160275L-2.37100654 31.9160275-2.53856303 32.2473281C-3.10679017 33.4037047-3.40659341 34.6806693-3.40659341 35.9999999-3.40659341 37.3432243-3.09581678 38.6423895-2.50771508 39.8148036L-2.50771508 39.8148036-1.72367315 39.4127274-1.86094041 39.124022C-2.29784479 38.1526912-2.52747253 37.0933627-2.52747253 35.9999999-2.52747253 34.8186786-2.25942955 33.6769918-1.75126258 32.6428413-1.45742984 32.0448739-.981894862 31.1914714-.325867534 30.0854099L-.325867534 30.0854099.199976373 29.2085335-.549764039 28.7443654z" mask="url(#donantes@1x-b)"/>
  </g>
</svg>
