<svg xmlns="http://www.w3.org/2000/svg" xmlns:xlink="http://www.w3.org/1999/xlink" width="48" height="48" viewBox="0 0 48 48">
  <defs>
    <rect id="impulsores@1x-a" width="48" height="48" x="0" y="0"/>
  </defs>
  <g fill="none" fill-rule="evenodd">
    <mask id="impulsores@1x-b" fill="#fff">
      <use xlink:href="#impulsores@1x-a"/>
    </mask>
    <path fill="#B7639F" d="M32.8424749 12.1684393L33.9845986 17.8728857 24.8476087 27 23.7054849 21.2955536 32.8424749 12.1684393zM31.4689998-1.29113086C31.9572443-1.7788477 32.6295208-2.03434023 33.3162608-1.99628261L32.8424749-1.52223216 38.5530936 4.18221427 38.9939544 3.74434038C38.9444718 4.52217656 38.6139091 5.26235376 38.0542711 5.82138683L25.4186705 18.4433304C24.787893 19.0734261 23.7652006 19.0734261 23.134423 18.4433304L21.4212374 16.7319964 17.9948662 20.1546643 16.8527425 19.013775 20.2791137 15.5911071 18.5659281 13.8797732C17.9351505 13.2496775 17.9351505 12.2280904 18.5659281 11.5979946L31.4689998-1.29113086zM33.5277491-1.97858787L38.5530936-1.52223216 38.9871708 3.24745645C38.9944127 3.32703101 38.9986712 3.40653066 39 3.48580728L33.5277491-1.97858787zM19.1369899 3.04132499L24.8476087 4.18221427 15.7106187 13.3093286 10 12.1684393 19.1369899 3.04132499zM32.8424749 60.1684393L33.9845986 65.8728857 24.8476087 75 23.7054849 69.2955536 32.8424749 60.1684393zM31.4689998 46.7088691C31.9572443 46.2211523 32.6295208 45.9656598 33.3162608 46.0037174L32.8424749 46.4777678 38.5530936 52.1822143 38.9939544 51.7443404C38.9444718 52.5221766 38.6139091 53.2623538 38.0542711 53.8213868L25.4186705 66.4433304C24.787893 67.0734261 23.7652006 67.0734261 23.134423 66.4433304L21.4212374 64.7319964 17.9948662 68.1546643 16.8527425 67.013775 20.2791137 63.5911071 18.5659281 61.8797732C17.9351505 61.2496775 17.9351505 60.2280904 18.5659281 59.5979946L31.4689998 46.7088691zM33.5277491 46.0214121L38.5530936 46.4777678 38.9871708 51.2474565C38.9944127 51.327031 38.9986712 51.4065307 39 51.4858073L33.5277491 46.0214121zM19.1369899 51.041325L24.8476087 52.1822143 15.7106187 61.3093286 10 60.1684393 19.1369899 51.041325zM56.8424749 36.1684393L57.9845986 41.8728857 48.8476087 51 47.7054849 45.2955536 56.8424749 36.1684393zM55.4689998 22.7088691C55.9572443 22.2211523 56.6295208 21.9656598 57.3162608 22.0037174L56.8424749 22.4777678 62.5530936 28.1822143 62.9939544 27.7443404C62.9444718 28.5221766 62.6139091 29.2623538 62.0542711 29.8213868L49.4186705 42.4433304C48.787893 43.0734261 47.7652006 43.0734261 47.134423 42.4433304L45.4212374 40.7319964 41.9948662 44.1546643 40.8527425 43.013775 44.2791137 39.5911071 42.5659281 37.8797732C41.9351505 37.2496775 41.9351505 36.2280904 42.5659281 35.5979946L55.4689998 22.7088691zM57.5277491 22.0214121L62.5530936 22.4777678 62.9871708 27.2474565C62.9944127 27.327031 62.9986712 27.4065307 63 27.4858073L57.5277491 22.0214121zM43.1369899 27.041325L48.8476087 28.1822143 39.7106187 37.3093286 34 36.1684393 43.1369899 27.041325zM56.8424749-11.8315607L57.9845986-6.12711429 48.8476087 3 47.7054849-2.70444643 56.8424749-11.8315607zM55.4689998-25.2911309C55.9572443-25.7788477 56.6295208-26.0343402 57.3162608-25.9962826L56.8424749-25.5222322 62.5530936-19.8177857 62.9939544-20.2556596C62.9444718-19.4778234 62.6139091-18.7376462 62.0542711-18.1786132L49.4186705-5.55666965C48.787893-4.92657389 47.7652006-4.92657389 47.134423-5.55666965L45.4212374-7.26800358 41.9948662-3.84533572 40.8527425-4.986225 44.2791137-8.40889286 42.5659281-10.1202268C41.9351505-10.7503225 41.9351505-11.7719096 42.5659281-12.4020054L55.4689998-25.2911309zM57.5277491-25.9785879L62.5530936-25.5222322 62.9871708-20.7525435C62.9944127-20.672969 62.9986712-20.5934693 63-20.5141927L57.5277491-25.9785879zM43.1369899-20.958675L48.8476087-19.8177857 39.7106187-10.6906714 34-11.8315607 43.1369899-20.958675zM8.84247485-11.8315607L9.9845986-6.12711429.847608654 3-.294515088-2.70444643 8.84247485-11.8315607zM7.46899976-25.2911309C7.95724431-25.7788477 8.62952077-26.0343402 9.31626079-25.9962826L8.84247485-25.5222322 14.5530936-19.8177857 14.9939544-20.2556596C14.9444718-19.4778234 14.6139091-18.7376462 14.0542711-18.1786132L1.41867053-5.55666965C.787893-4.92657389-.234799434-4.92657389-.86557696-5.55666965L-2.57876257-7.26800358-6.0051338-3.84533572-7.14725754-4.986225-3.72088632-8.40889286-5.43407193-10.1202268C-6.06484946-10.7503225-6.06484946-11.7719096-5.43407193-12.4020054L7.46899976-25.2911309zM9.5277491-25.9785879L14.5530936-25.5222322 14.9871708-20.7525435C14.9944127-20.672969 14.9986712-20.5934693 15-20.5141927L9.5277491-25.9785879zM-4.86301006-20.958675L.847608654-19.8177857-8.28938129-10.6906714-14-11.8315607-4.86301006-20.958675zM8.84247485 36.1684393L9.9845986 41.8728857.847608654 51-.294515088 45.2955536 8.84247485 36.1684393zM7.46899976 22.7088691C7.95724431 22.2211523 8.62952077 21.9656598 9.31626079 22.0037174L8.84247485 22.4777678 14.5530936 28.1822143 14.9939544 27.7443404C14.9444718 28.5221766 14.6139091 29.2623538 14.0542711 29.8213868L1.41867053 42.4433304C.787893 43.0734261-.234799434 43.0734261-.86557696 42.4433304L-2.57876257 40.7319964-6.0051338 44.1546643-7.14725754 43.013775-3.72088632 39.5911071-5.43407193 37.8797732C-6.06484946 37.2496775-6.06484946 36.2280904-5.43407193 35.5979946L7.46899976 22.7088691zM9.5277491 22.0214121L14.5530936 22.4777678 14.9871708 27.2474565C14.9944127 27.327031 14.9986712 27.4065307 15 27.4858073L9.5277491 22.0214121zM-4.86301006 27.041325L.847608654 28.1822143-8.28938129 37.3093286-14 36.1684393-4.86301006 27.041325z" mask="url(#impulsores@1x-b)"/>
  </g>
</svg>
