<svg xmlns="http://www.w3.org/2000/svg" xmlns:xlink="http://www.w3.org/1999/xlink" width="48" height="48" viewBox="0 0 48 48">
  <defs>
    <rect id="matchers@1x-a" width="48" height="48" x="0" y="0"/>
  </defs>
  <g fill="none" fill-rule="evenodd">
    <mask id="matchers@1x-b" fill="#fff">
      <use xlink:href="#matchers@1x-a"/>
    </mask>
    <path fill="#692B86" d="M24.8810668 10.3774295C24.9806628 10.3774295 25.0744003 10.4244514 25.1310333 10.5034483 25.3315273 10.7824451 30.0431353 17.3830721 30.0431353 20.0282132 30.0431353 22.769906 27.7276905 25 24.8810668 25 22.0344431 25 19.7183473 22.769906 19.7189982 20.0282132 19.7189982 17.3830721 24.4306063 10.7824451 24.6311003 10.5034483 24.6877333 10.4244514 24.7814708 10.3774295 24.8810668 10.3774295zM23.9996745-1C27.9327411-1 31.574831 1.1523511 33.3812295 4.51285266 37.5896498 4.55360502 41 7.90658307 41 11.9730408 41 18.4526646 34.146101 19.4275862 34.0764489 19.4363636L34.0764489 19.4363636 34.003542 19.5216301 31.761004 19.5216301C30.5254925 15.1329154 25.4714825 8.17366771 25.2273745 7.8338558 25.1486091 7.72413793 25.0190691 7.59874608 24.8810668 7.59874608 24.7430645 7.59874608 24.6135245 7.70407524 24.5347591 7.8137931 24.2906511 8.15297806 19.2359901 15.1329154 18.0004786 19.5216301L18.0004786 19.5216301 13.2482451 19.5214599C12.7987823 19.5146604 7 19.2747985 7 13.7335423 7 10.5862069 9.65394115 7.94545455 12.9158737 7.94545455 13.1157167 7.94545455 13.3162107 7.95485893 13.5167046 7.97429467 14.1377152 2.89592476 18.6279987-1 23.9996745-1zM24.8810668 58.3774295C24.9806628 58.3774295 25.0744003 58.4244514 25.1310333 58.5034483 25.3315273 58.7824451 30.0431353 65.3830721 30.0431353 68.0282132 30.0431353 70.769906 27.7276905 73 24.8810668 73 22.0344431 73 19.7183473 70.769906 19.7189982 68.0282132 19.7189982 65.3830721 24.4306063 58.7824451 24.6311003 58.5034483 24.6877333 58.4244514 24.7814708 58.3774295 24.8810668 58.3774295zM23.9996745 47C27.9327411 47 31.574831 49.1523511 33.3812295 52.5128527 37.5896498 52.553605 41 55.9065831 41 59.9730408 41 66.4526646 34.146101 67.4275862 34.0764489 67.4363636L34.0764489 67.4363636 34.003542 67.5216301 31.761004 67.5216301C30.5254925 63.1329154 25.4714825 56.1736677 25.2273745 55.8338558 25.1486091 55.7241379 25.0190691 55.5987461 24.8810668 55.5987461 24.7430645 55.5987461 24.6135245 55.7040752 24.5347591 55.8137931 24.2906511 56.1529781 19.2359901 63.1329154 18.0004786 67.5216301L18.0004786 67.5216301 13.2482451 67.5214599C12.7987823 67.5146604 7 67.2747985 7 61.7335423 7 58.5862069 9.65394115 55.9454545 12.9158737 55.9454545 13.1157167 55.9454545 13.3162107 55.9548589 13.5167046 55.9742947 14.1377152 50.8959248 18.6279987 47 23.9996745 47zM48.8810668 34.3774295C48.9806628 34.3774295 49.0744003 34.4244514 49.1310333 34.5034483 49.3315273 34.7824451 54.0431353 41.3830721 54.0431353 44.0282132 54.0431353 46.769906 51.7276905 49 48.8810668 49 46.0344431 49 43.7183473 46.769906 43.7189982 44.0282132 43.7189982 41.3830721 48.4306063 34.7824451 48.6311003 34.5034483 48.6877333 34.4244514 48.7814708 34.3774295 48.8810668 34.3774295zM47.9996745 23C51.9327411 23 55.574831 25.1523511 57.3812295 28.5128527 61.5896498 28.553605 65 31.9065831 65 35.9730408 65 42.4526646 58.146101 43.4275862 58.0764489 43.4363636L58.0764489 43.4363636 58.003542 43.5216301 55.761004 43.5216301C54.5254925 39.1329154 49.4714825 32.1736677 49.2273745 31.8338558 49.1486091 31.7241379 49.0190691 31.5987461 48.8810668 31.5987461 48.7430645 31.5987461 48.6135245 31.7040752 48.5347591 31.8137931 48.2906511 32.1529781 43.2359901 39.1329154 42.0004786 43.5216301L42.0004786 43.5216301 37.2482451 43.5214599C36.7987823 43.5146604 31 43.2747985 31 37.7335423 31 34.5862069 33.6539411 31.9454545 36.9158737 31.9454545 37.1157167 31.9454545 37.3162107 31.9548589 37.5167046 31.9742947 38.1377152 26.8959248 42.6279987 23 47.9996745 23zM48.8810668-13.6225705C48.9806628-13.6225705 49.0744003-13.5755486 49.1310333-13.4965517 49.3315273-13.2175549 54.0431353-6.6169279 54.0431353-3.97178683 54.0431353-1.23009404 51.7276905 1 48.8810668 1 46.0344431 1 43.7183473-1.23009404 43.7189982-3.97178683 43.7189982-6.6169279 48.4306063-13.2175549 48.6311003-13.4965517 48.6877333-13.5755486 48.7814708-13.6225705 48.8810668-13.6225705zM47.9996745-25C51.9327411-25 55.574831-22.8476489 57.3812295-19.4871473 61.5896498-19.446395 65-16.0934169 65-12.0269592 65-5.54733542 58.146101-4.57241379 58.0764489-4.56363636L58.0764489-4.56363636 58.003542-4.47836991 55.761004-4.47836991C54.5254925-8.86708464 49.4714825-15.8263323 49.2273745-16.1661442 49.1486091-16.2758621 49.0190691-16.4012539 48.8810668-16.4012539 48.7430645-16.4012539 48.6135245-16.2959248 48.5347591-16.1862069 48.2906511-15.8470219 43.2359901-8.86708464 42.0004786-4.47836991L42.0004786-4.47836991 37.2482451-4.47854012C36.7987823-4.48533963 31-4.72520152 31-10.2664577 31-13.4137931 33.6539411-16.0545455 36.9158737-16.0545455 37.1157167-16.0545455 37.3162107-16.0451411 37.5167046-16.0257053 38.1377152-21.1040752 42.6279987-25 47.9996745-25zM.881066799-13.6225705C.980662825-13.6225705 1.07440026-13.5755486 1.13103329-13.4965517 1.33152725-13.2175549 6.0431353-6.6169279 6.0431353-3.97178683 6.0431353-1.23009404 3.72769045 1 .881066799 1-1.96555685 1-4.28165266-1.23009404-4.28100184-3.97178683-4.28100184-6.6169279.430606345-13.2175549.631100304-13.4965517.687733338-13.5755486.781470774-13.6225705.881066799-13.6225705zM-.000325477207-25C3.93274109-25 7.57483104-22.8476489 9.38122954-19.4871473 13.5896498-19.446395 17-16.0934169 17-12.0269592 17-5.54733542 10.146101-4.57241379 10.0764489-4.56363636L10.0764489-4.56363636 10.003542-4.47836991 7.761004-4.47836991C6.52549252-8.86708464 1.47148245-15.8263323 1.22737455-16.1661442 1.14860906-16.2758621 1.01906914-16.4012539.881066799-16.4012539.743064464-16.4012539.613524535-16.2959248.534759051-16.1862069.290651146-15.8470219-4.76400988-8.86708464-5.99952136-4.47836991L-5.99952136-4.47836991-10.7517549-4.47854012C-11.2012177-4.48533963-17-4.72520152-17-10.2664577-17-13.4137931-14.3460589-16.0545455-11.0841263-16.0545455-10.8842833-16.0545455-10.6837893-16.0451411-10.4832954-16.0257053-9.86228485-21.1040752-5.3720013-25-.000325477207-25zM.881066799 34.3774295C.980662825 34.3774295 1.07440026 34.4244514 1.13103329 34.5034483 1.33152725 34.7824451 6.0431353 41.3830721 6.0431353 44.0282132 6.0431353 46.769906 3.72769045 49 .881066799 49-1.96555685 49-4.28165266 46.769906-4.28100184 44.0282132-4.28100184 41.3830721.430606345 34.7824451.631100304 34.5034483.687733338 34.4244514.781470774 34.3774295.881066799 34.3774295zM-.000325477207 23C3.93274109 23 7.57483104 25.1523511 9.38122954 28.5128527 13.5896498 28.553605 17 31.9065831 17 35.9730408 17 42.4526646 10.146101 43.4275862 10.0764489 43.4363636L10.0764489 43.4363636 10.003542 43.5216301 7.761004 43.5216301C6.52549252 39.1329154 1.47148245 32.1736677 1.22737455 31.8338558 1.14860906 31.7241379 1.01906914 31.5987461.881066799 31.5987461.743064464 31.5987461.613524535 31.7040752.534759051 31.8137931.290651146 32.1529781-4.76400988 39.1329154-5.99952136 43.5216301L-5.99952136 43.5216301-10.7517549 43.5214599C-11.2012177 43.5146604-17 43.2747985-17 37.7335423-17 34.5862069-14.3460589 31.9454545-11.0841263 31.9454545-10.8842833 31.9454545-10.6837893 31.9548589-10.4832954 31.9742947-9.86228485 26.8959248-5.3720013 23-.000325477207 23z" mask="url(#matchers@1x-b)"/>
  </g>
</svg>
