<svg xmlns="http://www.w3.org/2000/svg" xmlns:xlink="http://www.w3.org/1999/xlink" width="48" height="48" viewBox="0 0 48 48">
  <defs>
    <rect id="sobre_goteo@1x-a" width="48" height="48" x="0" y="0"/>
  </defs>
  <g fill="none" fill-rule="evenodd">
    <mask id="sobre_goteo@1x-b" fill="#fff">
      <use xlink:href="#sobre_goteo@1x-a"/>
    </mask>
    <path fill="#FFF79B" d="M23.7726814-6.89055263C25.2802019-2.20040213 27.4627549.869982255 30.2969559 4.05417119 33.008778 7.10039159 36.144639 9.98525897 36.401089 15.3145857 36.6021956 19.502749 34.7680716 22.8888241 32.823261 24.9957672 30.6531797 27.3482476 27.1299156 28.9672342 23.4569907 28.8900654 19.681174 28.8097786 16.5905231 27.1448025 14.4064111 24.680856 12.2308734 22.2270429 10.7358246 19.1208022 11.0390436 14.8928853 11.4841285 8.6788451 16.153233 5.64431695 19.1425511 1.73910604 21.0858028-.802009242 22.4421036-3.43042664 23.6674512-6.99656235 23.7570917-7.01526995 23.7664455-6.95447026 23.7726814-6.89055263zM23.7734609 8.15890251C19.2267353 8.14723755 15.8242911 11.8949928 15.8796344 16.1572071 15.9170496 18.9937465 17.4510725 21.5831897 19.563472 22.8927215 22.5434364 24.7393173 26.6887281 24.266171 29.1402028 21.8388602 30.434145 20.5589488 31.3126225 18.7723733 31.5604982 16.1572071 28.2882277 16.1572071 27.5414827 16.1088791 23.7391636 16.1088791 23.7391636 13.5124205 23.7734609 10.7538294 23.7734609 8.15890251zM23.7726814 41.1094474C25.2802019 45.7995979 27.4627549 48.8699823 30.2969559 52.0541712 33.008778 55.1003916 36.144639 57.985259 36.401089 63.3145857 36.6021956 67.502749 34.7680716 70.8888241 32.823261 72.9957672 30.6531797 75.3482476 27.1299156 76.9672342 23.4569907 76.8900654 19.681174 76.8097786 16.5905231 75.1448025 14.4064111 72.680856 12.2308734 70.2270429 10.7358246 67.1208022 11.0390436 62.8928853 11.4841285 56.6788451 16.153233 53.6443169 19.1425511 49.739106 21.0858028 47.1979908 22.4421036 44.5695734 23.6674512 41.0034376 23.7570917 40.9847301 23.7664455 41.0455297 23.7726814 41.1094474zM23.7734609 56.1589025C19.2267353 56.1472375 15.8242911 59.8949928 15.8796344 64.1572071 15.9170496 66.9937465 17.4510725 69.5831897 19.563472 70.8927215 22.5434364 72.7393173 26.6887281 72.266171 29.1402028 69.8388602 30.434145 68.5589488 31.3126225 66.7723733 31.5604982 64.1572071 28.2882277 64.1572071 27.5414827 64.1088791 23.7391636 64.1088791 23.7391636 61.5124205 23.7734609 58.7538294 23.7734609 56.1589025zM47.7726814 17.1094474C49.2802019 21.7995979 51.4627549 24.8699823 54.2969559 28.0541712 57.008778 31.1003916 60.144639 33.985259 60.401089 39.3145857 60.6021956 43.502749 58.7680716 46.8888241 56.823261 48.9957672 54.6531797 51.3482476 51.1299156 52.9672342 47.4569907 52.8900654 43.681174 52.8097786 40.5905231 51.1448025 38.4064111 48.680856 36.2308734 46.2270429 34.7358246 43.1208022 35.0390436 38.8928853 35.4841285 32.6788451 40.153233 29.6443169 43.1425511 25.739106 45.0858028 23.1979908 46.4421036 20.5695734 47.6674512 17.0034376 47.7570917 16.9847301 47.7664455 17.0455297 47.7726814 17.1094474zM47.7734609 32.1589025C43.2267353 32.1472375 39.8242911 35.8949928 39.8796344 40.1572071 39.9170496 42.9937465 41.4510725 45.5831897 43.563472 46.8927215 46.5434364 48.7393173 50.6887281 48.266171 53.1402028 45.8388602 54.434145 44.5589488 55.3126225 42.7723733 55.5604982 40.1572071 52.2882277 40.1572071 51.5414827 40.1088791 47.7391636 40.1088791 47.7391636 37.5124205 47.7734609 34.7538294 47.7734609 32.1589025zM47.7726814-30.8905526C49.2802019-26.2004021 51.4627549-23.1300177 54.2969559-19.9458288 57.008778-16.8996084 60.144639-14.014741 60.401089-8.68541429 60.6021956-4.49725097 58.7680716-1.11117589 56.823261.995767241 54.6531797 3.34824758 51.1299156 4.96723422 47.4569907 4.89006538 43.681174 4.80977861 40.5905231 3.14480246 38.4064111.680856022 36.2308734-1.77295714 34.7358246-4.87919775 35.0390436-9.10711471 35.4841285-15.3211549 40.153233-18.3556831 43.1425511-22.260894 45.0858028-24.8020092 46.4421036-27.4304266 47.6674512-30.9965624 47.7570917-31.0152699 47.7664455-30.9544703 47.7726814-30.8905526zM47.7734609-15.8410975C43.2267353-15.8527625 39.8242911-12.1050072 39.8796344-7.84279293 39.9170496-5.00625351 41.4510725-2.41681027 43.563472-1.10727847 46.5434364.739317263 50.6887281.266170952 53.1402028-2.16113978 54.434145-3.44105122 55.3126225-5.22762675 55.5604982-7.84279293 52.2882277-7.84279293 51.5414827-7.89112089 47.7391636-7.89112089 47.7391636-10.4875795 47.7734609-13.2461706 47.7734609-15.8410975zM-.227318599-30.8905526C1.28020194-26.2004021 3.46275494-23.1300177 6.29695591-19.9458288 9.00877801-16.8996084 12.144639-14.014741 12.401089-8.68541429 12.6021956-4.49725097 10.7680716-1.11117589 8.82326101.995767241 6.65317974 3.34824758 3.12991561 4.96723422-.543009301 4.89006538-4.31882599 4.80977861-7.40947694 3.14480246-9.59358891.680856022-11.7691266-1.77295714-13.2641754-4.87919775-12.9609564-9.10711471-12.5158715-15.3211549-7.84676703-18.3556831-4.8574489-22.260894-2.91419724-24.8020092-1.55789645-27.4304266-.332548833-30.9965624-.242908264-31.0152699-.233554465-30.9544703-.227318599-30.8905526zM-.226539116-15.8410975C-4.77326471-15.8527625-8.17570894-12.1050072-8.12036563-7.84279293-8.08295044-5.00625351-6.54892747-2.41681027-4.43652796-1.10727847-1.45656363.739317263 2.68872811.266170952 5.14020282-2.16113978 6.43414496-3.44105122 7.31262254-5.22762675 7.5604982-7.84279293 4.28822766-7.84279293 3.54148274-7.89112089-.260836378-7.89112089-.260836378-10.4875795-.226539116-13.2461706-.226539116-15.8410975zM-.227318599 17.1094474C1.28020194 21.7995979 3.46275494 24.8699823 6.29695591 28.0541712 9.00877801 31.1003916 12.144639 33.985259 12.401089 39.3145857 12.6021956 43.502749 10.7680716 46.8888241 8.82326101 48.9957672 6.65317974 51.3482476 3.12991561 52.9672342-.543009301 52.8900654-4.31882599 52.8097786-7.40947694 51.1448025-9.59358891 48.680856-11.7691266 46.2270429-13.2641754 43.1208022-12.9609564 38.8928853-12.5158715 32.6788451-7.84676703 29.6443169-4.8574489 25.739106-2.91419724 23.1979908-1.55789645 20.5695734-.332548833 17.0034376-.242908264 16.9847301-.233554465 17.0455297-.227318599 17.1094474zM-.226539116 32.1589025C-4.77326471 32.1472375-8.17570894 35.8949928-8.12036563 40.1572071-8.08295044 42.9937465-6.54892747 45.5831897-4.43652796 46.8927215-1.45656363 48.7393173 2.68872811 48.266171 5.14020282 45.8388602 6.43414496 44.5589488 7.31262254 42.7723733 7.5604982 40.1572071 4.28822766 40.1572071 3.54148274 40.1088791-.260836378 40.1088791-.260836378 37.5124205-.226539116 34.7538294-.226539116 32.1589025z" mask="url(#sobre_goteo@1x-b)"/>
  </g>
</svg>
