<?xml version="1.0" encoding="UTF-8"?>
<svg width="96px" height="50px" viewBox="0 0 96 50" version="1.1" xmlns="http://www.w3.org/2000/svg" xmlns:xlink="http://www.w3.org/1999/xlink">
    <defs></defs>
    <g id="Page-1" stroke="none" stroke-width="1" fill="none" fill-rule="evenodd">
        <g id="activity" transform="translate(-306.000000, -89.000000)" stroke-width="2" stroke="#26BDB9" fill="#26BDB9">
            <g id="menu-dashboard" transform="translate(0.000000, 50.000000)">
                <g id="actividad" transform="translate(307.000000, 40.000000)">
                    <g id="icono_actividad">
                        <path d="M91.7333,24.9357 L69.6663,24.9357 C68.8033,24.9357 68.0263,25.4157 67.6393,26.1887 L61.2623,38.9407 L51.4583,1.6937 C51.2123,0.7567 50.3973,0.0797 49.4303,0.0087 L49.1783,-0.0003 C48.3593,0.0027 47.5403,0.5407 47.1863,1.3727 L35.2883,29.1257 L26.2543,14.6647 C25.8713,14.0557 25.2103,13.6507 24.5263,13.6117 L24.2073,13.5977 C23.6513,13.5997 22.9803,13.9257 22.5603,14.4527 L14.1773,24.9357 L2.2663,24.9357 C1.0163,24.9357 0.0003,25.9517 0.0003,27.2027 C0.0003,28.4527 1.0163,29.4687 2.2663,29.4687 L15.2663,29.4687 C15.9573,29.4687 16.6053,29.1567 17.0423,28.6147 L24.1033,19.7827 L33.7453,35.2047 C34.1633,35.8707 34.8783,36.2687 35.6603,36.2687 L35.9303,36.2577 C36.6873,36.1987 37.4153,35.6757 37.7473,34.8987 L48.7533,9.2217 L58.4063,45.9117 C58.6453,46.8207 59.4493,47.4957 60.4073,47.5937 L60.6003,47.6027 C61.4633,47.6027 62.2403,47.1217 62.6273,46.3497 L71.0683,29.4687 L91.7333,29.4687 C92.9843,29.4687 94.0003,28.4527 94.0003,27.2027 C94.0003,25.9517 92.9843,24.9357 91.7333,24.9357 Z" id="icono-actividad"></path>
                    </g>
                </g>
            </g>
        </g>
    </g>
</svg>
