<svg fill="#000000" xmlns="http://www.w3.org/2000/svg" xmlns:xlink="http://www.w3.org/1999/xlink" version="1.1" x="0px" y="0px" viewBox="0 0 100 100" style="enable-background:new 0 0 100 100;" xml:space="preserve"><g><path d="M87.4,47H75.1c-1,0-1.9,0.6-2.3,1.5l-9.9,22.7l-11-50.9c-0.2-1.1-1.2-1.9-2.4-2c-1.1,0-2.2,0.7-2.5,1.8L36,59.8L24.5,45.2   c-0.5-0.6-1.2-1-2-1h-9.9c-1.4,0-2.5,1.1-2.5,2.5s1.1,2.5,2.5,2.5h8.7l13.8,17.5c0.6,0.7,1.5,1.1,2.5,0.9c0.9-0.2,1.7-0.9,1.9-1.8   l9.7-34.7l10.5,48.6c0.2,1.1,1.1,1.9,2.2,2c0.1,0,0.2,0,0.2,0c1,0,1.9-0.6,2.3-1.5L76.8,52h10.6c1.4,0,2.5-1.1,2.5-2.5   S88.7,47,87.4,47z"/></g></svg>