<?xml version="1.0" encoding="UTF-8"?>
<svg width="30px" height="30px" viewBox="0 0 30 30" version="1.1" xmlns="http://www.w3.org/2000/svg" xmlns:xlink="http://www.w3.org/1999/xlink">
    <!-- Generator: Sketch 46.1 (44463) - http://www.bohemiancoding.com/sketch -->
    <title>Group 11</title>
    <desc>Created with Sketch.</desc>
    <defs></defs>
    <g id="Page-1" stroke="none" stroke-width="1" fill="none" fill-rule="evenodd">
        <g id="Editando-&gt;-imagenes" transform="translate(-36.000000, -855.000000)" fill="#FFFFFF">
            <g id="SIDEBAR" transform="translate(-1.000000, 0.000000)">
                <g id="09" transform="translate(34.000000, 787.000000)">
                    <g id="Group-11" transform="translate(3.000000, 68.000000)">
                        <path d="M16.225,13.7666667 L29.0083333,13.7666667 C29.280225,13.7666667 29.5,13.5464 29.5,13.275 C29.5,5.95506667 23.5449333,0 16.225,0 C15.9531083,0 15.7333333,0.220266667 15.7333333,0.491666667 L15.7333333,13.275 C15.7333333,13.5464 15.9531083,13.7666667 16.225,13.7666667 M13.7666667,16.0214008 L22.6619,24.9166342 C22.7538417,25.0085758 22.8059583,25.1339508 22.8059583,25.2642425 C22.8059583,25.3945342 22.7538417,25.5194175 22.6619,25.6118508 C20.1544,28.1188592 16.8209,29.4999508 13.275,29.4999508 C5.95506667,29.4999508 0,23.5448842 0,16.2249508 C0,8.9050175 5.95506667,2.94995083 13.275,2.94995083 C13.5468917,2.94995083 13.7666667,3.1702175 13.7666667,3.4416175 L13.7666667,16.0214008 Z M29.0083333,14.75 C29.280225,14.75 29.5,14.9702667 29.5,15.2416667 C29.5,18.7875667 28.1189083,22.1210667 25.6119,24.6285667 C25.5194667,24.7205083 25.3945833,24.772625 25.2642917,24.772625 C25.1335083,24.772625 25.008625,24.7205083 24.9166833,24.6285667 L15.8773917,15.589275 C15.736775,15.4486583 15.6944917,15.2372417 15.7707,15.0533583 C15.8464167,14.8699667 16.0263667,14.75 16.225,14.75 L29.0083333,14.75 Z" id="icono_stats"></path>
                    </g>
                </g>
            </g>
        </g>
    </g>
</svg>