<?xml version="1.0" encoding="UTF-8"?>
<svg width="15px" height="29px" viewBox="0 0 15 29" version="1.1" xmlns="http://www.w3.org/2000/svg" xmlns:xlink="http://www.w3.org/1999/xlink">
    <defs></defs>
    <g id="Page-1" stroke="none" stroke-width="1" fill="none" fill-rule="evenodd">
        <g id="donros" transform="translate(-41.000000, -727.000000)" fill="#FFFFFF">
            <g id="SIDEBAR" transform="translate(-1.000000, 0.000000)">
                <g id="07" transform="translate(34.000000, 726.000000)">
                    <g id="Group-9" transform="translate(8.000000, 1.000000)">
                        <path d="M14.1693292,9.20808229 C14.3665282,9.2738153 14.4999275,9.45844771 14.4999275,9.66676333 L14.4999275,18.8500507 C14.4999275,19.1168494 14.2833952,19.3333817 14.0165966,19.3333817 L12.0160899,19.3333817 L10.6274802,28.5882021 C10.592197,28.8245509 10.3891981,29 10.1499493,29 L4.34997825,29 C4.11024612,29 3.90724713,28.8245509 3.87196397,28.5882021 L2.48335425,19.3333817 L0.483330917,19.3333817 C0.21604892,19.3333817 0,19.1168494 0,18.8500507 L0,9.66676333 C0,9.45844771 0.132916002,9.2738153 0.330115016,9.20808229 L4.68009327,7.75808954 C4.91499209,7.68027327 5.17067415,7.79143938 5.2731403,8.01667158 L7.24996375,12.3651998 L9.22630387,8.01667158 C9.32877002,7.79143938 9.58348542,7.67978993 9.8193509,7.75808954 L14.1693292,9.20808229 Z M7.24977042,6.76663283 C5.38411308,6.76663283 3.866454,5.24897376 3.866454,3.38331642 C3.866454,1.51765908 5.38411308,0 7.24977042,0 C9.11542776,0 10.6330868,1.51765908 10.6330868,3.38331642 C10.6330868,5.24897376 9.11542776,6.76663283 7.24977042,6.76663283 Z" id="icono_gestion"></path>
                    </g>
                </g>
            </g>
        </g>
    </g>
</svg>
