<?xml version="1.0" encoding="UTF-8" standalone="no"?>
<svg
   xmlns:dc="http://purl.org/dc/elements/1.1/"
   xmlns:cc="http://creativecommons.org/ns#"
   xmlns:rdf="http://www.w3.org/1999/02/22-rdf-syntax-ns#"
   xmlns:svg="http://www.w3.org/2000/svg"
   xmlns="http://www.w3.org/2000/svg"
   width="40.60651"
   height="46.04649"
   viewBox="0 0 10.743805 12.183134"
   version="1.1"
   id="svg1463">
  <defs
     id="defs1457" />
  <metadata
     id="metadata1460">
    <rdf:RDF>
      <cc:Work
         rdf:about="">
        <dc:format>image/svg+xml</dc:format>
        <dc:type
           rdf:resource="http://purl.org/dc/dcmitype/StillImage" />
        <dc:title></dc:title>
      </cc:Work>
    </rdf:RDF>
  </metadata>
  <g
     id="layer1"
     transform="translate(-23.131158,-140.60366)">
    <path
       style="fill:#000000;fill-opacity:0.99319727;stroke-width:0.26458332"
       d="m 28.489258,140.60473 c 0.03043,-0.006 0.0336,0.0143 0.03572,0.036 0.511704,1.59199 1.252537,2.63419 2.214562,3.71501 0.920486,1.03399 1.984905,2.01322 2.071952,3.82217 0.06826,1.42161 -0.554302,2.57096 -1.214437,3.28613 -0.7366,0.79851 -1.932517,1.34805 -3.179233,1.32186 -1.281642,-0.0273 -2.330715,-0.59241 -3.072077,-1.42875 -0.738452,-0.83291 -1.245923,-1.88728 -1.143,-3.32238 0.151077,-2.10926 1.735931,-3.13928 2.750608,-4.46484 0.659606,-0.86254 1.119981,-1.75472 1.535906,-2.96519 z m -2.643452,7.85919 c 0.0127,0.96282 0.5334,1.84176 1.250421,2.28626 1.011502,0.6268 2.418556,0.4662 3.250671,-0.35772 0.439208,-0.43444 0.737393,-1.04087 0.821531,-1.92854 -1.110721,0 -1.364192,-0.0164 -2.654829,-0.0164 0,-0.88132 0.01164,-1.81768 0.01164,-2.69848 -1.543314,-0.004 -2.698221,1.26814 -2.679436,2.71489 z"
       id="path2" />
  </g>
</svg>
