<?xml version="1.0" encoding="UTF-8"?>
<svg width="26px" height="26px" viewBox="0 0 26 26" version="1.1" xmlns="http://www.w3.org/2000/svg" xmlns:xlink="http://www.w3.org/1999/xlink">
    <defs></defs>
    <g id="Page-1" stroke="none" stroke-width="1" fill="none" fill-rule="evenodd">
        <g id="Edit" transform="translate(-36.000000, -488.000000)" fill="#FFFFFF">
            <g id="SIDEBAR" transform="translate(-1.000000, 0.000000)">
                <g id="03" transform="translate(34.000000, 488.000000)">
                    <g id="Group-4" transform="translate(3.000000, 0.000000)">
                        <path d="M0,26 L6.02301919,24.4944829 L1.50551711,19.9774562 L0,26 Z M25.6315833,3.22067522 L22.7793248,0.368416722 C22.5345059,0.123597868 22.2316912,0 21.8789619,0 C21.3170669,0 20.6448847,0.323255963 20.1238721,0.843793138 L19.9845868,0.983078428 L25.0169216,6.01541317 L25.1562069,5.87612788 C25.9339227,5.09793668 26.3470248,3.93611672 25.6315833,3.22067522 M1.92033057,19.0473822 L17.8863229,3.08138993 L22.9186576,8.11372467 L6.95266531,24.079717 L1.92033057,19.0473822 Z M18.5585051,2.40920768 L19.3124521,1.65526068 L24.3447869,6.68759542 L23.5908399,7.44154241 L18.5585051,2.40920768 Z" id="icono_edit-"></path>
                    </g>
                </g>
            </g>
        </g>
    </g>
</svg>
