<?xml version="1.0" encoding="UTF-8"?>
<svg width="15px" height="15px" viewBox="0 0 15 15" version="1.1" xmlns="http://www.w3.org/2000/svg" xmlns:xlink="http://www.w3.org/1999/xlink">
    <defs></defs>
    <g id="Page-1" stroke="none" stroke-width="1" fill="none" fill-rule="evenodd">
        <g id="favourite" transform="translate(-402.000000, -521.000000)">
            <g id="contenido" transform="translate(303.000000, 248.000000)">
                <g id="img_01" transform="translate(0.000000, 100.000000)">
                    <g id="img-01" transform="translate(20.000000, 62.000000)">
                        <g id="boton-fav" transform="translate(74.000000, 106.000000)">
                            <rect id="Rectangle-14" fill="none" x="0" y="0" width="25" height="25" rx="4"></rect>
                            <g id="Group-15" transform="translate(5.000000, 5.000000)" fill="#58595B">
                                <path d="M14.7381297,5.57866948 C14.705434,5.4771408 14.6107886,5.40830779 14.5040974,5.40830779 L9.27573881,5.40830779 L7.60924251,0.171345024 C7.57679266,0.0693246725 7.48214728,0 7.37496445,0 C7.26802746,0 7.17338207,0.0693246725 7.14068639,0.171345024 L5.47443593,5.40830779 L0.245831459,5.40830779 C0.140123625,5.40830779 0.0462157354,5.47591163 0.01278256,5.57621116 C-0.0208964476,5.67626485 0.0135200565,5.78688933 0.0978404916,5.85055986 L4.29567066,9.01441992 L2.47135011,14.4256777 C2.43693361,14.5272064 2.47257927,14.6393059 2.55935803,14.7027306 C2.60237866,14.7341971 2.65326592,14.7499303 2.70415318,14.7499303 C2.7555321,14.7499303 2.8066652,14.7339512 2.85017749,14.7019931 L7.37496445,11.3677713 L11.8999972,14.7019931 C11.9860385,14.7654178 12.1033005,14.7659094 12.1898334,14.703468 C12.2763663,14.6410267 12.3127495,14.5296647 12.2795621,14.428136 L10.469254,8.86569146 L14.6479093,5.85375568 C14.7344422,5.79131431 14.7708254,5.68019817 14.7381297,5.57866948" id="fav-icon"></path>
                            </g>
                        </g>
                    </g>
                </g>
            </g>
        </g>
    </g>
</svg>
