<svg fill="#000000" xmlns="http://www.w3.org/2000/svg" xmlns:xlink="http://www.w3.org/1999/xlink" version="1.1" x="0px" y="0px" viewBox="0 0 48 48" enable-background="new 0 0 48 48" xml:space="preserve"><g><polygon points="26.1,0.6 26.1,9.5 35,9.5  "/><path d="M33.6,46.1H1.9V1.9h20.3v8.5c0,1.6,1.3,2.9,2.9,2.9h8.5v9.5l1.9-3.4v-8.1H25.1c-0.5,0-1-0.4-1-1V0H1C0.4,0,0,0.4,0,1V47   c0,0.5,0.4,1,1,1h33.6c0.5,0,1-0.4,1-1v-7l-1.9,1.2V46.1z"/><path d="M30.1,16.6H5.4c-0.6,0-1,0.4-1,1s0.4,1,1,1h24.7c0.6,0,1-0.4,1-1S30.7,16.6,30.1,16.6z"/><path d="M31.1,23.6c0-0.6-0.4-1-1-1H5.4c-0.6,0-1,0.4-1,1s0.4,1,1,1h24.7C30.7,24.6,31.1,24.2,31.1,23.6z"/><path d="M21.1,29.6c0-0.6-0.4-1-1-1H5.4c-0.6,0-1,0.4-1,1s0.4,1,1,1h14.7C20.7,30.6,21.1,30.2,21.1,29.6z"/><path d="M47,12.5l-2.1-1.2c-1-0.6-2.2-0.2-2.7,0.7l-1.5,2.6l5.6,3.2l1.5-2.6C48.3,14.3,48,13,47,12.5z"/><rect x="34.2" y="16.6" transform="matrix(-0.866 -0.5 0.5 -0.866 56.3295 68.6386)" width="6.4" height="20.4"/><polygon points="28.7,35.9 28.5,42.1 33.8,38.8  "/><circle cx="9" cy="39" r="3.7"/></g></svg>