<?xml version="1.0" encoding="UTF-8"?>
<svg width="60px" height="61px" viewBox="0 0 60 61" version="1.1" xmlns="http://www.w3.org/2000/svg" xmlns:xlink="http://www.w3.org/1999/xlink">
    <defs>
        <polygon id="path-1" points="0 0.258 22 0.258 22 17.2578 0 17.2578"></polygon>
        <polygon id="path-3" points="11 10.4898 11 0.2578 0.7684 0.2578 0.7684 10.4898 11 10.4898"></polygon>
    </defs>
    <g id="Page-1" stroke="none" stroke-width="1" fill="none" fill-rule="evenodd">
        <g id="Proyectos" transform="translate(-522.000000, -82.000000)">
            <g id="menu-dashboard" transform="translate(0.000000, 50.000000)">
                <g id="proyectos" transform="translate(500.000000, 31.000000)">
                    <g id="icono_proyectos" transform="translate(22.000000, 0.602700)">
                        <path d="M34.0903,51.0039 L42.0003,43.0939 L42.0003,9.9999 C42.0003,9.4469 41.5523,8.9999 41.0003,8.9999 L34.0003,8.9999 L34.0003,14.9999 L36.0003,14.9999 L36.0003,48.9999 L6.0003,48.9999 L6.0003,14.9999 L8.0003,14.9999 L8.0003,8.9999 L1.0003,8.9999 C0.4473,8.9999 0.0003,9.4469 0.0003,9.9999 L0.0003,49.9999 C0.0003,53.3169 1.6823,54.9999 5.0003,54.9999 L32.8183,54.9999 L33.8363,51.4369 C33.8823,51.2729 33.9703,51.1239 34.0903,51.0039" id="Fill-1" fill="#26BDB9"></path>
                        <path d="M26.2168,23 L13.6088,23 C13.0558,23 12.6088,23.447 12.6088,24 C12.6088,24.553 13.0558,25 13.6088,25 L26.2168,25 C26.7688,25 27.2168,24.553 27.2168,24 C27.2168,23.447 26.7688,23 26.2168,23" id="Fill-3" fill="#26BDB9"></path>
                        <g id="Group-7" transform="translate(10.000000, 0.742200)">
                            <mask id="mask-2" fill="white">
                                <use xlink:href="#path-1"></use>
                            </mask>
                            <g id="Clip-6"></g>
                            <path d="M1,17.2578 L21,17.2578 C21.552,17.2578 22,16.8108 22,16.2578 L22,5.2578 C22,4.7048 21.552,4.2578 21,4.2578 L17.903,4.2578 L17.121,4.2578 C16.896,3.0748 16.174,1.4248 13.958,0.6668 C13.943,0.6618 13.927,0.6568 13.912,0.6518 C13.755,0.5998 13.589,0.5528 13.417,0.5098 C13.374,0.4998 13.331,0.4888 13.288,0.4788 C13.135,0.4438 12.975,0.4138 12.811,0.3868 C12.752,0.3768 12.694,0.3668 12.633,0.3578 C12.47,0.3348 12.299,0.3178 12.125,0.3018 C12.059,0.2968 11.997,0.2888 11.929,0.2838 C11.688,0.2678 11.438,0.2578 11.174,0.2578 C10.91,0.2578 10.66,0.2678 10.419,0.2838 C10.351,0.2888 10.289,0.2968 10.223,0.3018 C10.049,0.3178 9.877,0.3348 9.715,0.3578 C9.654,0.3668 9.596,0.3768 9.537,0.3868 C9.372,0.4138 9.212,0.4438 9.06,0.4788 C9.016,0.4888 8.973,0.4998 8.931,0.5098 C8.758,0.5528 8.592,0.5998 8.435,0.6518 C8.42,0.6568 8.404,0.6618 8.389,0.6668 C6.174,1.4238 5.451,3.0748 5.226,4.2578 L4.444,4.2578 L1,4.2578 C0.448,4.2578 0,4.7048 0,5.2578 L0,16.2578 C0,16.8108 0.448,17.2578 1,17.2578" id="Fill-5" fill="#26BDB9" mask="url(#mask-2)"></path>
                        </g>
                        <polygon id="Fill-8" fill="#26BDB9" points="33.2568 60.7422 40.5798 58.6502 35.3488 53.4202"></polygon>
                        <polygon id="Fill-10" fill="#26BDB9" points="36.3396 51.5823 42.4176 57.6593 54.4306 45.6463 48.3536 39.5683"></polygon>
                        <g id="Group-14" transform="translate(49.000000, 33.742200)">
                            <mask id="mask-4" fill="white">
                                <use xlink:href="#path-3"></use>
                            </mask>
                            <g id="Clip-13"></g>
                            <polygon id="Fill-12" fill="#26BDB9" mask="url(#mask-4)" points="4.9224 0.2578 0.7684 4.4118 6.8454 10.4898 11.0004 6.3348"></polygon>
                        </g>
                        <path d="M26.2168,29 L13.6088,29 C13.0558,29 12.6088,29.447 12.6088,30 C12.6088,30.553 13.0558,31 13.6088,31 L26.2168,31 C26.7688,31 27.2168,30.553 27.2168,30 C27.2168,29.447 26.7688,29 26.2168,29" id="Fill-15" fill="#26BDB9"></path>
                        <path d="M27.2168,36 C27.2168,35.447 26.7688,35 26.2168,35 L13.6088,35 C13.0558,35 12.6088,35.447 12.6088,36 C12.6088,36.553 13.0558,37 13.6088,37 L26.2168,37 C26.7688,37 27.2168,36.553 27.2168,36" id="Fill-17" fill="#26BDB9"></path>
                        <path d="M13.6084,41 C13.0564,41 12.6084,41.447 12.6084,42 C12.6084,42.553 13.0564,43 13.6084,43 L21.1734,43 C21.7264,43 22.1734,42.553 22.1734,42 C22.1734,41.447 21.7264,41 21.1734,41 L13.6084,41 Z" id="Fill-19" fill="#26BDB9"></path>
                    </g>
                </g>
            </g>
        </g>
    </g>
</svg>
