<svg fill="#000000" xmlns="http://www.w3.org/2000/svg" xmlns:xlink="http://www.w3.org/1999/xlink" version="1.1" x="0px" y="0px" viewBox="0 0 100 100" style="enable-background:new 0 0 100 100;" xml:space="preserve"><g><path d="M50,19c-1.1,0-2,0.9-2,2v10.2c-4.6,0.9-8,5-8,9.8s3.4,8.9,8,9.8V79c0,1.1,0.9,2,2,2s2-0.9,2-2V50.8c4.6-0.9,8-5,8-9.8   s-3.4-8.9-8-9.8V21C52,19.9,51.1,19,50,19z M56,41c0,3.3-2.7,6-6,6s-6-2.7-6-6s2.7-6,6-6S56,37.7,56,41z"/><path d="M74,49.2V21c0-1.1-0.9-2-2-2s-2,0.9-2,2v28.2c-4.6,0.9-8,5-8,9.8s3.4,8.9,8,9.8V79c0,1.1,0.9,2,2,2s2-0.9,2-2V68.8   c4.6-0.9,8-5,8-9.8S78.6,50.1,74,49.2z M72,65c-3.3,0-6-2.7-6-6s2.7-6,6-6s6,2.7,6,6S75.3,65,72,65z"/><path d="M26,68.8V79c0,1.1,0.9,2,2,2s2-0.9,2-2V68.8c4.6-0.9,8-5,8-9.8s-3.4-8.9-8-9.8V21c0-1.1-0.9-2-2-2s-2,0.9-2,2v28.2   c-4.6,0.9-8,5-8,9.8S21.4,67.9,26,68.8z M28,53c3.3,0,6,2.7,6,6s-2.7,6-6,6s-6-2.7-6-6S24.7,53,28,53z"/></g></svg>