<?xml version="1.0" encoding="UTF-8"?>
<svg width="58px" height="58px" viewBox="0 0 58 58" version="1.1" xmlns="http://www.w3.org/2000/svg" xmlns:xlink="http://www.w3.org/1999/xlink">
    <defs></defs>
    <g id="Page-1" stroke="none" stroke-width="1" fill="none" fill-rule="evenodd">
        <g id="settings" transform="translate(-896.000000, -81.000000)" fill="#26BDB9">
            <g id="menu-dashboard" transform="translate(0.000000, 50.000000)">
                <g id="ajustes" transform="translate(878.000000, 31.000000)">
                    <g id="Group-3" transform="translate(18.000000, 0.000000)">
                        <path d="M29,38.5 C23.7617,38.5 19.5,34.2383 19.5,29 C19.5,23.7617 23.7617,19.5 29,19.5 C34.2383,19.5 38.5,23.7617 38.5,29 C38.5,34.2383 34.2383,38.5 29,38.5 M56.55,23.3 L49.50385,23.3 C49.03835,21.65175 48.3648,20.0111 47.5573,18.5614 L52.54005,13.57865 C52.71865,13.40005 52.8184,13.15875 52.8184,12.907 C52.8184,12.6543 52.71865,12.413 52.54005,12.2344 L45.7637,5.45995 C45.39225,5.0885 44.7909,5.0885 44.41945,5.45995 L39.431,10.4465 C37.92905,9.63805 35.96065,8.86855 34.7,8.49235 L34.7,1.45 C34.7,0.92465 34.2744,0.5 33.75,0.5 L24.25,0.5 C23.7256,0.5 23.3,0.92465 23.3,1.45 L23.3,8.4971 C22.0137,8.879 20.0814,9.62665 18.5671,10.4465 L13.57865,5.45995 C13.2072,5.0885 12.60585,5.0885 12.2344,5.45995 L5.45805,12.2344 C5.08755,12.60585 5.08755,13.2072 5.45805,13.57865 L10.4465,18.569 C9.6466,20.0586 8.90275,21.9966 8.5047,23.3 L1.45,23.3 C0.9256,23.3 0.5,23.72465 0.5,24.25 L0.5,31.85 C0.5,32.37535 0.9256,32.8 1.45,32.8 L8.4078,32.8 C8.81915,35.2719 9.57725,37.7267 10.4522,39.4272 L5.4571,44.42135 C5.2785,44.59995 5.17875,44.84125 5.17875,45.093 C5.17875,45.3457 5.2785,45.587 5.4571,45.7656 L12.2344,52.54005 C12.59255,52.8982 13.22335,52.8963 13.57865,52.54005 L18.5728,47.544 C19.6653,48.09975 20.99055,48.5662 22.0935,48.9538 C22.5381,49.11055 22.9675,49.2616 23.3,49.3908 L23.3,56.55 C23.3,57.07535 23.7256,57.5 24.25,57.5 L33.75,57.5 C34.2744,57.5 34.7,57.07535 34.7,56.55 L34.7,49.3908 C35.0325,49.26065 35.4638,49.1096 35.90935,48.95285 C37.0104,48.5662 38.33375,48.09975 39.42435,47.54685 L44.42135,52.54005 C44.7928,52.9115 45.39415,52.9115 45.7656,52.54005 L52.54005,45.7656 C52.9115,45.39415 52.9115,44.7928 52.54005,44.42135 L47.56775,39.44715 C48.4446,37.98035 49.15235,36.51545 49.61975,32.8 L56.55,32.8 C57.0744,32.8 57.5,32.37535 57.5,31.85 L57.5,24.25 C57.5,23.72465 57.0744,23.3 56.55,23.3" id="Page-1"></path>
                    </g>
                </g>
            </g>
        </g>
    </g>
</svg>
