<?xml version="1.0" encoding="UTF-8"?>
<svg width="30px" height="20px" viewBox="0 0 30 20" version="1.1" xmlns="http://www.w3.org/2000/svg" xmlns:xlink="http://www.w3.org/1999/xlink">
    <defs></defs>
    <g id="Page-1" stroke="none" stroke-width="1" fill="none" fill-rule="evenodd">
        <g id="summary" transform="translate(-36.000000, -371.000000)" fill="#FFFFFF">
            <g id="SIDEBAR">
                <g id="01" transform="translate(34.000000, 371.000000)">
                    <g id="Group" transform="translate(3.000000, 0.000000)">
                        <path d="M28.7625,18.525 L27.3,18.525 L27.3,0.4875 C27.3,0.2184 27.0820875,0 26.8125,0 L22.9125,0 C22.6429125,0 22.425,0.2184 22.425,0.4875 L22.425,18.525 L20.475,18.525 L20.475,9.2625 C20.475,8.9934 20.2570875,8.775 19.9875,8.775 L16.0875,8.775 C15.8179125,8.775 15.6,8.9934 15.6,9.2625 L15.6,18.525 L13.65,18.525 L13.65,6.3375 C13.65,6.0684 13.4320875,5.85 13.1625,5.85 L9.2625,5.85 C8.9929125,5.85 8.775,6.0684 8.775,6.3375 L8.775,18.525 L6.825,18.525 L6.825,13.1625 C6.825,12.8934 6.6070875,12.675 6.3375,12.675 L2.4375,12.675 C2.1679125,12.675 1.95,12.8934 1.95,13.1625 L1.95,18.525 L0.4875,18.525 C0.2179125,18.525 0,18.7434 0,19.0125 C0,19.2816 0.2179125,19.5 0.4875,19.5 L2.4375,19.5 L6.3375,19.5 L9.2625,19.5 L13.1625,19.5 L16.0875,19.5 L19.9875,19.5 L22.9125,19.5 L26.8125,19.5 L28.7625,19.5 C29.0320875,19.5 29.25,19.2816 29.25,19.0125 C29.25,18.7434 29.0320875,18.525 28.7625,18.525" id="icono-resumen"></path>
                    </g>
                </g>
            </g>
        </g>
    </g>
</svg>
