<?xml version="1.0" encoding="UTF-8"?>
<svg width="33px" height="28px" viewBox="0 0 33 28" version="1.1" xmlns="http://www.w3.org/2000/svg" xmlns:xlink="http://www.w3.org/1999/xlink">
    <defs></defs>
    <g id="Page-1" stroke="none" stroke-width="1" fill="none" fill-rule="evenodd">
        <g id="supports" transform="translate(-33.000000, -669.000000)" fill="#FFFFFF">
            <g id="SIDEBAR" transform="translate(-1.000000, 0.000000)">
                <g id="06" transform="translate(34.000000, 669.000000)">
                    <g id="Group-8">
                        <path d="M10.7693234,17.2307692 C10.7693234,18.9985385 11.580785,20.1718462 12.9231696,20.4146923 L12.9231696,28 L19.384708,28 L19.384708,20.4146923 C20.7270926,20.1718462 21.5385542,18.9985385 21.5385542,17.2307692 L21.5385542,9.69230769 L10.7693234,9.69230769 L10.7693234,17.2307692 Z M28.5385542,8.61538462 C30.0230926,8.61538462 31.2308619,7.40761538 31.2308619,5.92307692 C31.2308619,4.43853846 30.0230926,3.23076923 28.5385542,3.23076923 C27.0540157,3.23076923 25.8462465,4.43853846 25.8462465,5.92307692 C25.8462465,7.40761538 27.0540157,8.61538462 28.5385542,8.61538462 M3.76932342,8.61538462 C2.28478496,8.61538462 1.07701573,7.40761538 1.07701573,5.92307692 C1.07701573,4.43853846 2.28478496,3.23076923 3.76932342,3.23076923 C5.25386188,3.23076923 6.46163111,4.43853846 6.46163111,5.92307692 C6.46163111,7.40761538 5.25386188,8.61538462 3.76932342,8.61538462 Z M16.1539388,8.61538462 C13.778785,8.61538462 11.8462465,6.68284615 11.8462465,4.30769231 C11.8462465,1.93253846 13.778785,0 16.1539388,0 C18.5290926,0 20.4616311,1.93253846 20.4616311,4.30769231 C20.4616311,6.68284615 18.5290926,8.61538462 16.1539388,8.61538462 Z M9.26488123e-05,14.1206692 L9.26488123e-05,9.69236154 L7.53855419,9.69236154 L7.53855419,14.1255154 C7.53855419,14.7189 7.53855419,15.3914385 7.38616957,15.9627462 C7.19609265,16.6729769 6.81863111,16.9939 6.46163111,17.1328231 L6.46163111,22.6154385 L1.07701573,22.6154385 L1.07701573,17.1339 C0.904169572,17.0665923 0.748554187,16.9653615 0.615015726,16.8318231 C-0.00259965888,16.2131308 -0.000984274265,15.0527462 9.26488123e-05,14.1206692 Z M24.7693234,9.69230769 L32.307785,9.69230769 L32.307785,14 C32.306708,15.0677692 31.9130926,16.1651538 31.2308619,16.5490769 L31.2308619,22.6153846 L25.8462465,22.6153846 L25.8462465,16.5566154 C25.1990157,16.2109231 24.7693234,15.2411538 24.7693234,14 L24.7693234,9.69230769 Z" id="icon_colabos"></path>
                    </g>
                </g>
            </g>
        </g>
    </g>
</svg>
