<?xml version="1.0" encoding="UTF-8"?>
<svg width="38px" height="34px" viewBox="0 0 38 34" version="1.1" xmlns="http://www.w3.org/2000/svg" xmlns:xlink="http://www.w3.org/1999/xlink">
    <defs></defs>
    <g id="Page-1" stroke="none" stroke-width="1" fill="none" fill-rule="evenodd">
        <g id="wallet-2" transform="translate(-34.000000, -315.000000)" fill="#FFFFFF">
            <g id="SIDEBAR">
                <g id="01" transform="translate(33.000000, 315.000000)">
                    <g id="Group-2" transform="translate(1.000000, 0.000000)">
                        <path d="M35.7704016,21.9741835 C35.7704016,22.9837751 34.940253,23.8053655 33.9201446,23.8053655 L25.285612,23.8053655 C24.2655036,23.8053655 23.435355,22.9837751 23.435355,21.9741835 L23.435355,18.3118196 C23.435355,17.3022279 24.2655036,16.4806376 25.285612,16.4806376 L33.9201446,16.4806376 C34.940253,16.4806376 35.7704016,17.3022279 35.7704016,18.3118196 L35.7704016,21.9741835 Z M27.0569247,29.9093053 L25.5020921,29.9093053 C25.161028,29.9093053 24.8853397,29.6364592 24.8853397,29.2989113 C24.8853397,28.9613635 25.161028,28.6885173 25.5020921,28.6885173 L27.0569247,28.6885173 C27.397372,28.6885173 27.673677,28.9613635 27.673677,29.2989113 C27.673677,29.6364592 27.397372,29.9093053 27.0569247,29.9093053 L27.0569247,29.9093053 Z M22.3911933,10.3766978 L20.8357439,10.3766978 C20.4952967,10.3766978 20.2189916,10.1038517 20.2189916,9.76630378 C20.2189916,9.4287559 20.4952967,9.15590979 20.8357439,9.15590979 L22.3911933,9.15590979 C22.7316406,9.15590979 23.0079456,9.4287559 23.0079456,9.76630378 C23.0079456,10.1038517 22.7316406,10.3766978 22.3911933,10.3766978 L22.3911933,10.3766978 Z M22.3911933,29.9093053 L20.8357439,29.9093053 C20.4952967,29.9093053 20.2189916,29.6364592 20.2189916,29.2989113 C20.2189916,28.9613635 20.4952967,28.6885173 20.8357439,28.6885173 L22.3911933,28.6885173 C22.7316406,28.6885173 23.0079456,28.9613635 23.0079456,29.2989113 C23.0079456,29.6364592 22.7316406,29.9093053 22.3911933,29.9093053 L22.3911933,29.9093053 Z M17.7248452,10.3766978 L16.1700126,10.3766978 C15.8289485,10.3766978 15.5532602,10.1038517 15.5532602,9.76630378 C15.5532602,9.4287559 15.8289485,9.15590979 16.1700126,9.15590979 L17.7248452,9.15590979 C18.0659092,9.15590979 18.3415975,9.4287559 18.3415975,9.76630378 C18.3415975,10.1038517 18.0659092,10.3766978 17.7248452,10.3766978 L17.7248452,10.3766978 Z M17.7248452,29.9093053 L16.1700126,29.9093053 C15.8289485,29.9093053 15.5532602,29.6364592 15.5532602,29.2989113 C15.5532602,28.9613635 15.8289485,28.6885173 16.1700126,28.6885173 L17.7248452,28.6885173 C18.0659092,28.6885173 18.3415975,28.9613635 18.3415975,29.2989113 C18.3415975,29.6364592 18.0659092,29.9093053 17.7248452,29.9093053 L17.7248452,29.9093053 Z M13.0591138,10.3766978 L11.5042812,10.3766978 C11.1632172,10.3766978 10.8875289,10.1038517 10.8875289,9.76630378 C10.8875289,9.4287559 11.1632172,9.15590979 11.5042812,9.15590979 L13.0591138,9.15590979 C13.4001779,9.15590979 13.6758661,9.4287559 13.6758661,9.76630378 C13.6758661,10.1038517 13.4001779,10.3766978 13.0591138,10.3766978 L13.0591138,10.3766978 Z M13.0591138,29.9093053 L11.5042812,29.9093053 C11.1632172,29.9093053 10.8875289,29.6364592 10.8875289,29.2989113 C10.8875289,28.9613635 11.1632172,28.6885173 11.5042812,28.6885173 L13.0591138,28.6885173 C13.4001779,28.6885173 13.6758661,28.9613635 13.6758661,29.2989113 C13.6758661,29.6364592 13.4001779,29.9093053 13.0591138,29.9093053 L13.0591138,29.9093053 Z M8.39338245,10.3766978 L6.83854983,10.3766978 C6.49810254,10.3766978 6.2217975,10.1038517 6.2217975,9.76630378 C6.2217975,9.4287559 6.49810254,9.15590979 6.83854983,9.15590979 L8.39338245,9.15590979 C8.73444649,9.15590979 9.01013478,9.4287559 9.01013478,9.76630378 C9.01013478,10.1038517 8.73444649,10.3766978 8.39338245,10.3766978 L8.39338245,10.3766978 Z M8.39338245,29.9093053 L6.83854983,29.9093053 C6.49810254,29.9093053 6.2217975,29.6364592 6.2217975,29.2989113 C6.2217975,28.9613635 6.49810254,28.6885173 6.83854983,28.6885173 L8.39338245,28.6885173 C8.73444649,28.6885173 9.01013478,28.9613635 9.01013478,29.2989113 C9.01013478,29.6364592 8.73444649,29.9093053 8.39338245,29.9093053 L8.39338245,29.9093053 Z M25.5020921,9.15590979 L27.0569247,9.15590979 C27.397372,9.15590979 27.673677,9.4287559 27.673677,9.76630378 C27.673677,10.1038517 27.397372,10.3766978 27.0569247,10.3766978 L25.5020921,10.3766978 C25.161028,10.3766978 24.8853397,10.1038517 24.8853397,9.76630378 C24.8853397,9.4287559 25.161028,9.15590979 25.5020921,9.15590979 L25.5020921,9.15590979 Z M33.9201446,15.2598497 L32.0698876,15.2598497 L32.0698876,9.76630378 C32.0698876,7.61771695 30.4589305,5.83414572 28.3693736,5.53688385 L28.3693736,5.49354587 L27.7526213,5.49354587 L6.16628979,5.49354587 C4.97287403,5.49354587 4.3160328,4.84347628 4.3160328,3.66236392 C4.3160328,2.48125155 4.97287403,1.83118196 6.16628979,1.83118196 L23.435355,1.83118196 C23.7758023,1.83118196 24.0521073,2.10402807 24.0521073,2.44157594 C24.0521073,2.77912382 23.7758023,3.05196993 23.435355,3.05196993 L6.16628979,3.05196993 C5.64760108,3.05196993 5.54953746,3.14902257 5.54953746,3.66236392 C5.54953746,4.17570526 5.64760108,4.2727579 6.16628979,4.2727579 L28.3693736,4.2727579 L28.3693736,3.04891796 C28.3693736,1.33920441 26.4728602,0 24.0521073,0 L4.3172663,0 C1.93721907,0 0,1.91541633 0,4.26970593 L0,29.2989113 C0,31.6544217 1.93721907,33.5716692 4.3172663,33.5716692 L28.0221421,33.5716692 C29.1267455,33.5716692 30.1480874,33.1504974 30.8974414,32.3850633 C31.6905849,31.5750705 32.1075095,30.472699 32.0698876,29.3007425 L32.0698876,25.0261534 L33.9201446,25.0261534 C35.6205308,25.0261534 37.0039062,23.6570397 37.0039062,21.9741835 L37.0039062,18.3118196 C37.0039062,16.6289634 35.6205308,15.2598497 33.9201446,15.2598497 L33.9201446,15.2598497 Z M26.279385,18.4978066 C25.5102949,18.4978066 24.884908,19.1173565 24.884908,19.8779074 C24.884908,20.6384583 25.5102949,21.2573978 26.279385,21.2573978 C27.0484752,21.2573978 27.673862,20.6384583 27.673862,19.8779074 C27.673862,19.1173565 27.0484752,18.4978066 26.279385,18.4978066" id="monedero"></path>
                    </g>
                </g>
            </g>
        </g>
    </g>
</svg>
