<svg fill="#000000" xmlns="http://www.w3.org/2000/svg" xmlns:xlink="http://www.w3.org/1999/xlink" version="1.1" x="0px" y="0px" viewBox="0 0 48 48" enable-background="new 0 0 48 48" xml:space="preserve"><g><path fill="#000000" d="M16.9,30.2c0,0.6,0.4,1,1,1c0.6,0,1-0.4,1-1c0-2.4-1.7-4.4-3.9-4.8v-0.9c0-0.6-0.4-1-1-1c-0.6,0-1,0.4-1,1   v0.9c-2.2,0.5-3.9,2.4-3.9,4.8c0,2.4,1.7,4.4,3.9,4.8v5.8c-1.1-0.4-1.9-1.5-1.9-2.7c0-0.6-0.4-1-1-1c-0.6,0-1,0.4-1,1   c0,2.4,1.7,4.4,3.9,4.8v0.6c0,0.6,0.4,1,1,1c0.6,0,1-0.4,1-1v-0.6c2.2-0.5,3.9-2.4,3.9-4.8s-1.7-4.4-3.9-4.8v-5.8   C16.1,27.9,16.9,29,16.9,30.2z M11.1,30.2c0-1.3,0.8-2.3,1.9-2.7V33C11.9,32.5,11.1,31.5,11.1,30.2z M16.9,38.1   c0,1.3-0.8,2.3-1.9,2.7v-5.5C16.1,35.7,16.9,36.8,16.9,38.1z"/><path fill="#000000" d="M47,18.2h-1.7V13c0-2.8-2.2-5-5-5H39V5c0-2.8-2.2-5-5-5H6C3.2,0,1,2.2,1,5c0,0,0,0.1,0,0.1v23.7   c-0.6,1.6-1,3.3-1,5.2c0,7.7,6.3,14,14,14c4.8,0,9-2.4,11.6-6.1h14.7c2.8,0,5-2.2,5-5v-6.7H47c0.6,0,1-0.4,1-1v-10   C48,18.6,47.6,18.2,47,18.2z M6,2h28c1.7,0,3,1.3,3,3v3H6C4.4,8,3.1,6.7,3,5.1V5c0,0,0,0,0,0C3,3.3,4.4,2,6,2z M14,46   C7.4,46,2,40.6,2,34s5.4-12,12-12s12,5.4,12,12S20.6,46,14,46z M43.3,36.9c0,1.7-1.3,3-3,3H26.7c0.8-1.8,1.3-3.8,1.3-5.9   c0-7.7-6.3-14-14-14c-4.5,0-8.4,2.1-11,5.4V9c0.8,0.6,1.9,1,3,1h25.9c0,0,0,0,0,0h8.3c1.7,0,3,1.3,3,3v5.2H40c-3.3,0-6,2.7-6,6   s2.7,6,6,6h3.3V36.9z M46,28.2h-6c-2.2,0-4-1.8-4-4c0-2.2,1.8-4,4-4h4.3c0,0,0,0,0,0c0,0,0,0,0,0H46V28.2z"/><path fill="#000000" d="M42,23.2h-2.2c-0.6,0-1,0.4-1,1c0,0.6,0.4,1,1,1H42c0.6,0,1-0.4,1-1C43,23.6,42.6,23.2,42,23.2z"/></g></svg>