<svg xmlns="http://www.w3.org/2000/svg" width="48" height="48" viewBox="0 0 48 48">
  <g fill="none" fill-rule="evenodd">
    <path fill="#4673A3" d="M0.00203715264,24.205969 C0.116562291,32.7904364 4.81209298,40.6270951 11.2779914,44.5902458 C20.3994416,50.1787601 33.0878726,48.746836 40.5916551,41.4008531 C44.5523161,37.5273451 47.241271,32.1204753 48,24.205969 C37.9838222,24.205969 35.6980913,24.0597098 24.0594741,24.0597098 C24.0594741,16.20182 24.1644555,7.85325438 24.1644555,0 C10.2472652,-0.0353026982 -0.167364615,11.3068571 0.00203715264,24.205969 Z"/>
    <path fill="#DDE5EE" d="M19,32 C19.627451,32.627451 20.8454441,33.254902 22.6539792,33.8823529 L23,34 L28,34 L28,36 C31,36 34,34 35,34 C36,34 36,37 35,37 C34,37 26,42 23,42 C21.0666667,42 17.8874074,41.0655556 13.4622222,39.1966667 L13,39 L13,32 L19,32 Z M29,36 L20,36 L20,37 L29,37 L29,36 Z M25.5,6 C30.1832645,13.028057 33.0367105,17.6023845 34.0603379,19.7229826 C34.6624895,20.9704302 35,22.4664679 35,23.9444444 C35,29.1911496 30.7467051,33.4444444 25.5,33.4444444 C20.2532949,33.4444444 16,29.1911496 16,23.9444444 C16,22.4280807 16.3552704,20.9946948 16.9871151,19.7229826 C18.0233645,17.6373264 20.8609928,13.0629988 25.5,6 Z M23.7496434,15.8374111 L23.5389021,16.1826769 C22.7131027,17.5400548 22.0932541,18.6132985 21.6779801,19.4055311 L21.6779801,19.4055311 L21.4873846,19.7782442 C20.8410262,21.0791679 20.5,22.5157531 20.5,24 C20.5,25.5111274 20.8535084,26.9726884 21.5224741,28.2916542 L21.5224741,28.2916542 L22.4143218,27.8393184 L22.2581803,27.5145249 C21.7612016,26.4217778 21.5,25.2300332 21.5,24 C21.5,22.6710135 21.8048989,21.3866159 22.3829388,20.2231966 C22.7171736,19.5504832 23.2580946,18.5904054 24.0043257,17.3460862 L24.0043257,17.3460862 L24.6024731,16.3596003 L23.7496434,15.8374111 Z"/>
  </g>
</svg>
