<svg xmlns="http://www.w3.org/2000/svg" xmlns:xlink="http://www.w3.org/1999/xlink" width="48" height="48" viewBox="0 0 48 48">
  <defs>
    <path id="impulsores@1x-a" d="M34.2842712,23.56279 L35.6984848,30.6338578 L24.3847763,41.9475663 L22.9705627,34.8764985 L34.2842712,23.56279 Z M32.5835912,6.8786938 C33.1881509,6.27413404 34.0205848,5.95743284 34.8709279,6.00460797 L34.2842712,6.59222728 L41.3553391,13.6632951 L41.9012268,13.1205192 C41.839956,14.0847026 41.4306428,15.002205 40.7376814,15.6951663 L25.0918831,31.3409646 C24.3108345,32.1220132 23.0445046,32.1220132 22.263456,31.3409646 L20.1421356,29.2196443 L15.8994949,33.462285 L14.4852814,32.0480714 L18.7279221,27.8054307 L16.6066017,25.6841104 C15.8255531,24.9030618 15.8255531,23.6367318 16.6066017,22.8556833 L32.5835912,6.8786938 Z M35.1327994,6.02654186 L41.3553391,6.59222728 L41.8928271,12.5045962 C41.9017943,12.6032345 41.9070673,12.70178 41.9087127,12.800049 L35.1327994,6.02654186 Z M17.3137085,12.2490815 L24.3847763,13.6632951 L13.0710678,24.9770036 L6,23.56279 L17.3137085,12.2490815 Z"/>
  </defs>
  <g fill="none" fill-rule="evenodd">
    <path fill="#B7759F" d="M0.00203715264,24.205969 C0.116562291,32.7904364 4.81209298,40.6270951 11.2779914,44.5902458 C20.3994416,50.1787601 33.0878726,48.746836 40.5916551,41.4008531 C44.5523161,37.5273451 47.241271,32.1204753 48,24.205969 C37.9838222,24.205969 35.6980913,24.0597098 24.0594741,24.0597098 C24.0594741,16.20182 24.1644555,7.85325438 24.1644555,0 C10.2472652,-0.0353026982 -0.167364615,11.3068571 0.00203715264,24.205969 Z"/>
    <use fill="#A65387" xlink:href="#impulsores@1x-a"/>
    <use fill="#FFF" fill-opacity=".75" xlink:href="#impulsores@1x-a"/>
  </g>
</svg>
