<svg xmlns="http://www.w3.org/2000/svg" width="48" height="48" viewBox="0 0 48 48">
  <g fill="none" fill-rule="evenodd">
    <path fill="#794F8C" d="M0.00203715264,24.205969 C0.116562291,32.7904364 4.81209298,40.6270951 11.2779914,44.5902458 C20.3994416,50.1787601 33.0878726,48.746836 40.5916551,41.4008531 C44.5523161,37.5273451 47.241271,32.1204753 48,24.205969 C37.9838222,24.205969 35.6980913,24.0597098 24.0594741,24.0597098 C24.0594741,16.20182 24.1644555,7.85325438 24.1644555,0 C10.2472652,-0.0353026982 -0.167364615,11.3068571 0.00203715264,24.205969 Z"/>
    <path fill="#E6DEEA" d="M24.8810668,22.3774295 C24.9806628,22.3774295 25.0744003,22.4244514 25.1310333,22.5034483 C25.3315273,22.7824451 30.0431353,29.3830721 30.0431353,32.0282132 C30.0431353,34.769906 27.7276905,37 24.8810668,37 C22.0344431,37 19.7183473,34.769906 19.7189982,32.0282132 C19.7189982,29.3830721 24.4306063,22.7824451 24.6311003,22.5034483 C24.6877333,22.4244514 24.7814708,22.3774295 24.8810668,22.3774295 Z M23.9996745,11 C27.9327411,11 31.574831,13.1523511 33.3812295,16.5128527 C37.5896498,16.553605 41,19.9065831 41,23.9730408 C41,30.4526646 34.146101,31.4275862 34.0764489,31.4363636 L34.0764489,31.4363636 L34.003542,31.5216301 L31.761004,31.5216301 C30.5254925,27.1329154 25.4714825,20.1736677 25.2273745,19.8338558 C25.1486091,19.7241379 25.0190691,19.5987461 24.8810668,19.5987461 C24.7430645,19.5987461 24.6135245,19.7040752 24.5347591,19.8137931 C24.2906511,20.1529781 19.2359901,27.1329154 18.0004786,31.5216301 L18.0004786,31.5216301 L13.2482451,31.5214599 C12.7987823,31.5146604 7,31.2747985 7,25.7335423 C7,22.5862069 9.65394115,19.9454545 12.9158737,19.9454545 C13.1157167,19.9454545 13.3162107,19.9548589 13.5167046,19.9742947 C14.1377152,14.8959248 18.6279987,11 23.9996745,11 Z"/>
  </g>
</svg>
