<svg xmlns="http://www.w3.org/2000/svg" width="48" height="48" viewBox="0 0 48 48">
  <g fill="none" fill-rule="evenodd">
    <path fill="#DDCD5E" d="M0.00203715264,24.205969 C0.116562291,32.7904364 4.81209298,40.6270951 11.2779914,44.5902458 C20.3994416,50.1787601 33.0878726,48.746836 40.5916551,41.4008531 C44.5523161,37.5273451 47.241271,32.1204753 48,24.205969 C37.9838222,24.205969 35.6980913,24.0597098 24.0594741,24.0597098 C24.0594741,16.20182 24.1644555,7.85325438 24.1644555,0 C10.2472652,-0.0353026982 -0.167364615,11.3068571 0.00203715264,24.205969 Z"/>
    <path fill="#FFFAD7" d="M23.7726814,5.10944737 C25.2802019,9.79959787 27.4627549,12.8699823 30.2969559,16.0541712 C33.008778,19.1003916 36.144639,21.985259 36.401089,27.3145857 C36.6021956,31.502749 34.7680716,34.8888241 32.823261,36.9957672 C30.6531797,39.3482476 27.1299156,40.9672342 23.4569907,40.8900654 C19.681174,40.8097786 16.5905231,39.1448025 14.4064111,36.680856 C12.2308734,34.2270429 10.7358246,31.1208022 11.0390436,26.8928853 C11.4841285,20.6788451 16.153233,17.6443169 19.1425511,13.739106 C21.0858028,11.1979908 22.4421036,8.56957336 23.6674512,5.00343765 C23.7570917,4.98473005 23.7664455,5.04552974 23.7726814,5.10944737 Z M23.7734609,20.1589025 C19.2267353,20.1472375 15.8242911,23.8949928 15.8796344,28.1572071 C15.9170496,30.9937465 17.4510725,33.5831897 19.563472,34.8927215 C22.5434364,36.7393173 26.6887281,36.266171 29.1402028,33.8388602 C30.434145,32.5589488 31.3126225,30.7723733 31.5604982,28.1572071 C28.2882277,28.1572071 27.5414827,28.1088791 23.7391636,28.1088791 C23.7391636,25.5124205 23.7734609,22.7538294 23.7734609,20.1589025 Z"/>
  </g>
</svg>
