<?xml version="1.0" encoding="UTF-8"?>
<svg width="40px" height="37px" viewBox="0 0 40 37" version="1.1" xmlns="http://www.w3.org/2000/svg" xmlns:xlink="http://www.w3.org/1999/xlink">
    <!-- Generator: Sketch 46.2 (44496) - http://www.bohemiancoding.com/sketch -->
    <title>Fill 3</title>
    <desc>Created with Sketch.</desc>
    <defs></defs>
    <g id="HOME" stroke="none" stroke-width="1" fill="none" fill-rule="evenodd">
        <g id="Desktop-(ventajas-donante)" transform="translate(-219.000000, -1502.000000)" fill="#2E2C2D">
            <g id="Proyectos" transform="translate(0.000000, 657.000000)">
                <g id="ventajas" transform="translate(0.000000, 814.000000)">
                    <g id="donante" transform="translate(219.000000, 30.951515)">
                        <g id="Group-10" transform="translate(0.000000, 0.000000)">
                            <path d="M9.71790898,10.0427435 C9.84318517,9.80332031 10.1353332,9.72074376 10.3785451,9.83654638 C10.8776925,10.0745037 10.5845658,10.4961816 10.5845658,10.4961816 C8.30757312,14.8331608 7.82995764,16.752455 7.82995764,17.5997197 C7.82995764,18.9238763 8.31687096,20.1962393 9.20065533,21.1827604 C9.38122922,21.3835826 9.36361225,21.6928783 9.16248525,21.8726899 C9.06950682,21.9562437 8.95254975,21.9972877 8.83608205,21.9972877 C8.70199737,21.9972877 8.5679127,21.9425624 8.47150876,21.8345777 C7.42623554,20.6687335 6.85123741,19.1647653 6.85123741,17.5997197 C6.85123741,16.2081338 7.81527684,13.6653622 9.71790898,10.0427435 M22.5107612,17.5997197 C22.5107612,22.9882063 18.1202222,27.372093 12.7235588,27.372093 C7.32640608,27.372093 2.93635646,22.9882063 2.93635646,17.5997197 C2.93635646,12.3842041 11.9327529,1.77775876 12.3164112,1.20412045 C12.4979638,0.931959851 12.9491538,0.931959851 13.1307064,1.20412045 C13.5138754,1.77775876 22.5107612,12.3842041 22.5107612,17.5997197 Z M22.8565431,29.4696352 C22.9681172,29.5810402 23.0190106,29.7383755 22.9935639,29.8932676 C22.9686065,30.0486483 22.8697558,30.1820412 22.7293094,30.2524023 C19.7902126,31.7192355 17.6189217,32.9085334 16.0338843,33.7768087 C13.0399791,35.4161243 11.6634091,36.155893 10.1106694,36.155893 C8.84224798,36.155893 7.45735885,35.6623881 4.97874985,34.7623526 C3.76122187,34.3206413 2.24763103,33.7709453 0.334722321,33.1337866 C0.134574033,33.0673344 -3.55271368e-15,32.8806821 -3.55271368e-15,32.6705761 L-3.55271368e-15,25.9061393 C-3.55271368e-15,25.6359332 0.218743973,25.4175206 0.489360119,25.4175206 L0.978720237,25.4175206 L4.40424107,25.4175206 C4.42821971,25.4175206 4.45121964,25.4204523 4.47519829,25.4204523 C4.47421956,25.4194751 4.47275148,25.4184979 4.4712834,25.4175206 L4.90289903,25.4175206 C5.1989619,25.4175206 5.49062053,25.4395085 5.78032172,25.4722459 C7.63548593,27.1052095 10.0617334,28.1049233 12.7233631,28.1049233 C13.5112329,28.1049233 14.2770815,28.0111085 15.0160152,27.8459554 C15.2455251,28.0541069 15.4168012,28.3125862 15.5210349,28.5974509 C15.5322902,28.6800274 15.5381625,28.7591837 15.5381625,28.8314992 C15.5381625,29.2258145 15.4123969,29.6025395 15.1926742,29.8668822 C14.9514197,30.156633 14.6142506,30.3037073 14.1914434,30.3037073 L13.7020833,30.3037073 L7.34040178,30.3037073 C7.06978563,30.3037073 6.85104166,30.5221198 6.85104166,30.7923259 C6.85104166,31.062532 7.06978563,31.2809446 7.34040178,31.2809446 L13.7020833,31.2809446 L14.1914434,31.2809446 C14.9093347,31.2809446 15.5156519,31.0078067 15.9453101,30.4918254 C16.248224,30.1273159 16.4317341,29.6621509 16.4899679,29.159851 L18.9167047,28.3927197 C20.3979978,27.9690873 21.4070584,28.0213695 22.8565431,29.4696352 Z" id="Fill-3"></path>
                        </g>
                    </g>
                </g>
            </g>
        </g>
    </g>
</svg>