<?xml version="1.0" encoding="UTF-8"?>
<svg width="33px" height="28px" viewBox="0 0 33 28" version="1.1" xmlns="http://www.w3.org/2000/svg" xmlns:xlink="http://www.w3.org/1999/xlink">
    <!-- Generator: Sketch 46.2 (44496) - http://www.bohemiancoding.com/sketch -->
    <title>icono_api</title>
    <desc>Created with Sketch.</desc>
    <defs></defs>
    <g id="HOME" stroke="none" stroke-width="1" fill="none" fill-rule="evenodd">
        <g id="Desktop-(ventajas-donante)" transform="translate(-473.000000, -4034.000000)" fill="#2E2C2D">
            <g id="transparencia" transform="translate(0.000000, 3976.000000)">
                <g id="API" transform="translate(473.000000, 52.000000)">
                    <g id="Group-15" transform="translate(0.000000, 6.000000)">
                        <path d="M26.208765,8.20127228 C24.141865,8.20127228 22.598015,7.40499541 22.598015,6.69273687 C22.598015,5.98102038 24.141865,5.18420146 26.208765,5.18420146 C28.275115,5.18420146 29.818965,5.98102038 29.818965,6.69273687 C29.818965,7.40499541 28.275115,8.20127228 26.208765,8.20127228 L26.208765,8.20127228 Z M16.500165,4.10009409 C14.433265,4.10009409 12.888865,3.30381722 12.888865,2.59210073 C12.888865,1.88038424 14.433265,1.08410737 16.500165,1.08410737 C18.566515,1.08410737 20.110365,1.88038424 20.110365,2.59210073 C20.110365,3.30381722 18.566515,4.10009409 16.500165,4.10009409 L16.500165,4.10009409 Z M16.500165,11.6189208 C14.433265,11.6189208 12.888865,10.8221019 12.888865,10.1103854 C12.888865,9.39812682 14.433265,8.60184995 16.500165,8.60184995 C18.566515,8.60184995 20.110365,9.39812682 20.110365,10.1103854 C20.110365,10.8221019 18.566515,11.6189208 16.500165,11.6189208 L16.500165,11.6189208 Z M7.484565,8.20127228 C5.417665,8.20127228 3.873815,7.40499541 3.873815,6.69273687 C3.873815,5.98102038 5.417665,5.18420146 7.484565,5.18420146 C9.551465,5.18420146 11.095315,5.98102038 11.095315,6.69273687 C11.095315,7.40499541 9.551465,8.20127228 7.484565,8.20127228 L7.484565,8.20127228 Z M30.409665,7.89989043 L32.346765,8.59968174 L15.957315,15.6664356 L0.616715,8.61106486 L3.112065,7.69011565 C2.894265,7.38602353 2.773815,7.04995025 2.773815,6.69273687 C2.773815,5.21509852 4.798915,4.10009409 7.484565,4.10009409 C8.597215,4.10009409 9.593815,4.2941493 10.382515,4.62317589 L12.300915,3.8014225 C11.973665,3.44420912 11.788865,3.03495859 11.788865,2.59210073 C11.788865,1.11446238 13.814515,0 16.500165,0 C19.185265,0 21.210365,1.11446238 21.210365,2.59210073 C21.210365,3.03495859 21.025565,3.44366707 20.698865,3.80088045 L22.976965,4.77711914 C23.808565,4.35431726 24.932215,4.10009409 26.208765,4.10009409 C28.894415,4.10009409 30.918965,5.21509852 30.918965,6.69273687 C30.918965,7.13451062 30.735265,7.5432191 30.409665,7.89989043 Z M16.5,16.6157885 L33,9.50133384 L33,20.5977149 C33,20.8139943 32.8702,21.0091336 32.6689,21.0953201 L16.5,28 L16.5,27.6444128 L16.5,26.818865 L16.5,16.6157885 Z M0,20.5978233 L0,9.52366645 L15.4,16.606682 L15.4,16.607224 L15.4,26.7951231 L15.4,27.6445212 L15.4,27.9903514 L0.31845,21.089466 C0.1243,21.0005692 0,20.8086822 0,20.5978233 Z" id="icono_api"></path>
                    </g>
                </g>
            </g>
        </g>
    </g>
</svg>