<?xml version="1.0" encoding="utf-8"?>
<!-- Generator: Adobe Illustrator 21.1.0, SVG Export Plug-In . SVG Version: 6.00 Build 0)  -->
<svg version="1.1" id="Layer_1" xmlns="http://www.w3.org/2000/svg" xmlns:xlink="http://www.w3.org/1999/xlink" x="0px" y="0px"
	 viewBox="0 0 40 40" style="enable-background:new 0 0 40 40;" xml:space="preserve">
<style type="text/css">
	.st0{fill:#555555;}
</style>
<g>
	<path class="st0" d="M35.7,27.6c0,0.5-0.2,1-0.6,1.3c-0.1,0.5-0.2,1.3-0.2,2.5s0.1,2,0.2,2.5c0.4,0.4,0.6,0.8,0.6,1.3v1.1
		c0,0.5-0.2,0.8-0.5,1.2c-0.3,0.3-0.7,0.5-1.2,0.5H11.7c-1.8,0-3.4-0.6-4.6-1.9s-1.9-2.8-1.9-4.6V9.5c0-1.8,0.6-3.4,1.9-4.6
		S9.8,3,11.7,3h22.4c0.5,0,0.8,0.2,1.2,0.5c0.3,0.3,0.5,0.7,0.5,1.2V27.6z M31.1,33.6c0-0.6-0.1-1.3-0.1-2.2s0-1.6,0.1-2.2H11.7
		c-0.6,0-1.1,0.2-1.5,0.6s-0.6,0.9-0.6,1.5s0.2,1.1,0.6,1.5s0.9,0.6,1.5,0.6H31.1z M13.9,12.1v1.4c0,0.1,0,0.2,0.1,0.3
		s0.2,0.1,0.3,0.1h14.5c0.1,0,0.2,0,0.3-0.1c0.1-0.1,0.1-0.2,0.1-0.3v-1.4c0-0.1,0-0.2-0.1-0.3c-0.1-0.1-0.2-0.1-0.3-0.1H14.3
		c-0.1,0-0.2,0-0.3,0.1S13.9,12,13.9,12.1z M13.9,16.5v1.4c0,0.1,0,0.2,0.1,0.3s0.2,0.1,0.3,0.1h14.5c0.1,0,0.2,0,0.3-0.1
		c0.1-0.1,0.1-0.2,0.1-0.3v-1.4c0-0.1,0-0.2-0.1-0.3c-0.1-0.1-0.2-0.1-0.3-0.1H14.3c-0.1,0-0.2,0-0.3,0.1S13.9,16.4,13.9,16.5z"/>
</g>
</svg>
