<?xml version="1.0" encoding="UTF-8"?>
<svg width="26px" height="35px" viewBox="0 0 35 35" version="1.1" xmlns="http://www.w3.org/2000/svg" xmlns:xlink="http://www.w3.org/1999/xlink">
    <!-- Generator: Sketch 46.2 (44496) - http://www.bohemiancoding.com/sketch -->
    <title>calculadora</title>
    <desc>Created with Sketch.</desc>
    <defs></defs>
    <g id="HOME" stroke="none" stroke-width="1" fill="none" fill-rule="evenodd">
        <g id="Desktop-(ventajas-donante)" transform="translate(-875.000000, -1603.000000)" fill="#2E2C2D">
            <g id="Proyectos" transform="translate(0.000000, 657.000000)">
                <g id="ventajas" transform="translate(0.000000, 814.000000)">
                    <g id="calculadora" transform="translate(875.000000, 131.798485)">
                        <g id="Group-14" transform="translate(0.000000, -0.000000)">
                            <path d="M16.7782103,29.290404 L21.2523998,29.290404 C21.5616781,29.290404 21.8116735,29.5438861 21.8116735,29.8562121 C21.8116735,30.1685382 21.5616781,30.4220202 21.2523998,30.4220202 L16.7782103,30.4220202 C16.468932,30.4220202 16.2189367,30.1685382 16.2189367,29.8562121 C16.2189367,29.5438861 16.468932,29.290404 16.7782103,29.290404 L16.7782103,29.290404 Z M16.7782103,27.0271717 L21.2523998,27.0271717 C21.5616781,27.0271717 21.8116735,27.2806537 21.8116735,27.5929798 C21.8116735,27.9053059 21.5616781,28.1587879 21.2523998,28.1587879 L16.7782103,28.1587879 C16.468932,28.1587879 16.2189367,27.9053059 16.2189367,27.5929798 C16.2189367,27.2806537 16.468932,27.0271717 16.7782103,27.0271717 L16.7782103,27.0271717 Z M13.4225683,34.9484848 L22.3709471,34.9484848 C24.2215837,34.9484848 25.7265892,33.4258953 25.7265892,31.5536364 L25.7265892,24.7639394 L13.4225683,24.7639394 L13.4225683,34.9484848 Z M4.07878294,27.9930061 C3.86010693,27.7717752 3.86010693,27.4141844 4.07878294,27.1929535 C4.29745894,26.9717225 4.65091991,26.9717225 4.86959592,27.1929535 L6.15201046,28.4903514 L7.43442501,27.1929535 C7.65310101,26.9717225 8.00656198,26.9717225 8.22523799,27.1929535 C8.44391399,27.4141844 8.44391399,27.7717752 8.22523799,27.9930061 L6.94282344,29.290404 L8.22523799,30.587802 C8.44391399,30.8090329 8.44391399,31.1666236 8.22523799,31.3878546 C8.11617962,31.4981872 7.97300556,31.5536364 7.8298315,31.5536364 C7.68665743,31.5536364 7.54348337,31.4981872 7.43442501,31.3878546 L6.15201046,30.0904567 L4.86959592,31.3878546 C4.76053755,31.4981872 4.61736349,31.5536364 4.47418943,31.5536364 C4.33101536,31.5536364 4.1878413,31.4981872 4.07878294,31.3878546 C3.86010693,31.1666236 3.86010693,30.8090329 4.07878294,30.587802 L5.36119748,29.290404 L4.07878294,27.9930061 Z M0,31.5536364 C0,33.4258953 1.50500547,34.9484848 3.35564207,34.9484848 L12.3040209,34.9484848 L12.3040209,24.7639394 L0,24.7639394 L0,31.5536364 Z M16.7782103,19.1058586 L21.2523998,19.1058586 C21.5616781,19.1058586 21.8116735,19.3593406 21.8116735,19.6716667 C21.8116735,19.9839927 21.5616781,20.2374747 21.2523998,20.2374747 L16.7782103,20.2374747 C16.468932,20.2374747 16.2189367,19.9839927 16.2189367,19.6716667 C16.2189367,19.3593406 16.468932,19.1058586 16.7782103,19.1058586 L16.7782103,19.1058586 Z M13.4225683,23.6323232 L25.7265892,23.6323232 L25.7265892,15.7110101 L13.4225683,15.7110101 L13.4225683,23.6323232 Z M3.91491575,19.1058586 L5.59273678,19.1058586 L5.59273678,17.4084343 C5.59273678,17.0961083 5.84273212,16.8426263 6.15201046,16.8426263 C6.46128881,16.8426263 6.71128414,17.0961083 6.71128414,17.4084343 L6.71128414,19.1058586 L8.38910517,19.1058586 C8.69838352,19.1058586 8.94837885,19.3593406 8.94837885,19.6716667 C8.94837885,19.9839927 8.69838352,20.2374747 8.38910517,20.2374747 L6.71128414,20.2374747 L6.71128414,21.934899 C6.71128414,22.2472251 6.46128881,22.5007071 6.15201046,22.5007071 C5.84273212,22.5007071 5.59273678,22.2472251 5.59273678,21.934899 L5.59273678,20.2374747 L3.91491575,20.2374747 C3.6056374,20.2374747 3.35564207,19.9839927 3.35564207,19.6716667 C3.35564207,19.3593406 3.6056374,19.1058586 3.91491575,19.1058586 L3.91491575,19.1058586 Z M0,23.6323232 L12.3040209,23.6323232 L12.3040209,15.7110101 L0,15.7110101 L0,23.6323232 Z M22.3709471,10.6187374 C22.3709471,11.5545839 21.6181648,12.3161616 20.6931261,12.3161616 L5.0334631,12.3161616 C4.10842444,12.3161616 3.35564207,11.5545839 3.35564207,10.6187374 L3.35564207,6.09227273 C3.35564207,5.15642616 4.10842444,4.39484848 5.0334631,4.39484848 L20.6931261,4.39484848 C21.6181648,4.39484848 22.3709471,5.15642616 22.3709471,6.09227273 L22.3709471,10.6187374 Z M22.3709471,1 L3.35564207,1 C1.50500547,1 0,2.52258955 0,4.39484848 L0,14.5793939 L25.7265892,14.5793939 L25.7265892,4.39484848 C25.7265892,2.52258955 24.2215837,1 22.3709471,1 L22.3709471,1 Z" id="calculadora"></path>
                        </g>
                    </g>
                </g>
            </g>
        </g>
    </g>
</svg>