<?xml version="1.0" encoding="UTF-8"?>
<svg width="39px" height="39px" viewBox="0 0 39 39" version="1.1" xmlns="http://www.w3.org/2000/svg" xmlns:xlink="http://www.w3.org/1999/xlink">
    <!-- Generator: Sketch 48.2 (47327) - http://www.bohemiancoding.com/sketch -->
    <title>calendar</title>
    <desc>Created with Sketch.</desc>
    <defs></defs>
    <g id="Desktop-(ventajas-donante)" stroke="none" stroke-width="1" fill="none" fill-rule="evenodd" transform="translate(-923.000000, -3696.000000)">
        <g id="transparencia" transform="translate(0.000000, 3690.000000)" fill="#2E2C2D">
            <g id="Valores" transform="translate(874.000000, 6.000000)">
                <path d="M68.5002667,24.6999261 L76.3002433,24.6999261 L76.3002433,19.4999417 L68.5002667,19.4999417 L68.5002667,24.6999261 Z M59.4002939,24.6999261 L67.2002706,24.6999261 L67.2002706,19.4999417 L59.4002939,19.4999417 L59.4002939,24.6999261 Z M59.4002939,31.1999067 L59.4002939,25.9999222 L67.2002706,25.9999222 L67.2002706,31.1999067 L59.4002939,31.1999067 Z M68.5002667,31.1999067 L68.5002667,25.9999222 L76.3002433,25.9999222 L76.3002433,31.1999067 L68.5002667,31.1999067 Z M76.3002433,6.49998056 L80.2002317,6.49998056 L80.2002317,1.29999611 L76.3002433,1.29999611 L76.3002433,6.49998056 Z M56.8003017,6.49998056 L60.70029,6.49998056 L60.70029,1.29999611 L56.8003017,1.29999611 L56.8003017,6.49998056 Z M87.3502103,2.59999222 L81.5002278,2.59999222 L81.5002278,0.649998056 C81.5002278,0.290549131 81.2090286,0 80.8502297,0 L75.6502453,0 C75.2914464,0 75.0002472,0.290549131 75.0002472,0.649998056 L75.0002472,2.59999222 L62.0002861,2.59999222 L62.0002861,0.649998056 C62.0002861,0.290549131 61.709087,0 61.3502881,0 L56.1503036,0 C55.7915047,0 55.5003056,0.290549131 55.5003056,0.649998056 L55.5003056,2.59999222 L49.6503231,2.59999222 C49.2915241,2.59999222 49.000325,2.89054135 49.000325,3.24999028 L49.000325,11.699965 L88.0002083,11.699965 L88.0002083,3.24999028 C88.0002083,2.89054135 87.7090092,2.59999222 87.3502103,2.59999222 L87.3502103,2.59999222 Z M52.9285882,25.9999222 C52.5697893,25.9999222 52.2785902,25.7093731 52.2785902,25.3499242 C52.2785902,24.9904752 52.5697893,24.6999261 52.9285882,24.6999261 L58.0999728,24.6999261 L58.0999728,19.4999417 L52.9285882,19.4999417 C52.5697893,19.4999417 52.2785902,19.2093925 52.2785902,18.8499436 C52.2785902,18.4904947 52.5697893,18.1999456 52.9285882,18.1999456 L58.0999728,18.1999456 L58.0999728,15.4017039 C58.0999728,15.042905 58.3911719,14.7517059 58.7499708,14.7517059 C59.1094198,14.7517059 59.3999689,15.042905 59.3999689,15.4017039 L59.3999689,18.1999456 L67.1999456,18.1999456 L67.1999456,15.4017039 C67.1999456,15.042905 67.4911447,14.7517059 67.8499436,14.7517059 C68.2093925,14.7517059 68.4999417,15.042905 68.4999417,15.4017039 L68.4999417,18.1999456 L76.2999183,18.1999456 L76.2999183,15.4017039 C76.2999183,15.042905 76.5911175,14.7517059 76.9499164,14.7517059 C77.3093653,14.7517059 77.5999144,15.042905 77.5999144,15.4017039 L77.5999144,18.1999456 L84.0719451,18.1999456 C84.430744,18.1999456 84.7219431,18.4904947 84.7219431,18.8499436 C84.7219431,19.2093925 84.430744,19.4999417 84.0719451,19.4999417 L77.5999144,19.4999417 L77.5999144,24.6999261 L84.0719451,24.6999261 C84.430744,24.6999261 84.7219431,24.9904752 84.7219431,25.3499242 C84.7219431,25.7093731 84.430744,25.9999222 84.0719451,25.9999222 L77.5999144,25.9999222 L77.5999144,31.1999067 L84.0719451,31.1999067 C84.430744,31.1999067 84.7219431,31.4904558 84.7219431,31.8499047 C84.7219431,32.2093536 84.430744,32.4999028 84.0719451,32.4999028 L77.5999144,32.4999028 L77.5999144,35.0719451 C77.5999144,35.431394 77.3093653,35.7219431 76.9499164,35.7219431 C76.5911175,35.7219431 76.2999183,35.431394 76.2999183,35.0719451 L76.2999183,32.4999028 L68.4999417,32.4999028 L68.4999417,35.0719451 C68.4999417,35.431394 68.2093925,35.7219431 67.8499436,35.7219431 C67.4911447,35.7219431 67.1999456,35.431394 67.1999456,35.0719451 L67.1999456,32.4999028 L59.3999689,32.4999028 L59.3999689,35.0719451 C59.3999689,35.431394 59.1094198,35.7219431 58.7499708,35.7219431 C58.3911719,35.7219431 58.0999728,35.431394 58.0999728,35.0719451 L58.0999728,32.4999028 L52.9285882,32.4999028 C52.5697893,32.4999028 52.2785902,32.2093536 52.2785902,31.8499047 C52.2785902,31.4904558 52.5697893,31.1999067 52.9285882,31.1999067 L58.0999728,31.1999067 L58.0999728,25.9999222 L52.9285882,25.9999222 Z M49,38.3498853 C49,38.7093342 49.2911991,38.9998833 49.6499981,38.9998833 L87.3498853,38.9998833 C87.7093342,38.9998833 87.9998833,38.7093342 87.9998833,38.3498853 L87.9998833,12.9999611 L49,12.9999611 L49,38.3498853 Z" id="calendar"></path>
            </g>
        </g>
    </g>
</svg>