<?xml version="1.0" encoding="UTF-8"?>
<svg width="33px" height="23px" viewBox="0 0 33 23" version="1.1" xmlns="http://www.w3.org/2000/svg" xmlns:xlink="http://www.w3.org/1999/xlink">
    <defs></defs>
    <g id="Page-1" stroke="none" stroke-width="1" fill="none" fill-rule="evenodd">
        <g id="certificate" transform="translate(-33.000000, -394.000000)" fill="#FFFFFF">
            <g id="SIDEBAR">
                <g id="02" transform="translate(33.000000, 394.000000)">
                    <g id="Group">
                        <path d="M17.3333333,14.0833333 L28.1666667,14.0833333 L28.1666667,13 L17.3333333,13 L17.3333333,14.0833333 Z M17.3333333,11.9166667 L28.1666667,11.9166667 L28.1666667,10.8333333 L17.3333333,10.8333333 L17.3333333,11.9166667 Z M17.3333333,6.5 L23.2916667,6.5 L23.2916667,5.41666667 L17.3333333,5.41666667 L17.3333333,6.5 Z M17.3333333,9.75 L28.1666667,9.75 L28.1666667,8.66666667 L17.3333333,8.66666667 L17.3333333,9.75 Z M5.95833333,7.58333333 C5.95833333,5.79095833 7.41595833,4.33333333 9.20833333,4.33333333 C11.0007083,4.33333333 12.4583333,5.79095833 12.4583333,7.58333333 C12.4583333,8.58595833 12.0017083,9.48295833 11.2861667,10.079875 C13.0872083,10.726625 14.0833333,12.3055833 14.0833333,14.625 L14.0833333,15.1666667 L4.33333333,15.1666667 L4.33333333,14.625 C4.33333333,12.3055833 5.32945833,10.726625 7.1305,10.079875 C6.41495833,9.48295833 5.95833333,8.58595833 5.95833333,7.58333333 L5.95833333,7.58333333 Z M0,0.541666667 L0,22.2083333 C0,22.5073333 0.242666667,22.75 0.541666667,22.75 L5.95833333,22.75 C6.25733333,22.75 6.5,22.5073333 6.5,22.2083333 L6.5,21.6666667 C6.5,20.8850417 7.12129167,20.0416667 8.125,20.0416667 C9.12870833,20.0416667 9.75,20.8850417 9.75,21.6666667 L9.75,22.2083333 C9.75,22.5073333 9.99266667,22.75 10.2916667,22.75 L22.2083333,22.75 C22.5073333,22.75 22.75,22.5073333 22.75,22.2083333 L22.75,21.6666667 C22.75,20.6494167 23.35775,20.0416667 24.375,20.0416667 C25.39225,20.0416667 26,20.6494167 26,21.6666667 L26,22.2083333 C26,22.5073333 26.2426667,22.75 26.5416667,22.75 L31.9583333,22.75 C32.2573333,22.75 32.5,22.5073333 32.5,22.2083333 L32.5,0.541666667 C32.5,0.242666667 32.2573333,0 31.9583333,0 L0.541666667,0 C0.242666667,0 0,0.242666667 0,0.541666667 L0,0.541666667 Z" id="certificado"></path>
                    </g>
                </g>
            </g>
        </g>
    </g>
</svg>
