<?xml version="1.0" encoding="utf-8"?>
<!-- Generator: Adobe Illustrator 21.1.0, SVG Export Plug-In . SVG Version: 6.00 Build 0)  -->
<svg version="1.1" id="Layer_1" xmlns="http://www.w3.org/2000/svg" xmlns:xlink="http://www.w3.org/1999/xlink" x="0px" y="0px"
	 viewBox="0 0 40 40" style="enable-background:new 0 0 40 40;" xml:space="preserve">
<style type="text/css">
	.st0{fill:#555555;}
</style>
<g>
	<path class="st0" d="M28.4,16.1c0,1.8-0.6,3.5-1.8,5c-1.2,1.5-2.7,2.8-4.7,3.7c-2,0.9-4.2,1.3-6.5,1.3c-2.5,0-4.8-0.5-6.9-1.6
		c-1.8,1-3.6,1.6-5.6,1.6c-0.2,0-0.4-0.1-0.4-0.3c-0.1-0.2,0-0.4,0.1-0.6c0.2-0.2,0.4-0.5,0.8-1c0.6-0.8,1.1-1.6,1.4-2.4
		c-1.6-1.7-2.4-3.6-2.4-5.8c0-1.8,0.6-3.5,1.8-5c1.2-1.5,2.7-2.8,4.7-3.7c2-0.9,4.2-1.3,6.5-1.3s4.6,0.4,6.5,1.3
		c2,0.9,3.6,2.1,4.7,3.7C27.8,12.7,28.4,14.4,28.4,16.1z M36,29.9c0.3,0.8,0.8,1.6,1.4,2.4c0.3,0.5,0.6,0.8,0.8,0.9
		c0.2,0.2,0.2,0.4,0.1,0.6c-0.1,0.2-0.2,0.3-0.4,0.3c-1.9,0-3.8-0.5-5.6-1.6c-2.1,1-4.4,1.6-6.9,1.6c-2.7,0-5.1-0.6-7.2-1.7
		c-2.2-1.1-3.8-2.6-4.8-4.4c0.8,0.1,1.4,0.1,2,0.1c2.7,0,5.2-0.5,7.5-1.6c2.3-1.1,4.1-2.5,5.5-4.4c1.4-1.8,2-3.8,2-6
		c0-0.5,0-0.9-0.1-1.3c2.4,0.8,4.3,2,5.8,3.7s2.2,3.6,2.2,5.7C38.4,26.3,37.6,28.2,36,29.9z"/>
</g>
</svg>
