<?xml version="1.0" encoding="utf-8"?>
<!-- Generator: Adobe Illustrator 21.1.0, SVG Export Plug-In . SVG Version: 6.00 Build 0)  -->
<svg version="1.1" id="Layer_1" xmlns="http://www.w3.org/2000/svg" xmlns:xlink="http://www.w3.org/1999/xlink" x="0px" y="0px"
	 viewBox="0 0 40 40" style="enable-background:new 0 0 40 40;" xml:space="preserve">
<style type="text/css">
	.st0{fill:#555555;}
</style>
<g>
	<path class="st0" d="M30.3,7.3c0.9,0,1.7,0.3,2.3,1c0.6,0.6,1,1.4,1,2.3v24.1c0,0.9-0.3,1.7-1,2.3c-0.6,0.6-1.4,1-2.3,1H10.6
		c-0.9,0-1.7-0.3-2.3-1c-0.6-0.6-1-1.4-1-2.3V10.6c0-0.9,0.3-1.7,1-2.3c0.6-0.6,1.4-1,2.3-1H16c0-1.2,0.4-2.2,1.3-3.1
		C18.2,3.4,19.2,3,20.4,3c1.2,0,2.2,0.4,3.1,1.3c0.9,0.9,1.3,1.9,1.3,3.1H30.3z M28.7,21.6c0.2-0.2,0.3-0.4,0.3-0.6
		c0-0.2-0.1-0.4-0.3-0.5l-1.9-2c-0.1-0.1-0.3-0.2-0.5-0.2c-0.2,0-0.4,0.1-0.6,0.2l-7.2,7.2l-3.1-3.1c-0.1-0.1-0.3-0.2-0.5-0.2
		c-0.2,0-0.4,0.1-0.6,0.2l-1.9,1.9c-0.2,0.2-0.3,0.4-0.3,0.6c0,0.2,0.1,0.4,0.3,0.5l5.6,5.7c0.2,0.2,0.4,0.3,0.6,0.3
		c0.2,0,0.4-0.1,0.5-0.2L28.7,21.6z M20.4,5.7c-0.5,0-0.8,0.2-1.2,0.5c-0.3,0.3-0.5,0.7-0.5,1.2s0.2,0.8,0.5,1.2
		C19.6,8.8,20,9,20.4,9c0.5,0,0.8-0.2,1.2-0.5c0.3-0.3,0.5-0.7,0.5-1.2s-0.2-0.8-0.5-1.2C21.3,5.9,20.9,5.7,20.4,5.7z"/>
</g>
</svg>
