<?xml version="1.0" encoding="UTF-8"?>
<svg width="39px" height="39px" viewBox="0 0 39 39" version="1.1" xmlns="http://www.w3.org/2000/svg" xmlns:xlink="http://www.w3.org/1999/xlink">
    <!-- Generator: Sketch 48.2 (47327) - http://www.bohemiancoding.com/sketch -->
    <title>Fill 1</title>
    <desc>Created with Sketch.</desc>
    <defs></defs>
    <g id="Desktop-(ventajas-donante)" stroke="none" stroke-width="1" fill="none" fill-rule="evenodd" transform="translate(-977.000000, -3696.000000)">
        <g id="Group-24" transform="translate(977.000000, 3696.000000)" fill="#2E2C2D">
            <path d="M20.6785714,0 C30.7811429,0 39,8.21885714 39,18.3214286 C39,18.696 38.6966786,19 38.3214286,19 L20.6785714,19 C20.3033214,19 20,18.696 20,18.3214286 L20,0.678571429 C20,0.304 20.3033214,0 20.6785714,0 Z M34.3518519,20.8518519 C34.7102778,20.8518519 35,21.1422222 35,21.5 C35,31.1496296 27.1496296,39 17.5,39 C7.85037037,39 0,31.1496296 0,21.5 C0,11.8503704 7.85037037,4 17.5,4 C17.8584259,4 18.1481481,4.29037037 18.1481481,4.64814815 L18.1481481,20.8518519 L34.3518519,20.8518519 Z" id="Fill-1"></path>
        </g>
    </g>
</svg>