<?xml version="1.0" encoding="utf-8"?>
<!-- Generator: Adobe Illustrator 21.1.0, SVG Export Plug-In . SVG Version: 6.00 Build 0)  -->
<svg version="1.1" id="Capa_1" xmlns="http://www.w3.org/2000/svg" xmlns:xlink="http://www.w3.org/1999/xlink" x="0px" y="0px"
	 viewBox="0 0 81.134 88.678" enable-background="new 0 0 81.134 88.678" xml:space="preserve">
<g>
	<polygon fill="#F7F7F7" points="40.568,6.299 75.371,22.593 75.371,66.094 40.568,49.8 	"/>
	<polygon fill="#D1D1D1" points="5.763,66.091 40.566,49.807 75.371,66.094 40.568,82.379 	"/>
	<polygon fill="#EBEBEB" points="40.568,6.3 40.568,49.801 5.763,66.092 5.763,22.59 	"/>
	<circle fill="#FFFFFF" cx="40.568" cy="49.8" r="13.936"/>
	<path fill="#010202" d="M52.98,35.709c-5.898-6.078-9.391-10.539-12.41-19.334c-3.019,8.795-6.514,13.256-12.406,19.334
		c-3.869,3.998-5.896,8.989-5.896,13.682c0,10.435,8.193,18.888,18.303,18.888c10.107,0,18.297-8.453,18.297-18.888
		C58.867,44.699,56.85,39.707,52.98,35.709z M40.567,61.231c-6.155,0-11.151-5.102-11.229-11.438
		c0.078-6.33,5.074-11.441,11.232-11.441l-0.003,11.441h11.239C51.726,56.129,46.725,61.231,40.567,61.231z"/>
</g>
</svg>
