<?xml version="1.0" encoding="UTF-8"?>
<svg xmlns="http://www.w3.org/2000/svg" xmlns:xlink="http://www.w3.org/1999/xlink" width="198pt" height="65pt" viewBox="0 0 198 65" version="1.1">
<g id="surface1">
<path style=" stroke:none;fill-rule:nonzero;fill:rgb(34.509804%,34.901961%,35.686275%);fill-opacity:1;" d="M 37.035156 24.664062 C 30.265625 17.664062 26.261719 12.527344 22.800781 2.402344 C 19.339844 12.527344 15.324219 17.664062 8.570312 24.664062 C 4.136719 29.269531 1.8125 35.019531 1.8125 40.429688 C 1.8125 52.449219 11.210938 62.179688 22.808594 62.179688 C 34.402344 62.179688 43.796875 52.441406 43.796875 40.429688 C 43.785156 35.019531 41.472656 29.273438 37.035156 24.664062 Z M 22.796875 54.058594 C 15.738281 54.058594 10.011719 48.1875 9.914062 40.894531 C 10.003906 33.597656 15.734375 27.710938 22.800781 27.710938 L 22.796875 40.894531 L 35.691406 40.894531 C 35.59375 48.1875 29.863281 54.058594 22.796875 54.058594 Z M 22.796875 54.058594 "/>
<path style=" stroke:none;fill-rule:nonzero;fill:rgb(34.509804%,34.901961%,35.686275%);fill-opacity:1;" d="M 82.585938 30.78125 L 83.0625 32.277344 L 76.246094 32.800781 L 76.027344 32.230469 C 75.113281 29.867188 72.527344 28.066406 69.128906 27.980469 C 63.886719 27.84375 59.996094 31.667969 59.953125 38.378906 C 59.910156 45.4375 63.921875 49.566406 68.988281 49.476562 C 73.019531 49.386719 75.9375 46.9375 76.6875 43.734375 L 76.902344 42.855469 L 69.523438 42.855469 L 69.523438 37.417969 L 83.761719 37.417969 L 83.761719 38.203125 C 83.761719 49.257812 77.558594 55.488281 68.558594 55.339844 C 60.742188 55.222656 55.320312 50.617188 53.714844 42.8125 C 53.355469 41.058594 53.230469 39.25 53.355469 37.460938 C 53.890625 28.15625 60.136719 22.28125 68.558594 22.144531 C 75.722656 22.007812 80.832031 25.558594 82.585938 30.78125 "/>
<path style=" stroke:none;fill-rule:nonzero;fill:rgb(34.509804%,34.901961%,35.686275%);fill-opacity:1;" d="M 117.714844 28.542969 L 117.714844 22.707031 L 140.300781 22.707031 L 140.300781 28.542969 L 132.1875 28.542969 L 132.1875 54.671875 L 125.710938 54.671875 L 125.710938 28.542969 Z M 117.714844 28.542969 "/>
<path style=" stroke:none;fill-rule:nonzero;fill:rgb(34.509804%,34.901961%,35.686275%);fill-opacity:1;" d="M 143.929688 54.722656 L 143.929688 22.660156 L 163.976562 22.660156 L 163.976562 28.5 L 150.578125 28.5 L 150.578125 35.652344 L 163.191406 35.652344 L 163.191406 41.394531 L 150.519531 41.394531 L 150.519531 48.851562 L 163.851562 48.851562 L 163.851562 54.722656 Z M 143.929688 54.722656 "/>
<path style=" stroke:none;fill-rule:nonzero;fill:rgb(34.509804%,34.901961%,35.686275%);fill-opacity:1;" d="M 173.15625 38.449219 C 173.027344 45.070312 176.523438 48.925781 181.191406 49.332031 C 186.5625 49.730469 190.898438 45.695312 190.898438 38.449219 C 190.898438 32.183594 186.917969 28.011719 181.988281 28.054688 C 180.84375 28.054688 179.703125 28.269531 178.617188 28.757812 C 175.304688 30.207031 173.261719 33.457031 173.15625 38.449219 M 166.566406 37.878906 C 167.042969 28.445312 173.46875 22.347656 181.6875 22.1875 C 190.644531 22.007812 197.496094 28.796875 197.542969 38.542969 C 197.542969 48.539062 190.644531 55.300781 181.820312 55.300781 C 172.902344 55.300781 166.046875 48.242188 166.566406 37.878906 "/>
<path style=" stroke:none;fill-rule:nonzero;fill:rgb(34.509804%,34.901961%,35.686275%);fill-opacity:1;" d="M 92.714844 38.449219 C 92.585938 45.070312 96.074219 48.925781 100.75 49.332031 C 106.113281 49.730469 110.4375 45.695312 110.4375 38.449219 C 110.4375 32.183594 106.46875 28.011719 101.527344 28.054688 C 100.394531 28.054688 99.25 28.269531 98.160156 28.757812 C 94.851562 30.207031 92.796875 33.457031 92.714844 38.449219 M 86.113281 37.878906 C 86.59375 28.445312 93.015625 22.347656 101.242188 22.1875 C 110.183594 22.007812 117.046875 28.796875 117.09375 38.542969 C 117.09375 48.539062 110.1875 55.300781 101.371094 55.300781 C 92.453125 55.300781 85.59375 48.242188 86.113281 37.878906 "/>
</g>
</svg>
