<?xml version="1.0" encoding="UTF-8"?>
<svg width="35px" height="37px" viewBox="0 0 35 37" version="1.1" xmlns="http://www.w3.org/2000/svg" xmlns:xlink="http://www.w3.org/1999/xlink">
    <!-- Generator: Sketch 46.2 (44496) - http://www.bohemiancoding.com/sketch -->
    <title>certificados</title>
    <desc>Created with Sketch.</desc>
    <defs></defs>
    <g id="HOME" stroke="none" stroke-width="1" fill="none" fill-rule="evenodd">
        <g id="Desktop-(ventajas-donante)" transform="translate(-475.000000, -1603.000000)" fill="#2E2C2D">
            <g id="Proyectos" transform="translate(0.000000, 657.000000)">
                <g id="ventajas" transform="translate(0.000000, 814.000000)">
                    <g id="certificados" transform="translate(475.000000, 131.798485)">
                        <g id="Group-13" transform="translate(0.000000, -0.000000)">
                            <path d="M20.891,12.4191266 L16.8663182,16.4377104 L18.0174091,22.1826745 C18.0410455,22.3012673 17.9896364,22.4228101 17.8885909,22.4883017 C17.8389545,22.5201624 17.7834091,22.5355028 17.7272727,22.5355028 C17.6675909,22.5355028 17.6073182,22.5172123 17.5565,22.4812215 L12.7423636,19.0620917 L7.852,22.4824015 C7.75272727,22.5514331 7.62154545,22.5537932 7.5205,22.4877116 C7.41945455,22.4216301 7.36863636,22.3012673 7.39227273,22.1826745 L8.54336364,16.4377104 L4.51868182,12.4191266 C4.43418182,12.3347546 4.40877273,12.2079017 4.45486364,12.0975691 C4.50036364,11.9878265 4.60790909,11.9152548 4.72727273,11.9152548 L10.4455,11.9152548 L12.4740909,7.42052989 C12.5219545,7.31491742 12.6271364,7.24647583 12.7435455,7.24647583 L12.7453182,7.24647583 C12.8623182,7.24765585 12.9680909,7.31727748 13.0141818,7.42406997 L14.9671364,11.9152548 L20.6818182,11.9152548 C20.8017727,11.9152548 20.9093182,11.9878265 20.9548182,12.0975691 C21.0009091,12.2079017 20.9755,12.3347546 20.891,12.4191266 M25.4090909,1 L0.590909091,1 C0.264727273,1 0,1.26432617 0,1.59001377 L0,35.8108127 C0,36.0291178 0.121136364,36.2297225 0.313772727,36.3317948 C0.400636364,36.3784059 0.495772727,36.4008264 0.590909091,36.4008264 C0.706727273,36.4008264 0.821954545,36.3671957 0.921818182,36.3005241 L12.7500455,28.3347481 L25.0882273,36.3064242 C25.2702273,36.424427 25.5012727,36.4320972 25.6915455,36.3294348 C25.8818182,36.2261824 26,36.0273477 26,35.8108127 L26,1.59001377 C26,1.26432617 25.7358636,1 25.4090909,1" id="certificados"></path>
                        </g>
                    </g>
                </g>
            </g>
        </g>
    </g>
</svg>