<?xml version="1.0" encoding="UTF-8"?>
<svg width="28px" height="28px" viewBox="0 0 28 28" version="1.1" xmlns="http://www.w3.org/2000/svg" xmlns:xlink="http://www.w3.org/1999/xlink">
    <defs>
        <polygon id="path-1" points="28 20.5334733 28 0.00014 9.33333333e-05 0.00014 9.33333333e-05 20.5334733"></polygon>
        <polygon id="path-3" points="0 28 28 28 28 0 0 0"></polygon>
    </defs>
    <g id="Page-1" stroke="none" stroke-width="1" fill="none" fill-rule="evenodd">
        <g id="images" transform="translate(-36.000000, -548.000000)">
            <g id="SIDEBAR" transform="translate(-1.000000, 0.000000)">
                <g id="04-Activo-" transform="translate(1.000000, 529.000000)">
                    <rect id="Rectangle-10" fill="none" x="0" y="0.5" width="260.25" height="65.5"></rect>
                    <g id="Group-5" transform="translate(36.000000, 19.000000)">
                        <g id="icono-img">
                            <g id="Group-3">
                                <mask id="mask-2" fill="white">
                                    <use xlink:href="#path-1"></use>
                                </mask>
                                <g id="Clip-2"></g>
                                <path d="M13.51896,9.28820667 C12.9024933,9.92147333 12.0792933,10.2700733 11.2000933,10.2700733 L11.2000933,10.2700733 C11.1454933,10.2700733 11.08996,10.26914 11.0344267,10.26634 L7.52742667,10.2668067 C7.50689333,10.2700733 7.44809333,10.2724067 7.39022667,10.2724067 C6.23522667,10.2724067 5.29536,9.30500667 5.29536,8.11594 C5.29536,6.88534 6.29682667,5.88387333 7.52742667,5.88387333 C7.62449333,5.88387333 7.72202667,5.89087333 7.81909333,5.90394 C8.25962667,4.50254 9.55136,3.53047333 11.05776,3.53047333 C12.9374933,3.53047333 14.46676,5.05927333 14.46676,6.93900667 C14.46676,7.82614 14.1302933,8.66054 13.51896,9.28820667 L13.51896,9.28820667 Z M9.33333333e-05,0.00014 L9.33333333e-05,20.5334733 L3.42402667,20.5334733 C4.02509333,19.14514 6.40089333,14.1214733 9.29282667,14.1214733 C11.7068933,14.1214733 13.69396,16.2200733 14.5404933,17.27474 L17.73296,11.80214 C18.16836,11.0550067 18.97616,10.59114 19.8408933,10.59114 C20.7714267,10.59114 21.6076933,11.1082067 22.0234933,11.94074 L26.41856,20.5334733 L28.0000933,20.5334733 L28.0000933,0.00014 L9.33333333e-05,0.00014 Z" id="Fill-1" fill="#FFFFFF" mask="url(#mask-2)"></path>
                            </g>
                            <mask id="mask-4" fill="white">
                                <use xlink:href="#path-3"></use>
                            </mask>
                            <g id="Clip-5"></g>
                            <polygon id="Fill-4" fill="#FFFFFF" mask="url(#mask-4)" points="0 28 28 28 28 21.4666667 0 21.4666667"></polygon>
                        </g>
                    </g>
                </g>
            </g>
        </g>
    </g>
</svg>
