<?xml version="1.0" encoding="utf-8"?>
<!-- Generator: Adobe Illustrator 21.1.0, SVG Export Plug-In . SVG Version: 6.00 Build 0)  -->
<svg version="1.1" id="Layer_1" xmlns="http://www.w3.org/2000/svg" xmlns:xlink="http://www.w3.org/1999/xlink" x="0px" y="0px"
	 viewBox="0 0 40 40" style="enable-background:new 0 0 40 40;" xml:space="preserve">
<style type="text/css">
	.st0{fill:#555555;}
</style>
<g>
	<path class="st0" d="M9.3,14.1l-1,1c-0.2,0.1-0.4,0.2-0.6,0.2s-0.4-0.1-0.6-0.2l-3-3.1c-0.2-0.1-0.3-0.3-0.3-0.5S4,11.1,4.1,11l1-1
		c0.2-0.2,0.4-0.3,0.6-0.3S6.1,9.8,6.2,10l1.5,1.4l4.1-4.1c0.1-0.1,0.3-0.2,0.5-0.2s0.4,0.1,0.6,0.2L14,8.4c0.1,0.2,0.2,0.4,0.2,0.5
		S14.1,9.3,14,9.5H14L9.3,14.1z M9.3,24.4l-1,1c-0.2,0.2-0.4,0.3-0.6,0.3s-0.4-0.1-0.6-0.3l-3-3C4,22.2,3.9,22,3.9,21.8
		s0.1-0.4,0.2-0.5l1-1c0.2-0.1,0.4-0.2,0.6-0.2s0.4,0.1,0.5,0.2l1.5,1.4l4.1-4.1c0.1-0.2,0.3-0.3,0.5-0.3s0.4,0.1,0.6,0.3l1.1,1.1
		c0.1,0.1,0.2,0.3,0.2,0.5s-0.1,0.4-0.3,0.6H14L9.3,24.4z M5.8,29.7c-0.6,0.6-0.9,1.3-0.9,2.2c0,0.9,0.3,1.6,0.9,2.2
		s1.4,0.9,2.2,0.9s1.6-0.3,2.2-0.9s0.9-1.3,0.9-2.2c0-0.9-0.3-1.6-0.9-2.2S8.9,28.8,8,28.8S6.4,29.1,5.8,29.7z M35.9,13.5
		c0.3,0,0.5-0.1,0.7-0.3s0.3-0.4,0.3-0.7V9.9c0-0.3-0.1-0.5-0.3-0.7s-0.4-0.3-0.7-0.3H17.3c-0.3,0-0.5,0.1-0.7,0.3s-0.3,0.4-0.3,0.7
		v2.6c0,0.3,0.1,0.5,0.3,0.7s0.4,0.3,0.7,0.3H35.9z M35.9,23.9c0.3,0,0.5-0.1,0.7-0.3s0.3-0.4,0.3-0.7v-2.6c0-0.3-0.1-0.5-0.3-0.7
		s-0.4-0.3-0.7-0.3H17.3c-0.3,0-0.5,0.1-0.7,0.3s-0.3,0.4-0.3,0.7v2.6c0,0.3,0.1,0.5,0.3,0.7s0.4,0.3,0.7,0.3H35.9z M35.9,34.2
		c0.3,0,0.5-0.1,0.7-0.3s0.3-0.4,0.3-0.7v-2.6c0-0.3-0.1-0.5-0.3-0.7s-0.4-0.3-0.7-0.3H17.3c-0.3,0-0.5,0.1-0.7,0.3
		s-0.3,0.4-0.3,0.7v2.6c0,0.3,0.1,0.5,0.3,0.7s0.4,0.3,0.7,0.3H35.9z"/>
</g>
</svg>
