<?xml version="1.0" encoding="utf-8"?>
<!-- Generator: Adobe Illustrator 21.1.0, SVG Export Plug-In . SVG Version: 6.00 Build 0)  -->
<svg version="1.1" id="Layer_1" xmlns="http://www.w3.org/2000/svg" xmlns:xlink="http://www.w3.org/1999/xlink" x="0px" y="0px"
	 viewBox="0 0 28.346 28.346" enable-background="new 0 0 28.346 28.346" xml:space="preserve">
<g>
	<g>
		<path fill-rule="evenodd" clip-rule="evenodd" fill="#1D1D1B" d="M15.253,13.287c1.108,2.102,2.315,4.16,3.294,6.321
			c0.828,1.827,0.246,3.621-1.234,4.737c-1.235,0.93-3.487,0.942-4.733,0.024c-1.488-1.095-2.091-2.908-1.269-4.724
			c0.989-2.19,2.21-4.276,3.33-6.407c0.099-0.232,0.219-0.315,0.316-0.308C15.063,12.94,15.146,13.03,15.253,13.287"/>
	</g>
	<g>
		<defs>
			<path id="SVGID_1_" d="M14.736,3.297c-9.162,0.218-8.87,7.736-8.87,7.736s-0.553-0.001-0.908,0.006
				c-2.609,0.055-4.614,1.431-4.604,4.568c0.012,3.523,2.917,5.065,7.658,5.071c0.575,0.001,1.619,0,1.619,0
				s0.055-1.239,0.653-2.269c1.045-1.801,2.767-4.876,3.969-7.041c0.168-0.304,0.386-0.564,0.725-0.564
				c0.311,0,0.657,0.463,0.847,0.796c1.068,1.873,2.333,4.181,3.402,6.144c0.944,1.737,0.999,2.935,0.999,2.935s1.671,0.224,2.644,0
				c3.358-0.773,5.166-3.172,5.12-6.573c-0.042-2.979-2.077-5.246-5.276-5.933c-0.396-0.086-1.067-0.149-1.067-0.149
				s-2.236-4.728-6.757-4.728C14.84,3.296,14.789,3.296,14.736,3.297"/>
		</defs>
		<use xlink:href="#SVGID_1_"  overflow="visible" fill="#1D1D1B"/>
		<clipPath id="SVGID_2_">
			<use xlink:href="#SVGID_1_"  overflow="visible"/>
		</clipPath>
		<rect x="0.344" y="3.296" clip-path="url(#SVGID_2_)" fill="#1D1D1B" width="27.693" height="17.607"/>
	</g>
</g>
</svg>
