<svg xmlns="http://www.w3.org/2000/svg" xmlns:xlink="http://www.w3.org/1999/xlink" version="1.1" x="0px" y="0px" viewBox="0 0 91 92" enable-background="new 0 0 91 91" xml:space="preserve"><g><path d="M0.688,88.71c0,1.16,0.939,2.1,2.1,2.1h77.771c5.539,0,10.047-4.508,10.047-10.049V28.307c0,0,0,0,0-0.001s0-0.001,0-0.001   V10.663c0-1.16-0.939-2.1-2.1-2.1h-9.689c-1.16,0-2.102,0.94-2.102,2.1c0,1.16,0.941,2.1,2.102,2.1h7.588v13.442H4.887V12.762   h13.377v5.5c0,1.16,0.939,2.1,2.1,2.1s2.1-0.94,2.1-2.1V3.306c0-1.16-0.939-2.1-2.1-2.1s-2.1,0.94-2.1,2.1v5.257H2.785   c-1.16,0-2.1,0.94-2.1,2.1v17.642c0,0.003,0.002,0.005,0.002,0.008V88.71z M4.887,30.407h81.518v50.354   c0,3.225-2.623,5.85-5.846,5.85H4.887V30.407z"/><path d="M29.174,38.356H15.582c-1.16,0-2.1,0.94-2.1,2.1v13.598c0,1.158,0.939,2.1,2.1,2.1h13.592c1.16,0,2.1-0.941,2.1-2.1V40.456   C31.273,39.296,30.334,38.356,29.174,38.356z M27.074,51.952h-9.391v-9.396h9.391V51.952z"/><path d="M75.715,38.356H39.689c-1.16,0-2.1,0.94-2.1,2.1v35.529c0,1.16,0.939,2.1,2.1,2.1h36.025c1.16,0,2.1-0.939,2.1-2.1V40.456   C77.814,39.296,76.875,38.356,75.715,38.356z M73.615,73.886H41.789v-31.33h31.826V73.886z"/><path d="M29.174,60.288H15.582c-1.16,0-2.1,0.941-2.1,2.102v13.596c0,1.16,0.939,2.1,2.1,2.1h13.592c1.16,0,2.1-0.939,2.1-2.1   V62.39C31.273,61.229,30.334,60.288,29.174,60.288z M27.074,73.886h-9.391v-9.396h9.391V73.886z"/><path d="M57.701,71.065c7.084,0,12.848-5.764,12.848-12.846c0-2.484-0.734-4.854-2.068-6.926l1.488-1.564   c0.799-0.84,0.768-2.17-0.072-2.969c-0.842-0.8-2.17-0.767-2.969,0.074l-9.193,9.66l-1.916-2.104   c-0.781-0.859-2.109-0.92-2.965-0.139c-0.857,0.781-0.92,2.107-0.139,2.967l3.432,3.771c0.395,0.43,0.949,0.68,1.531,0.686   c0.008,0,0.016,0,0.023,0c0.574,0,1.123-0.236,1.52-0.652l6.256-6.572c0.568,1.166,0.871,2.445,0.871,3.768   c0,4.766-3.877,8.645-8.646,8.645c-4.766,0-8.645-3.879-8.645-8.645s3.879-8.645,8.645-8.645c0.668,0,2.072,0.131,2.844,0.346   c1.115,0.311,2.273-0.342,2.584-1.459c0.313-1.117-0.342-2.275-1.459-2.585c-1.238-0.346-3.066-0.5-3.969-0.5   c-7.082,0-12.846,5.761-12.846,12.843S50.619,71.065,57.701,71.065z"/><path d="M29.537,12.762h14.008v5.5c0,1.16,0.941,2.1,2.1,2.1c1.16,0,2.102-0.94,2.102-2.1V3.306c0-1.16-0.941-2.1-2.102-2.1   c-1.158,0-2.1,0.94-2.1,2.1v5.257H29.537c-1.16,0-2.102,0.94-2.102,2.1C27.436,11.822,28.377,12.762,29.537,12.762z"/><path d="M54.182,12.762H68.83v5.5c0,1.16,0.941,2.1,2.102,2.1c1.158,0,2.1-0.94,2.1-2.1V3.306c0-1.16-0.941-2.1-2.1-2.1   c-1.16,0-2.102,0.94-2.102,2.1v5.257H54.182c-1.16,0-2.1,0.94-2.1,2.1C52.082,11.822,53.021,12.762,54.182,12.762z"/></g></svg>