<?xml version="1.0" encoding="utf-8"?>
<!-- Generator: Adobe Illustrator 21.1.0, SVG Export Plug-In . SVG Version: 6.00 Build 0)  -->
<svg version="1.1" id="Layer_1" xmlns="http://www.w3.org/2000/svg" xmlns:xlink="http://www.w3.org/1999/xlink" x="0px" y="0px"
	 viewBox="0 0 28.3 28.3" style="enable-background:new 0 0 28.3 28.3;" xml:space="preserve">
<g>
	<path d="M0.4,27.3c0,0.4,0.3,0.6,0.6,0.6h23.9c1.7,0,3.1-1.4,3.1-3.1V8.7c0,0,0,0,0,0s0,0,0,0V3.3c0-0.4-0.3-0.6-0.6-0.6h-3
		c-0.4,0-0.6,0.3-0.6,0.6C23.7,3.7,24,4,24.4,4h2.3v4.1H1.6V4h4.1v1.7C5.8,6,6,6.3,6.4,6.3S7,6,7,5.6V1c0-0.4-0.3-0.6-0.6-0.6
		S5.8,0.7,5.8,1v1.6H1C0.6,2.7,0.4,3,0.4,3.3v5.4c0,0,0,0,0,0L0.4,27.3L0.4,27.3z M1.6,9.4h25.1v15.5c0,1-0.8,1.8-1.8,1.8H1.6V9.4z"
		/>
	<path d="M9.1,11.8H4.9c-0.4,0-0.6,0.3-0.6,0.6v4.2c0,0.4,0.3,0.6,0.6,0.6h4.2c0.4,0,0.6-0.3,0.6-0.6v-4.2
		C9.8,12.1,9.5,11.8,9.1,11.8z M8.5,16H5.6v-2.9h2.9C8.5,13.1,8.5,16,8.5,16z"/>
	<path d="M23.4,11.8H12.3c-0.4,0-0.6,0.3-0.6,0.6v10.9c0,0.4,0.3,0.6,0.6,0.6h11.1c0.4,0,0.6-0.3,0.6-0.6V12.5
		C24.1,12.1,23.8,11.8,23.4,11.8z M22.8,22.7H13v-9.6h9.8C22.8,13.1,22.8,22.7,22.8,22.7z"/>
	<path d="M9.1,18.6H4.9c-0.4,0-0.6,0.3-0.6,0.6v4.2c0,0.4,0.3,0.6,0.6,0.6h4.2c0.4,0,0.6-0.3,0.6-0.6v-4.2
		C9.8,18.9,9.5,18.6,9.1,18.6z M8.5,22.7H5.6v-2.9h2.9C8.5,19.9,8.5,22.7,8.5,22.7z"/>
	<path d="M17.9,21.9c2.2,0,3.9-1.8,3.9-3.9c0-0.8-0.2-1.5-0.6-2.1l0.5-0.5c0.2-0.3,0.2-0.7,0-0.9c-0.3-0.2-0.7-0.2-0.9,0l-2.8,3
		l-0.6-0.6c-0.2-0.3-0.6-0.3-0.9,0c-0.3,0.2-0.3,0.6,0,0.9l1.1,1.2c0.1,0.1,0.3,0.2,0.5,0.2c0,0,0,0,0,0c0.2,0,0.3-0.1,0.5-0.2
		l1.9-2c0.2,0.4,0.3,0.8,0.3,1.2c0,1.5-1.2,2.7-2.7,2.7c-1.5,0-2.7-1.2-2.7-2.7s1.2-2.7,2.7-2.7c0.2,0,0.6,0,0.9,0.1
		c0.3,0.1,0.7-0.1,0.8-0.4c0.1-0.3-0.1-0.7-0.4-0.8C18.7,14,18.2,14,17.9,14c-2.2,0-3.9,1.8-3.9,3.9S15.7,21.9,17.9,21.9z"/>
	<path d="M9.2,4h4.3v1.7c0,0.4,0.3,0.6,0.6,0.6c0.4,0,0.6-0.3,0.6-0.6V1c0-0.4-0.3-0.6-0.6-0.6c-0.4,0-0.6,0.3-0.6,0.6v1.6H9.2
		C8.9,2.7,8.6,3,8.6,3.3C8.6,3.7,8.9,4,9.2,4z"/>
	<path d="M16.8,4h4.5v1.7c0,0.4,0.3,0.6,0.6,0.6c0.4,0,0.6-0.3,0.6-0.6V1c0-0.4-0.3-0.6-0.6-0.6c-0.4,0-0.6,0.3-0.6,0.6v1.6h-4.5
		c-0.4,0-0.6,0.3-0.6,0.6C16.2,3.7,16.4,4,16.8,4z"/>
</g>
</svg>
