<?xml version="1.0" encoding="utf-8"?>
<!-- Generator: Adobe Illustrator 21.1.0, SVG Export Plug-In . SVG Version: 6.00 Build 0)  -->
<svg version="1.1" id="Layer_1" xmlns="http://www.w3.org/2000/svg" xmlns:xlink="http://www.w3.org/1999/xlink" x="0px" y="0px"
	 viewBox="0 0 28.3 28.3" style="enable-background:new 0 0 28.3 28.3;" xml:space="preserve">
<path d="M27.8,27.7L14.6,8.7V5l4.5-1.9c0.2-0.1,0.3-0.2,0.3-0.4c0-0.2-0.1-0.3-0.3-0.4L14.4,0c-0.1-0.1-0.3-0.1-0.4,0
	c-0.1,0.1-0.2,0.2-0.2,0.4v4.3c0,0,0,0,0,0v4L0.5,27.7c-0.1,0.1-0.1,0.3,0,0.5c0.1,0.1,0.2,0.2,0.4,0.2h26.6c0.2,0,0.3-0.1,0.4-0.2
	C27.9,28,27.9,27.8,27.8,27.7z M16.7,16.2l-2.4-0.7c-0.1,0-0.2,0-0.3,0L12,16.2l-2-0.6l4.2-6l4.2,6L16.7,16.2z"/>
</svg>
