<svg xmlns="http://www.w3.org/2000/svg" xmlns:xlink="http://www.w3.org/1999/xlink" version="1.1" x="0px" y="0px" viewBox="0 0 90 90" style="enable-background:new 0 0 100 100;" xml:space="preserve"><path d="M86.6000977,86.6074829L51.187561,35.8143311v-9.9350586l12.0144653-5.0057983  c0.4313965-0.1798096,0.7178345-0.5966797,0.7305908-1.0646362c0.0115967-0.4679565-0.2516479-0.899353-0.6737671-1.1016846  l-12.7451172-6.1174316c-0.3664551-0.1762695-0.8001709-0.1519165-1.145752,0.0654907  c-0.3455811,0.2174683-0.555542,0.5966797-0.555542,1.0048828v11.401001c0,0.0180054,0,0.0359497,0,0.0539551v10.6992798  L13.3999023,86.6074829c-0.2528076,0.3629761-0.282959,0.8372803-0.0788574,1.229248  c0.2052612,0.3920288,0.611145,0.6378784,1.0530396,0.6378784h71.2518311c0.4418945,0,0.8477783-0.2458496,1.0530396-0.6378784  C86.8830566,87.4447632,86.8529053,86.970459,86.6000977,86.6074829z M56.6497192,55.7792358l-6.3203735-1.8230591  c-0.2296143-0.0661011-0.4731445-0.0603027-0.7004395,0.0127563l-5.4981689,1.8103027l-5.3114624-1.4786377L50,38.2637329  l11.2070923,16.074646L56.6497192,55.7792358z"/></svg>