<?xml version="1.0" encoding="UTF-8"?>
<svg width="21px" height="21px" viewBox="0 0 21 21" version="1.1" xmlns="http://www.w3.org/2000/svg" xmlns:xlink="http://www.w3.org/1999/xlink">
    <title>Group 711</title>
    <defs>
        <path d="M6.103,14.538 C6.27625,14.538 6.42117187,14.6612656 6.45469531,14.8247266 L6.462,14.897 L6.462,20.641 C6.462,20.81425 6.33873437,20.9591719 6.17527344,20.9926953 L6.103,21 L0.359,21 C0.184875,21 0.040609375,20.8767344 0.00726367188,20.7132734 L0,20.641 L0,14.897 C0,14.72375 0.1225,14.5788281 0.286439453,14.5453047 L0.359,14.538 L6.103,14.538 Z M13.372,14.538 C13.54525,14.538 13.6901719,14.6612656 13.7236953,14.8247266 L13.731,14.897 L13.731,20.641 C13.731,20.81425 13.6077344,20.9591719 13.4442734,20.9926953 L13.372,21 L7.628,21 C7.45475,21 7.30982812,20.8767344 7.27630469,20.7132734 L7.269,20.641 L7.269,14.897 C7.269,14.72375 7.39226562,14.5788281 7.55572656,14.5453047 L7.628,14.538 L13.372,14.538 Z M20.641,14.538 C20.815125,14.538 20.9593906,14.6612656 20.9927363,14.8247266 L21,14.897 L21,20.641 C21,20.81425 20.8775,20.9591719 20.7135605,20.9926953 L20.641,21 L14.897,21 C14.72375,21 14.5788281,20.8767344 14.5453047,20.7132734 L14.538,20.641 L14.538,14.897 C14.538,14.72375 14.6612656,14.5788281 14.8247266,14.5453047 L14.897,14.538 L20.641,14.538 Z M6.103,7.269 C6.27625,7.269 6.42117187,7.39226563 6.45469531,7.55572656 L6.462,7.628 L6.462,13.372 C6.462,13.54525 6.33873437,13.6901719 6.17527344,13.7236953 L6.103,13.731 L0.359,13.731 C0.184875,13.731 0.040609375,13.6077344 0.00726367188,13.4442734 L0,13.372 L0,7.628 C0,7.45475 0.1225,7.30982813 0.286439453,7.27630469 L0.359,7.269 L6.103,7.269 Z M13.372,7.269 C13.54525,7.269 13.6901719,7.39226563 13.7236953,7.55572656 L13.731,7.628 L13.731,13.372 C13.731,13.54525 13.6077344,13.6901719 13.4442734,13.7236953 L13.372,13.731 L7.628,13.731 C7.45475,13.731 7.30982812,13.6077344 7.27630469,13.4442734 L7.269,13.372 L7.269,7.628 C7.269,7.45475 7.39226562,7.30982813 7.55572656,7.27630469 L7.628,7.269 L13.372,7.269 Z M20.641,7.269 C20.815125,7.269 20.9593906,7.39226563 20.9927363,7.55572656 L21,7.628 L21,13.372 C21,13.54525 20.8775,13.6901719 20.7135605,13.7236953 L20.641,13.731 L14.897,13.731 C14.72375,13.731 14.5788281,13.6077344 14.5453047,13.4442734 L14.538,13.372 L14.538,7.628 C14.538,7.45475 14.6612656,7.30982813 14.8247266,7.27630469 L14.897,7.269 L20.641,7.269 Z M6.103,0 C6.27625,0 6.42117187,0.123265625 6.45469531,0.286726563 L6.462,0.359 L6.462,6.103 C6.462,6.27625 6.33873437,6.42117187 6.17527344,6.45469531 L6.103,6.462 L0.359,6.462 C0.184875,6.462 0.040609375,6.33873437 0.00726367188,6.17527344 L0,6.103 L0,0.359 C0,0.18575 0.1225,0.040828125 0.286439453,0.0073046875 L0.359,0 L6.103,0 Z M13.372,0 C13.54525,0 13.6901719,0.123265625 13.7236953,0.286726563 L13.731,0.359 L13.731,6.103 C13.731,6.27625 13.6077344,6.42117187 13.4442734,6.45469531 L13.372,6.462 L7.628,6.462 C7.45475,6.462 7.30982812,6.33873437 7.27630469,6.17527344 L7.269,6.103 L7.269,0.359 C7.269,0.18575 7.39226562,0.040828125 7.55572656,0.0073046875 L7.628,0 L13.372,0 Z M20.641,0 C20.815125,0 20.9593906,0.123265625 20.9927363,0.286726563 L21,0.359 L21,6.103 C21,6.27625 20.8775,6.42117187 20.7135605,6.45469531 L20.641,6.462 L14.897,6.462 C14.72375,6.462 14.5788281,6.33873437 14.5453047,6.17527344 L14.538,6.103 L14.538,0.359 C14.538,0.18575 14.6612656,0.040828125 14.8247266,0.0073046875 L14.897,0 L20.641,0 Z" id="path-1"></path>
    </defs>
    <g id="Page-1" stroke="none" stroke-width="1" fill="none" fill-rule="evenodd">
        <g id="Goteo_buscador_OSD_04" transform="translate(-1106.000000, -83.000000)">
            <g id="Group-711" transform="translate(1106.000000, 83.000000)">
                <mask id="mask-2" fill="white">
                    <use xlink:href="#path-1"></use>
                </mask>
                <g id="Clip-710"></g>
                <polygon id="Fill-709" fill="#26BDB9" mask="url(#mask-2)" points="-5 -5 26 -5 26 26 -5 26"></polygon>
            </g>
        </g>
    </g>
</svg>