<?xml version="1.0" encoding="UTF-8"?>
<svg width="33px" height="29px" viewBox="0 0 33 29" version="1.1" xmlns="http://www.w3.org/2000/svg" xmlns:xlink="http://www.w3.org/1999/xlink">
    <!-- Generator: Sketch 46.1 (44463) - http://www.bohemiancoding.com/sketch -->
    <title>Group 10</title>
    <desc>Created with Sketch.</desc>
    <defs></defs>
    <g id="Page-1" stroke="none" stroke-width="1" fill="none" fill-rule="evenodd">
        <g id="Editando-&gt;-imagenes" transform="translate(-33.000000, -796.000000)" fill="#FFFFFF">
            <g id="SIDEBAR" transform="translate(-1.000000, 0.000000)">
                <g id="08" transform="translate(34.000000, 796.000000)">
                    <g id="Group-10">
                        <path d="M25.7778255,10.2037226 C25.7778255,13.3507655 22.7666533,16.1111409 19.3333691,16.1111409 L13.8786738,16.1111409 L13.640766,16.1111409 L8.45351565,21.8418738 C8.34986731,21.9567999 8.20433001,22.0185593 8.05557047,22.0185593 C7.99058887,22.0185593 7.92507023,22.0067445 7.86277382,21.9825777 C7.6549401,21.9025591 7.51853244,21.703855 7.51853244,21.4815213 L7.51853244,16.648179 L7.51853244,16.1111409 L6.98149441,16.1111409 L5.95414066,16.1111409 C2.50420834,16.1111409 0,13.852359 0,10.7407606 L0,5.90741835 C0,2.59496777 2.59496777,0 5.90741835,0 L19.3333691,0 C22.7666533,0 25.7778255,2.76037548 25.7778255,5.90741835 L25.7778255,10.2037226 Z M32.2222819,18.282869 L32.2416153,20.7500218 C32.2588005,22.8761553 30.6090196,24.6118622 28.4850342,24.7004735 C28.4291823,24.7026217 28.3744044,24.7036957 28.3190895,24.7036957 L26.8519016,24.7036957 L26.8519016,28.462962 C26.8519016,28.6799253 26.7208643,28.8759442 26.5205491,28.9591851 C26.4539564,28.986574 26.3841415,29 26.3148635,29 C26.1752337,29 26.0377519,28.9452221 25.9351777,28.8426479 L21.7962255,24.7036957 L18.7963311,24.7036957 C18.766257,24.7036957 18.7372569,24.7015476 18.7082569,24.6967143 C16.6213271,24.5705103 15.010213,22.8509145 15.0273982,20.7494847 L15.0467316,18.2785727 C15.0467316,17.8951276 15.1004354,17.5294047 15.1965652,17.1851633 L19.3333691,17.1851633 C21.6270586,17.1851633 23.7553403,16.1126984 25.1591577,14.4999731 L28.4630157,14.4999731 C30.6063345,14.4999731 32.2222819,16.1261243 32.2222819,18.282869 Z" id="icono_chat"></path>
                    </g>
                </g>
            </g>
        </g>
    </g>
</svg>