<?xml version="1.0" encoding="utf-8"?>
<!-- Generator: Adobe Illustrator 21.1.0, SVG Export Plug-In . SVG Version: 6.00 Build 0)  -->
<svg version="1.1" id="Layer_1" xmlns="http://www.w3.org/2000/svg" xmlns:xlink="http://www.w3.org/1999/xlink" x="0px" y="0px"
	 viewBox="0 0 40 40" style="enable-background:new 0 0 40 40;" xml:space="preserve">
<style type="text/css">
	.st0{fill:#555555;}
</style>
<g>
	<path class="st0" d="M33.1,13.4v22.4c0,0.5-0.2,0.8-0.5,1.2c-0.3,0.3-0.7,0.5-1.2,0.5h-23c-0.5,0-0.8-0.2-1.2-0.5
		c-0.3-0.3-0.5-0.7-0.5-1.2V4.1C6.9,3.7,7,3.3,7.4,3c0.3-0.3,0.7-0.5,1.2-0.5h13.7v9.3c0,0.5,0.2,0.8,0.5,1.2
		c0.3,0.3,0.7,0.5,1.2,0.5H33.1z M20.3,21.5L20.3,21.5c0.3-1,0.4-1.8,0.5-2.3c0.1-0.9,0.1-1.6,0-2.1c-0.1-0.6-0.4-1.1-0.9-1.3
		s-1-0.3-1.5-0.1c-0.5,0.2-0.8,0.5-0.9,0.9c-0.2,0.6-0.2,1.3-0.1,2.3c0.1,0.8,0.3,1.8,0.6,3c-1,2.5-2,4.4-2.8,5.9
		c-1.3,0.6-2.3,1.3-3.1,2.1c-1,1-1.2,1.9-0.7,2.6c0.2,0.2,0.4,0.4,0.7,0.5c0.3,0.1,0.6,0.2,0.8,0.2c0.6,0,1.2-0.3,1.9-1
		c0.7-0.7,1.4-1.7,2.3-3.2l1-0.3c2-0.7,3.5-1.1,4.4-1.2c0.7,0.4,1.5,0.7,2.3,1c0.8,0.2,1.5,0.3,2.1,0.3c0.6,0,1-0.2,1.4-0.5
		c0.3-0.4,0.5-0.8,0.4-1.3c0-0.5-0.2-0.9-0.4-1.1c-0.7-0.7-2.4-0.8-5.1-0.5C22,24.3,21,23.1,20.3,21.5z M13.1,31.6
		c0.2-0.2,0.5-0.4,0.8-0.8c0.4-0.5,0.8-1.1,1.3-1.8l-0.3,0.2c-1.2,1.1-1.9,1.9-2.1,2.5C12.8,31.8,12.9,31.7,13.1,31.6z M17.3,27.5
		l1-0.4c1.4-0.5,2.5-0.9,3.3-1.1c-1-0.7-1.8-1.6-2.4-2.8C18.5,25,17.9,26.4,17.3,27.5z M19,18c0-0.8,0-1.2,0.1-1.2
		c0.3,0,0.4,0.4,0.4,1.3s-0.1,1.5-0.3,1.9C19.1,19.5,19,18.8,19,18z M25.9,3c-0.3-0.3-0.7-0.5-1.2-0.5h-0.4v8.8h8.8v-0.4
		c0-0.5-0.2-0.8-0.5-1.2L25.9,3z M27.5,26.8c-0.1-0.1-0.4-0.2-0.8-0.3c-0.5-0.1-1.2-0.1-2.1-0.1c0.8,0.3,1.4,0.5,1.9,0.7
		c0.4,0,0.6,0,0.8,0l0.2-0.1C27.7,27,27.7,26.9,27.5,26.8z"/>
</g>
</svg>
