<?xml version="1.0" encoding="UTF-8"?>
<svg width="33px" height="19px" viewBox="0 0 33 19" version="1.1" xmlns="http://www.w3.org/2000/svg" xmlns:xlink="http://www.w3.org/1999/xlink">
    <defs></defs>
    <g id="Page-1" stroke="none" stroke-width="1" fill="none" fill-rule="evenodd">
        <g id="preview" transform="translate(-33.000000, -434.000000)" fill="#FFFFFF">
            <g id="SIDEBAR" transform="translate(-1.000000, 0.000000)">
                <g id="02" transform="translate(34.000000, 434.000000)">
                    <g id="Group-2">
                        <path d="M16.25,4.33329845 C13.5622716,4.33329845 11.3750392,6.51998918 11.3750392,9.20825921 C11.3750392,11.8965292 13.5622716,14.08322 16.25,14.08322 C18.9377284,14.08322 21.1249608,11.8965292 21.1249608,9.20825921 C21.1249608,6.51998918 18.9377284,4.33329845 16.25,4.33329845 M16.25,15.1665446 C12.9648181,15.1665446 10.2917146,12.4934411 10.2917146,9.20825921 C10.2917146,5.92307732 12.9648181,3.24997384 16.25,3.24997384 C19.5351819,3.24997384 22.2082854,5.92307732 22.2082854,9.20825921 C22.2082854,12.4934411 19.5351819,15.1665446 16.25,15.1665446 M32.3888284,9.4211325 C32.0947058,9.03655226 25.0920955,0 16.25,0 C7.40844617,0 0.405294209,9.03655226 0.111171576,9.4211325 C-0.0448271682,9.62533919 -0.035618909,9.91025356 0.132296406,10.1041687 C0.425877376,10.4437909 7.42848768,18.4165184 16.25,18.4165184 C25.072054,18.4165184 32.0741226,10.4437909 32.3677036,10.1041687 C32.5356189,9.91025356 32.5448272,9.62533919 32.3888284,9.4211325" id="icono-previsualizar"></path>
                    </g>
                </g>
            </g>
        </g>
    </g>
</svg>
