<?xml version="1.0" standalone="no"?>
<!DOCTYPE svg PUBLIC "-//W3C//DTD SVG 20010904//EN"
 "http://www.w3.org/TR/2001/REC-SVG-20010904/DTD/svg10.dtd">
<svg version="1.0" xmlns="http://www.w3.org/2000/svg"
 width="35.000000pt" height="35.000000pt" viewBox="0 0 35.000000 35.000000"
 preserveAspectRatio="xMidYMid meet">

<g transform="translate(0.000000,35.000000) scale(0.100000,-0.100000)"
fill="#000000" stroke="none">
<path d="M300 332 c0 -4 5 -13 12 -20 18 -18 28 -15 28 8 0 13 -7 20 -20 20
-11 0 -20 -4 -20 -8z"/>
<path d="M181 256 c-65 -65 -73 -78 -68 -103 3 -18 0 -35 -11 -48 -16 -19 -16
-19 3 -3 13 11 30 14 48 11 25 -5 38 3 103 68 41 40 74 79 74 86 0 16 -47 63
-63 63 -7 0 -46 -33 -86 -74z"/>
<path d="M45 209 c-19 -17 -35 -36 -35 -41 0 -21 66 3 100 37 l35 35 -32 0
c-22 0 -44 -10 -68 -31z"/>
<path d="M203 108 c-28 -31 -52 -98 -35 -98 19 0 70 68 74 98 3 17 2 32 -2 32
-3 0 -20 -15 -37 -32z"/>
</g>
</svg>
