<?xml version="1.0" encoding="utf-8"?>
<!-- Generator: Adobe Illustrator 21.1.0, SVG Export Plug-In . SVG Version: 6.00 Build 0)  -->
<svg version="1.1" id="Layer_1" xmlns="http://www.w3.org/2000/svg" xmlns:xlink="http://www.w3.org/1999/xlink" x="0px" y="0px"
	 viewBox="0 0 80.602 87.901" enable-background="new 0 0 80.602 87.901" xml:space="preserve">
<g>
	<g>
		<path fill="#020203" d="M20.108,4.395c-2.089,0-4.177,0.803-5.744,2.37c-3.173,3.173-3.173,8.355,0,11.528l10.845,10.202
			c0.201,0.161,0.442,0.281,0.683,0.281s0.482-0.08,0.683-0.281l10.845-10.202c1.566-1.566,2.37-3.655,2.37-5.744
			s-0.803-4.177-2.37-5.744c-1.406-1.406-3.213-2.048-5.101-2.048c-2.289,0-4.619,0.964-6.346,2.651l-0.04,0.04
			c0,0-0.04,0-0.04-0.04C24.205,5.881,22.156,4.395,20.108,4.395L20.108,4.395z"/>
		<g transform="translate(0,-952.36223)">
			<g transform="translate(-283.00272,93.159702)">
				<path fill="#020203" d="M330.118,905.525h7.675c0.828,0,1.5-0.672,1.5-1.5v-28.582c0-0.828-0.672-1.5-1.5-1.5h-29.147l0,0.003
					c-0.828,0-1.5,0.672-1.5,1.5v28.582c0,0.828,0.672,1.5,1.5,1.5h7.671l5.57,10.383c0.558,1.085,2.109,1.085,2.667,0
					L330.118,905.525z M310.146,876.946h26.147v25.582h-7.309c-0.561,0-1.076,0.314-1.333,0.813l-0.915,1.78
					c-0.087,0.115-0.145,0.246-0.196,0.381l-3.32,6.447l-4.432-8.608c-0.257-0.5-0.772-0.813-1.334-0.813h-7.307L310.146,876.946z"
					/>
			</g>
		</g>
		<path fill="#020203" d="M49.432,23.018c-0.487,0.015-0.949,0.218-1.289,0.568l-9.751,9.753l-4.143-4.143
			c-0.353-0.363-0.839-0.568-1.346-0.568c-1.682,0.002-2.51,2.046-1.305,3.219l5.399,5.399c0.364,0.378,0.869,0.587,1.393,0.575
			c0.526,0.013,1.032-0.196,1.397-0.575l11.007-11.009C52.02,25.044,51.141,22.967,49.432,23.018L49.432,23.018z"/>
	</g>
	<path fill="#020203" d="M21.665,71.55c1.587-1.155,2.711-2.837,3.172-4.744c0,0,0.834-4.912-1.974-7.922
		c-1.209-1.296-3.094-2.24-6.011-2.287c-3.281-0.053-5.28,1.028-6.483,2.505c-2.472,3.033-1.594,7.738-1.594,7.738
		c0.46,1.908,1.585,3.59,3.172,4.744c-4.406,0.174-7.894,3.785-7.916,8.194v2.033c0,0.936,0.759,1.694,1.694,1.694h22.162
		c0.936,0,1.694-0.759,1.694-1.694v-2.033C29.577,75.356,26.084,71.725,21.665,71.55z M26.22,80.117H7.419v-0.339
		c0-2.676,2.17-4.846,4.846-4.846c1.815,0.006,3.292-1.46,3.298-3.276c0.004-1.105-0.548-2.138-1.468-2.749
		c-2.237-1.504-2.831-4.536-1.328-6.772c0.189-0.281,0.407-0.542,0.65-0.778c0.95-0.917,2.232-1.406,3.551-1.355
		c2.623,0.121,4.701,2.261,4.744,4.887c0.006,1.63-0.803,3.156-2.155,4.066c-1.512,1.004-1.924,3.045-0.919,4.557
		c0.609,0.916,1.636,1.468,2.736,1.468c2.676,0,4.846,2.17,4.846,4.846V80.117z"/>
	<path fill="#020203" d="M45.16,71.55c1.587-1.155,2.711-2.837,3.172-4.744c0,0,0.834-4.912-1.974-7.922
		c-1.209-1.296-3.094-2.24-6.011-2.287c-3.281-0.053-5.28,1.028-6.483,2.505c-2.472,3.033-1.594,7.738-1.594,7.738
		c0.46,1.908,1.585,3.59,3.172,4.744c-4.406,0.174-7.894,3.785-7.916,8.194v2.033c0,0.936,0.759,1.694,1.694,1.694h22.162
		c0.936,0,1.694-0.759,1.694-1.694v-2.033C53.073,75.356,49.579,71.725,45.16,71.55z M49.715,80.117H30.914v-0.339
		c0-2.676,2.17-4.846,4.846-4.846c1.815,0.006,3.292-1.46,3.298-3.276c0.004-1.105-0.548-2.138-1.468-2.749
		c-2.237-1.504-2.831-4.536-1.328-6.772c0.189-0.281,0.407-0.542,0.65-0.778c0.95-0.917,2.232-1.406,3.551-1.355
		c2.623,0.121,4.701,2.261,4.744,4.887c0.006,1.63-0.803,3.156-2.155,4.066c-1.512,1.004-1.924,3.045-0.919,4.557
		c0.609,0.916,1.636,1.468,2.736,1.468c2.676,0,4.846,2.17,4.846,4.846V80.117z"/>
	<path fill="#020203" d="M68.656,71.55c1.587-1.155,2.711-2.837,3.172-4.744c0,0,0.834-4.912-1.974-7.922
		c-1.209-1.296-3.094-2.24-6.011-2.287c-3.281-0.053-5.28,1.028-6.483,2.505c-2.472,3.033-1.594,7.738-1.594,7.738
		c0.46,1.908,1.585,3.59,3.172,4.744c-4.406,0.174-7.894,3.785-7.916,8.194v2.033c0,0.936,0.759,1.694,1.694,1.694h22.162
		c0.936,0,1.694-0.759,1.694-1.694v-2.033C76.568,75.356,73.075,71.725,68.656,71.55z M73.21,80.117H54.409v-0.339
		c0-2.676,2.17-4.846,4.846-4.846c1.815,0.006,3.292-1.46,3.298-3.276c0.004-1.105-0.548-2.138-1.468-2.749
		c-2.237-1.504-2.831-4.536-1.328-6.772c0.189-0.281,0.407-0.542,0.65-0.778c0.95-0.917,2.232-1.406,3.551-1.355
		c2.623,0.121,4.701,2.261,4.744,4.887c0.006,1.63-0.803,3.156-2.155,4.066c-1.512,1.004-1.924,3.045-0.919,4.557
		c0.609,0.916,1.636,1.468,2.736,1.468c2.676,0,4.846,2.17,4.846,4.846V80.117z"/>
</g>
</svg>
