<?xml version="1.0" encoding="UTF-8"?>
<svg width="26px" height="26px" viewBox="0 0 26 26" version="1.1" xmlns="http://www.w3.org/2000/svg" xmlns:xlink="http://www.w3.org/1999/xlink">
    <!-- Generator: Sketch 46.2 (44496) - http://www.bohemiancoding.com/sketch -->
    <title>icono_lupa_2</title>
    <desc>Created with Sketch.</desc>
    <defs></defs>
    <g id="HOME" stroke="none" stroke-width="1" fill="none" fill-rule="evenodd">
        <g id="Desktop-(ventajas-donante)" transform="translate(-268.000000, -549.000000)" stroke-width="2" stroke="#91B3B8" fill="#91B3B8">
            <g id="Buscador" transform="translate(0.000000, 510.000000)">
                <g id="Group" transform="translate(254.000000, 22.000000)">
                    <g id="buscador">
                        <g id="Group-5" transform="translate(14.000000, 17.000000)">
                            <path d="M9.52403552,16.4484644 C5.70601961,16.4484644 2.60000667,13.3424514 2.60000667,9.52443552 C2.60000667,5.70641961 5.70601961,2.60000667 9.52403552,2.60000667 C13.3420514,2.60000667 16.4484644,5.70641961 16.4484644,9.52443552 C16.4484644,13.3424514 13.3420514,16.4484644 9.52403552,16.4484644 M24.765699,23.6344943 L16.0876629,14.9564582 C17.311268,13.480452 18.048471,11.5868441 18.048471,9.52443552 C18.048471,4.82401593 14.2240551,1 9.52403552,1 C4.82361593,1 1,4.82401593 1,9.52443552 C1,14.2244551 4.82361593,18.048471 9.52403552,18.048471 C11.5868441,18.048471 13.480052,17.311268 14.9560582,16.0876629 L23.6344943,24.765699 C23.790495,24.9220997 23.9952958,25.0001 24.2000967,25.0001 C24.4048975,25.0001 24.6096984,24.9220997 24.765699,24.765699 C25.0781003,24.4536977 25.0781003,23.9468956 24.765699,23.6344943" id="icono_lupa"></path>
                        </g>
                    </g>
                </g>
            </g>
        </g>
    </g>
</svg>