<?xml version="1.0" encoding="UTF-8"?>
<svg width="24px" height="31px" viewBox="0 0 24 31" version="1.1" xmlns="http://www.w3.org/2000/svg" xmlns:xlink="http://www.w3.org/1999/xlink">
    <!-- Generator: Sketch 46.1 (44463) - http://www.bohemiancoding.com/sketch -->
    <title>Group 13</title>
    <desc>Created with Sketch.</desc>
    <defs></defs>
    <g id="Page-1" stroke="none" stroke-width="1" fill="none" fill-rule="evenodd">
        <g id="Editando-&gt;-imagenes" transform="translate(-38.000000, -921.000000)" fill="#FFFFFF">
            <g id="SIDEBAR" transform="translate(-1.000000, 0.000000)">
                <g id="10" transform="translate(39.000000, 921.000000)">
                    <g id="Group-13">
                        <path d="M2.14285714,27.8214286 L2.14285714,6.92857143 L0.535714286,6.92857143 C0.24,6.92857143 0,7.16803571 0,7.46428571 L0,29.9642857 C0,30.2605357 0.24,30.5 0.535714286,30.5 L18.75,30.5 C19.0457143,30.5 19.2857143,30.2605357 19.2857143,29.9642857 L19.2857143,28.3571429 L2.67857143,28.3571429 C2.38285714,28.3571429 2.14285714,28.1176786 2.14285714,27.8214286 M5.35714286,24.6071429 L5.35714286,3.76089286 L3.75,3.76089286 C3.45428571,3.76089286 3.21428571,4.00035714 3.21428571,4.29660714 L3.21428571,26.75 L3.21428571,27.2857143 L3.75,27.2857143 L20.8928571,27.2857143 C21.1885714,27.2857143 21.4285714,27.04625 21.4285714,26.75 L21.4285714,25.1428571 L5.89285714,25.1428571 C5.59714286,25.1428571 5.35714286,24.9033929 5.35714286,24.6071429 M17.6785714,6.39285714 L17.6785714,1.03571429 L23.0357143,6.39285714 L17.6785714,6.39285714 Z M23.4144643,6.01410714 L22.5,5.09964286 L21.4285714,4.02821429 L21.16125,3.76089286 L20.0898214,2.68946429 L18.0573214,0.656964286 C17.9571429,0.55625 17.8205357,0.5 17.6785714,0.5 L6.96428571,0.5 C6.66857143,0.5 6.42857143,0.739464286 6.42857143,1.03571429 L6.42857143,23.5357143 L6.42857143,24.0714286 L6.96428571,24.0714286 L23.0357143,24.0714286 C23.3314286,24.0714286 23.5714286,23.8319643 23.5714286,23.5357143 L23.5714286,6.39285714 C23.5714286,6.25035714 23.5151786,6.11428571 23.4144643,6.01410714 L23.4144643,6.01410714 Z" id="icono_files"></path>
                    </g>
                </g>
            </g>
        </g>
    </g>
</svg>