<?xml version="1.0" encoding="utf-8"?>
<!-- Generator: Adobe Illustrator 21.1.0, SVG Export Plug-In . SVG Version: 6.00 Build 0)  -->
<svg version="1.1"
	 id="Layer_1" xmlns:cc="http://creativecommons.org/ns#" xmlns:dc="http://purl.org/dc/elements/1.1/" xmlns:inkscape="http://www.inkscape.org/namespaces/inkscape" xmlns:rdf="http://www.w3.org/1999/02/22-rdf-syntax-ns#" xmlns:sodipodi="http://sodipodi.sourceforge.net/DTD/sodipodi-0.dtd" xmlns:svg="http://www.w3.org/2000/svg"
	 xmlns="http://www.w3.org/2000/svg" xmlns:xlink="http://www.w3.org/1999/xlink" x="0px" y="0px" viewBox="0 0 28.3 28.3"
	 style="enable-background:new 0 0 28.3 28.3;" xml:space="preserve">
<g transform="translate(0,-952.36218)">
	<path d="M14.2,954.3c-3.3,0-6,2.7-6,6c0,3.1,2.3,5.6,5.3,5.9v6h-1.3c-0.3-3-2.9-5.3-5.9-5.3c-3.3,0-6,2.7-6,6c0,3.3,2.7,6,6,6
		c3.1,0,5.6-2.3,5.9-5.3h3.8c0.3,3,2.9,5.3,5.9,5.3c3.3,0,6-2.7,6-6s-2.7-6-6-6c-3.1,0-5.6,2.3-5.9,5.3h-1.3v-6
		c3-0.3,5.3-2.9,5.3-5.9C20.1,957,17.5,954.3,14.2,954.3z M14.2,955.5c2.6,0,4.7,2.1,4.7,4.7c0,0.9-0.3,1.7-0.7,2.5
		c-1-1.1-2.4-1.8-4-1.8c-1.6,0-3,0.7-4,1.8c-0.4-0.7-0.7-1.6-0.7-2.5C9.4,957.6,11.6,955.5,14.2,955.5z M14.2,957.1
		c-0.7,0-1.3,0.6-1.3,1.3c0,0.7,0.6,1.3,1.3,1.3c0.7,0,1.3-0.6,1.3-1.3C15.4,957.7,14.9,957.1,14.2,957.1z M6.3,968.1
		c2.6,0,4.7,2.1,4.7,4.7c0,0.9-0.3,1.7-0.7,2.5c-1-1.1-2.4-1.8-4-1.8c-1.6,0-3,0.7-4,1.8c-0.4-0.7-0.7-1.6-0.7-2.5
		C1.6,970.2,3.7,968.1,6.3,968.1z M22,968.1c2.6,0,4.7,2.1,4.7,4.7c0,0.9-0.3,1.7-0.7,2.5c-1-1.1-2.4-1.8-4-1.8c-1.6,0-3,0.7-4,1.8
		c-0.4-0.7-0.7-1.6-0.7-2.5C17.3,970.2,19.4,968.1,22,968.1z M6.3,969.7c-0.7,0-1.3,0.6-1.3,1.3c0,0.7,0.6,1.3,1.3,1.3
		s1.3-0.6,1.3-1.3C7.6,970.2,7,969.7,6.3,969.7z M22,969.7c-0.7,0-1.3,0.6-1.3,1.3c0,0.7,0.6,1.3,1.3,1.3c0.7,0,1.3-0.6,1.3-1.3
		C23.3,970.2,22.7,969.7,22,969.7z"/>
</g>
</svg>
