<svg xmlns:dc="http://purl.org/dc/elements/1.1/" xmlns:cc="http://creativecommons.org/ns#" xmlns:rdf="http://www.w3.org/1999/02/22-rdf-syntax-ns#" xmlns:svg="http://www.w3.org/2000/svg" xmlns="http://www.w3.org/2000/svg" xmlns:sodipodi="http://sodipodi.sourceforge.net/DTD/sodipodi-0.dtd" xmlns:inkscape="http://www.inkscape.org/namespaces/inkscape" version="1.1" x="0px" y="0px" viewBox="0 0 100 90"><g transform="translate(0,-952.36218)"><path style="font-size:medium;font-style:normal;font-variant:normal;font-weight:normal;font-stretch:normal;text-indent:0;text-align:start;text-decoration:none;line-height:normal;letter-spacing:normal;word-spacing:normal;text-transform:none;direction:ltr;block-progression:tb;writing-mode:lr-tb;text-anchor:start;baseline-shift:baseline;opacity:1;color:#000000;fill:#000000;fill-opacity:1;fill-rule:nonzero;stroke:none;stroke-width:4;marker:none;visibility:visible;display:inline;overflow:visible;enable-background:accumulate;font-family:Sans;-inkscape-font-specification:Sans" d="M 49.96875,11.03125 C 39.499029,11.03125 31,19.53028 31,30 c 0,9.79403 7.436458,17.8726 16.96875,18.875 l 0,19.125 -4.125,0 C 42.841325,58.4677 34.762781,51.03125 24.96875,51.03125 14.49903,51.03125 6,59.5303 6,70 c 0,10.4697 8.49903,18.96875 18.96875,18.96875 9.794031,0 17.872575,-7.43645 18.875,-16.96875 l 12.21875,0 c 1.003856,9.5346 9.111878,17 18.90625,17 10.469726,0 19,-8.5303 19,-19 0,-10.4698 -8.530288,-19 -19,-19 -9.794024,0 -17.901942,7.4658 -18.90625,17 l -4.09375,0 0,-19.125 C 61.501042,47.8726 68.9375,39.79403 68.9375,30 c 0,-10.46972 -8.499029,-18.96875 -18.96875,-18.96875 z m 0,3.9375 C 58.27671,14.96875 65,21.69204 65,30 65,32.880678 64.183673,35.558325 62.78125,37.84375 59.667615,34.271682 55.110518,32 50,32 c -5.126124,0 -9.698284,2.284054 -12.8125,5.875 -1.416185,-2.293221 -2.25,-4.97905 -2.25,-7.875 0,-8.30796 6.72329,-15.03125 15.03125,-15.03125 z M 50,20 c -2.209139,0 -4,1.790861 -4,4 0,2.209139 1.790861,4 4,4 2.209139,0 4,-1.790861 4,-4 0,-2.209139 -1.790861,-4 -4,-4 z M 24.96875,54.96875 C 33.27671,54.96875 40,61.692 40,70 40,72.880657 39.183673,75.558332 37.78125,77.84375 34.667615,74.271641 30.110518,72 25,72 c -5.126124,0 -9.698284,2.284012 -12.8125,5.875 -1.416185,-2.293214 -2.25,-4.979071 -2.25,-7.875 0,-8.308 6.723291,-15.03125 15.03125,-15.03125 z m 50,0.03125 c 8.307968,0 15,6.692 15,15 0,2.871113 -0.829784,5.536861 -2.21875,7.8125 C 84.637018,74.25924 80.094911,72 75,72 69.882199,72 65.301415,74.262835 62.1875,77.84375 60.789985,75.563233 59.96875,72.880657 59.96875,70 c 0,-8.308 6.692031,-15 15,-15 z M 25,60 c -2.209139,0 -4,1.7909 -4,4 0,2.2091 1.790861,4 4,4 2.209139,0 4,-1.7909 4,-4 0,-2.2091 -1.790861,-4 -4,-4 z m 50,0 c -2.209139,0 -4,1.790861 -4,4 0,2.209139 1.790861,4 4,4 2.209139,0 4,-1.790861 4,-4 0,-2.209139 -1.790861,-4 -4,-4 z" transform="translate(0,952.36218)"/></g></svg>