<svg xmlns="http://www.w3.org/2000/svg" xmlns:xlink="http://www.w3.org/1999/xlink" version="1.1" x="0px" y="0px" viewBox="0 0 90 90" style="enable-background:new 0 0 91 91;" xml:space="preserve"><g><path d="M32.8,90.2c13.8,0,25.6-9,29.7-21.4c0.7,0.1,1.4,0.1,2.1,0.1c14.2,0,25.7-11.5,25.7-25.7c0-13.7-23.2-39.9-24.2-41   c-0.4-0.4-1-0.7-1.6-0.7c0,0,0,0,0,0c-0.6,0-1.2,0.2-1.6,0.7c-0.4,0.5-9.5,10.5-16.4,21.6C40.7,15.5,35.2,9.4,34.7,8.8   c-0.5-0.5-1.2-0.8-1.9-0.8c-0.7,0-1.4,0.3-1.9,0.8C29.7,10.1,1.4,42.1,1.4,58.8C1.4,76.2,15.5,90.2,32.8,90.2z M64.1,56.8   c-0.2-1.6-0.6-3.3-1.2-5.1c3.4,0.4,6.9-0.5,9.7-2.5c1.1-0.8,2.7-0.5,3.5,0.6c0.8,1.1,0.5,2.7-0.6,3.5c-3.2,2.3-7,3.5-11,3.5   C64.3,56.8,64.2,56.8,64.1,56.8z M32.8,14.3c8.8,10.3,26.4,33.2,26.4,44.6c0,14.5-11.8,26.4-26.4,26.4c-14.5,0-26.4-11.8-26.4-26.4   C6.5,47.4,24,24.6,32.8,14.3z"/><path d="M19.5,73.4c3.9,2.6,8.4,4,13.1,4c4.9,0,9.6-1.5,13.6-4.3c1.5-1.1,1.9-3.2,0.8-4.7c-1.1-1.5-3.2-1.9-4.7-0.8   c-2.9,2-6.2,3.1-9.7,3.1c-3.4,0-6.6-1-9.4-2.9c-1.5-1-3.6-0.6-4.6,0.9C17.5,70.3,17.9,72.4,19.5,73.4z"/><path d="M51.2,65.1c0.3,0.2,0.7,0.3,1.1,0.3c0.2,0,0.5,0,0.7-0.1c0.6-0.2,1.1-0.7,1.3-1.2c0.1-0.2,2-5.6-1.6-14.5   c-3-7.4-8.8-13.4-9-13.7c-0.5-0.5-1.2-0.7-2-0.6c-0.7,0.2-1.3,0.7-1.5,1.4c-0.8,2.5-1.3,4.7-1.3,6.6C38.9,52.2,43.5,60.4,51.2,65.1   z"/></g></svg>