<?xml version="1.0" encoding="utf-8"?>
<!-- Generator: Adobe Illustrator 21.1.0, SVG Export Plug-In . SVG Version: 6.00 Build 0)  -->
<svg version="1.1" id="Layer_1" xmlns="http://www.w3.org/2000/svg" xmlns:xlink="http://www.w3.org/1999/xlink" x="0px" y="0px"
	 viewBox="0 0 28.3 28.3" style="enable-background:new 0 0 28.3 28.3;" xml:space="preserve">
<g>
	<path d="M10.1,28c4.3,0,8-2.8,9.2-6.7c0.2,0,0.4,0,0.7,0c4.4,0,8-3.6,8-8c0-4.3-7.2-12.4-7.5-12.7c-0.1-0.1-0.3-0.2-0.5-0.2l0,0
		c-0.2,0-0.4,0.1-0.5,0.2c-0.1,0.2-3,3.3-5.1,6.7c-1.8-2.6-3.5-4.5-3.7-4.7c-0.2-0.2-0.4-0.2-0.6-0.2S9.7,2.5,9.5,2.7
		C9.2,3.1,0.4,13,0.4,18.2C0.4,23.6,4.7,28,10.1,28z M19.8,17.6c-0.1-0.5-0.2-1-0.4-1.6c1.1,0.1,2.1-0.2,3-0.8
		c0.3-0.2,0.8-0.2,1.1,0.2c0.2,0.3,0.2,0.8-0.2,1.1c-1,0.7-2.2,1.1-3.4,1.1C19.9,17.6,19.9,17.6,19.8,17.6z M10.1,4.4
		c2.7,3.2,8.2,10.3,8.2,13.9c0,4.5-3.7,8.2-8.2,8.2c-4.5,0-8.2-3.7-8.2-8.2C1.9,14.7,7.4,7.6,10.1,4.4z"/>
	<path d="M6,22.7c1.2,0.8,2.6,1.2,4.1,1.2c1.5,0,3-0.5,4.2-1.3c0.5-0.3,0.6-1,0.2-1.5c-0.3-0.5-1-0.6-1.5-0.2c-0.9,0.6-1.9,1-3,1
		C9,21.9,8,21.6,7.1,21c-0.5-0.3-1.1-0.2-1.4,0.3C5.4,21.8,5.5,22.4,6,22.7z"/>
	<path d="M15.8,20.2c0.1,0.1,0.2,0.1,0.3,0.1c0.1,0,0.2,0,0.2,0c0.2-0.1,0.3-0.2,0.4-0.4c0-0.1,0.6-1.7-0.5-4.5
		c-0.9-2.3-2.7-4.2-2.8-4.3c-0.2-0.2-0.4-0.2-0.6-0.2c-0.2,0.1-0.4,0.2-0.5,0.4c-0.2,0.8-0.4,1.5-0.4,2.1
		C12,16.1,13.4,18.7,15.8,20.2z"/>
</g>
</svg>
