<?xml version="1.0" encoding="UTF-8"?>
<svg width="15px" height="15px" viewBox="0 0 15 15" version="1.1" xmlns="http://www.w3.org/2000/svg" xmlns:xlink="http://www.w3.org/1999/xlink">
    <defs></defs>
    <g id="Page-1" stroke="none" stroke-width="1" fill="none" fill-rule="evenodd">
        <g id="trash" transform="translate(-437.000000, -521.000000)">
            <g id="contenido" transform="translate(303.000000, 248.000000)">
                <g id="img_01" transform="translate(0.000000, 100.000000)">
                    <g id="img-01" transform="translate(20.000000, 62.000000)">
                        <g id="boton-eliminar" transform="translate(109.000000, 106.000000)">
                            <rect id="Rectangle-14" fill="none" x="0" y="0" width="25" height="25" rx="4"></rect>
                            <g id="Group-16" transform="translate(5.000000, 5.000000)" fill="#58595B">
                                <path d="M10.65,12.2966102 C10.65,12.4322712 10.5417333,12.5423729 10.4083333,12.5423729 C10.2749333,12.5423729 10.1666667,12.4322712 10.1666667,12.2966102 L10.1666667,5.41525424 C10.1666667,5.27959322 10.2749333,5.16949153 10.4083333,5.16949153 C10.5417333,5.16949153 10.65,5.27959322 10.65,5.41525424 L10.65,12.2966102 Z M7.99166667,12.2966102 C7.99166667,12.4322712 7.8834,12.5423729 7.75,12.5423729 C7.6166,12.5423729 7.50833333,12.4322712 7.50833333,12.2966102 L7.50833333,5.41525424 C7.50833333,5.27959322 7.6166,5.16949153 7.75,5.16949153 C7.8834,5.16949153 7.99166667,5.27959322 7.99166667,5.41525424 L7.99166667,12.2966102 Z M5.33333333,2.46610169 L10.1666667,2.46610169 L10.1666667,0.991525424 L5.33333333,0.991525424 L5.33333333,2.46610169 Z M5.33333333,12.2966102 C5.33333333,12.4322712 5.22506667,12.5423729 5.09166667,12.5423729 C4.95826667,12.5423729 4.85,12.4322712 4.85,12.2966102 L4.85,5.41525424 C4.85,5.27959322 4.95826667,5.16949153 5.09166667,5.16949153 C5.22506667,5.16949153 5.33333333,5.27959322 5.33333333,5.41525424 L5.33333333,12.2966102 Z M14.7583333,2.46610169 L10.65,2.46610169 L10.65,0.745762712 C10.65,0.610101695 10.5417333,0.5 10.4083333,0.5 L5.09166667,0.5 C4.95826667,0.5 4.85,0.610101695 4.85,0.745762712 L4.85,2.46610169 L0.741666667,2.46610169 C0.608266667,2.46610169 0.5,2.57620339 0.5,2.71186441 C0.5,2.84752542 0.608266667,2.95762712 0.741666667,2.95762712 L2.675,2.95762712 L2.675,15 L12.825,15 L12.825,2.95762712 L14.7583333,2.95762712 C14.8917333,2.95762712 15,2.84752542 15,2.71186441 C15,2.57620339 14.8917333,2.46610169 14.7583333,2.46610169 L14.7583333,2.46610169 Z" id="icono-trash"></path>
                            </g>
                        </g>
                    </g>
                </g>
            </g>
        </g>
    </g>
</svg>
