<?xml version="1.0" encoding="UTF-8"?>
<svg width="29px" height="23px" viewBox="0 0 29 23" version="1.1" xmlns="http://www.w3.org/2000/svg" xmlns:xlink="http://www.w3.org/1999/xlink">
    <defs></defs>
    <g id="Page-1" stroke="none" stroke-width="1" fill="none" fill-rule="evenodd">
        <g id="updates" transform="translate(-36.000000, -611.000000)" fill="#FFFFFF">
            <g id="SIDEBAR" transform="translate(-1.000000, 0.000000)">
                <g id="05" transform="translate(34.000000, 611.000000)">
                    <g id="Group-6" transform="translate(3.000000, 0.000000)">
                        <path d="M8.73661524,8.81012615 C9.13942776,9.14643661 9.19310443,9.74543024 8.85679397,10.1482428 L5.01819957,14.7454358 C4.83769396,14.9620425 4.57026064,15.0864964 4.28905189,15.0864964 C4.27290139,15.0864964 4.25627587,15.0860214 4.23965036,15.0850713 C3.94086606,15.0698709 3.66725755,14.914541 3.50052736,14.6661083 L0.161173493,9.69317862 C-0.130960594,9.25759007 -0.0150569886,8.6671467 0.420531561,8.37501261 C0.85612011,8.08145348 1.44608846,8.19878213 1.73917258,8.63389567 L3.01696232,10.5377549 C3.15804171,8.8633278 3.68293304,7.22120173 4.58071096,5.71635492 C6.20763657,2.99024512 8.87769462,1.01655873 11.9073389,0.300236446 C15.9050632,-0.645517972 20.0832932,0.679773252 22.809403,3.75834401 C23.1571138,4.15118123 23.1210127,4.75159991 22.7281754,5.09931072 C22.3348632,5.44702154 21.7344445,5.4104454 21.3867337,5.01855821 C19.1251884,2.46440376 15.6594806,1.36426954 12.3448275,2.14946897 C9.8125237,2.74751257 7.57757918,4.40293906 6.21286173,6.69013521 C5.24525664,8.31088562 4.79921776,10.1211669 4.8937457,11.9295482 L7.39849861,8.93030489 C7.73480907,8.52701734 8.33380271,8.47381569 8.73661524,8.81012615 Z M28.3664583,13.7045359 C28.6353167,14.1548499 28.4885371,14.7386431 28.0386981,15.0075014 C27.8857434,15.0991793 27.7175881,15.1419306 27.551808,15.1419306 C27.2283229,15.1419306 26.9133881,14.9771005 26.7352576,14.6797412 L25.5985472,12.7777821 C24.8698746,17.0766658 21.4982197,20.91051 17.0297557,21.9664679 C16.1690289,22.1697742 15.3016519,22.2695273 14.4428252,22.2695273 C11.5566355,22.2700023 8.76497362,21.1442173 6.64498267,19.0551023 C6.27162106,18.6864909 6.26734593,18.0851222 6.63548238,17.7112855 C7.00361883,17.3374489 7.60498754,17.3331738 7.97882416,17.7013102 C10.2612702,19.9509802 13.4813953,20.8530332 16.5922671,20.1172354 C20.5401149,19.1847814 23.4533805,15.6596967 23.8039414,11.8415279 L21.540971,14.5500622 C21.2046606,14.9528747 20.6051919,15.0065514 20.2028544,14.6702409 C19.8000419,14.3339305 19.7463652,13.7344618 20.0831507,13.3321243 L23.9236451,8.7344563 C24.1207763,8.49837395 24.4186105,8.37392008 24.7273701,8.39624578 C25.0337547,8.42047153 25.3102133,8.59195186 25.4679182,8.85606008 L28.3664583,13.7045359 Z" id="icono_updates"></path>
                    </g>
                </g>
            </g>
        </g>
    </g>
</svg>
