<?xml version="1.0" encoding="UTF-8"?>
<svg width="34px" height="34px" viewBox="0 0 34 34" version="1.1" xmlns="http://www.w3.org/2000/svg" xmlns:xlink="http://www.w3.org/1999/xlink">
    <defs></defs>
    <g id="Page-1" stroke="none" stroke-width="1" fill="none" fill-rule="evenodd">
        <g id="Inicio-sesion" transform="translate(-1197.000000, -14.000000)" stroke="#FFFFFF">
            <g id="Toolbar-(verde)">
                <g id="user" transform="translate(1197.000000, 14.000000)">
                    <path d="M17,33 C25.836556,33 33,25.836556 33,17 C33,8.163444 25.836556,1 17,1 C8.163444,1 1,8.163444 1,17 C1,25.836556 8.163444,33 17,33 Z" id="Path" stroke-width="2" stroke-linejoin="round"></path>
                    <path d="M14.0248143,21.1918685 L14.0248143,24.335488 L7.57254018,26.7294905 C6.07628863,27.2638661 6.46862793,27.8169199 6.46862793,29.4061279 L7.57254018,29.9744011 L13.0687046,32.25 L18.3754883,33 L23.0732091,32.25 C24.6380035,31.578232 25.5302671,30.9284355 25.75,30.3006105 C25.9697329,29.6727855 26.6363996,29.2392487 27.75,29 C27.75,27.410792 27.8947182,27.2638661 26.3984666,26.7294905 L19.9899367,24.335488 L19.9899367,20.9487898 M23.0967713,14.4585377 C23.0967713,18.6122513 20.2901812,21.9795629 16.8289189,21.9795629 C13.3671595,21.9795629 10.5615636,18.6122513 10.5615636,14.4585377 C10.5615636,10.3053212 13.3671595,6.9375125 16.8289189,6.9375125 C20.2901812,6.9375125 23.0967713,10.3053212 23.0967713,14.4585377 Z M23.0732091,13.7927306 C22.8619444,13.8180824 22.6814994,13.7907423 22.4702346,13.832001 C20.3352179,14.2430974 18.9637368,13.4696198 17.7886077,11.4126468 C17.0837291,12.7642441 14.8791192,13.832001 13.0687046,13.832001 C12.1774159,13.832001 11.4099034,13.6495677 10.6418939,13.247419"></path>
                </g>
            </g>
        </g>
    </g>
</svg>
