<?xml version="1.0" encoding="utf-8"?>
<!-- Generator: Adobe Illustrator 21.1.0, SVG Export Plug-In . SVG Version: 6.00 Build 0)  -->
<svg version="1.1" id="Layer_1" xmlns="http://www.w3.org/2000/svg" xmlns:xlink="http://www.w3.org/1999/xlink" x="0px" y="0px"
	 viewBox="0 0 40 40" style="enable-background:new 0 0 40 40;" xml:space="preserve">
<style type="text/css">
	.st0{fill:#555555;}
</style>
<g>
	<path class="st0" d="M23.4,9.1c0.8,0,1.5,0.3,2.1,0.9c0.6,0.6,0.9,1.3,0.9,2.1v18c0,0.8-0.3,1.5-0.9,2.1c-0.6,0.6-1.3,0.9-2.1,0.9
		h-18c-0.8,0-1.5-0.3-2.1-0.9c-0.6-0.6-0.9-1.3-0.9-2.1v-18c0-0.8,0.3-1.5,0.9-2.1c0.6-0.6,1.3-0.9,2.1-0.9H23.4z M35.3,11.4
		c0.4-0.3,0.9-0.4,1.4-0.3s0.9,0.3,1.2,0.6c0.3,0.4,0.5,0.8,0.5,1.3v16.1c0,0.5-0.2,1-0.5,1.3c-0.3,0.4-0.8,0.6-1.2,0.6
		s-1-0.1-1.4-0.3L28.4,26v-9.9L35.3,11.4z"/>
</g>
</svg>
