<?xml version="1.0" encoding="utf-8"?>
<!-- Generator: Adobe Illustrator 21.1.0, SVG Export Plug-In . SVG Version: 6.00 Build 0)  -->
<svg version="1.1" id="Layer_1" xmlns="http://www.w3.org/2000/svg" xmlns:xlink="http://www.w3.org/1999/xlink" x="0px" y="0px"
	 viewBox="0 0 28.346 28.346" enable-background="new 0 0 28.346 28.346" xml:space="preserve">
<path d="M14.173,27.992c-7.626,0-13.819-6.193-13.819-13.819S6.547,0.354,14.173,0.354s13.819,6.193,13.819,13.819
	c0,2.122-0.497,4.224-1.433,6.116l1.242,4.033c0.076,0.248,0.019,0.497-0.134,0.707c-0.153,0.191-0.401,0.306-0.65,0.287
	l-4.281-0.306C20.328,26.941,17.289,27.992,14.173,27.992z M14.173,1.883c-6.785,0-12.29,5.524-12.29,12.29s5.524,12.29,12.29,12.29
	c2.867,0,5.658-1.013,7.856-2.829c0.153-0.134,0.344-0.191,0.535-0.172l3.46,0.248l-1.013-3.268
	c-0.057-0.191-0.038-0.401,0.057-0.573c0.917-1.778,1.395-3.689,1.395-5.677C26.463,7.388,20.958,1.883,14.173,1.883z
	 M12.988,12.033c0-1.147-0.937-2.083-2.083-2.083c-0.784,0-1.491,0.44-1.835,1.089c-0.172,0.268-0.994,1.701-0.535,3.555
	c0.478,1.911,2.102,3.287,2.179,3.345l0.975-1.185c-0.019-0.019-1.319-1.109-1.663-2.523c-0.019-0.115-0.038-0.229-0.057-0.344
	c0.287,0.153,0.612,0.229,0.956,0.229C12.052,14.116,12.988,13.179,12.988,12.033z M19.047,12.033c0-1.147-0.937-2.083-2.083-2.083
	c-0.784,0-1.491,0.44-1.835,1.089c-0.172,0.268-0.994,1.701-0.535,3.555c0.478,1.911,2.102,3.287,2.179,3.345l0.975-1.185
	c-0.019-0.019-1.319-1.109-1.663-2.523c-0.019-0.115-0.038-0.229-0.057-0.344c0.287,0.153,0.612,0.229,0.956,0.229
	C18.111,14.116,19.047,13.179,19.047,12.033z"/>
<text transform="matrix(1 0 0 1 0 241.8)" font-family="'HelveticaNeue-Bold'" font-size="5px">Created by dilakuscan</text>
<text transform="matrix(1 0 0 1 0 246.8)" font-family="'HelveticaNeue-Bold'" font-size="5px">from the Noun Project</text>
</svg>
