<svg xmlns="http://www.w3.org/2000/svg" xmlns:xlink="http://www.w3.org/1999/xlink" version="1.1" x="0px" y="0px" viewBox="0 0 135.73 140.1625" enable-background="new 0 0 141.73 141.73" xml:space="preserve"><path d="M27.257,71.234c0,2.216-1.799,4.013-4.014,4.013c-2.219,0-4.018-1.797-4.018-4.013c0-2.219,1.798-4.017,4.018-4.017  C25.458,67.217,27.257,69.015,27.257,71.234z"/><path d="M119.998,71.234c0,2.216-1.797,4.013-4.018,4.013c-2.216,0-4.015-1.797-4.015-4.013c0-2.219,1.799-4.017,4.015-4.017  C118.201,67.217,119.998,69.015,119.998,71.234z"/><path d="M79.957,44.351c0,5.377-4.364,9.742-9.742,9.742c-5.378,0-9.742-4.365-9.742-9.742s4.363-9.742,9.742-9.742  C75.593,34.609,79.957,38.973,79.957,44.351z"/><path fill="#000000" d="M46.6,134.804c0.08-10.666,0.08-26.502-0.083-29.974c0-7.596-10.501-10.989-14.948-12.847  c-4.442-1.86-9.209-4.688-13.33-5.98C6.847,79.056,6.927,71.137,7.089,67.745c0.243-12.12,11.393-14.221,15.515-14.301  c7.595-0.161,13.167,4.928,14.945,9.21c3.635,8.402,2.585,13.17,2.585,18.583c0,5.413,9.777,10.989,12.765,10.989  c8.402-0.565,9.698-5.979,9.777-8.404c0.081-2.421-0.244-3.231-1.454-4.362c-5.251-4.686-23.835-17.127-23.673-38.942  c0.403-25.935,26.744-28.925,33.287-28.925c29.493-0.242,32.318,24.964,31.915,31.428c-0.809,14.705-8.723,21.653-11.555,24.806  c-2.828,3.15-13.249,9.048-13.007,16.806c-0.081,5.412,7.271,7.753,9.938,7.594c9.129-1.86,10.252-5.998,11.876-9.858  c1.212-2.343,0.891-9.615,0.891-13.896c1.535-13.896,13.814-15.027,17.45-15.027c13.248,0.323,15.108,10.585,15.027,15.916  c-0.078,5.334-1.615,7.434-1.615,7.434c-6.465,9.856-22.866,16.321-29.587,18.878c-7.659,3.906-8.376,8.43-8.225,10.046  c-0.012,6.142-0.083,29.087-0.083,29.087H46.6z M23.243,62.521c-4.502,0-8.149,3.647-8.149,8.149c0,4.5,3.647,8.147,8.149,8.147  c4.5,0,8.146-3.646,8.146-8.147C31.389,66.168,27.743,62.521,23.243,62.521z M116.472,62.521c-4.502,0-8.147,3.647-8.147,8.149  c0,4.5,3.646,8.147,8.147,8.147c4.503,0,8.148-3.646,8.148-8.147C124.62,66.168,120.975,62.521,116.472,62.521z M70.215,29.028  c-9.379,0-16.981,7.602-16.981,16.98c0,9.378,7.603,16.98,16.981,16.98c9.379,0,16.98-7.602,16.98-16.98  C87.195,36.63,79.595,29.028,70.215,29.028z"/></svg>