<?xml version="1.0" encoding="UTF-8"?>
<svg width="53px" height="50px" viewBox="0 0 53 50" version="1.1" xmlns="http://www.w3.org/2000/svg" xmlns:xlink="http://www.w3.org/1999/xlink">
    <defs></defs>
    <g id="Page-1" stroke="none" stroke-width="1" fill="none" fill-rule="evenodd">
        <g id="wallet" transform="translate(-821.000000, -86.000000)" fill="#26BDB9">
            <g id="menu-dashboard" transform="translate(0.000000, 50.000000)">
                <g id="monedero" transform="translate(783.000000, 36.000000)">
                    <g id="Group-12" transform="translate(38.000000, 0.000000)">
                        <path d="M49.8595918,31.9040243 C49.8595918,33.3112724 48.7024655,34.4564694 47.2805585,34.4564694 L35.2450696,34.4564694 C33.8231625,34.4564694 32.6660362,33.3112724 32.6660362,31.9040243 L32.6660362,26.7991342 C32.6660362,25.3918861 33.8231625,24.2466891 35.2450696,24.2466891 L47.2805585,24.2466891 C48.7024655,24.2466891 49.8595918,25.3918861 49.8595918,26.7991342 L49.8595918,31.9040243 Z M37.7140642,42.9646196 L35.5468165,42.9646196 C35.0714147,42.9646196 34.6871387,42.5843053 34.6871387,42.1138046 C34.6871387,41.6433039 35.0714147,41.2629895 35.5468165,41.2629895 L37.7140642,41.2629895 C38.1886063,41.2629895 38.5737419,41.6433039 38.5737419,42.1138046 C38.5737419,42.5843053 38.1886063,42.9646196 37.7140642,42.9646196 L37.7140642,42.9646196 Z M31.2106018,15.7385389 L29.0424944,15.7385389 C28.5679523,15.7385389 28.1828166,15.3582246 28.1828166,14.8877239 C28.1828166,14.4172232 28.5679523,14.0369089 29.0424944,14.0369089 L31.2106018,14.0369089 C31.6851439,14.0369089 32.0702795,14.4172232 32.0702795,14.8877239 C32.0702795,15.3582246 31.6851439,15.7385389 31.2106018,15.7385389 L31.2106018,15.7385389 Z M31.2106018,42.9646196 L29.0424944,42.9646196 C28.5679523,42.9646196 28.1828166,42.5843053 28.1828166,42.1138046 C28.1828166,41.6433039 28.5679523,41.2629895 29.0424944,41.2629895 L31.2106018,41.2629895 C31.6851439,41.2629895 32.0702795,41.6433039 32.0702795,42.1138046 C32.0702795,42.5843053 31.6851439,42.9646196 31.2106018,42.9646196 L31.2106018,42.9646196 Z M24.7062797,15.7385389 L22.539032,15.7385389 C22.0636302,15.7385389 21.6793542,15.3582246 21.6793542,14.8877239 C21.6793542,14.4172232 22.0636302,14.0369089 22.539032,14.0369089 L24.7062797,14.0369089 C25.1816815,14.0369089 25.5659575,14.4172232 25.5659575,14.8877239 C25.5659575,15.3582246 25.1816815,15.7385389 24.7062797,15.7385389 L24.7062797,15.7385389 Z M24.7062797,42.9646196 L22.539032,42.9646196 C22.0636302,42.9646196 21.6793542,42.5843053 21.6793542,42.1138046 C21.6793542,41.6433039 22.0636302,41.2629895 22.539032,41.2629895 L24.7062797,41.2629895 C25.1816815,41.2629895 25.5659575,41.6433039 25.5659575,42.1138046 C25.5659575,42.5843053 25.1816815,42.9646196 24.7062797,42.9646196 L24.7062797,42.9646196 Z M18.2028173,15.7385389 L16.0355696,15.7385389 C15.5601678,15.7385389 15.1758918,15.3582246 15.1758918,14.8877239 C15.1758918,14.4172232 15.5601678,14.0369089 16.0355696,14.0369089 L18.2028173,14.0369089 C18.6782191,14.0369089 19.0624951,14.4172232 19.0624951,14.8877239 C19.0624951,15.3582246 18.6782191,15.7385389 18.2028173,15.7385389 L18.2028173,15.7385389 Z M18.2028173,42.9646196 L16.0355696,42.9646196 C15.5601678,42.9646196 15.1758918,42.5843053 15.1758918,42.1138046 C15.1758918,41.6433039 15.5601678,41.2629895 16.0355696,41.2629895 L18.2028173,41.2629895 C18.6782191,41.2629895 19.0624951,41.6433039 19.0624951,42.1138046 C19.0624951,42.5843053 18.6782191,42.9646196 18.2028173,42.9646196 L18.2028173,42.9646196 Z M11.6993549,15.7385389 L9.53210721,15.7385389 C9.05756508,15.7385389 8.67242943,15.3582246 8.67242943,14.8877239 C8.67242943,14.4172232 9.05756508,14.0369089 9.53210721,14.0369089 L11.6993549,14.0369089 C12.1747567,14.0369089 12.5590327,14.4172232 12.5590327,14.8877239 C12.5590327,15.3582246 12.1747567,15.7385389 11.6993549,15.7385389 L11.6993549,15.7385389 Z M11.6993549,42.9646196 L9.53210721,42.9646196 C9.05756508,42.9646196 8.67242943,42.5843053 8.67242943,42.1138046 C8.67242943,41.6433039 9.05756508,41.2629895 9.53210721,41.2629895 L11.6993549,41.2629895 C12.1747567,41.2629895 12.5590327,41.6433039 12.5590327,42.1138046 C12.5590327,42.5843053 12.1747567,42.9646196 11.6993549,42.9646196 L11.6993549,42.9646196 Z M35.5468165,14.0369089 L37.7140642,14.0369089 C38.1886063,14.0369089 38.5737419,14.4172232 38.5737419,14.8877239 C38.5737419,15.3582246 38.1886063,15.7385389 37.7140642,15.7385389 L35.5468165,15.7385389 C35.0714147,15.7385389 34.6871387,15.3582246 34.6871387,14.8877239 C34.6871387,14.4172232 35.0714147,14.0369089 35.5468165,14.0369089 L35.5468165,14.0369089 Z M47.2805585,22.5450591 L44.7015251,22.5450591 L44.7015251,14.8877239 C44.7015251,11.892855 42.4560468,9.40677352 39.5434585,8.9924266 L39.5434585,8.93201874 L38.6837807,8.93201874 L8.59505843,8.93201874 C6.93158193,8.93201874 6.0160251,8.02590074 6.0160251,6.37957367 C6.0160251,4.73324661 6.93158193,3.82712861 8.59505843,3.82712861 L32.6660362,3.82712861 C33.1405784,3.82712861 33.525714,4.20744293 33.525714,4.67794363 C33.525714,5.14844434 33.1405784,5.52875865 32.6660362,5.52875865 L8.59505843,5.52875865 C7.87206942,5.52875865 7.73538065,5.66403824 7.73538065,6.37957367 C7.73538065,7.09510911 7.87206942,7.2303887 8.59505843,7.2303887 L39.5434585,7.2303887 L39.5434585,5.52450458 C39.5434585,3.1413717 36.8999493,1.27468355 33.525714,1.27468355 L6.01774445,1.27468355 C2.7002479,1.27468355 0,3.94454108 0,7.22613462 L0,42.1138046 C0,45.3970997 2.7002479,48.0695097 6.01774445,48.0695097 L39.0594599,48.0695097 C40.5991428,48.0695097 42.0227692,47.4824473 43.0672777,46.4155253 C44.1728233,45.2864938 44.7539655,43.7499218 44.7015251,42.116357 L44.7015251,36.1580994 L47.2805585,36.1580994 C49.6506901,36.1580994 51.5789474,34.2497213 51.5789474,31.9040243 L51.5789474,26.7991342 C51.5789474,24.4534372 49.6506901,22.5450591 47.2805585,22.5450591 L47.2805585,22.5450591 Z M36.6302684,27.0583775 C35.5582502,27.0583775 34.6865369,27.9219548 34.6865369,28.9820703 C34.6865369,30.0421858 35.5582502,30.9049122 36.6302684,30.9049122 C37.7022866,30.9049122 38.5739998,30.0421858 38.5739998,28.9820703 C38.5739998,27.9219548 37.7022866,27.0583775 36.6302684,27.0583775" id="monedero"></path>
                    </g>
                </g>
            </g>
        </g>
    </g>
</svg>
