<?xml version="1.0" encoding="utf-8"?>
<!-- Generator: Adobe Illustrator 21.1.0, SVG Export Plug-In . SVG Version: 6.00 Build 0)  -->
<svg version="1.1" id="Layer_1" xmlns="http://www.w3.org/2000/svg" xmlns:xlink="http://www.w3.org/1999/xlink" x="0px" y="0px"
	 viewBox="0 0 40 40" style="enable-background:new 0 0 40 40;" xml:space="preserve">
<style type="text/css">
	.st0{fill:#555555;}
</style>
<g>
	<path class="st0" d="M20.1,22.1c1.1,0,2.2,0.2,3.2,0.7s1.9,1.1,2.6,1.9l-5,5L20.4,34c0,0.4,0,0.8,0.2,1.2H4.5c-0.8,0-1.4-0.3-2-0.8
		s-0.8-1.2-0.8-2v-2.5c0-1.4,0.4-2.7,1.1-3.9s1.7-2.2,2.9-2.9s2.5-1.1,3.9-1.1h1c1.4,0.6,2.8,0.9,4.3,0.9s2.9-0.3,4.3-0.9H20.1z
		 M14.8,20.2c-1.4,0-2.6-0.3-3.8-1S9,17.6,8.3,16.5s-1-2.4-1-3.8s0.3-2.6,1-3.8S9.9,6.9,11,6.2s2.4-1,3.8-1s2.6,0.3,3.8,1
		s2.1,1.6,2.7,2.7c0.7,1.2,1,2.4,1,3.8s-0.3,2.6-1,3.8c-0.7,1.2-1.6,2.1-2.7,2.7S16.2,20.2,14.8,20.2z M22.7,30.6l8.1-8.1l4.2,4.2
		l-8.1,8.1l-3.6,0.4c-0.3,0-0.6,0-0.8-0.3s-0.3-0.5-0.3-0.8L22.7,30.6z M38.8,21c0.3,0.3,0.4,0.6,0.4,1s-0.1,0.7-0.4,1l-2.5,2.5
		l-4.2-4.2l2.5-2.5c0.3-0.3,0.6-0.4,1-0.4s0.7,0.1,1,0.4L38.8,21z"/>
</g>
</svg>
