<svg width="34" height="32" viewBox="0 0 34 32" fill="none" xmlns="http://www.w3.org/2000/svg">
<path d="M8.14886 12.1159C9.27867 12.1159 10.2971 11.4552 10.729 10.4423C11.1608 9.42935 10.9209 8.26373 10.1212 7.48941C9.32144 6.71509 8.11957 6.48469 7.07642 6.90573C6.03326 7.32676 5.35445 8.31625 5.35674 9.41242C5.35988 10.9064 6.60904 12.1159 8.14886 12.1159ZM8.14886 7.80689C9.06277 7.80689 9.80365 8.52572 9.80365 9.41242C9.80365 10.2991 9.06277 11.0179 8.14886 11.0179C7.23494 11.0179 6.49406 10.2991 6.49406 9.41242C6.49406 8.98661 6.66841 8.57823 6.97874 8.27714C7.28907 7.97605 7.70998 7.80689 8.14886 7.80689ZM14.8078 27.3379C15.117 26.881 15.2793 26.3452 15.2741 25.7986C15.2743 24.2678 14.0085 23.02 12.4308 22.9959C11.9239 22.9997 11.4271 23.1349 10.9921 23.3876V21.6938H31.0942C31.4082 21.6938 31.6628 21.4468 31.6628 21.1421V0.551722C31.6628 0.247013 31.4082 0 31.0942 0H2.47366C2.1596 0 1.905 0.247013 1.905 0.551722V21.1421C1.905 21.4468 2.1596 21.6938 2.47366 21.6938H5.35675V23.349C4.89956 23.0555 4.36387 22.8982 3.81569 22.8966C2.75188 22.8921 1.77232 23.4574 1.26867 24.3666C0.765025 25.2757 0.819483 26.3803 1.41027 27.2386C0.533394 27.8035 0.00448049 28.7553 0 29.7766V31.8897H1.13731V29.7655C1.13919 29.0326 1.56266 28.362 2.23482 28.0276L2.30306 28.0662L2.47366 28.1545C2.54426 28.1942 2.6185 28.2274 2.69543 28.2538C2.77839 28.2908 2.8639 28.3221 2.95133 28.3476H3.048C3.29769 28.4174 3.55587 28.4545 3.81569 28.4579C4.07364 28.4545 4.32995 28.4174 4.57769 28.3476H4.67436C4.76364 28.3221 4.85104 28.2908 4.93594 28.2538C5.01058 28.2263 5.08284 28.1931 5.15203 28.1545L5.32263 28.0662C5.32263 28.0662 5.37381 28.0662 5.39087 28.0276C6.06304 28.362 6.4865 29.0326 6.48838 29.7655V31.8897H7.62569V29.7655C7.62324 28.7438 7.09385 27.7911 6.21542 27.2276C6.51287 26.7954 6.67845 26.2905 6.69309 25.771H9.53638C9.53624 26.3193 9.70452 26.8552 10.0197 27.3103C9.14209 27.8745 8.61293 28.8268 8.60947 29.8483V32H9.74678V29.8759C9.74626 29.1438 10.1677 28.4729 10.8386 28.1379C10.8386 28.1379 10.8898 28.1379 10.9068 28.1766L11.0774 28.2648C11.1491 28.3024 11.2232 28.3356 11.2992 28.3641C11.3826 28.4002 11.468 28.4315 11.5551 28.4579L11.6575 28.4855C12.1542 28.6326 12.6848 28.6326 13.1815 28.4855L13.2838 28.4579C13.3709 28.4315 13.4564 28.4002 13.5397 28.3641C13.6144 28.3367 13.6866 28.3035 13.7558 28.2648L13.9321 28.1766L14.0003 28.1379C14.6712 28.4729 15.0927 29.1438 15.0922 29.8759V32H16.2295V29.8759C16.2235 28.8523 15.6898 27.8996 14.8078 27.3379ZM12.4308 24.0993C13.1637 24.0999 13.8187 24.5432 14.0725 25.2103C14.3262 25.8775 14.125 26.6273 13.5682 27.0897C12.9088 27.621 11.9528 27.621 11.2935 27.0897C10.7367 26.6273 10.5355 25.8775 10.7892 25.2103C11.0429 24.5432 11.6979 24.0999 12.4308 24.0993ZM3.04231 20.5903V1.10344H30.5255V20.5903H10.9978V19.0621C11.1079 19.0865 11.2204 19.0994 11.3333 19.1007C12.1225 19.0977 12.7607 18.4761 12.7607 17.7103V14.4C12.7622 13.8747 12.5485 13.3703 12.1667 12.9978C11.785 12.6253 11.2663 12.4152 10.7249 12.4138H10.469C10.4256 12.408 10.3816 12.408 10.3382 12.4138H5.90266C5.22804 12.4123 4.58062 12.6717 4.1036 13.1345C3.62657 13.5973 3.35925 14.2255 3.36076 14.88V17.7545C3.3639 18.5872 4.06057 19.2607 4.91888 19.2607C5.0591 19.2594 5.19859 19.2408 5.334 19.2055V20.5517L3.04231 20.5903ZM3.81569 24C4.50067 24.0021 5.12111 24.3926 5.40224 24.9986C5.50312 25.2134 5.55547 25.4467 5.55578 25.6828C5.55398 26.1804 5.32743 26.6523 4.93594 26.9738C4.45691 27.3493 3.81263 27.4598 3.22997 27.2662C3.0355 27.201 2.85591 27.0998 2.70112 26.9683C2.30603 26.6518 2.07846 26.1798 2.08126 25.6828C2.09053 24.7571 2.86166 24.009 3.81569 24ZM8.76869 24.6786V20.7724C8.76869 20.4677 8.5141 20.2207 8.20004 20.2207C7.88597 20.2207 7.63138 20.4677 7.63138 20.7724V24.6621H6.49406V17.7931V15.211C6.49406 14.9063 6.23947 14.6593 5.92541 14.6593C5.61135 14.6593 5.35675 14.9063 5.35675 15.211V17.7876C5.35675 18.01 5.17089 18.1903 4.94163 18.1903C4.71267 18.1875 4.52691 18.0097 4.52081 17.7876V14.9186C4.5193 14.5567 4.6668 14.2093 4.93054 13.9534C5.19428 13.6975 5.55242 13.5544 5.92541 13.5558H10.4747C10.5199 13.5619 10.5659 13.5619 10.6111 13.5558H10.7249C10.9641 13.5529 11.1944 13.6437 11.3636 13.8079C11.5328 13.972 11.6264 14.1955 11.6233 14.4276V17.7379C11.6578 17.855 11.6124 17.9805 11.51 18.0508C11.4075 18.1212 11.2705 18.1212 11.1681 18.0508C11.0657 17.9805 11.0202 17.855 11.0547 17.7379V15.211C11.0547 14.9063 10.8001 14.6593 10.486 14.6593C10.172 14.6593 9.91738 14.9063 9.91738 15.211L9.84914 21.1476L9.80933 24.5959L9.76953 24.6731L8.76869 24.6786ZM23.9803 27.2276C24.6554 26.2285 24.602 24.9237 23.8474 23.9796C23.0928 23.0356 21.8035 22.6607 20.6381 23.0465C19.4728 23.4323 18.6886 24.4936 18.6861 25.6883C18.6859 26.2366 18.8542 26.7725 19.1694 27.2276C18.291 27.7911 17.7616 28.7438 17.7592 29.7655V31.8897H18.8965V29.7655C18.8996 29.033 19.3227 28.363 19.994 28.0276L20.0679 28.0662C20.121 28.0989 20.176 28.1284 20.2328 28.1545L20.4546 28.2538C20.5379 28.2898 20.6234 28.3212 20.7105 28.3476H20.8185C21.3133 28.4946 21.8421 28.4946 22.3368 28.3476H22.4392C22.5263 28.3212 22.6118 28.2898 22.6951 28.2538C22.7716 28.2263 22.8457 28.1931 22.9169 28.1545L23.0875 28.0662L23.1557 28.0276C23.8266 28.3626 24.2481 29.0335 24.2475 29.7655V31.8897H25.3848V29.7655C25.3826 28.7451 24.8557 27.7931 23.9803 27.2276ZM21.5748 24C22.311 23.9943 22.9718 24.4372 23.2267 25.1074C23.4816 25.7775 23.2757 26.5307 22.7122 26.9903C22.2331 27.3659 21.5888 27.4763 21.0062 27.2828C20.9104 27.249 20.8172 27.2084 20.7275 27.1614C20.6379 27.1108 20.5523 27.0536 20.4717 26.9903C20.0612 26.6757 19.8223 26.1958 19.8234 25.6883C19.8296 24.7541 20.612 24 21.5748 24ZM32.5954 27.2276C32.9106 26.7725 33.0789 26.2366 33.0788 25.6883C33.0844 24.4868 32.3 23.4154 31.1289 23.025C29.9577 22.6345 28.6603 23.0117 27.9034 23.9628C27.1466 24.9138 27.0988 26.2271 27.7846 27.2276C26.9077 27.7925 26.3788 28.7443 26.3743 29.7655V31.8897H27.5116V29.7655C27.5135 29.0326 27.937 28.362 28.6091 28.0276L28.6774 28.0662L28.848 28.1545C28.9172 28.1931 28.9894 28.2263 29.0641 28.2538C29.1493 28.2899 29.2367 28.3212 29.3256 28.3476H29.4223C29.672 28.4174 29.9302 28.4545 30.19 28.4579C30.448 28.4545 30.7043 28.4174 30.952 28.3476H31.0487C31.138 28.3221 31.2253 28.2908 31.3103 28.2538C31.3849 28.2263 31.4571 28.1931 31.5263 28.1545C31.585 28.1284 31.6419 28.0989 31.6969 28.0662C31.6969 28.0662 31.7481 28.0662 31.7652 28.0276C32.4373 28.362 32.8608 29.0326 32.8627 29.7655V31.8897H34V29.7655C33.9988 28.7449 33.4717 27.7924 32.5954 27.2276ZM30.1957 24C30.9286 24.0006 31.5836 24.4439 31.8373 25.111C32.091 25.7781 31.8898 26.528 31.333 26.9903C30.8531 27.3639 30.2099 27.4742 29.627 27.2828C29.4326 27.2175 29.253 27.1164 29.0982 26.9848C28.7031 26.6684 28.4755 26.1964 28.4783 25.6993C28.4782 24.7736 29.2417 24.018 30.1957 24ZM11.8622 10.3724C11.9659 10.4611 12.0993 10.5102 12.2375 10.5103H12.2773L19.1353 10.0745C19.2873 10.066 19.4294 9.99876 19.5299 9.8878C19.6303 9.77685 19.6808 9.63145 19.6698 9.48414L19.2547 3.37655C19.2334 3.07378 18.9641 2.84454 18.6519 2.86345L17.3497 2.94621L17.3099 2.39448C17.2886 2.09172 17.0193 1.86247 16.7071 1.88138L13.5682 2.07448C13.2561 2.09513 13.0198 2.35643 13.0393 2.65931L13.0791 3.21103L11.7769 3.29379C11.626 3.30231 11.4848 3.36879 11.3845 3.47853C11.2842 3.58826 11.233 3.73223 11.2423 3.87862L11.6632 9.98069C11.6711 10.1323 11.7431 10.274 11.8622 10.3724ZM16.1953 3.03448L16.275 4.13793L14.2903 4.26483L14.2505 3.7131L14.2107 3.16138L16.1953 3.03448ZM13.153 4.34207L13.1928 4.89379C13.2039 5.03867 13.2733 5.17348 13.3862 5.26896C13.4375 5.3173 13.4998 5.35322 13.5682 5.3738H13.6307C13.6723 5.3786 13.7143 5.3786 13.7558 5.3738H13.7956L16.9175 5.17517C16.9913 5.16928 17.0629 5.14862 17.1279 5.11448C17.2638 5.05108 17.3681 4.93797 17.418 4.79999C17.4325 4.72897 17.4325 4.65586 17.418 4.58483L17.3782 4.03311L18.1174 4L18.4586 9.00413L12.7379 9.36827L12.4308 4.36965L13.153 4.34207ZM20.6764 10.8855L27.3695 12.4138C27.4129 12.419 27.4568 12.419 27.5003 12.4138C27.7696 12.4208 28.007 12.2434 28.0689 11.989L29.4906 6.0469C29.5246 5.90422 29.4988 5.75427 29.4188 5.63008C29.3388 5.5059 29.2112 5.41767 29.0641 5.38482L27.7846 5.09793L27.9154 4.54621C27.9494 4.40353 27.9236 4.25358 27.8436 4.12939C27.7636 4.00521 27.636 3.91697 27.4889 3.88413L24.4636 3.19448C24.318 3.16127 24.1648 3.18506 24.0371 3.26069C23.9205 3.33743 23.8375 3.45343 23.804 3.58621L23.6732 4.13793L22.3767 3.86207C22.0722 3.79299 21.7673 3.97537 21.6943 4.27034L20.2556 10.2069C20.2162 10.3511 20.2387 10.5047 20.318 10.6326C20.3973 10.7604 20.5266 10.8517 20.6764 10.8855ZM26.6928 4.81655L26.4312 5.92L24.4977 5.47862L24.6285 4.9269L24.7593 4.37517L26.6928 4.81655ZM22.6667 5.05931L23.3832 5.22482L23.2353 5.7931C23.1926 6.00318 23.2791 6.21825 23.4571 6.34482C23.5197 6.38526 23.5889 6.41512 23.6618 6.4331L26.7041 7.12827H26.8349H26.8975H26.9487C27.0128 7.1165 27.0743 7.09411 27.1306 7.06207C27.1585 7.04162 27.1851 7.01951 27.2102 6.99587C27.2395 6.97294 27.2662 6.94705 27.2899 6.91862C27.3355 6.85937 27.3683 6.79182 27.3865 6.72L27.5173 6.16828L28.2338 6.33379L27.0567 11.211L21.4668 9.94207L22.6667 5.05931ZM16.7583 11.4593C16.4443 11.4593 16.1897 11.7063 16.1897 12.011V12.5628L14.8818 12.5352C14.5677 12.5352 14.3131 12.7822 14.3131 13.0869L14.1937 19.2055C14.1937 19.5102 14.4483 19.7572 14.7623 19.7572L21.6317 19.8897C21.9458 19.8897 22.2004 19.6426 22.2004 19.3379L22.3255 13.2248C22.3319 13.0783 22.274 12.936 22.1663 12.8331C22.065 12.7233 21.92 12.661 21.7682 12.6621L20.4603 12.6345V12.0828C20.4667 11.9362 20.4088 11.7939 20.3011 11.691C20.197 11.5851 20.0538 11.5235 19.903 11.52L16.7811 11.4593H16.7583ZM21.154 13.76L21.0517 18.7696L15.3196 18.6593L15.4163 13.6497H16.1555V14.2014C16.1516 14.3491 16.209 14.4922 16.3148 14.5986C16.4198 14.7026 16.5628 14.7621 16.7128 14.7641L19.8348 14.8248C19.8669 14.8275 19.8993 14.8275 19.9314 14.8248H20.0508C20.0946 14.8023 20.1364 14.7765 20.1759 14.7476L20.2328 14.709C20.286 14.6586 20.3285 14.5986 20.3579 14.5324C20.3871 14.4661 20.4025 14.3949 20.4034 14.3228V13.771L21.154 13.76ZM19.3002 12.6124V13.1641V13.7159L17.3156 13.6772V13.1255V12.5738L19.3002 12.6124ZM23.6732 14.1021H29.4053V15.2055H23.6732V14.1021ZM23.6732 15.7738H27.6822V16.8772H23.6732V15.7738ZM23.6732 17.44H29.4053V18.5434H23.6732V17.44Z" fill="#345D6D"/>
</svg>
