<svg width="39" height="48" viewBox="0 0 39 48" fill="none" xmlns="http://www.w3.org/2000/svg">
<path d="M37.707 33.44C37.3888 33.28 36.9115 33.6 36.9115 33.92C36.116 37.28 34.6841 40.48 32.934 43.04C32.7749 43.36 32.7749 43.84 33.0931 44C33.2522 44.16 33.4113 44.16 33.5704 44.16C33.7295 44.16 34.0477 44 34.2068 43.84C36.116 41.12 37.5479 37.92 38.3434 34.24C38.1843 33.92 38.0252 33.44 37.707 33.44ZM37.0706 14.56C36.9115 14.24 36.5933 14.08 36.116 14.08C35.7978 14.24 35.6387 14.56 35.6387 15.04C36.9115 18.56 37.5479 22.24 37.5479 26.24C37.5479 28 37.3888 29.6 37.2297 31.2C37.2297 31.52 37.3888 32 37.8661 32C37.8661 32 37.8661 32 38.0252 32C38.3434 32 38.6616 31.68 38.6616 31.36C38.9798 29.6 38.9798 27.84 38.9798 26.08C39.1389 22.08 38.3434 18.08 37.0706 14.56ZM16.8647 1.76C17.6602 1.6 18.6149 1.44 19.5695 1.44C25.6153 1.44 31.1839 5.44 34.525 12.16C34.6841 12.48 34.8432 12.48 35.1614 12.48C35.3205 12.48 35.3205 12.48 35.4796 12.48C35.7978 12.32 35.9569 11.84 35.7978 11.52C32.1385 4.32 26.0926 0 19.5695 0C18.6149 0 17.6602 0.16 16.7056 0.32C16.3874 0.32 16.0692 0.8 16.0692 1.12C16.2283 1.6 16.5465 1.92 16.8647 1.76ZM14.0009 2.72C14.3191 2.56 14.4782 2.08 14.3191 1.76C14.16 1.44 13.6827 1.28 13.3645 1.44C7.79597 3.84 3.18203 9.6 1.11371 16.96C0.954608 17.28 1.27281 17.76 1.59101 17.92H1.75011C2.06832 17.92 2.38652 17.76 2.38652 17.44C4.61394 10.4 8.90967 4.96 14.0009 2.72ZM1.43191 26.24C1.43191 24.16 1.59101 22.08 2.06832 20.16C2.06832 19.84 1.90922 19.36 1.43191 19.36C1.11371 19.36 0.636405 19.52 0.636405 20C0.318203 22.08 0 24.16 0 26.4C0 29.44 0.318203 32.32 1.11371 35.2C1.27281 35.52 1.43191 35.68 1.75011 35.68H1.90922C2.22742 35.52 2.54562 35.2 2.38652 34.88C1.75011 31.84 1.43191 29.12 1.43191 26.24ZM33.2522 38.08C32.934 37.92 32.4567 38.08 32.2976 38.4C31.6612 39.52 31.0248 40.64 30.3884 41.76C30.2293 42.08 30.2293 42.56 30.5475 42.72C30.7066 42.88 30.8657 42.88 31.0248 42.88C31.1839 42.88 31.5021 42.72 31.6612 42.56C32.4567 41.44 33.0931 40.32 33.7295 39.04C33.7295 38.56 33.5704 38.24 33.2522 38.08ZM34.0477 36H34.2068C34.525 36 34.8432 35.84 34.8432 35.52C35.6387 32.96 36.116 30.08 36.2751 27.36C36.2751 27.04 35.9569 26.56 35.6387 26.56C35.3205 26.56 34.8432 26.88 34.8432 27.2C34.6841 29.92 34.2068 32.64 33.4113 35.04C33.4113 35.52 33.5704 36 34.0477 36ZM30.2293 9.44C29.9111 9.76 29.9111 10.08 30.0702 10.4C32.7749 13.92 34.525 18.72 34.8432 23.84C34.8432 24.16 35.1614 24.48 35.4796 24.48C35.7978 24.48 36.116 24.16 36.116 23.68C35.6387 18.24 33.8886 13.28 31.0248 9.44C30.8657 9.28 30.3884 9.12 30.2293 9.44ZM19.5695 3.2C16.8647 3.2 14.4782 4 12.0917 5.6C11.7735 5.76 11.6144 6.24 11.9326 6.56C12.0917 6.88 12.569 7.04 12.8872 6.72C14.9555 5.28 17.1829 4.48 19.5695 4.48C22.7515 4.48 25.7744 5.76 28.32 8.32C28.4791 8.48 28.6382 8.48 28.7973 8.48C28.9564 8.48 29.1155 8.48 29.2746 8.32C29.5928 8 29.5928 7.52 29.2746 7.36C26.4108 4.64 23.0697 3.2 19.5695 3.2ZM10.5007 7.68C10.1825 7.36 9.70518 7.36 9.54608 7.68C6.36405 10.88 4.13663 15.52 3.18203 20.8C3.18203 21.12 3.34113 21.6 3.81843 21.6H3.97753C4.29574 21.6 4.61394 21.28 4.61394 20.96C5.40945 16 7.63686 11.68 10.6598 8.64C10.8189 8.48 10.8189 8 10.5007 7.68ZM6.52315 37.6C5.09124 34.24 4.29574 30.24 4.29574 26.24C4.29574 25.28 4.29574 24.32 4.45484 23.52C4.45484 23.2 4.13663 22.72 3.81843 22.72C3.50023 22.72 3.02293 23.04 3.02293 23.36C2.86382 24.32 2.86382 25.28 2.86382 26.24C2.86382 30.4 3.65933 34.56 5.25034 38.08C5.40945 38.4 5.56855 38.56 5.88675 38.56C6.04585 38.56 6.04585 38.56 6.20495 38.56C6.52315 38.24 6.68226 37.92 6.52315 37.6ZM7.63686 39.84C7.47776 39.52 7.00046 39.36 6.68226 39.52C6.36405 39.68 6.20495 40.16 6.36405 40.48C6.84136 41.28 7.31866 42.08 7.79597 42.72C7.95507 42.88 8.11417 43.04 8.43237 43.04C8.59147 43.04 8.75057 43.04 8.90968 42.88C9.22788 42.72 9.22788 42.24 9.06878 41.92C8.43237 41.28 8.11417 40.48 7.63686 39.84ZM28.1609 40.8C28.32 40.96 28.4791 40.96 28.6382 40.96C28.7973 40.96 29.1155 40.8 29.2746 40.64C30.0702 39.52 30.8657 38.24 31.5021 36.96C31.6612 36.64 31.5021 36.16 31.1839 36C30.8657 35.84 30.3884 36 30.2293 36.32C29.5928 37.6 28.9564 38.72 28.1609 39.68C27.8427 40.16 27.8427 40.64 28.1609 40.8ZM31.9794 34.08C32.2976 34.08 32.6158 33.92 32.6158 33.6C33.2522 31.2 33.5704 28.8 33.5704 26.24C33.5704 24.8 33.4113 23.2 33.2522 21.76C33.2522 21.44 32.7749 21.12 32.4567 21.12C32.1385 21.12 31.8203 21.6 31.8203 21.92C31.9794 23.36 32.1385 24.8 32.1385 26.08C32.1385 28.48 31.8203 30.88 31.1839 33.12C31.0248 33.44 31.343 33.92 31.6612 34.08C31.8203 34.08 31.8203 34.08 31.9794 34.08ZM31.5021 17.76C31.8203 17.6 31.9794 17.28 31.9794 16.8C29.5928 10.24 24.8198 6.24 19.5695 6.24C18.9331 6.24 18.4558 6.24 17.8194 6.4C17.5011 6.4 17.1829 6.88 17.1829 7.2C17.1829 7.52 17.6602 7.84 17.9785 7.84C18.4558 7.68 18.9331 7.68 19.4104 7.68C24.0243 7.68 28.32 11.36 30.5475 17.28C30.7066 17.6 30.8657 17.76 31.1839 17.76C31.343 17.76 31.5021 17.76 31.5021 17.76ZM11.4553 11.04C11.1371 10.72 10.6598 10.72 10.3416 11.04C7.15956 14.88 5.40945 20.32 5.40945 26.24C5.40945 27.2 5.40945 28.32 5.56855 29.28C5.56855 29.6 5.88675 29.92 6.20495 29.92C6.52315 29.92 6.84136 29.6 6.84136 29.12C6.68226 28.16 6.68226 27.2 6.68226 26.24C6.68226 20.8 8.43237 15.52 11.2962 12C11.7735 11.68 11.7735 11.2 11.4553 11.04ZM26.0926 38.88C26.2517 39.04 26.4108 39.04 26.5699 39.04C26.729 39.04 27.0472 38.88 27.2063 38.72C27.5245 38.24 28.0018 37.6 28.32 37.12C28.4791 36.8 28.32 36.32 28.0018 36.16C27.6836 36 27.2063 36.16 27.0472 36.48C26.729 36.96 26.4108 37.44 26.0926 37.92C25.7744 38.24 25.7744 38.72 26.0926 38.88ZM29.9111 29.76C30.3884 29.76 30.7066 29.44 30.7066 29.12C30.8657 28.16 30.8657 27.2 30.8657 26.08C30.8657 22.4 30.0702 19.04 28.6382 16C28.4791 15.68 28.0018 15.52 27.6836 15.68C27.3654 15.84 27.2063 16.32 27.3654 16.64C28.6382 19.36 29.4337 22.56 29.4337 26.08C29.4337 27.04 29.4337 28 29.2746 28.96C29.2746 29.44 29.5928 29.76 29.9111 29.76ZM10.0234 19.2C10.1825 19.2 10.1825 19.2 10.3416 19.2C10.6598 19.2 10.978 19.04 10.978 18.72C12.7281 13.76 16.0692 10.72 19.5695 10.72C21.3196 10.72 23.0697 11.52 24.6607 12.96C24.9789 13.28 25.4562 13.28 25.6153 12.96C25.9335 12.64 25.9335 12.16 25.6153 12C23.8652 10.4 21.7969 9.44 19.5695 9.44C15.4328 9.44 11.6144 12.8 9.54608 18.4C9.38698 18.72 9.54608 19.04 10.0234 19.2ZM17.1829 41.44C13.5236 39.52 9.54608 33.28 9.54608 26.08C9.54608 25.44 9.54608 24.8 9.54608 24.16C9.54608 23.84 9.22788 23.36 8.90968 23.36C8.59147 23.36 8.11417 23.68 8.11417 24C8.11417 24.64 7.95507 25.44 7.95507 26.08C7.95507 32.96 11.6144 40.32 16.3874 42.72C16.5465 42.72 16.5465 42.72 16.7056 42.72C17.0238 42.72 17.1829 42.56 17.342 42.4C17.6602 42.08 17.6602 41.76 17.1829 41.44ZM24.1834 36.8C24.3425 36.96 24.5016 36.96 24.6607 36.96C24.8198 36.96 25.138 36.8 25.2971 36.64C27.2063 34.08 28.1609 30.24 28.1609 26.24C28.1609 24.64 28.0018 23.2 27.6836 21.76C27.5245 21.44 27.2063 21.12 26.8881 21.28C26.5699 21.44 26.2517 21.76 26.4108 22.08C26.729 23.36 26.8881 24.8 26.8881 26.24C26.8881 29.92 25.9335 33.44 24.1834 35.84C23.8652 36.16 23.8652 36.48 24.1834 36.8ZM19.5695 13.92C21.6378 13.92 23.7061 15.52 25.138 18.56C25.2971 18.88 25.7744 19.04 26.0926 18.88C26.4108 18.72 26.5699 18.24 26.4108 17.92C24.8198 14.56 22.2742 12.48 19.5695 12.48C15.751 12.48 12.569 16.32 11.4553 22.08C11.4553 22.4 11.6144 22.88 12.0917 22.88H12.2508C12.569 22.88 12.8872 22.72 12.8872 22.24C13.6827 17.28 16.5465 13.92 19.5695 13.92ZM13.0463 34.08C13.2054 34.08 13.2054 34.08 13.3645 34.08C13.6827 33.92 13.8418 33.44 13.6827 33.12C12.8872 31.04 12.4099 28.64 12.4099 26.24C12.4099 25.92 12.0917 25.6 11.7735 25.6C11.4553 25.6 11.1371 25.92 11.1371 26.24C11.1371 28.96 11.6144 31.52 12.569 33.76C12.4099 33.92 12.7281 34.08 13.0463 34.08ZM22.2742 34.72C22.4333 34.88 22.5924 34.88 22.5924 34.88C22.7515 34.88 23.0697 34.72 23.2288 34.56C24.5016 32.48 25.2971 29.6 25.2971 26.24C25.2971 25.92 24.9789 25.6 24.6607 25.6C24.3425 25.6 24.0243 25.92 24.0243 26.24C24.0243 29.12 23.3879 32 22.1151 33.76C21.956 34.08 21.956 34.4 22.2742 34.72ZM19.5695 16.96C21.3196 16.96 23.0697 19.52 23.7061 23.2C23.7061 23.52 24.0243 23.84 24.3425 23.84H24.5016C24.8198 23.84 25.138 23.36 25.138 23.04C24.3425 18.56 22.1151 15.68 19.5695 15.68C17.1829 15.68 15.2737 18.08 14.3191 21.92C14.16 22.24 14.4782 22.72 14.7964 22.72C15.1146 22.88 15.5919 22.56 15.5919 22.24C16.3874 18.88 17.9785 16.96 19.5695 16.96ZM26.2517 46.72C22.4333 43.84 19.7286 40.8 17.9785 37.28C17.8193 36.96 17.342 36.8 17.0238 36.96C16.7056 37.12 16.5465 37.6 16.7056 37.92C18.6149 41.6 21.4787 44.8 25.4562 47.84C25.6153 48 25.7744 48 25.9335 48C26.0926 48 26.4108 47.84 26.5699 47.68C26.5699 47.36 26.4108 47.04 26.2517 46.72ZM15.9101 35.52C16.0692 35.52 16.0692 35.52 16.2283 35.52C16.5465 35.36 16.8647 35.04 16.7056 34.56C15.751 32 15.2737 29.28 15.2737 26.24C15.2737 25.92 14.9555 25.6 14.6373 25.6C14.3191 25.6 14.0009 25.92 14.0009 26.24C14.0009 29.28 14.4782 32.32 15.4328 35.04C15.2737 35.2 15.5919 35.52 15.9101 35.52ZM30.8657 45.76C24.3425 42.24 21.1605 37.28 19.5695 33.92C18.1376 30.72 17.8194 28.16 17.8194 27.36C17.8194 27.04 17.8194 26.56 17.8194 26.24C17.8194 22.24 18.9331 20 19.4104 20C19.8877 20 21.0014 22.08 21.0014 26.24C21.0014 26.72 21.0014 27.04 21.0014 27.52C21.0014 27.84 20.8423 27.84 20.6832 27.84C20.5241 27.84 20.365 27.84 20.365 27.68C20.2059 27.36 20.2059 27.04 20.0468 26.72C20.0468 26.4 19.5695 26.08 19.2513 26.08C18.9331 26.08 18.6149 26.56 18.6149 26.88C18.774 27.36 18.774 27.68 18.9331 28.16C19.2513 28.96 20.0468 29.44 20.8423 29.28C21.6378 29.12 22.2742 28.48 22.2742 27.68C22.2742 27.2 22.2742 26.72 22.2742 26.24C22.2742 22.4 21.1605 18.56 19.2513 18.56C17.1829 18.56 16.2283 22.4 16.2283 26.24C16.2283 26.56 16.2283 26.88 16.2283 27.2C16.2283 27.2 16.2283 27.36 16.2283 27.52C16.2283 28 16.3874 28.64 16.3874 29.12C16.3874 29.28 16.3874 29.28 16.5465 29.44C16.8647 30.72 17.1829 32.48 18.1376 34.4C19.7286 38.08 23.0697 43.2 30.0702 47.04C30.2293 47.04 30.2293 47.2 30.3884 47.2C30.7066 47.2 30.8657 47.04 31.0248 46.88C31.343 46.4 31.343 45.92 30.8657 45.76ZM16.5465 44.96C9.70518 40.48 7.63686 32.32 7.63686 32.16C7.47776 31.84 7.15956 31.52 6.84136 31.68C6.52315 31.84 6.20495 32.16 6.36405 32.48C6.52315 32.8 8.59147 41.44 15.9101 46.08C16.0692 46.08 16.2283 46.24 16.2283 46.24C16.3874 46.24 16.7056 46.08 16.8647 45.92C17.0238 45.6 16.8647 45.28 16.5465 44.96Z" fill="#265688"/>
</svg>
