<svg width="34" height="34" viewBox="0 0 34 34" fill="none" xmlns="http://www.w3.org/2000/svg">
<path d="M31.2581 16.4516H30.7097V13.7097C30.7097 12.1978 29.4796 10.9677 27.9677 10.9677H21.3871C20.7674 10.9677 20.2015 11.1822 19.7419 11.5304V2.74193C19.7419 1.23003 18.5119 0 17 0H2.74194C1.23003 0 0 1.23003 0 2.74193V31.2581C0 32.77 1.23003 34 2.74194 34H17C18.5119 34 19.7419 32.77 19.7419 31.2581V30.7097H31.2581C32.77 30.7097 34 29.4796 34 27.9677V19.1935C34 17.6816 32.77 16.4516 31.2581 16.4516ZM19.7419 14.2581V13.7097C19.7419 12.8026 20.4801 12.0645 21.3871 12.0645H27.9677C28.8748 12.0645 29.6129 12.8026 29.6129 13.7097V16.4516H28.5161V14.2581C28.5161 13.6532 28.0242 13.1613 27.4194 13.1613H21.9355C21.3306 13.1613 20.8387 13.6532 20.8387 14.2581V16.4516H19.7419V14.2581ZM27.4194 14.2581V16.4516H21.9355V14.2581H27.4194ZM31.2581 17.5484C31.8925 17.5484 32.4382 17.9136 32.7124 18.4412L27.3514 21.5686C27.1995 21.1447 26.798 20.8387 26.3226 20.8387H23.0323C22.5568 20.8387 22.1554 21.1447 22.0035 21.5686L16.6425 18.4412C16.9166 17.9136 17.4623 17.5484 18.0968 17.5484H31.2581ZM26.3231 23.0323H23.0323V21.9355H26.3226L26.3231 23.0323ZM5.48387 1.09678H14.2581V1.64516C14.2581 1.94732 14.0118 2.19355 13.7097 2.19355H6.03226C5.7301 2.19355 5.48387 1.94732 5.48387 1.64516V1.09678ZM1.09677 2.74193C1.09677 1.8349 1.8349 1.09678 2.74194 1.09678H4.3871V1.64516C4.3871 2.5522 5.12523 3.29033 6.03226 3.29033H13.7097C14.6167 3.29033 15.3548 2.5522 15.3548 1.64516V1.09678H17C17.907 1.09678 18.6452 1.8349 18.6452 2.74193V13.7097V14.2581V16.4516H18.0968C17.9092 16.4516 17.7255 16.4708 17.5484 16.507V4.38709H2.19355V27.4194H15.3548V27.9677C15.3548 28.1553 15.374 28.339 15.4102 28.5161H1.09677V2.74193ZM16.4516 5.48387V17.0143C15.7897 17.5155 15.3548 18.3019 15.3548 19.1935V26.3226H3.29032V5.48387H16.4516ZM18.6452 31.2581C18.6452 32.1651 17.907 32.9032 17 32.9032H2.74194C1.8349 32.9032 1.09677 32.1651 1.09677 31.2581V29.6129H15.9175C16.4187 30.2748 17.2051 30.7097 18.0968 30.7097H18.6452V31.2581ZM32.9032 27.9677C32.9032 28.8748 32.1651 29.6129 31.2581 29.6129H18.0968C17.1897 29.6129 16.4516 28.8748 16.4516 27.9677V19.6005L21.9355 22.7992V23.0323C21.9355 23.6371 22.4274 24.129 23.0323 24.129H26.3226C26.9275 24.129 27.4194 23.6371 27.4194 23.0323V22.7992L32.9032 19.6005V27.9677ZM30.7097 27.4194H31.8065V28.5161H30.7097V27.4194ZM28.5161 27.4194H29.6129V28.5161H28.5161V27.4194ZM26.3226 27.4194H27.4194V28.5161H26.3226V27.4194ZM4.3871 17.5484H5.48387V18.6452H4.3871V17.5484ZM6.58065 17.5484H14.2581V18.6452H6.58065V17.5484ZM4.3871 19.7419H14.2581V20.8387H4.3871V19.7419ZM4.3871 21.9355H14.2581V23.0323H4.3871V21.9355ZM4.3871 24.129H9.87097V25.2258H4.3871V24.129ZM13.1613 24.129H14.2581V25.2258H13.1613V24.129ZM10.9677 24.129H12.0645V25.2258H10.9677V24.129ZM4.3871 6.58064H5.48387V7.67742H4.3871V6.58064ZM4.3871 8.7742H5.48387V9.87097H4.3871V8.7742ZM4.3871 10.9677H5.48387V12.0645H4.3871V10.9677ZM7.67742 30.7097H12.0645V31.8065H7.67742V30.7097ZM15.3548 15.9032C15.3548 13.6866 13.8857 11.8073 11.8704 11.186C12.3272 10.6963 12.6129 10.0437 12.6129 9.32258C12.6129 7.81068 11.3829 6.58064 9.87097 6.58064C8.35907 6.58064 7.12903 7.81068 7.12903 9.32258C7.12903 10.0437 7.41474 10.6963 7.87155 11.186C5.85623 11.8073 4.3871 13.6866 4.3871 15.9032V16.4516H15.3548V15.9032ZM9.87097 7.67742C10.778 7.67742 11.5161 8.41555 11.5161 9.32258C11.5161 10.2296 10.778 10.9677 9.87097 10.9677C8.96394 10.9677 8.22581 10.2296 8.22581 9.32258C8.22581 8.41555 8.96394 7.67742 9.87097 7.67742ZM5.52281 15.3548C5.78987 13.4969 7.39171 12.0645 9.32258 12.0645H10.4194C12.3502 12.0645 13.9521 13.4969 14.2191 15.3548H5.52281Z" fill="white"/>
</svg>
