<svg width="14" height="21" viewBox="0 0 14 21" fill="none" xmlns="http://www.w3.org/2000/svg">
<path d="M3.84211 6.89655L3.21053 2.96552V1H10.7895V2.96552L10.1579 6.89655M5.10526 1V5.91379M8.89474 1V5.91379M7 1V5.94655M13 13.7759C13 17.2134 10.3137 20 7 20C3.68629 20 1 17.2134 1 13.7759C1 10.3384 3.68629 7.55172 7 7.55172C10.3137 7.55172 13 10.3384 13 13.7759ZM7 10.1724L8.26316 12.7931H10.4737L8.57895 14.431L9.52632 17.3793L7 15.7414L4.47368 17.3793L5.42105 14.431L3.52632 12.7931H5.73684L7 10.1724Z" stroke="#345D6D" stroke-miterlimit="10" stroke-linecap="round" stroke-linejoin="round"/>
</svg>
