<svg width="18" height="25" viewBox="0 0 18 25" fill="none" xmlns="http://www.w3.org/2000/svg">
<path d="M6.6 16.069H9.8M6.6 17.6552H9.8M6.2 8.13793H11.8M10.6 20.0345C8.84 20.0345 7.4 18.6069 7.4 16.8621C7.4 15.1172 8.84 13.6897 10.6 13.6897M11.8 9.72414H6.2C4 11.3103 1 15.4741 1 18.0517C1 21.6603 3.44 24 9 24C14.56 24 17 21.6603 17 18.0517C17 15.4741 14 11.3103 11.8 9.72414ZM13.4 2.18966L10.2 3.37931L9 1L7.8 3.37931L4.6 2.18966C4.6 2.18966 6.6 4.56897 6.6 6.55172H11.4C11.4 4.56897 13.4 2.18966 13.4 2.18966Z" stroke="#345D6D" stroke-miterlimit="10" stroke-linecap="round" stroke-linejoin="round"/>
</svg>
