<svg width="18" height="18" viewBox="0 0 18 18" fill="none" xmlns="http://www.w3.org/2000/svg">
<path d="M17 18V16.6667C17 15.6 16.3 14.6333 15.3 14.2667L11 12.6667V10.4M7 10.5667V12.6667L2.66667 14.2667C1.66667 14.6333 1 15.6 1 16.6667V18M13.0667 5.6C12.9333 5.63333 12.8 5.6 12.6667 5.63333C11.2333 5.9 10.3 5.4 9.53333 4C9.06667 4.9 7.56667 5.63333 6.36667 5.63333C5.76667 5.63333 5.26667 5.5 4.73333 5.23333M13.0667 6.03333C13.0667 8.83333 11.2 11.0667 8.86667 11.0667C6.53333 11.0667 4.66667 8.8 4.66667 6.03333C4.66667 3.26667 6.56667 1 8.86667 1C11.2 1 13.0667 3.26667 13.0667 6.03333Z" stroke="white" stroke-miterlimit="10"/>
</svg>
