<svg width="200" height="200" fill="#000000" xmlns="http://www.w3.org/2000/svg" xmlns:xlink="http://www.w3.org/1999/xlink" version="1.1" x="0px" y="0px" viewBox="0 0 100 100" style="enable-background:new 0 0 100 100;" xml:space="preserve"><style type="text/css">
	.st0{fill:none;stroke:#000000;stroke-width:2;stroke-miterlimit:10;}
	.st1{fill:#000000;}
</style><g><path d="M88.9,27.8L73.2,12.2H50.4v2h21.4v15.3h15.1v12.9H53.5l-2.6,28h35.9v21.5H50.4v2h38.5V27.8z M73.8,27.5V15.6l11.9,11.9   H73.8z"/><polygon points="19.1,85.8 19.1,64.4 47.1,64.4 49.8,36.4 19.1,36.4 19.1,8.2 50.4,8.2 50.4,6.2 17.1,6.2 17.1,36.4 11.9,36.4    11.9,64.4 17.1,64.4 17.1,87.8 50.4,87.8 50.4,85.8  "/></g></svg>