<svg width="200" height="200" fill="#000000" xmlns="http://www.w3.org/2000/svg" xmlns:xlink="http://www.w3.org/1999/xlink" version="1.1" x="0px" y="0px" viewBox="0 0 100 100" style="enable-background:new 0 0 100 100;" xml:space="preserve"><g><path d="M70.2,9.2H14.1v30.2H8.9v28h5.3v23.5h71.7v-66L70.2,9.2z M70.8,12.6l11.9,11.9H70.8V12.6z M83.9,88.8H16.1V67.4h67.7V88.8z    M28.5,57.8c0.4,1.1,1.1,2,2.1,2.6c0.9,0.6,2,0.8,3.1,0.8c1.3,0,2.5-0.4,3.4-1.2c0.9-0.8,1.6-1.9,1.9-3.4l2.4,0.6   c-0.5,2-1.4,3.4-2.7,4.5c-1.3,1-2.9,1.5-4.8,1.5c-1.9,0-3.5-0.4-4.7-1.2c-1.2-0.8-2.1-1.9-2.8-3.4c-0.6-1.5-1-3.1-1-4.8   c0-1.9,0.4-3.5,1.1-4.9c0.7-1.4,1.7-2.5,3.1-3.2c1.3-0.7,2.8-1.1,4.4-1.1c1.8,0,3.3,0.5,4.5,1.4s2.1,2.2,2.6,3.9l-2.3,0.6   c-0.4-1.3-1-2.3-1.8-2.9c-0.8-0.6-1.8-0.9-3-0.9c-1.4,0-2.5,0.3-3.5,1c-0.9,0.7-1.6,1.6-2,2.7c-0.4,1.1-0.6,2.3-0.6,3.5   C27.9,55.3,28.1,56.7,28.5,57.8z M55,56.6c-0.3-0.4-0.9-0.8-1.6-1.1c-0.5-0.2-1.6-0.5-3.2-0.9c-1.7-0.4-2.8-0.8-3.5-1.1   c-0.9-0.4-1.5-1-1.9-1.7c-0.4-0.7-0.6-1.4-0.6-2.2c0-0.9,0.3-1.8,0.8-2.5c0.5-0.8,1.3-1.4,2.3-1.8s2.1-0.6,3.3-0.6   c1.3,0,2.5,0.2,3.5,0.6c1,0.4,1.8,1.1,2.4,1.9c0.5,0.8,0.8,1.8,0.9,2.8l-2.3,0.2c-0.1-1.1-0.5-2-1.2-2.6s-1.8-0.9-3.1-0.9   c-1.4,0-2.5,0.3-3.1,0.8c-0.7,0.5-1,1.2-1,1.9c0,0.6,0.2,1.2,0.7,1.6c0.5,0.4,1.7,0.8,3.6,1.3c1.9,0.4,3.3,0.8,4,1.1   c1,0.5,1.8,1.1,2.3,1.8c0.5,0.7,0.7,1.6,0.7,2.6c0,1-0.3,1.9-0.8,2.7c-0.5,0.8-1.3,1.5-2.4,2c-1,0.5-2.2,0.7-3.5,0.7   c-1.6,0-3-0.2-4.1-0.7s-2-1.2-2.6-2.1c-0.6-1-1-2-1-3.2l2.2-0.2c0.1,0.9,0.4,1.6,0.7,2.2s1,1,1.8,1.4s1.7,0.5,2.8,0.5   c0.9,0,1.7-0.1,2.4-0.4c0.7-0.3,1.2-0.6,1.6-1.1s0.5-1,0.5-1.5C55.5,57.5,55.3,57,55,56.6z M59.2,44.9h2.6L66.4,58   c0.4,1,0.7,2,0.9,2.9c0.3-1,0.6-2,1-2.9l4.9-13.1h2.4l-7,18h-2.4L59.2,44.9z M83.9,39.4H16.1V11.2h52.7v15.3h15.1V39.4z"/></g></svg>