<svg width="200" height="200" fill="#000000" xmlns="http://www.w3.org/2000/svg" xmlns:xlink="http://www.w3.org/1999/xlink" version="1.1" x="0px" y="0px" viewBox="0 0 100 100" style="enable-background:new 0 0 100 100;" xml:space="preserve"><g><path d="M36,57.3c0.3-1,0.5-2.1,0.5-3.5c0-1.9-0.3-3.3-0.9-4.3c-0.6-1-1.4-1.7-2.3-2c-0.6-0.2-1.7-0.4-3.1-0.4h-3.8v13.7h3.8   c1.2,0,2.1-0.1,2.8-0.3c0.7-0.2,1.2-0.5,1.6-0.9C35.2,59,35.6,58.2,36,57.3z"/><path d="M70.2,9.2H14.1v30.2H8.9v28h5.3v23.5h71.7v-66L70.2,9.2z M70.8,12.6l11.9,11.9H70.8V12.6z M83.9,88.8H16.1V67.4h67.7V88.8z    M24,62.9v-18h6.2c1.4,0,2.5,0.1,3.2,0.3c1,0.2,1.9,0.7,2.6,1.3c0.9,0.8,1.7,1.8,2.1,3.1s0.7,2.7,0.7,4.3c0,1.4-0.2,2.6-0.5,3.6   c-0.3,1.1-0.7,1.9-1.2,2.6c-0.5,0.7-1,1.2-1.6,1.6c-0.6,0.4-1.3,0.7-2.1,0.9c-0.8,0.2-1.8,0.3-2.9,0.3H24z M41.4,54.2   c0-3,0.8-5.3,2.4-7c1.6-1.7,3.7-2.5,6.2-2.5c1.7,0,3.2,0.4,4.5,1.2s2.4,1.9,3.1,3.3c0.7,1.4,1,3,1,4.8c0,1.8-0.4,3.5-1.1,4.9   c-0.7,1.4-1.8,2.5-3.1,3.3c-1.4,0.7-2.8,1.1-4.4,1.1c-1.7,0-3.2-0.4-4.5-1.2s-2.3-1.9-3-3.4S41.4,55.8,41.4,54.2z M64.2,57.8   c0.4,1.1,1.1,2,2.1,2.6c0.9,0.6,2,0.8,3.1,0.8c1.3,0,2.5-0.4,3.4-1.2c0.9-0.8,1.6-1.9,1.9-3.4l2.4,0.6c-0.5,2-1.4,3.4-2.7,4.5   c-1.3,1-2.9,1.5-4.8,1.5c-1.9,0-3.5-0.4-4.7-1.2c-1.2-0.8-2.1-1.9-2.8-3.4c-0.6-1.5-1-3.1-1-4.8c0-1.9,0.4-3.5,1.1-4.9   c0.7-1.4,1.7-2.5,3.1-3.2c1.3-0.7,2.8-1.1,4.4-1.1c1.8,0,3.3,0.5,4.5,1.4s2.1,2.2,2.6,3.9l-2.3,0.6c-0.4-1.3-1-2.3-1.8-2.9   c-0.8-0.6-1.8-0.9-3-0.9c-1.4,0-2.5,0.3-3.5,1c-0.9,0.7-1.6,1.6-2,2.7c-0.4,1.1-0.6,2.3-0.6,3.5C63.5,55.3,63.7,56.7,64.2,57.8z    M83.9,39.4H16.1V11.2h52.7v15.3h15.1V39.4z"/><path d="M50,61.2c1.8,0,3.3-0.6,4.4-1.9c1.2-1.3,1.7-3,1.7-5.4c0-1.5-0.2-2.7-0.7-3.8s-1.2-1.9-2.2-2.5c-1-0.6-2-0.9-3.2-0.9   c-1.7,0-3.1,0.6-4.4,1.7c-1.2,1.2-1.8,3.1-1.8,5.8c0,2.2,0.6,3.9,1.7,5.1C46.8,60.6,48.3,61.2,50,61.2z"/></g></svg>