<svg width="200" height="200" fill="#000000" xmlns="http://www.w3.org/2000/svg" xmlns:xlink="http://www.w3.org/1999/xlink" version="1.1" x="0px" y="0px" viewBox="0 0 100 100" style="enable-background:new 0 0 100 100;" xml:space="preserve"><g><path d="M70.2,9.2H14.1v30.2H8.9v28h5.3v23.5h71.7v-66L70.2,9.2z M70.8,12.6l11.9,11.9H70.8V12.6z M83.9,88.8H16.1V67.4h67.7V88.8z    M31.4,52.3v-7.4h2.3v18h-2.3v-8.5h-8.9v8.5h-2.3v-18h2.3v7.4H31.4z M35.7,47.1v-2.1h13.6v2.1h-5.7v15.9h-2.3V47.1H35.7z    M60.2,62.9h-2l-4.9-15.3v15.3H51v-18h3.4l4,12.7c0.4,1.2,0.6,2.1,0.8,2.7c0.2-0.7,0.5-1.6,0.9-2.9l4.1-12.5h3v18h-2.2V47.9   L60.2,62.9z M81.1,60.8v2.1H70.4v-18h2.3v15.9H81.1z M83.9,39.4H16.1V11.2h52.7v15.3h15.1V39.4z"/></g></svg>