<svg width="200" height="200" fill="#000000" xmlns="http://www.w3.org/2000/svg" xmlns:xlink="http://www.w3.org/1999/xlink" version="1.1" x="0px" y="0px" viewBox="0 0 100 100" style="enable-background:new 0 0 100 100;" xml:space="preserve"><g><path d="M57.3,52.6c0.6-0.6,1-1.4,1-2.4c0-0.8-0.2-1.4-0.6-1.9s-0.9-0.9-1.5-1.1c-0.4-0.1-1.1-0.2-2.2-0.2h-4.6v6.4h4.7   C55.6,53.5,56.7,53.2,57.3,52.6z"/><path d="M70.2,9.2H14.1v30.2H8.9v28h5.3v23.5h71.7v-66L70.2,9.2z M70.8,12.6l11.9,11.9H70.8V12.6z M83.9,88.8H16.1V67.4h67.7V88.8z    M35.7,62.9h-2.1l-5.2-15.3v15.3H26v-18h3.6l4.3,12.7c0.4,1.2,0.7,2.1,0.9,2.7c0.2-0.7,0.5-1.6,1-2.9L40,44.9h3.2v18h-2.3V47.9   L35.7,62.9z M47,62.9v-18h6.8c1.2,0,2.1,0.1,2.7,0.2c0.9,0.1,1.6,0.4,2.2,0.8s1.1,1,1.4,1.7s0.5,1.6,0.5,2.5c0,1.5-0.5,2.8-1.5,3.9   c-1,1.1-2.7,1.6-5.3,1.6h-4.6v7.3H47z M71.4,55.2c-0.7-0.7-1.5-1-2.5-1c-0.4,0-0.9,0.1-1.6,0.2l0.2-1.9c0.1,0,0.3,0,0.4,0   c0.9,0,1.8-0.2,2.5-0.7s1.1-1.2,1.1-2.3c0-0.8-0.3-1.5-0.8-2c-0.5-0.5-1.3-0.8-2.1-0.8c-0.9,0-1.6,0.3-2.1,0.8   c-0.6,0.5-0.9,1.4-1.1,2.4l-2.2-0.4c0.3-1.5,0.9-2.6,1.8-3.4c1-0.8,2.1-1.2,3.6-1.2c1,0,1.9,0.2,2.7,0.6c0.8,0.4,1.5,1,1.9,1.7   s0.7,1.5,0.7,2.3c0,0.8-0.2,1.5-0.6,2.1c-0.4,0.6-1,1.1-1.9,1.5c1.1,0.2,1.9,0.8,2.5,1.5c0.6,0.8,0.9,1.7,0.9,2.9   c0,1.6-0.6,2.9-1.7,4c-1.1,1.1-2.6,1.6-4.3,1.6c-1.6,0-2.9-0.5-3.9-1.4c-1-0.9-1.6-2.2-1.8-3.7l2.2-0.3c0.3,1.3,0.7,2.2,1.3,2.7   c0.6,0.6,1.4,0.8,2.2,0.8c1,0,1.9-0.4,2.6-1.1c0.7-0.7,1.1-1.6,1.1-2.7C72.4,56.7,72,55.8,71.4,55.2z M83.9,39.4H16.1V11.2h52.7   v15.3h15.1V39.4z"/></g></svg>