<svg width="200" height="200" fill="#000000" xmlns="http://www.w3.org/2000/svg" xmlns:xlink="http://www.w3.org/1999/xlink" version="1.1" x="0px" y="0px" viewBox="0 0 100 100" style="enable-background:new 0 0 100 100;" xml:space="preserve"><g><path d="M55.5,57.3c0.3-1,0.5-2.1,0.5-3.5c0-1.9-0.3-3.3-0.9-4.3c-0.6-1-1.4-1.7-2.3-2c-0.6-0.2-1.7-0.4-3.1-0.4h-3.8v13.7h3.8   c1.2,0,2.1-0.1,2.8-0.3c0.7-0.2,1.2-0.5,1.6-0.9C54.8,59,55.2,58.2,55.5,57.3z"/><path d="M36,52.6c0.6-0.6,1-1.4,1-2.4c0-0.8-0.2-1.4-0.6-1.9s-0.9-0.9-1.5-1.1c-0.4-0.1-1.1-0.2-2.2-0.2h-4.6v6.4h4.7   C34.3,53.5,35.4,53.2,36,52.6z"/><path d="M70.2,9.2H14.1v30.2H8.9v28h5.3v23.5h71.7v-66L70.2,9.2z M70.8,12.6l11.9,11.9H70.8V12.6z M83.9,88.8H16.1V67.4h67.7V88.8z    M25.7,62.9v-18h6.8c1.2,0,2.1,0.1,2.7,0.2c0.9,0.1,1.6,0.4,2.2,0.8s1.1,1,1.4,1.7c0.4,0.7,0.5,1.6,0.5,2.5c0,1.5-0.5,2.8-1.5,3.9   c-1,1.1-2.7,1.6-5.3,1.6h-4.6v7.3H25.7z M43.6,62.9v-18h6.2c1.4,0,2.5,0.1,3.2,0.3c1,0.2,1.9,0.7,2.6,1.3c0.9,0.8,1.7,1.8,2.1,3.1   s0.7,2.7,0.7,4.3c0,1.4-0.2,2.6-0.5,3.6c-0.3,1.1-0.7,1.9-1.2,2.6c-0.5,0.7-1,1.2-1.6,1.6c-0.6,0.4-1.3,0.7-2.1,0.9   c-0.8,0.2-1.8,0.3-2.9,0.3H43.6z M73.8,52.6v2.1h-8.4v8.2h-2.4v-18h12.1v2.1h-9.8v5.6H73.8z M83.9,39.4H16.1V11.2h52.7v15.3h15.1   V39.4z"/></g></svg>