<svg width="200" height="200" fill="#000000" xmlns="http://www.w3.org/2000/svg" xmlns:xlink="http://www.w3.org/1999/xlink" version="1.1" x="0px" y="0px" viewBox="0 0 100 100" style="enable-background:new 0 0 100 100;" xml:space="preserve"><g><path d="M35,52.6c0.6-0.6,1-1.4,1-2.4c0-0.8-0.2-1.4-0.6-1.9s-0.9-0.9-1.5-1.1c-0.4-0.1-1.1-0.2-2.2-0.2h-4.6v6.4h4.7   C33.3,53.5,34.4,53.2,35,52.6z"/><path d="M70.2,9.2H14.1v30.2H8.9v28h5.3v23.5h71.7v-66L70.2,9.2z M70.8,12.6l11.9,11.9H70.8V12.6z M83.9,88.8H16.1V67.4h67.7V88.8z    M24.7,62.9v-18h6.8c1.2,0,2.1,0.1,2.7,0.2c0.9,0.1,1.6,0.4,2.2,0.8s1.1,1,1.4,1.7s0.5,1.6,0.5,2.5c0,1.5-0.5,2.8-1.5,3.9   c-1,1.1-2.7,1.6-5.3,1.6h-4.6v7.3H24.7z M41.4,62.9v-18h2.4l9.5,14.1V44.9h2.3v18h-2.4l-9.5-14.1v14.1H41.4z M62.3,57.9   c0.6,1.1,1.4,1.9,2.4,2.4c1.1,0.5,2.2,0.8,3.4,0.8c1,0,2-0.2,3-0.6c1-0.4,1.7-0.8,2.2-1.3v-3.4H68v-2.1l7.6,0v6.7   c-1.2,0.9-2.4,1.6-3.6,2.1c-1.2,0.5-2.5,0.7-3.8,0.7c-1.8,0-3.4-0.4-4.8-1.1c-1.4-0.8-2.5-1.9-3.3-3.3c-0.7-1.4-1.1-3-1.1-4.8   c0-1.8,0.4-3.4,1.1-4.9c0.7-1.5,1.8-2.6,3.2-3.4c1.4-0.7,3-1.1,4.8-1.1c1.3,0,2.5,0.2,3.5,0.6c1.1,0.4,1.9,1,2.5,1.8   s1.1,1.7,1.4,2.9l-2.1,0.6c-0.3-0.9-0.6-1.6-1-2.2c-0.4-0.5-1-0.9-1.7-1.3c-0.7-0.3-1.6-0.5-2.5-0.5c-1.1,0-2,0.2-2.8,0.5   c-0.8,0.3-1.4,0.8-1.9,1.3c-0.5,0.5-0.9,1.1-1.1,1.8c-0.5,1.1-0.7,2.3-0.7,3.6C61.5,55.5,61.8,56.8,62.3,57.9z M83.9,39.4H16.1   V11.2h52.7v15.3h15.1V39.4z"/></g></svg>