<svg width="200" height="200" fill="#000000" xmlns="http://www.w3.org/2000/svg" xmlns:xlink="http://www.w3.org/1999/xlink" version="1.1" x="0px" y="0px" viewBox="0 0 100 100" style="enable-background:new 0 0 100 100;" xml:space="preserve"><g><path d="M70.2,9.2H14.1v30.2H8.9v28h5.3v23.5h71.7v-66L70.2,9.2z M70.8,12.6l11.9,11.9H70.8V12.6z M83.9,88.8H16.1V67.4h67.7V88.8z    M37,55.6c0.7,0.6,1.4,1.4,2,2.4l3.1,4.9h-3l-2.4-3.7c-0.7-1.1-1.3-1.9-1.7-2.5c-0.5-0.6-0.9-1-1.2-1.2c-0.4-0.2-0.7-0.4-1.1-0.5   c-0.3-0.1-0.7-0.1-1.3-0.1h-2.8v8h-2.4v-18h8c1.6,0,2.8,0.2,3.7,0.5s1.5,0.9,2,1.7s0.7,1.7,0.7,2.7c0,1.3-0.4,2.4-1.2,3.2   c-0.8,0.9-2.1,1.4-3.8,1.7C36.2,55.1,36.7,55.4,37,55.6z M44.1,47.1v-2.1h14.3v2.1h-6v15.9H50V47.1H44.1z M73.3,52.6v2.1h-8.4v8.2   h-2.4v-18h12.1v2.1h-9.8v5.6H73.3z M83.9,39.4H16.1V11.2h52.7v15.3h15.1V39.4z"/><path d="M34.3,46.9h-5.7v6h5.1c1.1,0,1.9-0.1,2.6-0.3c0.6-0.2,1.1-0.6,1.4-1.1c0.3-0.5,0.5-1,0.5-1.6c0-0.9-0.3-1.6-0.9-2.1   S35.7,46.9,34.3,46.9z"/></g></svg>