<svg width="200" height="200" fill="#000000" xmlns="http://www.w3.org/2000/svg" xmlns:xlink="http://www.w3.org/1999/xlink" version="1.1" x="0px" y="0px" viewBox="0 0 100 100" style="enable-background:new 0 0 100 100;" xml:space="preserve"><g><path d="M70.2,9.2H14.1v30.2H8.9v28h5.3v23.5h71.7v-66L70.2,9.2z M70.8,12.6l11.9,11.9H70.8V12.6z M83.9,88.8H16.1V67.4h67.7V88.8z    M25.1,44.9h2.8l3.3,4.6c0.7,1,1.2,1.7,1.4,2.2c0.4-0.7,0.9-1.3,1.4-2l3.6-4.8h2.6l-6.3,8.5l6.8,9.5h-2.9l-4.5-6.4   c-0.3-0.4-0.5-0.8-0.8-1.2c-0.4,0.7-0.7,1.1-0.9,1.4l-4.5,6.3h-2.9l7-9.4L25.1,44.9z M52.4,62.9h-2.1l-5.2-15.3v15.3h-2.3v-18h3.6   l4.3,12.7c0.4,1.2,0.7,2.1,0.9,2.7c0.2-0.7,0.5-1.6,1-2.9l4.3-12.5H60v18h-2.3V47.9L52.4,62.9z M75,60.8v2.1H63.7v-18h2.4v15.9H75z    M83.9,39.4H16.1V11.2h52.7v15.3h15.1V39.4z"/></g></svg>