<svg width="200" height="200" fill="#000000" xmlns="http://www.w3.org/2000/svg" xmlns:xlink="http://www.w3.org/1999/xlink" version="1.1" x="0px" y="0px" viewBox="0 0 100 100" style="enable-background:new 0 0 100 100;" xml:space="preserve"><g><path d="M65,52.6c0.6-0.6,1-1.4,1-2.4c0-0.8-0.2-1.4-0.6-1.9s-0.9-0.9-1.5-1.1c-0.4-0.1-1.1-0.2-2.2-0.2h-4.6v6.4h4.7   C63.3,53.5,64.4,53.2,65,52.6z"/><path d="M70.2,9.2H14.1v30.2H8.9v28h5.3v23.5h71.7v-66L70.2,9.2z M70.8,12.6l11.9,11.9H70.8V12.6z M83.9,88.8H16.1V67.4h67.7V88.8z    M32,47.1v-2.1h12.9v2.1L34.8,59.6l-1.1,1.3h11.5v2.1H30.9v-2.2l9.2-11.5c0.7-0.8,1.3-1.5,1.9-2.1H32z M48.1,62.9v-18h2.4v18H48.1z    M54.7,62.9v-18h6.8c1.2,0,2.1,0.1,2.7,0.2c0.9,0.1,1.6,0.4,2.2,0.8s1.1,1,1.4,1.7s0.5,1.6,0.5,2.5c0,1.5-0.5,2.8-1.5,3.9   c-1,1.1-2.7,1.6-5.3,1.6h-4.6v7.3H54.7z M83.9,39.4H16.1V11.2h52.7v15.3h15.1V39.4z"/></g></svg>