<svg xmlns="http://www.w3.org/2000/svg" width="24" height="24" viewBox="0 0 24 24">
  <path fill-rule="evenodd" d="M10,3 C13.8659932,3 17,6.13400675 17,10 C17,11.8275604 16.2996401,13.4915431 15.1526719,14.7381964 L20.4852814,20.0710678 L19.0710678,21.4852814 L13.5936024,16.0084041 C13.3539715,16.152035 13.1050353,16.2817365 12.8479131,16.3963897 L12.7071068,16.5355339 L12.6520741,16.480147 C11.8341173,16.8152563 10.9386332,17 10,17 C6.13400675,17 3,13.8659932 3,10 C3,6.13400675 6.13400675,3 10,3 Z M10,5 C7.23857625,5 5,7.23857625 5,10 C5,12.7614237 7.23857625,15 10,15 C12.7614237,15 15,12.7614237 15,10 C15,7.23857625 12.7614237,5 10,5 Z"/>
</svg>
