<?xml version="1.0" encoding="utf-8"?>
<!-- Generator: Adobe Illustrator 15.0.0, SVG Export Plug-In  -->
<!DOCTYPE svg PUBLIC "-//W3C//DTD SVG 1.1//EN" "http://www.w3.org/Graphics/SVG/1.1/DTD/svg11.dtd" [
	<!ENTITY ns_flows "http://ns.adobe.com/Flows/1.0/">
]>
<svg version="1.1"
	 xmlns="http://www.w3.org/2000/svg" xmlns:xlink="http://www.w3.org/1999/xlink" xmlns:a="http://ns.adobe.com/AdobeSVGViewerExtensions/3.0/"
	 x="0px" y="0px" width="100px" height="100px" viewBox="-6.028 -5 100 100"
	 overflow="visible" enable-background="new -6.028 -5 100 100" xml:space="preserve">
<defs>
</defs>
<g>
	<path fill-rule="evenodd" clip-rule="evenodd" fill="#E7E2E4" d="M19.145,84.457c-7.325,0-13.284-5.961-13.284-13.289V19.137
		c0-7.32,5.959-13.276,13.284-13.276h51.983c7.32,0,13.275,5.956,13.275,13.276v52.031c0,7.328-5.955,13.289-13.275,13.289H19.145z"
		/>
	<path fill="#E7E2E4" d="M71.127,11.721c4.096,0,7.416,3.323,7.416,7.416v52.031c0,4.105-3.32,7.428-7.416,7.428H19.145
		c-4.103,0-7.424-3.322-7.424-7.428V19.137c0-4.093,3.321-7.416,7.424-7.416H71.127 M71.127,0H19.145C8.588,0,0,8.585,0,19.137
		v52.031c0,10.559,8.588,19.148,19.145,19.148h51.983c10.551,0,19.137-8.59,19.137-19.148V19.137C90.264,8.585,81.678,0,71.127,0
		L71.127,0z"/>
</g>
<path fill-rule="evenodd" clip-rule="evenodd" fill="#546390" d="M19.145,16.601h51.983c4.096,0,7.416,3.323,7.416,7.417v52.029
	c0,4.105-3.32,7.43-7.416,7.43H19.145c-4.103,0-7.424-3.324-7.424-7.43V24.018C11.721,19.924,15.042,16.601,19.145,16.601z
	 M50.459,44.601c0,0,0.004-4.562,0.004-6.156c0-5.118,3.902-8.926,9-8.926c3.156,0,7.145,0,7.145,0l0.031,8.666c0,0-4.383,0-5.4,0
	c-1.254,0-2.131,0.678-2.131,1.907c0,1.236,0.033,4.498,0.033,4.498h7.467l0.031,8.754h-7.502v18.328h-8.641V53.294l-5.379,0.037
	v-8.697L50.459,44.601z"/>
<path fill="none" d="M66.618,42.632l-0.01-2.924h-6.807h-0.66c0,0-0.033-3.261-0.033-4.498c0-1.229,0.877-1.906,2.131-1.906
	c0.832,0,3.916,0,5.012,0c0.24,0,0.389,0,0.389,0l-0.002-0.386l-0.029-8.28c0,0-3.988,0-7.145,0c-5.098,0-9,3.809-9,8.927
	c0,1.592-0.004,6.157-0.004,6.157l-5.342,0.031v8.699l5.379-0.037v0.535v9.691v2.697v2.287v3.164h8.641V55.044v-2.285v-2.697v-1.598
	h1.607h2.717h2.303h0.875l-0.002-0.867l-0.01-2.277L66.618,42.632z"/>
<polygon fill="none" points="60.745,48.464 59.137,50.062 59.137,52.759 63.461,48.464 "/>
<path fill="none" d="M59.108,35.211c0,1.236,0.033,4.498,0.033,4.498h0.66l6.449-6.404c-1.096,0-4.18,0-5.012,0
	C59.985,33.305,59.108,33.982,59.108,35.211z"/>
<polygon fill="none" points="50.497,58.642 30.407,78.595 33.123,78.595 50.497,61.339 "/>
<path fill="none" d="M66.637,47.597l0.002,0.867h-0.875l-6.627,6.58v11.746h-8.641v-3.164L35.425,78.595h35.703
	c4.096,0,7.416-3.322,7.416-7.428V35.772L66.637,47.597z"/>
<path fill="none" d="M50.497,48.416l-5.379,0.037v-8.699l5.342-0.031c0,0,0.004-4.565,0.004-6.157c0-5.118,3.902-8.927,9-8.927
	c3.156,0,7.145,0,7.145,0l0.029,8.28l11.906-11.822v-1.96c0-4.093-3.32-7.416-7.416-7.416H19.145c-4.103,0-7.424,3.323-7.424,7.416
	v52.031c0,4.105,3.321,7.428,7.424,7.428h1.503l29.849-29.645V48.416z"/>
<polygon fill="none" points="66.627,45.32 78.543,33.486 78.543,30.789 66.618,42.632 "/>
<polygon fill="#99A2BD" points="59.137,48.464 59.137,50.062 60.745,48.464 "/>
<polygon fill="#8892B2" points="50.497,48.951 20.647,78.595 30.407,78.595 50.497,58.642 "/>
<path fill="#8892B2" d="M66.639,33.305c0,0-0.148,0-0.389,0l-6.449,6.404h6.807l0.01,2.924l11.926-11.843v-9.692L66.637,32.919
	L66.639,33.305z"/>
<polygon fill="#99A2BD" points="66.637,47.597 78.543,35.772 78.543,33.486 66.627,45.32 "/>
<polygon fill="#99A2BD" points="50.497,61.339 33.123,78.595 35.425,78.595 50.497,63.626 "/>
<polygon fill="#99A2BD" points="59.137,52.759 59.137,55.044 65.764,48.464 63.461,48.464 "/>
</svg>
