<?xml version="1.0" encoding="UTF-8" standalone="no"?>
<!-- Generator: Adobe Illustrator 15.0.0, SVG Export Plug-In  -->

<svg
   xmlns:dc="http://purl.org/dc/elements/1.1/"
   xmlns:cc="http://creativecommons.org/ns#"
   xmlns:rdf="http://www.w3.org/1999/02/22-rdf-syntax-ns#"
   xmlns:svg="http://www.w3.org/2000/svg"
   xmlns="http://www.w3.org/2000/svg"
   xmlns:sodipodi="http://sodipodi.sourceforge.net/DTD/sodipodi-0.dtd"
   xmlns:inkscape="http://www.inkscape.org/namespaces/inkscape"
   version="1.1"
   x="0px"
   y="0px"
   width="90.264999"
   height="90.316002"
   viewBox="-6.028 -5 90.264999 90.316002"
   overflow="visible"
   enable-background="new -6.028 -5 100 100"
   xml:space="preserve"
   id="svg2"
   inkscape:version="0.48.4 r9939"
   sodipodi:docname="facebook.svg"
   style="overflow:visible"><metadata
   id="metadata42"><rdf:RDF><cc:Work
       rdf:about=""><dc:format>image/svg+xml</dc:format><dc:type
         rdf:resource="http://purl.org/dc/dcmitype/StillImage" /></cc:Work></rdf:RDF></metadata><sodipodi:namedview
   pagecolor="#ffffff"
   bordercolor="#666666"
   borderopacity="1"
   objecttolerance="10"
   gridtolerance="10"
   guidetolerance="10"
   inkscape:pageopacity="0"
   inkscape:pageshadow="2"
   inkscape:window-width="640"
   inkscape:window-height="480"
   id="namedview40"
   showgrid="false"
   fit-margin-top="0"
   fit-margin-left="0"
   fit-margin-right="0"
   fit-margin-bottom="0"
   inkscape:zoom="2.36"
   inkscape:cx="43.972"
   inkscape:cy="45.316"
   inkscape:window-x="0"
   inkscape:window-y="0"
   inkscape:window-maximized="0"
   inkscape:current-layer="svg2" />
<defs
   id="defs4">
</defs>
<g
   id="g6"
   transform="translate(-6.028,-5)">
	<path
   clip-rule="evenodd"
   d="M 19.145,84.457 C 11.82,84.457 5.861,78.496 5.861,71.168 V 19.137 c 0,-7.32 5.959,-13.276 13.284,-13.276 h 51.983 c 7.32,0 13.275,5.956 13.275,13.276 v 52.031 c 0,7.328 -5.955,13.289 -13.275,13.289 H 19.145 z"
   id="path8"
   inkscape:connector-curvature="0"
   style="fill:#e7e2e4;fill-rule:evenodd" />
	<path
   d="m 71.127,11.721 c 4.096,0 7.416,3.323 7.416,7.416 v 52.031 c 0,4.105 -3.32,7.428 -7.416,7.428 H 19.145 c -4.103,0 -7.424,-3.322 -7.424,-7.428 V 19.137 c 0,-4.093 3.321,-7.416 7.424,-7.416 H 71.127 M 71.127,0 H 19.145 C 8.588,0 0,8.585 0,19.137 v 52.031 c 0,10.559 8.588,19.148 19.145,19.148 h 51.983 c 10.551,0 19.137,-8.59 19.137,-19.148 V 19.137 C 90.264,8.585 81.678,0 71.127,0 l 0,0 z"
   id="path10"
   inkscape:connector-curvature="0"
   style="fill:#e7e2e4" />
</g>
<path
   clip-rule="evenodd"
   d="M 13.117,6.939983 H 65.1 c 4.096,0 7.416,3.323 7.416,7.417 v 52.029 c 0,4.105 -3.32,7.43 -7.416,7.43 H 13.117 c -4.103,0 -7.424,-3.324 -7.424,-7.43 v -52.029 c 0,-4.094 3.321,-7.417 7.424,-7.417 z m 31.314,28 c 0,0 0.004,-4.562 0.004,-6.156 0,-5.118 3.902,-8.926 9,-8.926 3.156,0 7.145,0 7.145,0 l 0.031,8.666 c 0,0 -4.383,0 -5.4,0 -1.254,0 -2.131,0.678 -2.131,1.907 0,1.236 0.033,4.498 0.033,4.498 h 7.467 l 0.031,8.754 h -7.502 v 18.328 h -8.641 v -18.378 l -5.379,0.037 v -8.697 l 5.342,-0.033 z"
   id="path12"
   inkscape:connector-curvature="0"
   style="fill:#546390;fill-rule:evenodd" />
<path
   d="m 60.59,37.632 -0.01,-2.924 h -6.807 -0.66 c 0,0 -0.033,-3.261 -0.033,-4.498 0,-1.229 0.877,-1.906 2.131,-1.906 0.832,0 3.916,0 5.012,0 0.24,0 0.389,0 0.389,0 l -0.002,-0.386 -0.029,-8.28 c 0,0 -3.988,0 -7.145,0 -5.098,0 -9,3.809 -9,8.927 0,1.592 -0.004,6.157 -0.004,6.157 l -5.342,0.031 v 8.699 l 5.379,-0.037 v 0.535 9.691 2.697 2.287 3.164 H 53.11 V 50.044 47.759 45.062 43.464 h 1.607 2.717 2.303 0.875 L 60.61,42.597 60.6,40.32 60.59,37.632 z"
   id="path14"
   inkscape:connector-curvature="0"
   style="fill:none" />
<polygon
   points="63.461,48.464 60.745,48.464 59.137,50.062 59.137,52.759 "
   id="polygon16"
   style="fill:none"
   transform="translate(-6.028,-5)" />
<path
   d="m 53.08,30.211 c 0,1.236 0.033,4.498 0.033,4.498 h 0.66 l 6.449,-6.404 c -1.096,0 -4.18,0 -5.012,0 -1.253,0 -2.13,0.677 -2.13,1.906 z"
   id="path18"
   inkscape:connector-curvature="0"
   style="fill:none" />
<polygon
   points="50.497,61.339 50.497,58.642 30.407,78.595 33.123,78.595 "
   id="polygon20"
   style="fill:none"
   transform="translate(-6.028,-5)" />
<path
   d="m 60.609,42.597 0.002,0.867 h -0.875 l -6.627,6.58 V 61.79 H 44.468 V 58.626 L 29.397,73.595 H 65.1 c 4.096,0 7.416,-3.322 7.416,-7.428 V 30.772 L 60.609,42.597 z"
   id="path22"
   inkscape:connector-curvature="0"
   style="fill:none" />
<path
   d="m 44.469,43.416 -5.379,0.037 v -8.699 l 5.342,-0.031 c 0,0 0.004,-4.565 0.004,-6.157 0,-5.118 3.902,-8.927 9,-8.927 3.156,0 7.145,0 7.145,0 l 0.029,8.28 11.906,-11.822 v -1.96 c 0,-4.093 -3.32,-7.416 -7.416,-7.416 H 13.117 c -4.103,0 -7.424,3.323 -7.424,7.416 v 52.031 c 0,4.105 3.321,7.428 7.424,7.428 H 14.62 L 44.469,43.951 v -0.535 z"
   id="path24"
   inkscape:connector-curvature="0"
   style="fill:none" />
<polygon
   points="66.618,42.632 66.627,45.32 78.543,33.486 78.543,30.789 "
   id="polygon26"
   style="fill:none"
   transform="translate(-6.028,-5)" />
<polygon
   points="59.137,48.464 59.137,50.062 60.745,48.464 "
   id="polygon28"
   style="fill:#99a2bd"
   transform="translate(-6.028,-5)" />
<polygon
   points="50.497,58.642 50.497,48.951 20.647,78.595 30.407,78.595 "
   id="polygon30"
   style="fill:#8892b2"
   transform="translate(-6.028,-5)" />
<path
   d="m 60.611,28.305 c 0,0 -0.148,0 -0.389,0 l -6.449,6.404 h 6.807 l 0.01,2.924 11.926,-11.843 v -9.692 l -11.907,11.821 0.002,0.386 z"
   id="path32"
   inkscape:connector-curvature="0"
   style="fill:#8892b2" />
<polygon
   points="66.627,45.32 66.637,47.597 78.543,35.772 78.543,33.486 "
   id="polygon34"
   style="fill:#99a2bd"
   transform="translate(-6.028,-5)" />
<polygon
   points="50.497,63.626 50.497,61.339 33.123,78.595 35.425,78.595 "
   id="polygon36"
   style="fill:#99a2bd"
   transform="translate(-6.028,-5)" />
<polygon
   points="63.461,48.464 59.137,52.759 59.137,55.044 65.764,48.464 "
   id="polygon38"
   style="fill:#99a2bd"
   transform="translate(-6.028,-5)" />
</svg>