<?xml version="1.0" encoding="utf-8"?>
<!-- Generator: Adobe Illustrator 15.0.0, SVG Export Plug-In  -->
<!DOCTYPE svg PUBLIC "-//W3C//DTD SVG 1.1//EN" "http://www.w3.org/Graphics/SVG/1.1/DTD/svg11.dtd" [
	<!ENTITY ns_flows "http://ns.adobe.com/Flows/1.0/">
]>
<svg version="1.1"
	 xmlns="http://www.w3.org/2000/svg" xmlns:xlink="http://www.w3.org/1999/xlink" xmlns:a="http://ns.adobe.com/AdobeSVGViewerExtensions/3.0/"
	 x="0px" y="0px" width="200px" height="200px" viewBox="-55.352 -75.89 200 200"
	 overflow="visible" enable-background="new -55.352 -75.89 200 200" xml:space="preserve">
<defs>
</defs>
<path fill="#5E5B5D" d="M10.128,0c1.671,4.868,3.605,7.334,6.87,10.698c2.143,2.213,3.259,4.979,3.259,7.575
	c0,5.774-4.53,10.453-10.129,10.453C4.534,28.727,0,24.048,0,18.273c0-2.597,1.121-5.362,3.263-7.575
	C6.524,7.334,8.461,4.868,10.128,0"/>
<path fill="#FFFFFF" d="M3.912,18.496c0.044,3.507,2.809,6.331,6.216,6.331c3.41,0,6.174-2.824,6.221-6.331h-6.221l0.001-6.331
	C6.721,12.165,3.957,14.989,3.912,18.496"/>
<path fill="#5E5B5D" d="M38.979,13.634l0.229,0.723l-3.289,0.25l-0.105-0.276c-0.443-1.138-1.688-2.001-3.33-2.045
	c-2.528-0.065-4.408,1.773-4.428,4.996c-0.018,3.394,1.919,5.375,4.361,5.335c1.941-0.046,3.353-1.222,3.713-2.761l0.107-0.422
	h-3.566v-2.615h6.873v0.378c0,5.313-2.994,8.304-7.338,8.241c-3.771-0.063-6.383-2.274-7.162-6.026
	c-0.173-0.845-0.234-1.709-0.173-2.572c0.259-4.468,3.271-7.291,7.335-7.355C35.667,9.42,38.133,11.128,38.979,13.634"/>
<polygon fill="#5E5B5D" points="55.931,12.56 55.931,9.759 66.828,9.759 66.828,12.56 62.91,12.56 62.91,25.12 59.783,25.12 
	59.783,12.56 "/>
<polygon fill="#5E5B5D" points="68.577,25.143 68.577,9.735 78.253,9.735 78.253,12.542 71.784,12.542 71.784,15.975 77.873,15.975 
	77.873,18.735 71.761,18.735 71.761,22.321 78.192,22.321 78.192,25.143 "/>
<path fill="#5E5B5D" d="M82.685,17.323c-0.062,3.183,1.621,5.037,3.878,5.228c2.59,0.192,4.68-1.749,4.68-5.228
	c0-3.011-1.919-5.016-4.301-4.994c-0.548,0-1.095,0.103-1.622,0.336C83.72,13.362,82.731,14.921,82.685,17.323 M79.501,17.05
	c0.232-4.533,3.332-7.462,7.292-7.545c4.325-0.085,7.634,3.183,7.653,7.86c0,4.807-3.328,8.052-7.588,8.052
	C82.559,25.417,79.25,22.025,79.501,17.05"/>
<path fill="#5E5B5D" d="M43.865,17.323c-0.061,3.183,1.623,5.037,3.88,5.228c2.591,0.192,4.677-1.749,4.677-5.228
	c0-3.011-1.917-5.016-4.301-4.994c-0.547,0-1.095,0.103-1.622,0.336C44.896,13.362,43.907,14.921,43.865,17.323 M40.682,17.05
	c0.232-4.533,3.33-7.462,7.294-7.545c4.317-0.085,7.631,3.183,7.648,7.86c0,4.807-3.331,8.052-7.587,8.052
	C43.74,25.417,40.429,22.025,40.682,17.05"/>
<path fill="#5E5B5D" d="M29.314,36.884l1.009-2.873h0.689l-1.418,3.866H29.02l-0.928-2.881l-0.944,2.881h-0.599l-1.347-3.866h0.707
	l0.967,2.873l0.954-2.873h0.574L29.314,36.884z"/>
<path fill="#5E5B5D" d="M35.297,36.884l1.011-2.873h0.689l-1.42,3.866h-0.576l-0.926-2.881l-0.945,2.881h-0.599l-1.346-3.866h0.706
	l0.968,2.873l0.953-2.873h0.575L35.297,36.884z"/>
<path fill="#5E5B5D" d="M41.281,36.884l1.009-2.873h0.689l-1.419,3.866h-0.574l-0.928-2.881l-0.944,2.881h-0.599l-1.347-3.866h0.707
	l0.968,2.873l0.952-2.873h0.575L41.281,36.884z"/>
<path fill="#5E5B5D" d="M44.055,37.877h-0.813v-0.928h0.813V37.877z"/>
<path fill="#5E5B5D" d="M48.675,37.672c0,0.524-0.008,0.724-0.09,1.002c-0.214,0.722-0.771,0.92-1.034,0.993
	c-0.131,0.032-0.353,0.091-0.673,0.091c-0.115,0-0.354-0.008-0.648-0.091c-0.936-0.255-1.067-0.993-1.117-1.347h0.739
	c0,0.091,0,0.32,0.165,0.535c0.278,0.376,0.771,0.368,0.903,0.368c0.089,0,0.664,0.008,0.91-0.394
	c0.156-0.239,0.165-0.518,0.165-1.068l-0.009-0.443C47.544,37.926,47.035,38,46.722,38c-0.394,0-0.689-0.123-0.812-0.196
	c-0.419-0.213-0.977-0.738-0.977-1.84c0-0.18,0.008-0.878,0.402-1.402c0.329-0.428,0.863-0.674,1.396-0.674
	c0.098,0,0.295,0.008,0.525,0.099c0.173,0.058,0.45,0.215,0.739,0.55v-0.525h0.68V37.672z M46.279,34.595
	c-0.312,0.154-0.673,0.558-0.673,1.354c0,0.444,0.107,0.936,0.485,1.23c0.213,0.165,0.468,0.23,0.737,0.23
	c0.395,0,0.616-0.146,0.739-0.254c0.238-0.213,0.452-0.576,0.452-1.266c0-0.072,0-0.352-0.082-0.59
	c-0.164-0.525-0.624-0.821-1.158-0.821C46.607,34.486,46.427,34.521,46.279,34.595z"/>
<path fill="#5E5B5D" d="M52.878,37.353C52.666,37.606,52.247,38,51.442,38c-0.23,0-0.87-0.024-1.339-0.51
	c-0.246-0.245-0.565-0.714-0.565-1.526c0-0.499,0.131-1,0.443-1.402c0.377-0.484,0.878-0.674,1.485-0.674
	c0.263,0,0.542,0.05,0.772,0.147c0.451,0.189,1.108,0.739,1.091,1.913C53.33,36.161,53.304,36.817,52.878,37.353z M52.427,34.955
	c-0.058-0.106-0.148-0.222-0.239-0.295c-0.277-0.239-0.583-0.247-0.705-0.247c-1.24,0-1.23,1.355-1.23,1.576
	c0,0.19,0.024,0.338,0.032,0.395c0.04,0.28,0.238,1.091,1.157,1.091c0.181-0.008,0.624-0.041,0.92-0.484
	c0.246-0.37,0.254-0.968,0.263-1.05C52.625,35.834,52.632,35.334,52.427,34.955z"/>
<path fill="#5E5B5D" d="M55.784,34.011v0.542h-0.698v2.216c-0.008,0.271-0.016,0.428,0.05,0.543c0.049,0.09,0.131,0.114,0.238,0.114
	c0.073,0,0.229-0.024,0.41-0.091v0.542c-0.05,0.009-0.37,0.065-0.623,0.065c-0.37,0-0.559-0.091-0.658-0.238
	c-0.098-0.147-0.098-0.303-0.091-0.639v-2.513h-0.623v-0.542h0.623v-1.224h0.674v1.224H55.784z"/>
<path fill="#5E5B5D" d="M57.08,36.063c-0.008,0.688,0.321,1.083,0.559,1.248c0.197,0.13,0.451,0.195,0.697,0.195
	c0.354,0,0.533-0.131,0.649-0.237c0.04-0.033,0.139-0.132,0.213-0.253c0.099-0.174,0.14-0.363,0.156-0.412l0.665,0.09
	c-0.033,0.082-0.106,0.314-0.255,0.542C59.568,37.532,59.14,38,58.271,38c-0.402,0-0.665-0.09-0.813-0.156
	c-0.476-0.206-1.084-0.73-1.084-1.937c0-0.715,0.238-1.116,0.436-1.354c0.353-0.427,0.886-0.665,1.437-0.665
	c0.196,0,0.427,0.041,0.607,0.106c0.238,0.083,0.715,0.312,0.977,0.921c0.107,0.254,0.189,0.557,0.189,1.141L57.08,36.063z
	 M59.304,35.588c-0.016-0.197-0.033-0.288-0.058-0.379c-0.131-0.476-0.541-0.812-1.05-0.812c-0.697,0-1.042,0.575-1.1,1.191H59.304z
	"/>
<path fill="#5E5B5D" d="M64,37.353C63.787,37.606,63.367,38,62.564,38c-0.23,0-0.87-0.024-1.339-0.51
	c-0.246-0.245-0.566-0.714-0.566-1.526c0-0.499,0.132-1,0.443-1.402c0.378-0.484,0.878-0.674,1.486-0.674
	c0.263,0,0.542,0.05,0.771,0.147c0.452,0.189,1.109,0.739,1.092,1.913C64.451,36.161,64.427,36.817,64,37.353z M63.547,34.955
	c-0.057-0.106-0.147-0.222-0.238-0.295c-0.277-0.239-0.581-0.247-0.704-0.247c-1.241,0-1.231,1.355-1.231,1.576
	c0,0.19,0.024,0.338,0.032,0.395c0.041,0.28,0.238,1.091,1.158,1.091c0.18-0.008,0.623-0.041,0.918-0.484
	c0.246-0.37,0.255-0.968,0.263-1.05C63.745,35.834,63.753,35.334,63.547,34.955z"/>
<path fill="#5E5B5D" d="M66.289,37.877h-0.812v-0.928h0.812V37.877z"/>
<path fill="#5E5B5D" d="M70.5,37.353C70.287,37.606,69.868,38,69.063,38c-0.229,0-0.87-0.024-1.339-0.51
	c-0.244-0.245-0.565-0.714-0.565-1.526c0-0.499,0.132-1,0.444-1.402c0.376-0.484,0.877-0.674,1.484-0.674
	c0.263,0,0.543,0.05,0.772,0.147c0.451,0.189,1.107,0.739,1.091,1.913C70.951,36.161,70.926,36.817,70.5,37.353z M70.048,34.955
	c-0.058-0.106-0.147-0.222-0.238-0.295c-0.279-0.239-0.582-0.247-0.706-0.247c-1.239,0-1.231,1.355-1.231,1.576
	c0,0.19,0.024,0.338,0.032,0.395c0.042,0.28,0.238,1.091,1.158,1.091c0.181-0.008,0.623-0.041,0.92-0.484
	c0.246-0.37,0.254-0.968,0.263-1.05C70.246,35.834,70.253,35.334,70.048,34.955z"/>
<path fill="#5E5B5D" d="M72.469,34.718c0.089-0.173,0.204-0.33,0.36-0.444c0.156-0.132,0.46-0.312,0.961-0.312v0.707
	c-0.238-0.032-0.369-0.025-0.484,0c-0.386,0.065-0.681,0.328-0.779,0.706c-0.058,0.195-0.065,0.336-0.058,0.715v1.788h-0.657v-3.866
	h0.657V34.718z"/>
<path fill="#5E5B5D" d="M77.927,37.672c0,0.524-0.007,0.724-0.089,1.002c-0.215,0.722-0.772,0.92-1.035,0.993
	c-0.132,0.032-0.354,0.091-0.673,0.091c-0.115,0-0.354-0.008-0.649-0.091c-0.935-0.255-1.066-0.993-1.115-1.347h0.738
	c0,0.091,0,0.32,0.165,0.535c0.278,0.376,0.771,0.368,0.902,0.368c0.09,0,0.665,0.008,0.911-0.394
	c0.156-0.239,0.164-0.518,0.164-1.068l-0.008-0.443C76.795,37.926,76.287,38,75.974,38c-0.394,0-0.69-0.123-0.812-0.196
	c-0.419-0.213-0.978-0.738-0.978-1.84c0-0.18,0.009-0.878,0.402-1.402c0.329-0.428,0.862-0.674,1.396-0.674
	c0.098,0,0.295,0.008,0.524,0.099c0.173,0.058,0.452,0.215,0.739,0.55v-0.525h0.681V37.672z M75.531,34.595
	c-0.312,0.154-0.673,0.558-0.673,1.354c0,0.444,0.106,0.936,0.483,1.23c0.215,0.165,0.469,0.23,0.739,0.23
	c0.395,0,0.616-0.146,0.739-0.254c0.237-0.213,0.452-0.576,0.452-1.266c0-0.072,0-0.352-0.082-0.59
	c-0.165-0.525-0.625-0.821-1.158-0.821C75.859,34.486,75.678,34.521,75.531,34.595z"/>
</svg>
