<?xml version="1.0" encoding="utf-8"?>
<!-- Generator: Adobe Illustrator 15.0.0, SVG Export Plug-In  -->
<!DOCTYPE svg PUBLIC "-//W3C//DTD SVG 1.1//EN" "http://www.w3.org/Graphics/SVG/1.1/DTD/svg11.dtd" [
	<!ENTITY ns_flows "http://ns.adobe.com/Flows/1.0/">
]>
<svg version="1.1"
	 xmlns="http://www.w3.org/2000/svg" xmlns:xlink="http://www.w3.org/1999/xlink" xmlns:a="http://ns.adobe.com/AdobeSVGViewerExtensions/3.0/"
	 x="0px" y="0px" width="100px" height="100px" viewBox="-5.655 -2.721 100 100"
	 overflow="visible" enable-background="new -5.655 -2.721 100 100" xml:space="preserve">
<defs>
</defs>
<g>
	<path fill-rule="evenodd" clip-rule="evenodd" fill="#E7E2E4" d="M19.322,86.083c-7.422,0-13.461-6.039-13.461-13.462V19.322
		c0-7.422,6.039-13.461,13.461-13.461h53.235c7.426,0,13.467,6.039,13.467,13.461v53.299c0,7.423-6.041,13.462-13.467,13.462H19.322
		z"/>
	<path fill="#E7E2E4" d="M72.557,11.721c4.202,0,7.606,3.403,7.606,7.601v53.299c0,4.198-3.404,7.602-7.606,7.602H19.322
		c-4.198,0-7.601-3.403-7.601-7.602V19.322c0-4.197,3.403-7.601,7.601-7.601H72.557 M72.557,0H19.322C8.668,0,0,8.668,0,19.322
		v53.299c0,10.654,8.668,19.322,19.322,19.322h53.235c10.657,0,19.327-8.668,19.327-19.322V19.322C91.884,8.668,83.214,0,72.557,0
		L72.557,0z"/>
</g>
<path fill-rule="evenodd" clip-rule="evenodd" fill="#9FCDEC" d="M72.557,80.223H19.322c-4.198,0-7.601-3.403-7.601-7.602V19.322
	c0-4.197,3.403-7.601,7.601-7.601h53.235c4.202,0,7.606,3.403,7.606,7.601v53.299C80.164,76.819,76.759,80.223,72.557,80.223z
	 M55.218,46.076c2.77,0,5.015-2.216,5.015-5.009c0-2.789-2.245-5.055-5.015-5.055c-4.744,0-13.633-0.017-13.633-0.017
	s0.025-1.656,0.025-3.838c-0.025-2.771-2.245-5.008-5-5.008c-2.76,0-5.005,2.266-5.005,5.054c0,14.413-0.007,18.786-0.007,18.786
	c0.015,7.58,6.095,13.713,13.6,13.713c6.848,0,4.759-0.024,10.021-0.024c2.77,0,5.015-2.217,5.015-5.009
	c0-2.793-2.245-4.922-5.015-4.922c-1.129,0-5.451,0.029-8.6-0.012c-2.784,0-5-2.275-5.012-5.084
	c0.054-2.216-0.021-3.571-0.021-3.571S49.453,46.076,55.218,46.076z"/>
<path fill="none" d="M57.973,55.539c-0.602-0.382-1.295-0.637-2.039-0.737c-0.234-0.032-0.472-0.055-0.716-0.055
	c-1.129,0-5.451,0.029-8.6-0.012c-0.196,0-0.389-0.015-0.578-0.037c-2.506-0.29-4.423-2.436-4.434-5.047
	c0.054-2.216-0.021-3.571-0.021-3.571s7.427-0.004,13.137-0.004c0.167,0,0.333,0,0.496,0c2.77,0,5.015-2.216,5.015-5.009
	c0-0.149-0.01-0.296-0.022-0.442c-0.223-2.582-2.372-4.613-4.992-4.613c-4.744,0-13.633-0.017-13.633-0.017s0.025-1.656,0.025-3.838
	c-0.025-2.771-2.245-5.008-5-5.008c-2.76,0-5.005,2.266-5.005,5.054c0,14.413-0.007,18.786-0.007,18.786
	c0.009,4.926,2.582,9.238,6.441,11.656c2.08,1.302,4.531,2.057,7.159,2.057c0.271,0,0.523,0,0.768,0
	c1.204,0,2.093-0.001,2.784-0.003c1.135-0.003,1.749-0.008,2.37-0.012c0.868-0.005,1.753-0.01,4.099-0.01
	c2.77,0,5.015-2.217,5.015-5.009c0-1.151-0.387-2.187-1.029-3.01C58.86,56.22,58.447,55.841,57.973,55.539z"/>
<path fill="none" d="M59.204,56.659c0.643,0.823,1.029,1.858,1.029,3.01c0,2.792-2.245,5.009-5.015,5.009
	c-2.346,0-3.23,0.005-4.099,0.01L35.478,80.223h37.079c4.202,0,7.606-3.403,7.606-7.602V35.842L59.204,56.659z"/>
<path fill="none" d="M41.606,49.651c0.011,2.611,1.928,4.757,4.434,5.047l8.682-8.622c-5.71,0-13.137,0.004-13.137,0.004
	S41.661,47.435,41.606,49.651z"/>
<path fill="none" d="M45.965,64.702L30.338,80.223h2.782L48.75,64.699C48.058,64.701,47.169,64.702,45.965,64.702z"/>
<path fill="none" d="M57.973,55.539l22.19-22.04v-2.763L55.934,54.802C56.678,54.902,57.372,55.157,57.973,55.539z"/>
<path fill="none" d="M31.598,50.989c0,0,0.007-4.373,0.007-18.786c0-2.789,2.245-5.054,5.005-5.054c2.754,0,4.975,2.236,5,5.008
	c0,2.183-0.025,3.838-0.025,3.838s8.889,0.017,13.633,0.017c2.62,0,4.77,2.031,4.992,4.613l19.953-19.817v-1.486
	c0-4.197-3.404-7.601-7.606-7.601H19.322c-4.198,0-7.601,3.403-7.601,7.601v53.299c0,4.198,3.403,7.602,7.601,7.602h1.02
	l17.698-17.577C34.18,60.228,31.607,55.915,31.598,50.989z"/>
<path fill="#C5E1F4" d="M45.198,64.702c-2.627,0-5.079-0.755-7.159-2.057L20.341,80.223h9.997l15.627-15.521
	C45.721,64.702,45.468,64.702,45.198,64.702z"/>
<path fill="#C5E1F4" d="M60.233,41.067c0,2.793-2.245,5.009-5.015,5.009c-0.163,0-0.329,0-0.496,0l-8.682,8.622
	c0.189,0.022,0.382,0.037,0.578,0.037c3.148,0.041,7.471,0.012,8.6,0.012c0.244,0,0.481,0.022,0.716,0.055l24.229-24.065v-9.929
	L60.21,40.625C60.223,40.771,60.233,40.918,60.233,41.067z"/>
<path fill="#D9EBF7" d="M59.204,56.659l20.96-20.817V33.5l-22.19,22.04C58.447,55.841,58.86,56.22,59.204,56.659z"/>
<path fill="#D9EBF7" d="M48.75,64.699L33.12,80.223h2.358L51.12,64.688C50.499,64.691,49.884,64.696,48.75,64.699z"/>
</svg>
