<?xml version="1.0" encoding="UTF-8"?>
<svg width="36px" height="36px" viewBox="0 0 36 36" version="1.1" xmlns="http://www.w3.org/2000/svg" xmlns:xlink="http://www.w3.org/1999/xlink">
    <!-- Generator: Sketch 46.2 (44496) - http://www.bohemiancoding.com/sketch -->
    <title>canales icon</title>
    <desc>Created with Sketch.</desc>
    <defs></defs>
    <g id="HOME" stroke="none" stroke-width="1" fill="none" fill-rule="evenodd">
        <g id="Desktop-(ventajas-donante)" transform="translate(-632.000000, -4637.000000)" fill="#2E2C2D">
            <g id="Canal" transform="translate(165.000000, 4637.000000)">
                <g id="Group-23" transform="translate(467.000000, 0.000000)">
                    <path d="M26.4897993,10.3581863 C26.8228011,10.5963883 27.1966031,10.7787898 27.5998053,10.8939908 L27.5998053,15.3514279 L24.548189,12.2998025 L26.4897993,10.3581863 Z M25.106192,8.39977 C25.2213926,8.80297336 25.4037936,9.17677647 25.6413948,9.50977925 L23.6997845,11.4513954 L20.6481682,8.39977 L25.106192,8.39977 Z M35.8240491,23.5756965 L28.7998116,16.5514379 L28.7998116,11.0241919 C30.7018218,10.9137909 32.2168298,9.31297761 32.2168298,7.3563613 C32.2168298,5.3523446 30.6244214,3.78273152 28.5910105,3.78273152 C26.6620003,3.78273152 25.0845919,5.29774415 24.9759913,7.19976 L19.4481618,7.19976 L12.4239244,0.175501463 C12.1899232,-0.0585004875 11.8101211,-0.0585004875 11.5755199,0.175501463 C5.402087,6.3483529 4.89028427,16.0594338 10.0431117,22.7806898 L0.13345893,35.0225919 C-0.0117418431,35.2025934 -0.0411419997,35.4497954 0.0584585309,35.6585972 C0.157459058,35.8673989 0.368660183,36 0.599661414,36 L21.5997733,36 C21.8343745,36 22.0467757,35.8637989 22.1451762,35.6507971 C22.2429767,35.4377953 22.2075765,35.1875932 22.0551757,35.0093917 L15.6387415,27.5237294 C18.0729545,28.8149401 20.796969,29.5013458 23.6229841,29.5013458 L23.6229841,29.5013458 C28.2172085,29.5013458 32.5504316,27.6977308 35.8240491,24.4241035 C36.0586503,24.1901016 36.0586503,23.8102984 35.8240491,23.5756965 L35.8240491,23.5756965 Z" id="canales-icon"></path>
                </g>
            </g>
        </g>
    </g>
</svg>