<?xml version="1.0" encoding="utf-8"?>
<svg version="1.1" id="Layer_1" xmlns="http://www.w3.org/2000/svg" xmlns:xlink="http://www.w3.org/1999/xlink" x="0px" y="0px"
	 viewBox="0 0 105.5 45" style="enable-background:new 0 0 105.5 45;" xml:space="preserve">
<style type="text/css">
	.st0{fill:#62AE56;}
	.st1{clip-path:url(#SVGID_2_);fill:#FBB80B;}
	.st2{opacity:0.5;clip-path:url(#SVGID_2_);}
	.st3{fill:#FFFFFF;}
	.st4{fill:#265688;}
	.st5{clip-path:url(#SVGID_4_);fill:#F59D10;}
	.st6{opacity:0.5;clip-path:url(#SVGID_4_);}
	.st7{fill:#D83737;}
	.st8{opacity:0.9;clip-path:url(#SVGID_6_);fill:#83253A;}
	.st9{opacity:0.5;clip-path:url(#SVGID_6_);}
	.st10{fill:none;}
	.st11{font-family:'Roboto-Bold';}
	.st12{font-size:24px;}
</style>
<path class="st7" d="M93.5,45H12C5.4,45,0,39.6,0,33V12C0,5.4,5.4,0,12,0h81.5c6.6,0,12,5.4,12,12v21C105.5,39.6,100.1,45,93.5,45z"
	/>
<g>
	<defs>
		<path id="SVGID_5_" d="M93.5,45H12C5.4,45,0,39.6,0,33V12C0,5.4,5.4,0,12,0h81.5c6.6,0,12,5.4,12,12v21
			C105.5,39.6,100.1,45,93.5,45z"/>
	</defs>
	<clipPath id="SVGID_2_">
		<use xlink:href="#SVGID_5_"  style="overflow:visible;"/>
	</clipPath>
	<path style="opacity:0.9;clip-path:url(#SVGID_2_);fill:#83253A;" d="M118.4,6.8c-0.1,3.4-0.4,6.8-1,10.1
		c-5.5,30.4-32.1,53.5-64.1,53.5c-26.7,0-49.6-16-59.7-39c-2.4-5.4-4-11.1-4.8-17.2c6.8,11.5,38.4,26.6,54,23.9
		C72.6,32.8,96.7-7.7,118.4,6.8z"/>
	<g class="st2">
		<path class="st3" d="M117.4,16.9c-5.5,30.4-32.1,53.5-64.1,53.5c-26.7,0-49.6-16-59.7-39c13.6-10,26-13.9,53.5-0.2
			C72.7,43.9,106.4,28.7,117.4,16.9z"/>
	</g>
</g>
<g>
	<path class="st3" d="M36.8,29.2c-0.2-0.1-0.5,0.1-0.5,0.3c-0.5,2.1-1.4,4.1-2.5,5.7c-0.1,0.2-0.1,0.5,0.1,0.6
		c0.1,0.1,0.2,0.1,0.3,0.1c0.1,0,0.3-0.1,0.4-0.2c1.2-1.7,2.1-3.7,2.6-6C37.2,29.5,37.1,29.2,36.8,29.2z"/>
	<path class="st3" d="M36.5,17.4c-0.1-0.2-0.3-0.3-0.6-0.3c-0.2,0.1-0.3,0.3-0.3,0.6c0.8,2.2,1.2,4.5,1.2,7c0,1.1-0.1,2.1-0.2,3.1
		c0,0.2,0.1,0.5,0.4,0.5c0,0,0,0,0.1,0c0.2,0,0.4-0.2,0.4-0.4c0.2-1.1,0.2-2.2,0.2-3.3C37.8,22.1,37.3,19.6,36.5,17.4z"/>
	<path class="st3" d="M23.8,9.4c0.5-0.1,1.1-0.2,1.7-0.2c3.8,0,7.3,2.5,9.4,6.7c0.1,0.2,0.2,0.2,0.4,0.2c0.1,0,0.1,0,0.2,0
		c0.2-0.1,0.3-0.4,0.2-0.6c-2.3-4.5-6.1-7.2-10.2-7.2c-0.6,0-1.2,0.1-1.8,0.2c-0.2,0-0.4,0.3-0.4,0.5C23.3,9.3,23.6,9.5,23.8,9.4z"
		/>
	<path class="st3" d="M22,10c0.2-0.1,0.3-0.4,0.2-0.6c-0.1-0.2-0.4-0.3-0.6-0.2c-3.5,1.5-6.4,5.1-7.7,9.7c-0.1,0.2,0.1,0.5,0.3,0.6
		c0,0,0.1,0,0.1,0c0.2,0,0.4-0.1,0.4-0.3C16.1,14.8,18.8,11.4,22,10z"/>
	<path class="st3" d="M14.1,24.7c0-1.3,0.1-2.6,0.4-3.8c0-0.2-0.1-0.5-0.4-0.5c-0.2,0-0.5,0.1-0.5,0.4c-0.2,1.3-0.4,2.6-0.4,4
		c0,1.9,0.2,3.7,0.7,5.5c0.1,0.2,0.2,0.3,0.4,0.3c0,0,0.1,0,0.1,0c0.2-0.1,0.4-0.3,0.3-0.5C14.3,28.2,14.1,26.5,14.1,24.7z"/>
	<path class="st3" d="M34.1,32.1c-0.2-0.1-0.5,0-0.6,0.2c-0.4,0.7-0.8,1.4-1.2,2.1c-0.1,0.2-0.1,0.5,0.1,0.6
		c0.1,0.1,0.2,0.1,0.3,0.1c0.1,0,0.3-0.1,0.4-0.2c0.5-0.7,0.9-1.4,1.3-2.2C34.4,32.4,34.3,32.2,34.1,32.1z"/>
	<path class="st3" d="M34.6,30.8c0,0,0.1,0,0.1,0c0.2,0,0.4-0.1,0.4-0.3c0.5-1.6,0.8-3.4,0.9-5.1c0-0.2-0.2-0.5-0.4-0.5
		c-0.2,0-0.5,0.2-0.5,0.4c-0.1,1.7-0.4,3.4-0.9,4.9C34.2,30.5,34.3,30.8,34.6,30.8z"/>
	<path class="st3" d="M32.1,14.2c-0.2,0.2-0.2,0.4-0.1,0.6c1.7,2.2,2.8,5.2,3,8.4c0,0.2,0.2,0.4,0.4,0.4c0,0,0,0,0,0
		c0.2,0,0.4-0.2,0.4-0.5c-0.3-3.4-1.4-6.5-3.2-8.9C32.6,14.1,32.3,14,32.1,14.2z"/>
	<path class="st3" d="M25.5,10.3c-1.7,0-3.2,0.5-4.7,1.5c-0.2,0.1-0.3,0.4-0.1,0.6c0.1,0.2,0.4,0.3,0.6,0.1c1.3-0.9,2.7-1.4,4.2-1.4
		c2,0,3.9,0.8,5.5,2.4c0.1,0.1,0.2,0.1,0.3,0.1c0.1,0,0.2,0,0.3-0.1c0.2-0.2,0.2-0.5,0-0.6C29.8,11.2,27.7,10.3,25.5,10.3z"/>
	<path class="st3" d="M19.8,13.1c-0.2-0.2-0.5-0.2-0.6,0c-2,2-3.4,4.9-4,8.2c0,0.2,0.1,0.5,0.4,0.5c0,0,0.1,0,0.1,0
		c0.2,0,0.4-0.2,0.4-0.4c0.5-3.1,1.9-5.8,3.8-7.7C20,13.6,20,13.3,19.8,13.1z"/>
	<path class="st3" d="M17.2,31.8c-0.9-2.1-1.4-4.6-1.4-7.1c0-0.6,0-1.2,0.1-1.7c0-0.2-0.2-0.5-0.4-0.5c-0.2,0-0.5,0.2-0.5,0.4
		c-0.1,0.6-0.1,1.2-0.1,1.8c0,2.6,0.5,5.2,1.5,7.4c0.1,0.2,0.2,0.3,0.4,0.3c0.1,0,0.1,0,0.2,0C17.2,32.2,17.3,32,17.2,31.8z"/>
	<path class="st3" d="M18,33.2c-0.1-0.2-0.4-0.3-0.6-0.2c-0.2,0.1-0.3,0.4-0.2,0.6c0.3,0.5,0.6,1,0.9,1.4c0.1,0.1,0.2,0.2,0.4,0.2
		c0.1,0,0.2,0,0.3-0.1c0.2-0.1,0.2-0.4,0.1-0.6C18.5,34.1,18.2,33.6,18,33.2z"/>
	<path class="st3" d="M30.9,33.8c0.1,0.1,0.2,0.1,0.3,0.1c0.1,0,0.3-0.1,0.4-0.2c0.5-0.7,1-1.5,1.4-2.3c0.1-0.2,0-0.5-0.2-0.6
		c-0.2-0.1-0.5,0-0.6,0.2c-0.4,0.8-0.8,1.5-1.3,2.1C30.7,33.4,30.7,33.7,30.9,33.8z"/>
	<path class="st3" d="M33.2,29.6c0.2,0,0.4-0.1,0.4-0.3c0.4-1.5,0.6-3,0.6-4.6c0-0.9-0.1-1.9-0.2-2.8c0-0.2-0.3-0.4-0.5-0.4
		c-0.2,0-0.4,0.3-0.4,0.5c0.1,0.9,0.2,1.8,0.2,2.6c0,1.5-0.2,3-0.6,4.4c-0.1,0.2,0.1,0.5,0.3,0.6C33.2,29.6,33.2,29.6,33.2,29.6z"/>
	<path class="st3" d="M33,19.4c0.2-0.1,0.3-0.3,0.3-0.6c-1.5-4.1-4.5-6.6-7.8-6.6c-0.4,0-0.7,0-1.1,0.1c-0.2,0-0.4,0.3-0.4,0.5
		c0,0.2,0.3,0.4,0.5,0.4c0.3-0.1,0.6-0.1,0.9-0.1c2.9,0,5.6,2.3,7,6c0.1,0.2,0.2,0.3,0.4,0.3C32.9,19.4,33,19.4,33,19.4z"/>
	<path class="st3" d="M20.3,15.2c-0.2-0.2-0.5-0.1-0.6,0.1c-2,2.4-3.1,5.8-3.1,9.5c0,0.6,0,1.3,0.1,1.9c0,0.2,0.2,0.4,0.4,0.4
		c0,0,0,0,0,0c0.2,0,0.4-0.2,0.4-0.5c-0.1-0.6-0.1-1.2-0.1-1.8c0-3.4,1.1-6.7,2.9-8.9C20.6,15.6,20.5,15.3,20.3,15.2z"/>
	<path class="st3" d="M29.6,32.6c0.1,0.1,0.2,0.1,0.3,0.1c0.1,0,0.3-0.1,0.4-0.2c0.2-0.3,0.5-0.7,0.7-1c0.1-0.2,0-0.5-0.2-0.6
		c-0.2-0.1-0.5,0-0.6,0.2c-0.2,0.3-0.4,0.6-0.6,0.9C29.4,32.2,29.4,32.5,29.6,32.6z"/>
	<path class="st3" d="M32,26.9C32,26.9,32,26.9,32,26.9c0.3,0,0.5-0.2,0.5-0.4c0.1-0.6,0.1-1.2,0.1-1.9c0-2.3-0.5-4.4-1.4-6.3
		c-0.1-0.2-0.4-0.3-0.6-0.2c-0.2,0.1-0.3,0.4-0.2,0.6c0.8,1.7,1.3,3.7,1.3,5.9c0,0.6,0,1.2-0.1,1.8C31.6,26.7,31.7,26.9,32,26.9z"/>
	<path class="st3" d="M19.5,20.3c0.1,0,0.1,0,0.2,0c0.2,0,0.4-0.1,0.4-0.3c1.1-3.1,3.2-5,5.4-5c1.1,0,2.2,0.5,3.2,1.4
		c0.2,0.2,0.5,0.2,0.6,0c0.2-0.2,0.2-0.5,0-0.6c-1.1-1-2.4-1.6-3.8-1.6c-2.6,0-5,2.1-6.3,5.6C19.1,20,19.2,20.2,19.5,20.3z"/>
	<path class="st3" d="M24,34.2c-2.3-1.2-4.8-5.1-4.8-9.6c0-0.4,0-0.8,0-1.2c0-0.2-0.2-0.5-0.4-0.5c-0.2,0-0.5,0.2-0.5,0.4
		c0,0.4-0.1,0.9-0.1,1.3c0,4.3,2.3,8.9,5.3,10.4c0.1,0,0.1,0,0.2,0c0.2,0,0.3-0.1,0.4-0.2C24.3,34.6,24.2,34.4,24,34.2z"/>
	<path class="st3" d="M28.4,31.3c0.1,0.1,0.2,0.1,0.3,0.1c0.1,0,0.3-0.1,0.4-0.2c1.2-1.6,1.8-4,1.8-6.5c0-1-0.1-1.9-0.3-2.8
		c-0.1-0.2-0.3-0.4-0.5-0.3c-0.2,0.1-0.4,0.3-0.3,0.5c0.2,0.8,0.3,1.7,0.3,2.6c0,2.3-0.6,4.5-1.7,6C28.1,30.9,28.2,31.1,28.4,31.3z"
		/>
	<path class="st3" d="M25.5,17c1.3,0,2.6,1,3.5,2.9c0.1,0.2,0.4,0.3,0.6,0.2c0.2-0.1,0.3-0.4,0.2-0.6c-1-2.1-2.6-3.4-4.3-3.4
		c-2.4,0-4.4,2.4-5.1,6c0,0.2,0.1,0.5,0.4,0.5c0,0,0.1,0,0.1,0c0.2,0,0.4-0.1,0.4-0.4C21.8,19.1,23.6,17,25.5,17z"/>
	<path class="st3" d="M21.3,29.6c0.1,0,0.1,0,0.2,0c0.2-0.1,0.3-0.4,0.2-0.6c-0.5-1.3-0.8-2.8-0.8-4.3c0-0.2-0.2-0.4-0.4-0.4
		c-0.2,0-0.4,0.2-0.4,0.4c0,1.7,0.3,3.3,0.9,4.7C21,29.5,21.2,29.6,21.3,29.6z"/>
	<path class="st3" d="M27.2,30c0.1,0.1,0.2,0.1,0.2,0.1c0.1,0,0.3-0.1,0.4-0.2c0.8-1.3,1.3-3.1,1.3-5.2c0-0.2-0.2-0.4-0.4-0.4
		c-0.2,0-0.4,0.2-0.4,0.4c0,1.8-0.4,3.6-1.2,4.7C26.9,29.6,27,29.8,27.2,30z"/>
	<path class="st3" d="M25.5,18.9c1.1,0,2.2,1.6,2.6,3.9c0,0.2,0.2,0.4,0.4,0.4c0,0,0.1,0,0.1,0c0.2,0,0.4-0.3,0.4-0.5
		c-0.5-2.8-1.9-4.6-3.5-4.6c-1.5,0-2.7,1.5-3.3,3.9c-0.1,0.2,0.1,0.5,0.3,0.5c0.2,0.1,0.5-0.1,0.5-0.3
		C23.5,20.1,24.5,18.9,25.5,18.9z"/>
	<path class="st3" d="M29.6,37.5c-2.4-1.8-4.1-3.7-5.2-5.9c-0.1-0.2-0.4-0.3-0.6-0.2c-0.2,0.1-0.3,0.4-0.2,0.6
		c1.2,2.3,3,4.3,5.5,6.2c0.1,0.1,0.2,0.1,0.3,0.1c0.1,0,0.3-0.1,0.4-0.2C29.9,37.9,29.8,37.7,29.6,37.5z"/>
	<path class="st3" d="M23.2,30.5c0.1,0,0.1,0,0.2,0c0.2-0.1,0.4-0.3,0.3-0.6c-0.6-1.6-0.9-3.3-0.9-5.2c0-0.2-0.2-0.4-0.4-0.4
		c0,0,0,0,0,0c-0.2,0-0.4,0.2-0.4,0.4c0,1.9,0.3,3.8,0.9,5.5C22.8,30.3,23,30.5,23.2,30.5z"/>
	<path class="st3" d="M32.6,36.9c-4.1-2.2-6.1-5.3-7.1-7.4c-0.9-2-1.1-3.6-1.1-4.1c0-0.2,0-0.5,0-0.7c0-2.5,0.7-3.9,1-3.9
		c0.3,0,1,1.3,1,3.9c0,0.3,0,0.5,0,0.8c0,0.2-0.1,0.2-0.2,0.2c-0.1,0-0.2,0-0.2-0.1c-0.1-0.2-0.1-0.4-0.2-0.6c0-0.2-0.3-0.4-0.5-0.4
		c-0.2,0-0.4,0.3-0.4,0.5c0.1,0.3,0.1,0.5,0.2,0.8c0.2,0.5,0.7,0.8,1.2,0.7c0.5-0.1,0.9-0.5,0.9-1c0-0.3,0-0.6,0-0.9
		c0-2.4-0.7-4.8-1.9-4.8c-1.3,0-1.9,2.4-1.9,4.8c0,0.2,0,0.4,0,0.6c0,0,0,0,0,0c0,0,0,0.1,0,0.2c0,0.3,0.1,0.7,0.1,1
		c0,0.1,0,0.1,0.1,0.2c0.2,0.8,0.4,1.9,1,3.1c1,2.3,3.1,5.5,7.5,7.9c0.1,0,0.1,0.1,0.2,0.1c0.2,0,0.3-0.1,0.4-0.2
		C32.9,37.3,32.8,37,32.6,36.9z"/>
	<path class="st3" d="M23.6,36.4c-4.3-2.8-5.6-7.9-5.6-8c-0.1-0.2-0.3-0.4-0.5-0.3c-0.2,0.1-0.4,0.3-0.3,0.5c0.1,0.2,1.4,5.6,6,8.5
		c0.1,0,0.2,0.1,0.2,0.1c0.1,0,0.3-0.1,0.4-0.2C23.8,36.8,23.8,36.6,23.6,36.4z"/>
</g>
<rect x="47.6" y="12.6" class="st10" width="50" height="23.3"/>
<text transform="matrix(1 0 0 1 47.6193 30.5654)" class="st3 st11 st12">Soc</text>
</svg>
