<?xml version="1.0" encoding="utf-8"?>
<!-- Generator: Adobe Illustrator 15.0.0, SVG Export Plug-In . SVG Version: 6.00 Build 0)  -->
<!DOCTYPE svg PUBLIC "-//W3C//DTD SVG 1.1//EN" "http://www.w3.org/Graphics/SVG/1.1/DTD/svg11.dtd">
<svg version="1.1" id="Layer_1" xmlns="http://www.w3.org/2000/svg" xmlns:xlink="http://www.w3.org/1999/xlink" x="0px" y="0px"
	 width="15px" height="15.011px" viewBox="0 0 15 15.011" enable-background="new 0 0 15 15.011" xml:space="preserve">
<g>
	<path fill="#58595B" d="M1.667,0h11.667C14.254,0,15,0.747,15,1.666v11.679c0,0.919-0.746,1.666-1.666,1.666H1.667
		C0.746,15.011,0,14.264,0,13.345V1.666C0,0.747,0.746,0,1.667,0z"/>
	<g>
		<rect x="8.646" y="5.585" fill="#FFFFFF" width="1.056" height="1.055"/>
		<rect x="6.967" y="5.585" fill="#FFFFFF" width="1.055" height="1.055"/>
		<rect x="10.327" y="5.585" fill="#FFFFFF" width="1.055" height="1.055"/>
		<rect x="3.627" y="7.167" fill="#FFFFFF" width="1.055" height="1.055"/>
		<rect x="5.288" y="7.167" fill="#FFFFFF" width="1.055" height="1.055"/>
		<rect x="6.967" y="7.167" fill="#FFFFFF" width="1.055" height="1.055"/>
		<rect x="8.646" y="7.167" fill="#FFFFFF" width="1.056" height="1.055"/>
		<rect x="10.327" y="7.167" fill="#FFFFFF" width="1.055" height="1.055"/>
		<rect x="3.627" y="8.75" fill="#FFFFFF" width="1.055" height="1.055"/>
		<rect x="5.288" y="8.75" fill="#FFFFFF" width="1.055" height="1.055"/>
		<rect x="6.967" y="8.75" fill="#FFFFFF" width="1.055" height="1.055"/>
		<rect x="6.967" y="10.332" fill="#FFFFFF" width="1.055" height="1.055"/>
		<rect x="8.646" y="8.75" fill="#FFFFFF" width="1.056" height="1.055"/>
		<rect x="8.646" y="10.332" fill="#FFFFFF" width="1.056" height="1.055"/>
		<rect x="10.327" y="8.75" fill="#FFFFFF" width="1.055" height="1.055"/>
		<rect x="3.627" y="10.332" fill="#FFFFFF" width="1.055" height="1.055"/>
		<rect x="5.288" y="10.332" fill="#FFFFFF" width="1.055" height="1.055"/>
		<path fill="#FFFFFF" d="M12.143,2.697H2.867c-0.337,0-0.612,0.275-0.612,0.612v0.336v0.336v0.612h0.612h0.174h8.927h0.175h0.611
			V3.982V3.646V3.309C12.754,2.972,12.479,2.697,12.143,2.697z M5.825,4.249c-0.29,0-0.525-0.234-0.525-0.524
			c0-0.028,0.012-0.052,0.016-0.079C5.356,3.395,5.564,3.2,5.825,3.2c0.261,0,0.469,0.195,0.508,0.445
			C6.338,3.672,6.35,3.697,6.35,3.725C6.35,4.015,6.114,4.249,5.825,4.249z M9.184,4.249c-0.289,0-0.523-0.234-0.523-0.524
			c0-0.028,0.012-0.052,0.016-0.079C8.715,3.395,8.923,3.2,9.184,3.2c0.262,0,0.469,0.195,0.51,0.445
			c0.004,0.027,0.016,0.051,0.016,0.079C9.709,4.015,9.475,4.249,9.184,4.249z"/>
		<polygon fill="#FFFFFF" points="12.118,12.175 2.891,12.175 2.891,5.066 2.254,5.066 2.254,12.812 12.754,12.812 12.754,5.066 
			12.118,5.066 		"/>
	</g>
</g>
<path fill="#58595B" d="M584.058,729.361h22.05c1.737,0,3.147,1.41,3.147,3.148v22.07c0,1.738-1.41,3.146-3.147,3.146h-22.05
	c-1.739,0-3.149-1.408-3.149-3.146v-22.07C580.907,730.771,582.317,729.361,584.058,729.361z"/>
<g>
	<rect x="597.249" y="739.917" fill="#FFFFFF" width="1.993" height="1.994"/>
	<rect x="594.074" y="739.917" fill="#FFFFFF" width="1.993" height="1.994"/>
	<rect x="600.423" y="739.917" fill="#FFFFFF" width="1.993" height="1.994"/>
	<rect x="587.762" y="742.906" fill="#FFFFFF" width="1.993" height="1.994"/>
	<rect x="590.9" y="742.906" fill="#FFFFFF" width="1.992" height="1.994"/>
	<rect x="594.074" y="742.906" fill="#FFFFFF" width="1.993" height="1.994"/>
	<rect x="597.249" y="742.906" fill="#FFFFFF" width="1.993" height="1.994"/>
	<rect x="600.423" y="742.906" fill="#FFFFFF" width="1.993" height="1.994"/>
	<rect x="587.762" y="745.896" fill="#FFFFFF" width="1.993" height="1.992"/>
	<rect x="590.9" y="745.896" fill="#FFFFFF" width="1.992" height="1.992"/>
	<rect x="594.074" y="745.896" fill="#FFFFFF" width="1.993" height="1.992"/>
	<rect x="594.074" y="748.884" fill="#FFFFFF" width="1.993" height="1.994"/>
	<rect x="597.249" y="745.896" fill="#FFFFFF" width="1.993" height="1.992"/>
	<rect x="597.249" y="748.884" fill="#FFFFFF" width="1.993" height="1.994"/>
	<rect x="600.423" y="745.896" fill="#FFFFFF" width="1.993" height="1.992"/>
	<rect x="587.762" y="748.884" fill="#FFFFFF" width="1.993" height="1.994"/>
	<rect x="590.9" y="748.884" fill="#FFFFFF" width="1.992" height="1.994"/>
	<path fill="#FFFFFF" d="M603.854,734.457h-17.527c-0.637,0-1.157,0.521-1.157,1.158v0.637v0.635v1.158h1.157h0.329h16.87h0.328
		h1.157v-1.158v-0.635v-0.637C605.011,734.978,604.49,734.457,603.854,734.457z M591.916,737.39c-0.547,0-0.992-0.441-0.992-0.988
		c0-0.055,0.022-0.1,0.03-0.15c0.075-0.473,0.468-0.84,0.962-0.84c0.493,0,0.886,0.367,0.961,0.84c0.008,0.051,0.03,0.098,0.03,0.15
		C592.907,736.949,592.462,737.39,591.916,737.39z M598.264,737.39c-0.546,0-0.99-0.441-0.99-0.988c0-0.055,0.021-0.1,0.029-0.15
		c0.075-0.473,0.469-0.84,0.961-0.84c0.494,0,0.888,0.367,0.962,0.84c0.009,0.051,0.03,0.098,0.03,0.15
		C599.256,736.949,598.811,737.39,598.264,737.39z"/>
	<polygon fill="#FFFFFF" points="603.808,752.371 586.371,752.371 586.371,738.937 585.168,738.937 585.168,753.574 
		605.011,753.574 605.011,738.937 603.808,738.937 	"/>
</g>
</svg>
